%TF.GenerationSoftware,KiCad,Pcbnew,7.0.7*%
%TF.CreationDate,2023-09-28T18:20:59+01:00*%
%TF.ProjectId,pipcb,70697063-622e-46b6-9963-61645f706362,rev?*%
%TF.SameCoordinates,Original*%
%TF.FileFunction,Soldermask,Top*%
%TF.FilePolarity,Negative*%
%FSLAX46Y46*%
G04 Gerber Fmt 4.6, Leading zero omitted, Abs format (unit mm)*
G04 Created by KiCad (PCBNEW 7.0.7) date 2023-09-28 18:20:59*
%MOMM*%
%LPD*%
G01*
G04 APERTURE LIST*
G04 Aperture macros list*
%AMRoundRect*
0 Rectangle with rounded corners*
0 $1 Rounding radius*
0 $2 $3 $4 $5 $6 $7 $8 $9 X,Y pos of 4 corners*
0 Add a 4 corners polygon primitive as box body*
4,1,4,$2,$3,$4,$5,$6,$7,$8,$9,$2,$3,0*
0 Add four circle primitives for the rounded corners*
1,1,$1+$1,$2,$3*
1,1,$1+$1,$4,$5*
1,1,$1+$1,$6,$7*
1,1,$1+$1,$8,$9*
0 Add four rect primitives between the rounded corners*
20,1,$1+$1,$2,$3,$4,$5,0*
20,1,$1+$1,$4,$5,$6,$7,0*
20,1,$1+$1,$6,$7,$8,$9,0*
20,1,$1+$1,$8,$9,$2,$3,0*%
G04 Aperture macros list end*
%ADD10C,0.080000*%
%ADD11C,0.060000*%
%ADD12RoundRect,0.300000X-0.450000X0.262500X-0.450000X-0.262500X0.450000X-0.262500X0.450000X0.262500X0*%
%ADD13RoundRect,0.050000X1.300000X1.300000X-1.300000X1.300000X-1.300000X-1.300000X1.300000X-1.300000X0*%
%ADD14C,2.700000*%
%ADD15R,2.600000X3.100000*%
%ADD16RoundRect,0.050000X0.775000X0.300000X-0.775000X0.300000X-0.775000X-0.300000X0.775000X-0.300000X0*%
%ADD17RoundRect,0.300000X0.262500X0.450000X-0.262500X0.450000X-0.262500X-0.450000X0.262500X-0.450000X0*%
%ADD18RoundRect,0.300000X-0.650000X0.325000X-0.650000X-0.325000X0.650000X-0.325000X0.650000X0.325000X0*%
%ADD19RoundRect,0.300000X-0.262500X-0.450000X0.262500X-0.450000X0.262500X0.450000X-0.262500X0.450000X0*%
%ADD20RoundRect,0.300000X-0.475000X0.250000X-0.475000X-0.250000X0.475000X-0.250000X0.475000X0.250000X0*%
%ADD21RoundRect,0.300000X-1.000000X1.750000X-1.000000X-1.750000X1.000000X-1.750000X1.000000X1.750000X0*%
%ADD22RoundRect,0.293750X-0.456250X0.243750X-0.456250X-0.243750X0.456250X-0.243750X0.456250X0.243750X0*%
%ADD23RoundRect,0.300000X-0.650000X1.000000X-0.650000X-1.000000X0.650000X-1.000000X0.650000X1.000000X0*%
%ADD24RoundRect,0.200000X0.150000X-0.512500X0.150000X0.512500X-0.150000X0.512500X-0.150000X-0.512500X0*%
%ADD25RoundRect,0.293750X0.456250X-0.243750X0.456250X0.243750X-0.456250X0.243750X-0.456250X-0.243750X0*%
%ADD26C,1.540000*%
%ADD27RoundRect,0.050000X0.325000X0.200000X-0.325000X0.200000X-0.325000X-0.200000X0.325000X-0.200000X0*%
%ADD28RoundRect,0.293750X-0.243750X-0.456250X0.243750X-0.456250X0.243750X0.456250X-0.243750X0.456250X0*%
%ADD29RoundRect,0.275000X-0.225000X-0.250000X0.225000X-0.250000X0.225000X0.250000X-0.225000X0.250000X0*%
%ADD30RoundRect,0.275000X-0.250000X0.225000X-0.250000X-0.225000X0.250000X-0.225000X0.250000X0.225000X0*%
%ADD31RoundRect,0.300000X0.650000X-0.325000X0.650000X0.325000X-0.650000X0.325000X-0.650000X-0.325000X0*%
%ADD32C,4.400000*%
%ADD33RoundRect,0.300000X0.450000X-0.262500X0.450000X0.262500X-0.450000X0.262500X-0.450000X-0.262500X0*%
%ADD34RoundRect,0.300000X1.000000X-1.750000X1.000000X1.750000X-1.000000X1.750000X-1.000000X-1.750000X0*%
%ADD35RoundRect,0.300000X0.475000X-0.250000X0.475000X0.250000X-0.475000X0.250000X-0.475000X-0.250000X0*%
%ADD36RoundRect,0.300000X-0.250000X-0.475000X0.250000X-0.475000X0.250000X0.475000X-0.250000X0.475000X0*%
%ADD37RoundRect,0.300000X0.250000X0.475000X-0.250000X0.475000X-0.250000X-0.475000X0.250000X-0.475000X0*%
%ADD38RoundRect,0.050000X0.850000X0.850000X-0.850000X0.850000X-0.850000X-0.850000X0.850000X-0.850000X0*%
%ADD39O,1.800000X1.800000*%
%ADD40RoundRect,0.050000X-1.175000X-1.750000X1.175000X-1.750000X1.175000X1.750000X-1.175000X1.750000X0*%
%ADD41RoundRect,0.300000X-0.325000X-0.650000X0.325000X-0.650000X0.325000X0.650000X-0.325000X0.650000X0*%
%ADD42RoundRect,0.275000X0.250000X-0.225000X0.250000X0.225000X-0.250000X0.225000X-0.250000X-0.225000X0*%
%ADD43RoundRect,0.275000X0.225000X0.250000X-0.225000X0.250000X-0.225000X-0.250000X0.225000X-0.250000X0*%
%ADD44RoundRect,0.050000X1.300000X-1.300000X1.300000X1.300000X-1.300000X1.300000X-1.300000X-1.300000X0*%
%ADD45RoundRect,0.050000X-1.300000X1.300000X-1.300000X-1.300000X1.300000X-1.300000X1.300000X1.300000X0*%
%ADD46RoundRect,0.293750X0.243750X0.456250X-0.243750X0.456250X-0.243750X-0.456250X0.243750X-0.456250X0*%
%ADD47RoundRect,0.050000X1.175000X1.750000X-1.175000X1.750000X-1.175000X-1.750000X1.175000X-1.750000X0*%
%ADD48RoundRect,0.300000X-1.425000X0.362500X-1.425000X-0.362500X1.425000X-0.362500X1.425000X0.362500X0*%
%ADD49RoundRect,0.050000X-2.500000X1.650000X-2.500000X-1.650000X2.500000X-1.650000X2.500000X1.650000X0*%
%ADD50RoundRect,0.050000X-0.325000X-0.200000X0.325000X-0.200000X0.325000X0.200000X-0.325000X0.200000X0*%
%ADD51RoundRect,0.300000X2.050000X0.300000X-2.050000X0.300000X-2.050000X-0.300000X2.050000X-0.300000X0*%
%ADD52RoundRect,0.300002X4.449998X5.149998X-4.449998X5.149998X-4.449998X-5.149998X4.449998X-5.149998X0*%
%ADD53RoundRect,0.050000X-0.775000X-0.300000X0.775000X-0.300000X0.775000X0.300000X-0.775000X0.300000X0*%
%ADD54RoundRect,0.200000X0.825000X0.150000X-0.825000X0.150000X-0.825000X-0.150000X0.825000X-0.150000X0*%
%ADD55RoundRect,0.050000X-0.850000X-0.850000X0.850000X-0.850000X0.850000X0.850000X-0.850000X0.850000X0*%
%ADD56RoundRect,0.300000X1.425000X-0.362500X1.425000X0.362500X-1.425000X0.362500X-1.425000X-0.362500X0*%
%ADD57RoundRect,0.300000X0.650000X-1.000000X0.650000X1.000000X-0.650000X1.000000X-0.650000X-1.000000X0*%
%ADD58RoundRect,0.200000X-0.512500X-0.150000X0.512500X-0.150000X0.512500X0.150000X-0.512500X0.150000X0*%
%ADD59R,3.100000X3.000000*%
%ADD60RoundRect,0.150000X0.100000X-0.687500X0.100000X0.687500X-0.100000X0.687500X-0.100000X-0.687500X0*%
%ADD61RoundRect,0.050000X-1.300000X-1.300000X1.300000X-1.300000X1.300000X1.300000X-1.300000X1.300000X0*%
%ADD62RoundRect,0.190000X0.170000X-0.140000X0.170000X0.140000X-0.170000X0.140000X-0.170000X-0.140000X0*%
%ADD63RoundRect,0.300000X0.362500X1.425000X-0.362500X1.425000X-0.362500X-1.425000X0.362500X-1.425000X0*%
%ADD64RoundRect,0.268750X0.218750X0.256250X-0.218750X0.256250X-0.218750X-0.256250X0.218750X-0.256250X0*%
%ADD65RoundRect,0.190000X-0.170000X0.140000X-0.170000X-0.140000X0.170000X-0.140000X0.170000X0.140000X0*%
%ADD66RoundRect,1.050000X-1.000000X-3.000000X1.000000X-3.000000X1.000000X3.000000X-1.000000X3.000000X0*%
%ADD67RoundRect,0.050000X0.800000X-0.800000X0.800000X0.800000X-0.800000X0.800000X-0.800000X-0.800000X0*%
%ADD68O,1.700000X1.700000*%
G04 APERTURE END LIST*
D10*
X12267149Y-81607142D02*
X11767149Y-81607142D01*
X11767149Y-81607142D02*
X11767149Y-81488094D01*
X11767149Y-81488094D02*
X11790959Y-81416666D01*
X11790959Y-81416666D02*
X11838578Y-81369047D01*
X11838578Y-81369047D02*
X11886197Y-81345237D01*
X11886197Y-81345237D02*
X11981435Y-81321428D01*
X11981435Y-81321428D02*
X12052863Y-81321428D01*
X12052863Y-81321428D02*
X12148101Y-81345237D01*
X12148101Y-81345237D02*
X12195720Y-81369047D01*
X12195720Y-81369047D02*
X12243340Y-81416666D01*
X12243340Y-81416666D02*
X12267149Y-81488094D01*
X12267149Y-81488094D02*
X12267149Y-81607142D01*
X12267149Y-80845237D02*
X12267149Y-81130951D01*
X12267149Y-80988094D02*
X11767149Y-80988094D01*
X11767149Y-80988094D02*
X11838578Y-81035713D01*
X11838578Y-81035713D02*
X11886197Y-81083332D01*
X11886197Y-81083332D02*
X11910006Y-81130951D01*
X12267149Y-80369047D02*
X12267149Y-80654761D01*
X12267149Y-80511904D02*
X11767149Y-80511904D01*
X11767149Y-80511904D02*
X11838578Y-80559523D01*
X11838578Y-80559523D02*
X11886197Y-80607142D01*
X11886197Y-80607142D02*
X11910006Y-80654761D01*
X98267149Y-47857142D02*
X97767149Y-47857142D01*
X97767149Y-47857142D02*
X97767149Y-47738094D01*
X97767149Y-47738094D02*
X97790959Y-47666666D01*
X97790959Y-47666666D02*
X97838578Y-47619047D01*
X97838578Y-47619047D02*
X97886197Y-47595237D01*
X97886197Y-47595237D02*
X97981435Y-47571428D01*
X97981435Y-47571428D02*
X98052863Y-47571428D01*
X98052863Y-47571428D02*
X98148101Y-47595237D01*
X98148101Y-47595237D02*
X98195720Y-47619047D01*
X98195720Y-47619047D02*
X98243340Y-47666666D01*
X98243340Y-47666666D02*
X98267149Y-47738094D01*
X98267149Y-47738094D02*
X98267149Y-47857142D01*
X98267149Y-47095237D02*
X98267149Y-47380951D01*
X98267149Y-47238094D02*
X97767149Y-47238094D01*
X97767149Y-47238094D02*
X97838578Y-47285713D01*
X97838578Y-47285713D02*
X97886197Y-47333332D01*
X97886197Y-47333332D02*
X97910006Y-47380951D01*
X97767149Y-46928571D02*
X97767149Y-46619047D01*
X97767149Y-46619047D02*
X97957625Y-46785714D01*
X97957625Y-46785714D02*
X97957625Y-46714285D01*
X97957625Y-46714285D02*
X97981435Y-46666666D01*
X97981435Y-46666666D02*
X98005244Y-46642857D01*
X98005244Y-46642857D02*
X98052863Y-46619047D01*
X98052863Y-46619047D02*
X98171911Y-46619047D01*
X98171911Y-46619047D02*
X98219530Y-46642857D01*
X98219530Y-46642857D02*
X98243340Y-46666666D01*
X98243340Y-46666666D02*
X98267149Y-46714285D01*
X98267149Y-46714285D02*
X98267149Y-46857142D01*
X98267149Y-46857142D02*
X98243340Y-46904761D01*
X98243340Y-46904761D02*
X98219530Y-46928571D01*
X10267149Y-44181547D02*
X9767149Y-44181547D01*
X9767149Y-44181547D02*
X9767149Y-44062499D01*
X9767149Y-44062499D02*
X9790959Y-43991071D01*
X9790959Y-43991071D02*
X9838578Y-43943452D01*
X9838578Y-43943452D02*
X9886197Y-43919642D01*
X9886197Y-43919642D02*
X9981435Y-43895833D01*
X9981435Y-43895833D02*
X10052863Y-43895833D01*
X10052863Y-43895833D02*
X10148101Y-43919642D01*
X10148101Y-43919642D02*
X10195720Y-43943452D01*
X10195720Y-43943452D02*
X10243340Y-43991071D01*
X10243340Y-43991071D02*
X10267149Y-44062499D01*
X10267149Y-44062499D02*
X10267149Y-44181547D01*
X9981435Y-43610118D02*
X9957625Y-43657737D01*
X9957625Y-43657737D02*
X9933816Y-43681547D01*
X9933816Y-43681547D02*
X9886197Y-43705356D01*
X9886197Y-43705356D02*
X9862387Y-43705356D01*
X9862387Y-43705356D02*
X9814768Y-43681547D01*
X9814768Y-43681547D02*
X9790959Y-43657737D01*
X9790959Y-43657737D02*
X9767149Y-43610118D01*
X9767149Y-43610118D02*
X9767149Y-43514880D01*
X9767149Y-43514880D02*
X9790959Y-43467261D01*
X9790959Y-43467261D02*
X9814768Y-43443452D01*
X9814768Y-43443452D02*
X9862387Y-43419642D01*
X9862387Y-43419642D02*
X9886197Y-43419642D01*
X9886197Y-43419642D02*
X9933816Y-43443452D01*
X9933816Y-43443452D02*
X9957625Y-43467261D01*
X9957625Y-43467261D02*
X9981435Y-43514880D01*
X9981435Y-43514880D02*
X9981435Y-43610118D01*
X9981435Y-43610118D02*
X10005244Y-43657737D01*
X10005244Y-43657737D02*
X10029054Y-43681547D01*
X10029054Y-43681547D02*
X10076673Y-43705356D01*
X10076673Y-43705356D02*
X10171911Y-43705356D01*
X10171911Y-43705356D02*
X10219530Y-43681547D01*
X10219530Y-43681547D02*
X10243340Y-43657737D01*
X10243340Y-43657737D02*
X10267149Y-43610118D01*
X10267149Y-43610118D02*
X10267149Y-43514880D01*
X10267149Y-43514880D02*
X10243340Y-43467261D01*
X10243340Y-43467261D02*
X10219530Y-43443452D01*
X10219530Y-43443452D02*
X10171911Y-43419642D01*
X10171911Y-43419642D02*
X10076673Y-43419642D01*
X10076673Y-43419642D02*
X10029054Y-43443452D01*
X10029054Y-43443452D02*
X10005244Y-43467261D01*
X10005244Y-43467261D02*
X9981435Y-43514880D01*
X100267149Y-82857142D02*
X99767149Y-82857142D01*
X99767149Y-82857142D02*
X99767149Y-82738094D01*
X99767149Y-82738094D02*
X99790959Y-82666666D01*
X99790959Y-82666666D02*
X99838578Y-82619047D01*
X99838578Y-82619047D02*
X99886197Y-82595237D01*
X99886197Y-82595237D02*
X99981435Y-82571428D01*
X99981435Y-82571428D02*
X100052863Y-82571428D01*
X100052863Y-82571428D02*
X100148101Y-82595237D01*
X100148101Y-82595237D02*
X100195720Y-82619047D01*
X100195720Y-82619047D02*
X100243340Y-82666666D01*
X100243340Y-82666666D02*
X100267149Y-82738094D01*
X100267149Y-82738094D02*
X100267149Y-82857142D01*
X100267149Y-82095237D02*
X100267149Y-82380951D01*
X100267149Y-82238094D02*
X99767149Y-82238094D01*
X99767149Y-82238094D02*
X99838578Y-82285713D01*
X99838578Y-82285713D02*
X99886197Y-82333332D01*
X99886197Y-82333332D02*
X99910006Y-82380951D01*
X99981435Y-81809523D02*
X99957625Y-81857142D01*
X99957625Y-81857142D02*
X99933816Y-81880952D01*
X99933816Y-81880952D02*
X99886197Y-81904761D01*
X99886197Y-81904761D02*
X99862387Y-81904761D01*
X99862387Y-81904761D02*
X99814768Y-81880952D01*
X99814768Y-81880952D02*
X99790959Y-81857142D01*
X99790959Y-81857142D02*
X99767149Y-81809523D01*
X99767149Y-81809523D02*
X99767149Y-81714285D01*
X99767149Y-81714285D02*
X99790959Y-81666666D01*
X99790959Y-81666666D02*
X99814768Y-81642857D01*
X99814768Y-81642857D02*
X99862387Y-81619047D01*
X99862387Y-81619047D02*
X99886197Y-81619047D01*
X99886197Y-81619047D02*
X99933816Y-81642857D01*
X99933816Y-81642857D02*
X99957625Y-81666666D01*
X99957625Y-81666666D02*
X99981435Y-81714285D01*
X99981435Y-81714285D02*
X99981435Y-81809523D01*
X99981435Y-81809523D02*
X100005244Y-81857142D01*
X100005244Y-81857142D02*
X100029054Y-81880952D01*
X100029054Y-81880952D02*
X100076673Y-81904761D01*
X100076673Y-81904761D02*
X100171911Y-81904761D01*
X100171911Y-81904761D02*
X100219530Y-81880952D01*
X100219530Y-81880952D02*
X100243340Y-81857142D01*
X100243340Y-81857142D02*
X100267149Y-81809523D01*
X100267149Y-81809523D02*
X100267149Y-81714285D01*
X100267149Y-81714285D02*
X100243340Y-81666666D01*
X100243340Y-81666666D02*
X100219530Y-81642857D01*
X100219530Y-81642857D02*
X100171911Y-81619047D01*
X100171911Y-81619047D02*
X100076673Y-81619047D01*
X100076673Y-81619047D02*
X100029054Y-81642857D01*
X100029054Y-81642857D02*
X100005244Y-81666666D01*
X100005244Y-81666666D02*
X99981435Y-81714285D01*
X100267149Y-12857142D02*
X99767149Y-12857142D01*
X99767149Y-12857142D02*
X99767149Y-12738094D01*
X99767149Y-12738094D02*
X99790959Y-12666666D01*
X99790959Y-12666666D02*
X99838578Y-12619047D01*
X99838578Y-12619047D02*
X99886197Y-12595237D01*
X99886197Y-12595237D02*
X99981435Y-12571428D01*
X99981435Y-12571428D02*
X100052863Y-12571428D01*
X100052863Y-12571428D02*
X100148101Y-12595237D01*
X100148101Y-12595237D02*
X100195720Y-12619047D01*
X100195720Y-12619047D02*
X100243340Y-12666666D01*
X100243340Y-12666666D02*
X100267149Y-12738094D01*
X100267149Y-12738094D02*
X100267149Y-12857142D01*
X100267149Y-12095237D02*
X100267149Y-12380951D01*
X100267149Y-12238094D02*
X99767149Y-12238094D01*
X99767149Y-12238094D02*
X99838578Y-12285713D01*
X99838578Y-12285713D02*
X99886197Y-12333332D01*
X99886197Y-12333332D02*
X99910006Y-12380951D01*
X99767149Y-11785714D02*
X99767149Y-11738095D01*
X99767149Y-11738095D02*
X99790959Y-11690476D01*
X99790959Y-11690476D02*
X99814768Y-11666666D01*
X99814768Y-11666666D02*
X99862387Y-11642857D01*
X99862387Y-11642857D02*
X99957625Y-11619047D01*
X99957625Y-11619047D02*
X100076673Y-11619047D01*
X100076673Y-11619047D02*
X100171911Y-11642857D01*
X100171911Y-11642857D02*
X100219530Y-11666666D01*
X100219530Y-11666666D02*
X100243340Y-11690476D01*
X100243340Y-11690476D02*
X100267149Y-11738095D01*
X100267149Y-11738095D02*
X100267149Y-11785714D01*
X100267149Y-11785714D02*
X100243340Y-11833333D01*
X100243340Y-11833333D02*
X100219530Y-11857142D01*
X100219530Y-11857142D02*
X100171911Y-11880952D01*
X100171911Y-11880952D02*
X100076673Y-11904761D01*
X100076673Y-11904761D02*
X99957625Y-11904761D01*
X99957625Y-11904761D02*
X99862387Y-11880952D01*
X99862387Y-11880952D02*
X99814768Y-11857142D01*
X99814768Y-11857142D02*
X99790959Y-11833333D01*
X99790959Y-11833333D02*
X99767149Y-11785714D01*
X12267149Y-114419642D02*
X11767149Y-114419642D01*
X11767149Y-114419642D02*
X11767149Y-114300594D01*
X11767149Y-114300594D02*
X11790959Y-114229166D01*
X11790959Y-114229166D02*
X11838578Y-114181547D01*
X11838578Y-114181547D02*
X11886197Y-114157737D01*
X11886197Y-114157737D02*
X11981435Y-114133928D01*
X11981435Y-114133928D02*
X12052863Y-114133928D01*
X12052863Y-114133928D02*
X12148101Y-114157737D01*
X12148101Y-114157737D02*
X12195720Y-114181547D01*
X12195720Y-114181547D02*
X12243340Y-114229166D01*
X12243340Y-114229166D02*
X12267149Y-114300594D01*
X12267149Y-114300594D02*
X12267149Y-114419642D01*
X12267149Y-113657737D02*
X12267149Y-113943451D01*
X12267149Y-113800594D02*
X11767149Y-113800594D01*
X11767149Y-113800594D02*
X11838578Y-113848213D01*
X11838578Y-113848213D02*
X11886197Y-113895832D01*
X11886197Y-113895832D02*
X11910006Y-113943451D01*
X11767149Y-113205357D02*
X11767149Y-113443452D01*
X11767149Y-113443452D02*
X12005244Y-113467261D01*
X12005244Y-113467261D02*
X11981435Y-113443452D01*
X11981435Y-113443452D02*
X11957625Y-113395833D01*
X11957625Y-113395833D02*
X11957625Y-113276785D01*
X11957625Y-113276785D02*
X11981435Y-113229166D01*
X11981435Y-113229166D02*
X12005244Y-113205357D01*
X12005244Y-113205357D02*
X12052863Y-113181547D01*
X12052863Y-113181547D02*
X12171911Y-113181547D01*
X12171911Y-113181547D02*
X12219530Y-113205357D01*
X12219530Y-113205357D02*
X12243340Y-113229166D01*
X12243340Y-113229166D02*
X12267149Y-113276785D01*
X12267149Y-113276785D02*
X12267149Y-113395833D01*
X12267149Y-113395833D02*
X12243340Y-113443452D01*
X12243340Y-113443452D02*
X12219530Y-113467261D01*
X10267149Y-81607142D02*
X9767149Y-81607142D01*
X9767149Y-81607142D02*
X9767149Y-81488094D01*
X9767149Y-81488094D02*
X9790959Y-81416666D01*
X9790959Y-81416666D02*
X9838578Y-81369047D01*
X9838578Y-81369047D02*
X9886197Y-81345237D01*
X9886197Y-81345237D02*
X9981435Y-81321428D01*
X9981435Y-81321428D02*
X10052863Y-81321428D01*
X10052863Y-81321428D02*
X10148101Y-81345237D01*
X10148101Y-81345237D02*
X10195720Y-81369047D01*
X10195720Y-81369047D02*
X10243340Y-81416666D01*
X10243340Y-81416666D02*
X10267149Y-81488094D01*
X10267149Y-81488094D02*
X10267149Y-81607142D01*
X10267149Y-80845237D02*
X10267149Y-81130951D01*
X10267149Y-80988094D02*
X9767149Y-80988094D01*
X9767149Y-80988094D02*
X9838578Y-81035713D01*
X9838578Y-81035713D02*
X9886197Y-81083332D01*
X9886197Y-81083332D02*
X9910006Y-81130951D01*
X9814768Y-80654761D02*
X9790959Y-80630952D01*
X9790959Y-80630952D02*
X9767149Y-80583333D01*
X9767149Y-80583333D02*
X9767149Y-80464285D01*
X9767149Y-80464285D02*
X9790959Y-80416666D01*
X9790959Y-80416666D02*
X9814768Y-80392857D01*
X9814768Y-80392857D02*
X9862387Y-80369047D01*
X9862387Y-80369047D02*
X9910006Y-80369047D01*
X9910006Y-80369047D02*
X9981435Y-80392857D01*
X9981435Y-80392857D02*
X10267149Y-80678571D01*
X10267149Y-80678571D02*
X10267149Y-80369047D01*
X100043452Y-2393815D02*
X100043452Y-1893815D01*
X100043452Y-1893815D02*
X100162500Y-1893815D01*
X100162500Y-1893815D02*
X100233928Y-1917625D01*
X100233928Y-1917625D02*
X100281547Y-1965244D01*
X100281547Y-1965244D02*
X100305357Y-2012863D01*
X100305357Y-2012863D02*
X100329166Y-2108101D01*
X100329166Y-2108101D02*
X100329166Y-2179529D01*
X100329166Y-2179529D02*
X100305357Y-2274767D01*
X100305357Y-2274767D02*
X100281547Y-2322386D01*
X100281547Y-2322386D02*
X100233928Y-2370006D01*
X100233928Y-2370006D02*
X100162500Y-2393815D01*
X100162500Y-2393815D02*
X100043452Y-2393815D01*
X100519643Y-1941434D02*
X100543452Y-1917625D01*
X100543452Y-1917625D02*
X100591071Y-1893815D01*
X100591071Y-1893815D02*
X100710119Y-1893815D01*
X100710119Y-1893815D02*
X100757738Y-1917625D01*
X100757738Y-1917625D02*
X100781547Y-1941434D01*
X100781547Y-1941434D02*
X100805357Y-1989053D01*
X100805357Y-1989053D02*
X100805357Y-2036672D01*
X100805357Y-2036672D02*
X100781547Y-2108101D01*
X100781547Y-2108101D02*
X100495833Y-2393815D01*
X100495833Y-2393815D02*
X100805357Y-2393815D01*
X100267149Y-47857142D02*
X99767149Y-47857142D01*
X99767149Y-47857142D02*
X99767149Y-47738094D01*
X99767149Y-47738094D02*
X99790959Y-47666666D01*
X99790959Y-47666666D02*
X99838578Y-47619047D01*
X99838578Y-47619047D02*
X99886197Y-47595237D01*
X99886197Y-47595237D02*
X99981435Y-47571428D01*
X99981435Y-47571428D02*
X100052863Y-47571428D01*
X100052863Y-47571428D02*
X100148101Y-47595237D01*
X100148101Y-47595237D02*
X100195720Y-47619047D01*
X100195720Y-47619047D02*
X100243340Y-47666666D01*
X100243340Y-47666666D02*
X100267149Y-47738094D01*
X100267149Y-47738094D02*
X100267149Y-47857142D01*
X100267149Y-47095237D02*
X100267149Y-47380951D01*
X100267149Y-47238094D02*
X99767149Y-47238094D01*
X99767149Y-47238094D02*
X99838578Y-47285713D01*
X99838578Y-47285713D02*
X99886197Y-47333332D01*
X99886197Y-47333332D02*
X99910006Y-47380951D01*
X99933816Y-46666666D02*
X100267149Y-46666666D01*
X99743340Y-46785714D02*
X100100482Y-46904761D01*
X100100482Y-46904761D02*
X100100482Y-46595238D01*
X98267149Y-12619047D02*
X97767149Y-12619047D01*
X97767149Y-12619047D02*
X97767149Y-12499999D01*
X97767149Y-12499999D02*
X97790959Y-12428571D01*
X97790959Y-12428571D02*
X97838578Y-12380952D01*
X97838578Y-12380952D02*
X97886197Y-12357142D01*
X97886197Y-12357142D02*
X97981435Y-12333333D01*
X97981435Y-12333333D02*
X98052863Y-12333333D01*
X98052863Y-12333333D02*
X98148101Y-12357142D01*
X98148101Y-12357142D02*
X98195720Y-12380952D01*
X98195720Y-12380952D02*
X98243340Y-12428571D01*
X98243340Y-12428571D02*
X98267149Y-12499999D01*
X98267149Y-12499999D02*
X98267149Y-12619047D01*
X98267149Y-12095237D02*
X98267149Y-11999999D01*
X98267149Y-11999999D02*
X98243340Y-11952380D01*
X98243340Y-11952380D02*
X98219530Y-11928571D01*
X98219530Y-11928571D02*
X98148101Y-11880952D01*
X98148101Y-11880952D02*
X98052863Y-11857142D01*
X98052863Y-11857142D02*
X97862387Y-11857142D01*
X97862387Y-11857142D02*
X97814768Y-11880952D01*
X97814768Y-11880952D02*
X97790959Y-11904761D01*
X97790959Y-11904761D02*
X97767149Y-11952380D01*
X97767149Y-11952380D02*
X97767149Y-12047618D01*
X97767149Y-12047618D02*
X97790959Y-12095237D01*
X97790959Y-12095237D02*
X97814768Y-12119047D01*
X97814768Y-12119047D02*
X97862387Y-12142856D01*
X97862387Y-12142856D02*
X97981435Y-12142856D01*
X97981435Y-12142856D02*
X98029054Y-12119047D01*
X98029054Y-12119047D02*
X98052863Y-12095237D01*
X98052863Y-12095237D02*
X98076673Y-12047618D01*
X98076673Y-12047618D02*
X98076673Y-11952380D01*
X98076673Y-11952380D02*
X98052863Y-11904761D01*
X98052863Y-11904761D02*
X98029054Y-11880952D01*
X98029054Y-11880952D02*
X97981435Y-11857142D01*
X98267149Y-82857142D02*
X97767149Y-82857142D01*
X97767149Y-82857142D02*
X97767149Y-82738094D01*
X97767149Y-82738094D02*
X97790959Y-82666666D01*
X97790959Y-82666666D02*
X97838578Y-82619047D01*
X97838578Y-82619047D02*
X97886197Y-82595237D01*
X97886197Y-82595237D02*
X97981435Y-82571428D01*
X97981435Y-82571428D02*
X98052863Y-82571428D01*
X98052863Y-82571428D02*
X98148101Y-82595237D01*
X98148101Y-82595237D02*
X98195720Y-82619047D01*
X98195720Y-82619047D02*
X98243340Y-82666666D01*
X98243340Y-82666666D02*
X98267149Y-82738094D01*
X98267149Y-82738094D02*
X98267149Y-82857142D01*
X98267149Y-82095237D02*
X98267149Y-82380951D01*
X98267149Y-82238094D02*
X97767149Y-82238094D01*
X97767149Y-82238094D02*
X97838578Y-82285713D01*
X97838578Y-82285713D02*
X97886197Y-82333332D01*
X97886197Y-82333332D02*
X97910006Y-82380951D01*
X97767149Y-81928571D02*
X97767149Y-81595238D01*
X97767149Y-81595238D02*
X98267149Y-81809523D01*
X98267149Y-127369047D02*
X97767149Y-127369047D01*
X97767149Y-127369047D02*
X97767149Y-127249999D01*
X97767149Y-127249999D02*
X97790959Y-127178571D01*
X97790959Y-127178571D02*
X97838578Y-127130952D01*
X97838578Y-127130952D02*
X97886197Y-127107142D01*
X97886197Y-127107142D02*
X97981435Y-127083333D01*
X97981435Y-127083333D02*
X98052863Y-127083333D01*
X98052863Y-127083333D02*
X98148101Y-127107142D01*
X98148101Y-127107142D02*
X98195720Y-127130952D01*
X98195720Y-127130952D02*
X98243340Y-127178571D01*
X98243340Y-127178571D02*
X98267149Y-127249999D01*
X98267149Y-127249999D02*
X98267149Y-127369047D01*
X97767149Y-126916666D02*
X97767149Y-126607142D01*
X97767149Y-126607142D02*
X97957625Y-126773809D01*
X97957625Y-126773809D02*
X97957625Y-126702380D01*
X97957625Y-126702380D02*
X97981435Y-126654761D01*
X97981435Y-126654761D02*
X98005244Y-126630952D01*
X98005244Y-126630952D02*
X98052863Y-126607142D01*
X98052863Y-126607142D02*
X98171911Y-126607142D01*
X98171911Y-126607142D02*
X98219530Y-126630952D01*
X98219530Y-126630952D02*
X98243340Y-126654761D01*
X98243340Y-126654761D02*
X98267149Y-126702380D01*
X98267149Y-126702380D02*
X98267149Y-126845237D01*
X98267149Y-126845237D02*
X98243340Y-126892856D01*
X98243340Y-126892856D02*
X98219530Y-126916666D01*
X100043452Y1022850D02*
X100043452Y1522850D01*
X100043452Y1522850D02*
X100162500Y1522850D01*
X100162500Y1522850D02*
X100233928Y1499040D01*
X100233928Y1499040D02*
X100281547Y1451421D01*
X100281547Y1451421D02*
X100305357Y1403802D01*
X100305357Y1403802D02*
X100329166Y1308564D01*
X100329166Y1308564D02*
X100329166Y1237136D01*
X100329166Y1237136D02*
X100305357Y1141898D01*
X100305357Y1141898D02*
X100281547Y1094279D01*
X100281547Y1094279D02*
X100233928Y1046660D01*
X100233928Y1046660D02*
X100162500Y1022850D01*
X100162500Y1022850D02*
X100043452Y1022850D01*
X100805357Y1022850D02*
X100519643Y1022850D01*
X100662500Y1022850D02*
X100662500Y1522850D01*
X100662500Y1522850D02*
X100614881Y1451421D01*
X100614881Y1451421D02*
X100567262Y1403802D01*
X100567262Y1403802D02*
X100519643Y1379993D01*
D11*
X100117262Y-5765261D02*
X100117262Y-5365261D01*
X100117262Y-5365261D02*
X100212500Y-5365261D01*
X100212500Y-5365261D02*
X100269643Y-5384309D01*
X100269643Y-5384309D02*
X100307738Y-5422404D01*
X100307738Y-5422404D02*
X100326785Y-5460499D01*
X100326785Y-5460499D02*
X100345833Y-5536690D01*
X100345833Y-5536690D02*
X100345833Y-5593833D01*
X100345833Y-5593833D02*
X100326785Y-5670023D01*
X100326785Y-5670023D02*
X100307738Y-5708118D01*
X100307738Y-5708118D02*
X100269643Y-5746214D01*
X100269643Y-5746214D02*
X100212500Y-5765261D01*
X100212500Y-5765261D02*
X100117262Y-5765261D01*
X100688690Y-5498594D02*
X100688690Y-5765261D01*
X100593452Y-5346214D02*
X100498214Y-5631928D01*
X100498214Y-5631928D02*
X100745833Y-5631928D01*
D10*
X10267149Y-114419642D02*
X9767149Y-114419642D01*
X9767149Y-114419642D02*
X9767149Y-114300594D01*
X9767149Y-114300594D02*
X9790959Y-114229166D01*
X9790959Y-114229166D02*
X9838578Y-114181547D01*
X9838578Y-114181547D02*
X9886197Y-114157737D01*
X9886197Y-114157737D02*
X9981435Y-114133928D01*
X9981435Y-114133928D02*
X10052863Y-114133928D01*
X10052863Y-114133928D02*
X10148101Y-114157737D01*
X10148101Y-114157737D02*
X10195720Y-114181547D01*
X10195720Y-114181547D02*
X10243340Y-114229166D01*
X10243340Y-114229166D02*
X10267149Y-114300594D01*
X10267149Y-114300594D02*
X10267149Y-114419642D01*
X10267149Y-113657737D02*
X10267149Y-113943451D01*
X10267149Y-113800594D02*
X9767149Y-113800594D01*
X9767149Y-113800594D02*
X9838578Y-113848213D01*
X9838578Y-113848213D02*
X9886197Y-113895832D01*
X9886197Y-113895832D02*
X9910006Y-113943451D01*
X9767149Y-113229166D02*
X9767149Y-113324404D01*
X9767149Y-113324404D02*
X9790959Y-113372023D01*
X9790959Y-113372023D02*
X9814768Y-113395833D01*
X9814768Y-113395833D02*
X9886197Y-113443452D01*
X9886197Y-113443452D02*
X9981435Y-113467261D01*
X9981435Y-113467261D02*
X10171911Y-113467261D01*
X10171911Y-113467261D02*
X10219530Y-113443452D01*
X10219530Y-113443452D02*
X10243340Y-113419642D01*
X10243340Y-113419642D02*
X10267149Y-113372023D01*
X10267149Y-113372023D02*
X10267149Y-113276785D01*
X10267149Y-113276785D02*
X10243340Y-113229166D01*
X10243340Y-113229166D02*
X10219530Y-113205357D01*
X10219530Y-113205357D02*
X10171911Y-113181547D01*
X10171911Y-113181547D02*
X10052863Y-113181547D01*
X10052863Y-113181547D02*
X10005244Y-113205357D01*
X10005244Y-113205357D02*
X9981435Y-113229166D01*
X9981435Y-113229166D02*
X9957625Y-113276785D01*
X9957625Y-113276785D02*
X9957625Y-113372023D01*
X9957625Y-113372023D02*
X9981435Y-113419642D01*
X9981435Y-113419642D02*
X10005244Y-113443452D01*
X10005244Y-113443452D02*
X10052863Y-113467261D01*
X12267149Y-44181547D02*
X11767149Y-44181547D01*
X11767149Y-44181547D02*
X11767149Y-44062499D01*
X11767149Y-44062499D02*
X11790959Y-43991071D01*
X11790959Y-43991071D02*
X11838578Y-43943452D01*
X11838578Y-43943452D02*
X11886197Y-43919642D01*
X11886197Y-43919642D02*
X11981435Y-43895833D01*
X11981435Y-43895833D02*
X12052863Y-43895833D01*
X12052863Y-43895833D02*
X12148101Y-43919642D01*
X12148101Y-43919642D02*
X12195720Y-43943452D01*
X12195720Y-43943452D02*
X12243340Y-43991071D01*
X12243340Y-43991071D02*
X12267149Y-44062499D01*
X12267149Y-44062499D02*
X12267149Y-44181547D01*
X11767149Y-43729166D02*
X11767149Y-43395833D01*
X11767149Y-43395833D02*
X12267149Y-43610118D01*
D12*
%TO.C,R11*%
X68000000Y-5087500D03*
X68000000Y-6912500D03*
%TD*%
D13*
%TO.C,J15*%
X87540000Y39750000D03*
D14*
X82540000Y39750000D03*
X77540000Y39750000D03*
X72540000Y39750000D03*
X67540000Y39750000D03*
X62540000Y39750000D03*
%TD*%
D15*
%TO.C,U14*%
X78390000Y-57600000D03*
D16*
X81090000Y-59505000D03*
X81090000Y-58235000D03*
X81090000Y-56965000D03*
X81090000Y-55695000D03*
X75690000Y-55695000D03*
X75690000Y-56965000D03*
X75690000Y-58235000D03*
X75690000Y-59505000D03*
%TD*%
D17*
%TO.C,R44*%
X84365000Y-87750000D03*
X82540000Y-87750000D03*
%TD*%
D18*
%TO.C,C67*%
X47246250Y-61625000D03*
X47246250Y-64575000D03*
%TD*%
D19*
%TO.C,R77*%
X64427500Y-136352500D03*
X66252500Y-136352500D03*
%TD*%
D20*
%TO.C,C65*%
X62471250Y-67250000D03*
X62471250Y-69150000D03*
%TD*%
D21*
%TO.C,C45*%
X80890000Y-72125000D03*
X80890000Y-80125000D03*
%TD*%
D22*
%TO.C,D11*%
X12040000Y-80062500D03*
X12040000Y-81937500D03*
%TD*%
D23*
%TO.C,D6*%
X29265000Y-141250000D03*
X29265000Y-145250000D03*
%TD*%
D24*
%TO.C,U23*%
X63590000Y-115352500D03*
X64540000Y-115352500D03*
X65490000Y-115352500D03*
X65490000Y-113077500D03*
X63590000Y-113077500D03*
%TD*%
D25*
%TO.C,D13*%
X98040000Y-48187500D03*
X98040000Y-46312500D03*
%TD*%
D21*
%TO.C,C29*%
X80489999Y-35125000D03*
X80489999Y-43125000D03*
%TD*%
D25*
%TO.C,D8*%
X10040000Y-44750000D03*
X10040000Y-42875000D03*
%TD*%
D26*
%TO.C,RV5*%
X71960000Y-87750000D03*
X74500000Y-87750000D03*
X77040000Y-87750000D03*
%TD*%
D27*
%TO.C,U8*%
X87690000Y-54050000D03*
X87690000Y-53400000D03*
X87690000Y-52750000D03*
X85790000Y-52750000D03*
X85790000Y-54050000D03*
%TD*%
D28*
%TO.C,D21*%
X50102500Y-42000000D03*
X51977500Y-42000000D03*
%TD*%
D29*
%TO.C,C3*%
X28490000Y-119250000D03*
X30040000Y-119250000D03*
%TD*%
D12*
%TO.C,R14*%
X25765000Y-131250000D03*
X25765000Y-133075000D03*
%TD*%
D30*
%TO.C,C70*%
X62746250Y-70850000D03*
X62746250Y-72400000D03*
%TD*%
D31*
%TO.C,C63*%
X47596250Y-69950000D03*
X47596250Y-67000000D03*
%TD*%
D22*
%TO.C,D18*%
X100040000Y-81312500D03*
X100040000Y-83187500D03*
%TD*%
D32*
%TO.C,H7*%
X97040000Y27000000D03*
%TD*%
D18*
%TO.C,C75*%
X47190000Y-28875000D03*
X47190000Y-31825000D03*
%TD*%
D24*
%TO.C,U21*%
X55190000Y-115352500D03*
X56140000Y-115352500D03*
X57090000Y-115352500D03*
X57090000Y-113077500D03*
X55190000Y-113077500D03*
%TD*%
D18*
%TO.C,C39*%
X87540000Y-58300000D03*
X87540000Y-61250000D03*
%TD*%
D33*
%TO.C,R8*%
X57040000Y9675000D03*
X57040000Y11500000D03*
%TD*%
D22*
%TO.C,D10*%
X100040000Y-11312500D03*
X100040000Y-13187500D03*
%TD*%
D27*
%TO.C,U6*%
X86690000Y-17050000D03*
X86690000Y-16400000D03*
X86690000Y-15750000D03*
X84790000Y-15750000D03*
X84790000Y-17050000D03*
%TD*%
D34*
%TO.C,C37*%
X29150000Y-58125000D03*
X29150000Y-50125000D03*
%TD*%
D35*
%TO.C,C34*%
X22150000Y-61125000D03*
X22150000Y-59225000D03*
%TD*%
D20*
%TO.C,C40*%
X84540000Y-58300000D03*
X84540000Y-60200000D03*
%TD*%
D19*
%TO.C,R29*%
X61377500Y-74500000D03*
X63202500Y-74500000D03*
%TD*%
D36*
%TO.C,C10*%
X84740000Y-18900000D03*
X86640000Y-18900000D03*
%TD*%
D19*
%TO.C,R49*%
X85627500Y-13000000D03*
X87452500Y-13000000D03*
%TD*%
D37*
%TO.C,C11*%
X25040000Y-74100000D03*
X23140000Y-74100000D03*
%TD*%
D17*
%TO.C,R48*%
X19327500Y-43000000D03*
X17502500Y-43000000D03*
%TD*%
D20*
%TO.C,C33*%
X37375000Y-69250000D03*
X37375000Y-71150000D03*
%TD*%
D38*
%TO.C,JP5*%
X65540000Y-105550000D03*
D39*
X65540000Y-103010000D03*
%TD*%
D35*
%TO.C,C50*%
X22315000Y-97875000D03*
X22315000Y-95975000D03*
%TD*%
D40*
%TO.C,L6*%
X75505000Y-102100000D03*
X81555000Y-102100000D03*
%TD*%
D35*
%TO.C,C32*%
X25500000Y-71950000D03*
X25500000Y-70050000D03*
%TD*%
D41*
%TO.C,C83*%
X61140000Y-109750000D03*
X64090000Y-109750000D03*
%TD*%
D19*
%TO.C,R57*%
X84877500Y-85500000D03*
X86702500Y-85500000D03*
%TD*%
D42*
%TO.C,C46*%
X72390000Y-57400000D03*
X72390000Y-55850000D03*
%TD*%
D43*
%TO.C,C6*%
X26040000Y-148250000D03*
X24490000Y-148250000D03*
%TD*%
D44*
%TO.C,J13*%
X109790000Y8250000D03*
D14*
X109790000Y13250000D03*
X109790000Y18250000D03*
%TD*%
D37*
%TO.C,C9*%
X24840000Y-37100000D03*
X22940000Y-37100000D03*
%TD*%
D31*
%TO.C,C71*%
X47540000Y-37200000D03*
X47540000Y-34250000D03*
%TD*%
D45*
%TO.C,J14*%
X290000Y-118000000D03*
D14*
X290000Y-123000000D03*
X290000Y-128000000D03*
X290000Y-133000000D03*
X290000Y-138000000D03*
X290000Y-143000000D03*
%TD*%
D31*
%TO.C,C31*%
X22500000Y-71950000D03*
X22500000Y-69000000D03*
%TD*%
D17*
%TO.C,R54*%
X84252500Y-48400000D03*
X82427500Y-48400000D03*
%TD*%
D23*
%TO.C,D5*%
X29315000Y-122250000D03*
X29315000Y-126250000D03*
%TD*%
D22*
%TO.C,D15*%
X12040000Y-112875000D03*
X12040000Y-114750000D03*
%TD*%
D44*
%TO.C,J10*%
X109790000Y-23000000D03*
D14*
X109790000Y-18000000D03*
X109790000Y-13000000D03*
%TD*%
D17*
%TO.C,R19*%
X82440000Y-124425000D03*
X80615000Y-124425000D03*
%TD*%
D19*
%TO.C,R35*%
X28290000Y-79000000D03*
X30115000Y-79000000D03*
%TD*%
D31*
%TO.C,C47*%
X22665000Y-108700000D03*
X22665000Y-105750000D03*
%TD*%
D46*
%TO.C,D22*%
X51977500Y-44000000D03*
X50102500Y-44000000D03*
%TD*%
D18*
%TO.C,C23*%
X87140000Y-21300000D03*
X87140000Y-24250000D03*
%TD*%
D31*
%TO.C,C28*%
X84489999Y-29600000D03*
X84489999Y-26650000D03*
%TD*%
D36*
%TO.C,C14*%
X85540000Y-93150000D03*
X87440000Y-93150000D03*
%TD*%
D27*
%TO.C,U10*%
X87440000Y-91300000D03*
X87440000Y-90650000D03*
X87440000Y-90000000D03*
X85540000Y-90000000D03*
X85540000Y-91300000D03*
%TD*%
D20*
%TO.C,C17*%
X37375000Y-32250000D03*
X37375000Y-34150000D03*
%TD*%
D15*
%TO.C,U16*%
X78530000Y-94600000D03*
D16*
X81230000Y-96505000D03*
X81230000Y-95235000D03*
X81230000Y-93965000D03*
X81230000Y-92695000D03*
X75830000Y-92695000D03*
X75830000Y-93965000D03*
X75830000Y-95235000D03*
X75830000Y-96505000D03*
%TD*%
D24*
%TO.C,U20*%
X47640000Y-134127500D03*
X48590000Y-134127500D03*
X49540000Y-134127500D03*
X49540000Y-131852500D03*
X47640000Y-131852500D03*
%TD*%
D13*
%TO.C,J18*%
X27540000Y39750000D03*
D14*
X22540000Y39750000D03*
%TD*%
D47*
%TO.C,L1*%
X34675000Y-28150000D03*
X28625000Y-28150000D03*
%TD*%
D19*
%TO.C,R50*%
X89127500Y-13000000D03*
X90952500Y-13000000D03*
%TD*%
D30*
%TO.C,C78*%
X62690000Y-38100000D03*
X62690000Y-39650000D03*
%TD*%
D12*
%TO.C,R9*%
X65250000Y-5087500D03*
X65250000Y-6912500D03*
%TD*%
D20*
%TO.C,C58*%
X88030000Y-106125000D03*
X88030000Y-108025000D03*
%TD*%
D30*
%TO.C,C38*%
X37650000Y-72850000D03*
X37650000Y-74400000D03*
%TD*%
D17*
%TO.C,R18*%
X61790000Y1250000D03*
X59965000Y1250000D03*
%TD*%
D33*
%TO.C,R36*%
X21340000Y-77675000D03*
X21340000Y-75850000D03*
%TD*%
D19*
%TO.C,R51*%
X21740000Y-80400000D03*
X23565000Y-80400000D03*
%TD*%
D48*
%TO.C,R74*%
X61440000Y-93987500D03*
X61440000Y-99912500D03*
%TD*%
D20*
%TO.C,C49*%
X37540000Y-106000000D03*
X37540000Y-107900000D03*
%TD*%
D41*
%TO.C,C79*%
X44340000Y-109750000D03*
X47290000Y-109750000D03*
%TD*%
D48*
%TO.C,R69*%
X53040000Y-93987500D03*
X53040000Y-99912500D03*
%TD*%
D35*
%TO.C,C57*%
X72805000Y-98000000D03*
X72805000Y-96100000D03*
%TD*%
D49*
%TO.C,L10*%
X55190000Y-141200000D03*
X55190000Y-152500000D03*
%TD*%
D31*
%TO.C,C59*%
X88030000Y-103625000D03*
X88030000Y-100675000D03*
%TD*%
D20*
%TO.C,C7*%
X23515000Y-131212500D03*
X23515000Y-133112500D03*
%TD*%
D34*
%TO.C,C77*%
X54190000Y-23375000D03*
X54190000Y-15375000D03*
%TD*%
D50*
%TO.C,U5*%
X22890000Y-38950000D03*
X22890000Y-39600000D03*
X22890000Y-40250000D03*
X24790000Y-40250000D03*
X24790000Y-38950000D03*
%TD*%
D35*
%TO.C,C66*%
X47246250Y-59125000D03*
X47246250Y-57225000D03*
%TD*%
D26*
%TO.C,RV3*%
X71790000Y-50750000D03*
X74330000Y-50750000D03*
X76870000Y-50750000D03*
%TD*%
D51*
%TO.C,Q1*%
X35290000Y-5140000D03*
D52*
X26140000Y-2600000D03*
D51*
X35290000Y-60000D03*
%TD*%
D33*
%TO.C,R43*%
X42290000Y-112412500D03*
X42290000Y-110587500D03*
%TD*%
D15*
%TO.C,U13*%
X31650000Y-72650000D03*
D53*
X28950000Y-70745000D03*
X28950000Y-72015000D03*
X28950000Y-73285000D03*
X28950000Y-74555000D03*
X34350000Y-74555000D03*
X34350000Y-73285000D03*
X34350000Y-72015000D03*
X34350000Y-70745000D03*
%TD*%
D25*
%TO.C,D12*%
X10040000Y-81937500D03*
X10040000Y-80062500D03*
%TD*%
D20*
%TO.C,C26*%
X87489999Y-32125000D03*
X87489999Y-34025000D03*
%TD*%
D12*
%TO.C,R15*%
X25765000Y-150337500D03*
X25765000Y-152162500D03*
%TD*%
D31*
%TO.C,C27*%
X87490000Y-29625000D03*
X87490000Y-26675000D03*
%TD*%
D18*
%TO.C,C35*%
X22150000Y-63625000D03*
X22150000Y-66575000D03*
%TD*%
D45*
%TO.C,J2*%
X290000Y-13000000D03*
D14*
X290000Y-18000000D03*
X290000Y-23000000D03*
X290000Y-28000000D03*
X290000Y-33000000D03*
X290000Y-38000000D03*
%TD*%
D46*
%TO.C,D2*%
X101350000Y-2166666D03*
X99475000Y-2166666D03*
%TD*%
D33*
%TO.C,R25*%
X34250000Y-41412500D03*
X34250000Y-39587500D03*
%TD*%
D32*
%TO.C,H5*%
X13040000Y-161500000D03*
%TD*%
D54*
%TO.C,U4*%
X86415000Y-130830000D03*
X86415000Y-129560000D03*
X86415000Y-128290000D03*
X86415000Y-127020000D03*
X81465000Y-127020000D03*
X81465000Y-128290000D03*
X81465000Y-129560000D03*
X81465000Y-130830000D03*
%TD*%
D44*
%TO.C,J12*%
X109790000Y-153000000D03*
D14*
X109790000Y-148000000D03*
X109790000Y-143000000D03*
X109790000Y-138000000D03*
X109790000Y-133000000D03*
X109790000Y-128000000D03*
%TD*%
D49*
%TO.C,L11*%
X71040000Y-141200000D03*
X71040000Y-152500000D03*
%TD*%
D44*
%TO.C,J1*%
X109790000Y-113000000D03*
D14*
X109790000Y-108000000D03*
X109790000Y-103000000D03*
X109790000Y-98000000D03*
X109790000Y-93000000D03*
X109790000Y-88000000D03*
%TD*%
D32*
%TO.C,H3*%
X3040000Y-171500000D03*
%TD*%
D12*
%TO.C,R30*%
X75250000Y-14837500D03*
X75250000Y-16662500D03*
%TD*%
%TO.C,R45*%
X89240000Y-89487500D03*
X89240000Y-91312500D03*
%TD*%
D17*
%TO.C,R55*%
X19565000Y-116600000D03*
X17740000Y-116600000D03*
%TD*%
D33*
%TO.C,R2*%
X61490000Y14990000D03*
X61490000Y16815000D03*
%TD*%
D20*
%TO.C,C42*%
X87290000Y-69125000D03*
X87290000Y-71025000D03*
%TD*%
D55*
%TO.C,J9*%
X68540000Y15275000D03*
D39*
X68540000Y12735000D03*
%TD*%
D17*
%TO.C,R31*%
X73412500Y-16750000D03*
X71587500Y-16750000D03*
%TD*%
D31*
%TO.C,C44*%
X84890000Y-66600000D03*
X84890000Y-63650000D03*
%TD*%
D17*
%TO.C,R38*%
X84452500Y-50750000D03*
X82627500Y-50750000D03*
%TD*%
D33*
%TO.C,R76*%
X64740000Y-129777500D03*
X64740000Y-127952500D03*
%TD*%
D18*
%TO.C,C19*%
X22150000Y-26625000D03*
X22150000Y-29575000D03*
%TD*%
D56*
%TO.C,R65*%
X48640000Y-124665000D03*
X48640000Y-118740000D03*
%TD*%
D33*
%TO.C,R27*%
X21040000Y-40075000D03*
X21040000Y-38250000D03*
%TD*%
%TO.C,R33*%
X59540000Y-43662500D03*
X59540000Y-41837500D03*
%TD*%
D49*
%TO.C,L9*%
X39340000Y-141200000D03*
X39340000Y-152500000D03*
%TD*%
D33*
%TO.C,R21*%
X89440000Y-130800000D03*
X89440000Y-128975000D03*
%TD*%
D38*
%TO.C,JP2*%
X44740000Y-105550000D03*
D39*
X44740000Y-103010000D03*
%TD*%
D56*
%TO.C,R70*%
X57040000Y-124665000D03*
X57040000Y-118740000D03*
%TD*%
D28*
%TO.C,D19*%
X50102500Y-75150000D03*
X51977500Y-75150000D03*
%TD*%
D35*
%TO.C,C18*%
X22150000Y-24125000D03*
X22150000Y-22225000D03*
%TD*%
D47*
%TO.C,L3*%
X34675000Y-65150000D03*
X28625000Y-65150000D03*
%TD*%
D45*
%TO.C,J5*%
X290000Y-43000000D03*
D14*
X290000Y-48000000D03*
X290000Y-53000000D03*
X290000Y-58000000D03*
X290000Y-63000000D03*
X290000Y-68000000D03*
%TD*%
D48*
%TO.C,R73*%
X65640000Y-93987500D03*
X65640000Y-99912500D03*
%TD*%
D22*
%TO.C,D14*%
X100040000Y-46312500D03*
X100040000Y-48187500D03*
%TD*%
D17*
%TO.C,R59*%
X52115000Y-71900000D03*
X50290000Y-71900000D03*
%TD*%
D24*
%TO.C,U22*%
X56040000Y-134127500D03*
X56990000Y-134127500D03*
X57940000Y-134127500D03*
X57940000Y-131852500D03*
X56040000Y-131852500D03*
%TD*%
D57*
%TO.C,D23*%
X44440000Y-124265000D03*
X44440000Y-120265000D03*
%TD*%
D25*
%TO.C,D9*%
X98040000Y-13187500D03*
X98040000Y-11312500D03*
%TD*%
D41*
%TO.C,C81*%
X52740000Y-109750000D03*
X55690000Y-109750000D03*
%TD*%
D15*
%TO.C,U18*%
X56690000Y-37900000D03*
D53*
X53990000Y-35995000D03*
X53990000Y-37265000D03*
X53990000Y-38535000D03*
X53990000Y-39805000D03*
X59390000Y-39805000D03*
X59390000Y-38535000D03*
X59390000Y-37265000D03*
X59390000Y-35995000D03*
%TD*%
D56*
%TO.C,R75*%
X65440000Y-124665000D03*
X65440000Y-118740000D03*
%TD*%
D25*
%TO.C,D17*%
X98040000Y-83187500D03*
X98040000Y-81312500D03*
%TD*%
D19*
%TO.C,R26*%
X36250000Y-39587500D03*
X38075000Y-39587500D03*
%TD*%
%TO.C,R40*%
X68877500Y-54500000D03*
X70702500Y-54500000D03*
%TD*%
D15*
%TO.C,U15*%
X31815000Y-109400000D03*
D53*
X29115000Y-107495000D03*
X29115000Y-108765000D03*
X29115000Y-110035000D03*
X29115000Y-111305000D03*
X34515000Y-111305000D03*
X34515000Y-110035000D03*
X34515000Y-108765000D03*
X34515000Y-107495000D03*
%TD*%
D19*
%TO.C,R53*%
X85827500Y-48400000D03*
X87652500Y-48400000D03*
%TD*%
D48*
%TO.C,R68*%
X57240000Y-93987500D03*
X57240000Y-99912500D03*
%TD*%
D45*
%TO.C,J11*%
X290000Y-103000000D03*
D14*
X290000Y-108000000D03*
X290000Y-113000000D03*
%TD*%
D24*
%TO.C,U24*%
X64440000Y-134127500D03*
X65390000Y-134127500D03*
X66340000Y-134127500D03*
X66340000Y-131852500D03*
X64440000Y-131852500D03*
%TD*%
D12*
%TO.C,R32*%
X88540000Y-15300000D03*
X88540000Y-17125000D03*
%TD*%
D50*
%TO.C,U7*%
X23140000Y-75950000D03*
X23140000Y-76600000D03*
X23140000Y-77250000D03*
X25040000Y-77250000D03*
X25040000Y-75950000D03*
%TD*%
D47*
%TO.C,L8*%
X59715000Y-30400000D03*
X53665000Y-30400000D03*
%TD*%
D33*
%TO.C,R71*%
X56340000Y-129777500D03*
X56340000Y-127952500D03*
%TD*%
D32*
%TO.C,H1*%
X107040000Y-171500000D03*
%TD*%
D18*
%TO.C,C55*%
X87680000Y-95300000D03*
X87680000Y-98250000D03*
%TD*%
D35*
%TO.C,C41*%
X72665000Y-61000000D03*
X72665000Y-59100000D03*
%TD*%
D34*
%TO.C,C69*%
X54246250Y-56125000D03*
X54246250Y-48125000D03*
%TD*%
D58*
%TO.C,U1*%
X56977500Y15350000D03*
X56977500Y14400000D03*
X56977500Y13450000D03*
X59252500Y13450000D03*
X59252500Y15350000D03*
%TD*%
D17*
%TO.C,R52*%
X20152500Y-80350000D03*
X18327500Y-80350000D03*
%TD*%
D19*
%TO.C,R47*%
X20940000Y-43000000D03*
X22765000Y-43000000D03*
%TD*%
D35*
%TO.C,C25*%
X72265000Y-23999999D03*
X72265000Y-22099999D03*
%TD*%
D59*
%TO.C,U3*%
X23265000Y-141250000D03*
D60*
X21315000Y-144112500D03*
X21965000Y-144112500D03*
X22615000Y-144112500D03*
X23265000Y-144112500D03*
X23915000Y-144112500D03*
X24565000Y-144112500D03*
X25215000Y-144112500D03*
X25215000Y-138387500D03*
X24565000Y-138387500D03*
X23915000Y-138387500D03*
X23265000Y-138387500D03*
X22615000Y-138387500D03*
X21965000Y-138387500D03*
X21315000Y-138387500D03*
%TD*%
D38*
%TO.C,JP1*%
X48740000Y-105550000D03*
D39*
X48740000Y-103010000D03*
%TD*%
D26*
%TO.C,RV4*%
X38580000Y-115750000D03*
X36040000Y-115750000D03*
X33500000Y-115750000D03*
%TD*%
D33*
%TO.C,R20*%
X78440000Y-130837500D03*
X78440000Y-129012500D03*
%TD*%
D15*
%TO.C,U11*%
X31650000Y-35650000D03*
D53*
X28950000Y-33745000D03*
X28950000Y-35015000D03*
X28950000Y-36285000D03*
X28950000Y-37555000D03*
X34350000Y-37555000D03*
X34350000Y-36285000D03*
X34350000Y-35015000D03*
X34350000Y-33745000D03*
%TD*%
D61*
%TO.C,J19*%
X35390000Y-174120000D03*
D14*
X40390000Y-174120000D03*
X45390000Y-174120000D03*
X50390000Y-174120000D03*
X55390000Y-174120000D03*
X60390000Y-174120000D03*
%TD*%
D33*
%TO.C,R28*%
X59290000Y-76412500D03*
X59290000Y-74587500D03*
%TD*%
D50*
%TO.C,U9*%
X22790000Y-112700000D03*
X22790000Y-113350000D03*
X22790000Y-114000000D03*
X24690000Y-114000000D03*
X24690000Y-112700000D03*
%TD*%
D32*
%TO.C,H4*%
X107040000Y37000000D03*
%TD*%
D19*
%TO.C,R56*%
X21315000Y-116600000D03*
X23140000Y-116600000D03*
%TD*%
D29*
%TO.C,C4*%
X28490000Y-138250000D03*
X30040000Y-138250000D03*
%TD*%
D18*
%TO.C,C52*%
X25315000Y-100400000D03*
X25315000Y-103350000D03*
%TD*%
D26*
%TO.C,RV2*%
X38870000Y-79250000D03*
X36330000Y-79250000D03*
X33790000Y-79250000D03*
%TD*%
D20*
%TO.C,C73*%
X62415000Y-34500000D03*
X62415000Y-36400000D03*
%TD*%
D35*
%TO.C,C74*%
X47190000Y-26375000D03*
X47190000Y-24475000D03*
%TD*%
D33*
%TO.C,R17*%
X90790000Y-143912500D03*
X90790000Y-142087500D03*
%TD*%
D30*
%TO.C,C22*%
X37650000Y-35850000D03*
X37650000Y-37400000D03*
%TD*%
D15*
%TO.C,U17*%
X56746250Y-70650000D03*
D53*
X54046250Y-68745000D03*
X54046250Y-70015000D03*
X54046250Y-71285000D03*
X54046250Y-72555000D03*
X59446250Y-72555000D03*
X59446250Y-71285000D03*
X59446250Y-70015000D03*
X59446250Y-68745000D03*
%TD*%
D57*
%TO.C,D24*%
X52840000Y-124265000D03*
X52840000Y-120265000D03*
%TD*%
D17*
%TO.C,R62*%
X48202500Y-39500000D03*
X46377500Y-39500000D03*
%TD*%
D19*
%TO.C,R72*%
X56027500Y-136352500D03*
X57852500Y-136352500D03*
%TD*%
D48*
%TO.C,R63*%
X48840000Y-93987500D03*
X48840000Y-99912500D03*
%TD*%
D24*
%TO.C,U19*%
X46790000Y-116400000D03*
X47740000Y-116400000D03*
X48690000Y-116400000D03*
X48690000Y-114125000D03*
X46790000Y-114125000D03*
%TD*%
D20*
%TO.C,C24*%
X84140000Y-21300000D03*
X84140000Y-23200000D03*
%TD*%
D45*
%TO.C,J16*%
X290000Y-148000000D03*
D14*
X290000Y-153000000D03*
%TD*%
D17*
%TO.C,R60*%
X48702500Y-71900000D03*
X46877500Y-71900000D03*
%TD*%
D12*
%TO.C,R12*%
X21265000Y-131250000D03*
X21265000Y-133075000D03*
%TD*%
D34*
%TO.C,C21*%
X29150000Y-21125000D03*
X29150000Y-13125000D03*
%TD*%
D18*
%TO.C,C76*%
X50190000Y-28900000D03*
X50190000Y-31850000D03*
%TD*%
D25*
%TO.C,D3*%
X98040000Y-127937500D03*
X98040000Y-126062500D03*
%TD*%
D61*
%TO.C,J20*%
X65390000Y-174120000D03*
D14*
X70390000Y-174120000D03*
X75390000Y-174120000D03*
%TD*%
D32*
%TO.C,H8*%
X13040000Y27000000D03*
%TD*%
D17*
%TO.C,R5*%
X76992500Y14416668D03*
X75167500Y14416668D03*
%TD*%
D31*
%TO.C,C43*%
X87890000Y-66625000D03*
X87890000Y-63675000D03*
%TD*%
D20*
%TO.C,C8*%
X23515000Y-150300000D03*
X23515000Y-152200000D03*
%TD*%
D15*
%TO.C,U12*%
X77990000Y-20600000D03*
D16*
X80690000Y-22505000D03*
X80690000Y-21235000D03*
X80690000Y-19965000D03*
X80690000Y-18695000D03*
X75290000Y-18695000D03*
X75290000Y-19965000D03*
X75290000Y-21235000D03*
X75290000Y-22505000D03*
%TD*%
D32*
%TO.C,H6*%
X97040000Y-161500000D03*
%TD*%
D62*
%TO.C,C82*%
X58140000Y-128552500D03*
X58140000Y-127592500D03*
%TD*%
%TO.C,C84*%
X66540000Y-128552500D03*
X66540000Y-127592500D03*
%TD*%
D63*
%TO.C,R1*%
X60627500Y19840000D03*
X54702500Y19840000D03*
%TD*%
D46*
%TO.C,D1*%
X101350000Y1250000D03*
X99475000Y1250000D03*
%TD*%
D64*
%TO.C,D4*%
X101200000Y-5583334D03*
X99625000Y-5583334D03*
%TD*%
D59*
%TO.C,U2*%
X23265000Y-122250000D03*
D60*
X21315000Y-125112500D03*
X21965000Y-125112500D03*
X22615000Y-125112500D03*
X23265000Y-125112500D03*
X23915000Y-125112500D03*
X24565000Y-125112500D03*
X25215000Y-125112500D03*
X25215000Y-119387500D03*
X24565000Y-119387500D03*
X23915000Y-119387500D03*
X23265000Y-119387500D03*
X22615000Y-119387500D03*
X21965000Y-119387500D03*
X21315000Y-119387500D03*
%TD*%
D33*
%TO.C,R42*%
X20990000Y-114512500D03*
X20990000Y-112687500D03*
%TD*%
D31*
%TO.C,C15*%
X22500000Y-34950000D03*
X22500000Y-32000000D03*
%TD*%
D35*
%TO.C,C64*%
X50596250Y-69950000D03*
X50596250Y-68050000D03*
%TD*%
D42*
%TO.C,C30*%
X71990000Y-20400000D03*
X71990000Y-18850000D03*
%TD*%
D12*
%TO.C,R46*%
X69790000Y-91337500D03*
X69790000Y-93162500D03*
%TD*%
D18*
%TO.C,C68*%
X50246250Y-61650000D03*
X50246250Y-64600000D03*
%TD*%
D19*
%TO.C,R23*%
X88587500Y-1250000D03*
X90412500Y-1250000D03*
%TD*%
D17*
%TO.C,R61*%
X51615000Y-39500000D03*
X49790000Y-39500000D03*
%TD*%
D47*
%TO.C,L5*%
X34840000Y-101900000D03*
X28790000Y-101900000D03*
%TD*%
D19*
%TO.C,R34*%
X61627500Y-41750000D03*
X63452500Y-41750000D03*
%TD*%
D42*
%TO.C,C62*%
X72530000Y-94400000D03*
X72530000Y-92850000D03*
%TD*%
D21*
%TO.C,C61*%
X81030000Y-109125000D03*
X81030000Y-117125000D03*
%TD*%
D18*
%TO.C,C20*%
X25150000Y-26650000D03*
X25150000Y-29600000D03*
%TD*%
D47*
%TO.C,L7*%
X59771250Y-63150000D03*
X53721250Y-63150000D03*
%TD*%
D31*
%TO.C,C60*%
X85030000Y-103600000D03*
X85030000Y-100650000D03*
%TD*%
D17*
%TO.C,R24*%
X90412500Y-3250000D03*
X88587500Y-3250000D03*
%TD*%
D36*
%TO.C,C12*%
X85790000Y-55900000D03*
X87690000Y-55900000D03*
%TD*%
D33*
%TO.C,R22*%
X78440000Y-126837500D03*
X78440000Y-125012500D03*
%TD*%
D40*
%TO.C,L2*%
X74965000Y-28100000D03*
X81015000Y-28100000D03*
%TD*%
D57*
%TO.C,D25*%
X61240000Y-124265000D03*
X61240000Y-120265000D03*
%TD*%
D65*
%TO.C,C2*%
X61040000Y13500000D03*
X61040000Y12540000D03*
%TD*%
D38*
%TO.C,JP4*%
X53140000Y-105550000D03*
D39*
X53140000Y-103010000D03*
%TD*%
D35*
%TO.C,C48*%
X25665000Y-108700000D03*
X25665000Y-106800000D03*
%TD*%
D12*
%TO.C,R10*%
X80500000Y-5087500D03*
X80500000Y-6912500D03*
%TD*%
D66*
%TO.C,SW1*%
X23290000Y14500000D03*
X38690000Y14500000D03*
%TD*%
D67*
%TO.C,A1*%
X50000000Y-9500000D03*
D68*
X52540000Y-9500000D03*
X55080000Y-9500000D03*
X57620000Y-9500000D03*
X60160000Y-9500000D03*
X62700000Y-9500000D03*
X65240000Y-9500000D03*
X67780000Y-9500000D03*
X70320000Y-9500000D03*
X72860000Y-9500000D03*
X75400000Y-9500000D03*
X77940000Y-9500000D03*
X80480000Y-9500000D03*
X83020000Y-9500000D03*
X85560000Y-9500000D03*
X85560000Y5740000D03*
X83020000Y5740000D03*
X80480000Y5740000D03*
X77940000Y5740000D03*
X75400000Y5740000D03*
X72860000Y5740000D03*
X70320000Y5740000D03*
X67780000Y5740000D03*
X65240000Y5740000D03*
X62700000Y5740000D03*
X60160000Y5740000D03*
X57620000Y5740000D03*
X55080000Y5740000D03*
X52540000Y5740000D03*
X50000000Y5740000D03*
%TD*%
D45*
%TO.C,J3*%
X290000Y18250000D03*
D14*
X290000Y13250000D03*
%TD*%
D13*
%TO.C,J17*%
X57540000Y39750000D03*
D14*
X52540000Y39750000D03*
X47540000Y39750000D03*
X42540000Y39750000D03*
X37540000Y39750000D03*
X32540000Y39750000D03*
%TD*%
D35*
%TO.C,C72*%
X50540000Y-37200000D03*
X50540000Y-35300000D03*
%TD*%
D25*
%TO.C,D16*%
X10040000Y-114750000D03*
X10040000Y-112875000D03*
%TD*%
D62*
%TO.C,C80*%
X49740000Y-128552500D03*
X49740000Y-127592500D03*
%TD*%
D19*
%TO.C,R41*%
X26877500Y-115750000D03*
X28702500Y-115750000D03*
%TD*%
D37*
%TO.C,C13*%
X24640000Y-110850000D03*
X22740000Y-110850000D03*
%TD*%
D33*
%TO.C,R37*%
X40040000Y-75250000D03*
X40040000Y-73425000D03*
%TD*%
D40*
%TO.C,L4*%
X75365000Y-65100000D03*
X81415000Y-65100000D03*
%TD*%
D22*
%TO.C,D7*%
X12040000Y-42875000D03*
X12040000Y-44750000D03*
%TD*%
D18*
%TO.C,C51*%
X22315000Y-100375000D03*
X22315000Y-103325000D03*
%TD*%
D44*
%TO.C,J4*%
X109790000Y-83000000D03*
D14*
X109790000Y-78000000D03*
X109790000Y-73000000D03*
X109790000Y-68000000D03*
X109790000Y-63000000D03*
X109790000Y-58000000D03*
%TD*%
D45*
%TO.C,J8*%
X290000Y-73000000D03*
D14*
X290000Y-78000000D03*
X290000Y-83000000D03*
X290000Y-88000000D03*
X290000Y-93000000D03*
X290000Y-98000000D03*
%TD*%
D20*
%TO.C,C56*%
X84680000Y-95300000D03*
X84680000Y-97200000D03*
%TD*%
D44*
%TO.C,J7*%
X109790000Y-53000000D03*
D14*
X109790000Y-48000000D03*
X109790000Y-43000000D03*
X109790000Y-38000000D03*
X109790000Y-33000000D03*
X109790000Y-28000000D03*
%TD*%
D38*
%TO.C,JP3*%
X57140000Y-105550000D03*
D39*
X57140000Y-103010000D03*
%TD*%
D46*
%TO.C,D20*%
X51977500Y-77150000D03*
X50102500Y-77150000D03*
%TD*%
D34*
%TO.C,C53*%
X29315000Y-94875000D03*
X29315000Y-86875000D03*
%TD*%
D17*
%TO.C,R7*%
X76992500Y11000000D03*
X75167500Y11000000D03*
%TD*%
D35*
%TO.C,C16*%
X25500000Y-34950000D03*
X25500000Y-33050000D03*
%TD*%
D45*
%TO.C,J6*%
X290000Y2750000D03*
D14*
X290000Y-2250000D03*
%TD*%
D32*
%TO.C,H2*%
X3040000Y37000000D03*
%TD*%
D18*
%TO.C,C36*%
X25150000Y-63650000D03*
X25150000Y-66600000D03*
%TD*%
D48*
%TO.C,R64*%
X44640000Y-93987500D03*
X44640000Y-99912500D03*
%TD*%
D19*
%TO.C,R67*%
X47627500Y-136352500D03*
X49452500Y-136352500D03*
%TD*%
D43*
%TO.C,C5*%
X26040000Y-129250000D03*
X24490000Y-129250000D03*
%TD*%
D12*
%TO.C,R39*%
X89440000Y-52237500D03*
X89440000Y-54062500D03*
%TD*%
%TO.C,R3*%
X60000000Y-5087500D03*
X60000000Y-6912500D03*
%TD*%
D17*
%TO.C,R4*%
X76992500Y17833334D03*
X75167500Y17833334D03*
%TD*%
D38*
%TO.C,JP6*%
X61540000Y-105550000D03*
D39*
X61540000Y-103010000D03*
%TD*%
D12*
%TO.C,R6*%
X84440000Y-122925000D03*
X84440000Y-124750000D03*
%TD*%
%TO.C,R13*%
X21265000Y-150337500D03*
X21265000Y-152162500D03*
%TD*%
D26*
%TO.C,RV1*%
X87040000Y-137650000D03*
X84500000Y-137650000D03*
X81960000Y-137650000D03*
%TD*%
D19*
%TO.C,R58*%
X88377500Y-85500000D03*
X90202500Y-85500000D03*
%TD*%
D37*
%TO.C,C1*%
X80500000Y2750000D03*
X78600000Y2750000D03*
%TD*%
D33*
%TO.C,R66*%
X47940000Y-129777500D03*
X47940000Y-127952500D03*
%TD*%
D30*
%TO.C,C54*%
X37815000Y-109600000D03*
X37815000Y-111150000D03*
%TD*%
D12*
%TO.C,R16*%
X62500000Y-5087500D03*
X62500000Y-6912500D03*
%TD*%
M02*
