%TF.GenerationSoftware,KiCad,Pcbnew,7.0.7*%
%TF.CreationDate,2023-09-28T18:20:59+01:00*%
%TF.ProjectId,pipcb,70697063-622e-46b6-9963-61645f706362,rev?*%
%TF.SameCoordinates,Original*%
%TF.FileFunction,Paste,Top*%
%TF.FilePolarity,Positive*%
%FSLAX46Y46*%
G04 Gerber Fmt 4.6, Leading zero omitted, Abs format (unit mm)*
G04 Created by KiCad (PCBNEW 7.0.7) date 2023-09-28 18:20:59*
%MOMM*%
%LPD*%
G01*
G04 APERTURE LIST*
G04 Aperture macros list*
%AMRoundRect*
0 Rectangle with rounded corners*
0 $1 Rounding radius*
0 $2 $3 $4 $5 $6 $7 $8 $9 X,Y pos of 4 corners*
0 Add a 4 corners polygon primitive as box body*
4,1,4,$2,$3,$4,$5,$6,$7,$8,$9,$2,$3,0*
0 Add four circle primitives for the rounded corners*
1,1,$1+$1,$2,$3*
1,1,$1+$1,$4,$5*
1,1,$1+$1,$6,$7*
1,1,$1+$1,$8,$9*
0 Add four rect primitives between the rounded corners*
20,1,$1+$1,$2,$3,$4,$5,0*
20,1,$1+$1,$4,$5,$6,$7,0*
20,1,$1+$1,$6,$7,$8,$9,0*
20,1,$1+$1,$8,$9,$2,$3,0*%
G04 Aperture macros list end*
%ADD10RoundRect,0.250000X-0.450000X0.262500X-0.450000X-0.262500X0.450000X-0.262500X0.450000X0.262500X0*%
%ADD11R,2.600000X3.100000*%
%ADD12R,1.550000X0.600000*%
%ADD13RoundRect,0.250000X0.262500X0.450000X-0.262500X0.450000X-0.262500X-0.450000X0.262500X-0.450000X0*%
%ADD14RoundRect,0.250000X-0.650000X0.325000X-0.650000X-0.325000X0.650000X-0.325000X0.650000X0.325000X0*%
%ADD15RoundRect,0.250000X-0.262500X-0.450000X0.262500X-0.450000X0.262500X0.450000X-0.262500X0.450000X0*%
%ADD16RoundRect,0.250000X-0.475000X0.250000X-0.475000X-0.250000X0.475000X-0.250000X0.475000X0.250000X0*%
%ADD17RoundRect,0.250000X-1.000000X1.750000X-1.000000X-1.750000X1.000000X-1.750000X1.000000X1.750000X0*%
%ADD18RoundRect,0.243750X-0.456250X0.243750X-0.456250X-0.243750X0.456250X-0.243750X0.456250X0.243750X0*%
%ADD19RoundRect,0.250000X-0.650000X1.000000X-0.650000X-1.000000X0.650000X-1.000000X0.650000X1.000000X0*%
%ADD20RoundRect,0.150000X0.150000X-0.512500X0.150000X0.512500X-0.150000X0.512500X-0.150000X-0.512500X0*%
%ADD21RoundRect,0.243750X0.456250X-0.243750X0.456250X0.243750X-0.456250X0.243750X-0.456250X-0.243750X0*%
%ADD22R,0.650000X0.400000*%
%ADD23RoundRect,0.243750X-0.243750X-0.456250X0.243750X-0.456250X0.243750X0.456250X-0.243750X0.456250X0*%
%ADD24RoundRect,0.225000X-0.225000X-0.250000X0.225000X-0.250000X0.225000X0.250000X-0.225000X0.250000X0*%
%ADD25RoundRect,0.225000X-0.250000X0.225000X-0.250000X-0.225000X0.250000X-0.225000X0.250000X0.225000X0*%
%ADD26RoundRect,0.250000X0.650000X-0.325000X0.650000X0.325000X-0.650000X0.325000X-0.650000X-0.325000X0*%
%ADD27RoundRect,0.250000X0.450000X-0.262500X0.450000X0.262500X-0.450000X0.262500X-0.450000X-0.262500X0*%
%ADD28RoundRect,0.250000X1.000000X-1.750000X1.000000X1.750000X-1.000000X1.750000X-1.000000X-1.750000X0*%
%ADD29RoundRect,0.250000X0.475000X-0.250000X0.475000X0.250000X-0.475000X0.250000X-0.475000X-0.250000X0*%
%ADD30RoundRect,0.250000X-0.250000X-0.475000X0.250000X-0.475000X0.250000X0.475000X-0.250000X0.475000X0*%
%ADD31RoundRect,0.250000X0.250000X0.475000X-0.250000X0.475000X-0.250000X-0.475000X0.250000X-0.475000X0*%
%ADD32R,2.350000X3.500000*%
%ADD33RoundRect,0.250000X-0.325000X-0.650000X0.325000X-0.650000X0.325000X0.650000X-0.325000X0.650000X0*%
%ADD34RoundRect,0.225000X0.250000X-0.225000X0.250000X0.225000X-0.250000X0.225000X-0.250000X-0.225000X0*%
%ADD35RoundRect,0.225000X0.225000X0.250000X-0.225000X0.250000X-0.225000X-0.250000X0.225000X-0.250000X0*%
%ADD36RoundRect,0.243750X0.243750X0.456250X-0.243750X0.456250X-0.243750X-0.456250X0.243750X-0.456250X0*%
%ADD37RoundRect,0.250000X-1.425000X0.362500X-1.425000X-0.362500X1.425000X-0.362500X1.425000X0.362500X0*%
%ADD38R,5.000000X3.300000*%
%ADD39RoundRect,0.250000X2.050000X0.300000X-2.050000X0.300000X-2.050000X-0.300000X2.050000X-0.300000X0*%
%ADD40RoundRect,0.250000X2.025000X2.375000X-2.025000X2.375000X-2.025000X-2.375000X2.025000X-2.375000X0*%
%ADD41RoundRect,0.150000X0.825000X0.150000X-0.825000X0.150000X-0.825000X-0.150000X0.825000X-0.150000X0*%
%ADD42RoundRect,0.250000X1.425000X-0.362500X1.425000X0.362500X-1.425000X0.362500X-1.425000X-0.362500X0*%
%ADD43RoundRect,0.250000X0.650000X-1.000000X0.650000X1.000000X-0.650000X1.000000X-0.650000X-1.000000X0*%
%ADD44RoundRect,0.150000X-0.512500X-0.150000X0.512500X-0.150000X0.512500X0.150000X-0.512500X0.150000X0*%
%ADD45RoundRect,0.250001X0.374999X-0.354999X0.374999X0.354999X-0.374999X0.354999X-0.374999X-0.354999X0*%
%ADD46RoundRect,0.100000X0.100000X-0.687500X0.100000X0.687500X-0.100000X0.687500X-0.100000X-0.687500X0*%
%ADD47RoundRect,0.140000X0.170000X-0.140000X0.170000X0.140000X-0.170000X0.140000X-0.170000X-0.140000X0*%
%ADD48RoundRect,0.250000X0.362500X1.425000X-0.362500X1.425000X-0.362500X-1.425000X0.362500X-1.425000X0*%
%ADD49RoundRect,0.218750X0.218750X0.256250X-0.218750X0.256250X-0.218750X-0.256250X0.218750X-0.256250X0*%
%ADD50RoundRect,0.140000X-0.170000X0.140000X-0.170000X-0.140000X0.170000X-0.140000X0.170000X0.140000X0*%
G04 APERTURE END LIST*
D10*
%TO.C,R11*%
X68000000Y-5087500D03*
X68000000Y-6912500D03*
%TD*%
D11*
%TO.C,U14*%
X78390000Y-57600000D03*
D12*
X81090000Y-59505000D03*
X81090000Y-58235000D03*
X81090000Y-56965000D03*
X81090000Y-55695000D03*
X75690000Y-55695000D03*
X75690000Y-56965000D03*
X75690000Y-58235000D03*
X75690000Y-59505000D03*
%TD*%
D13*
%TO.C,R44*%
X84365000Y-87750000D03*
X82540000Y-87750000D03*
%TD*%
D14*
%TO.C,C67*%
X47246250Y-61625000D03*
X47246250Y-64575000D03*
%TD*%
D15*
%TO.C,R77*%
X64427500Y-136352500D03*
X66252500Y-136352500D03*
%TD*%
D16*
%TO.C,C65*%
X62471250Y-67250000D03*
X62471250Y-69150000D03*
%TD*%
D17*
%TO.C,C45*%
X80890000Y-72125000D03*
X80890000Y-80125000D03*
%TD*%
D18*
%TO.C,D11*%
X12040000Y-80062500D03*
X12040000Y-81937500D03*
%TD*%
D19*
%TO.C,D6*%
X29265000Y-141250000D03*
X29265000Y-145250000D03*
%TD*%
D20*
%TO.C,U23*%
X63590000Y-115352500D03*
X64540000Y-115352500D03*
X65490000Y-115352500D03*
X65490000Y-113077500D03*
X63590000Y-113077500D03*
%TD*%
D21*
%TO.C,D13*%
X98040000Y-48187500D03*
X98040000Y-46312500D03*
%TD*%
D17*
%TO.C,C29*%
X80489999Y-35125000D03*
X80489999Y-43125000D03*
%TD*%
D21*
%TO.C,D8*%
X10040000Y-44750000D03*
X10040000Y-42875000D03*
%TD*%
D22*
%TO.C,U8*%
X87690000Y-54050000D03*
X87690000Y-53400000D03*
X87690000Y-52750000D03*
X85790000Y-52750000D03*
X85790000Y-54050000D03*
%TD*%
D23*
%TO.C,D21*%
X50102500Y-42000000D03*
X51977500Y-42000000D03*
%TD*%
D24*
%TO.C,C3*%
X28490000Y-119250000D03*
X30040000Y-119250000D03*
%TD*%
D10*
%TO.C,R14*%
X25765000Y-131250000D03*
X25765000Y-133075000D03*
%TD*%
D25*
%TO.C,C70*%
X62746250Y-70850000D03*
X62746250Y-72400000D03*
%TD*%
D26*
%TO.C,C63*%
X47596250Y-69950000D03*
X47596250Y-67000000D03*
%TD*%
D18*
%TO.C,D18*%
X100040000Y-81312500D03*
X100040000Y-83187500D03*
%TD*%
D14*
%TO.C,C75*%
X47190000Y-28875000D03*
X47190000Y-31825000D03*
%TD*%
D20*
%TO.C,U21*%
X55190000Y-115352500D03*
X56140000Y-115352500D03*
X57090000Y-115352500D03*
X57090000Y-113077500D03*
X55190000Y-113077500D03*
%TD*%
D14*
%TO.C,C39*%
X87540000Y-58300000D03*
X87540000Y-61250000D03*
%TD*%
D27*
%TO.C,R8*%
X57040000Y9675000D03*
X57040000Y11500000D03*
%TD*%
D18*
%TO.C,D10*%
X100040000Y-11312500D03*
X100040000Y-13187500D03*
%TD*%
D22*
%TO.C,U6*%
X86690000Y-17050000D03*
X86690000Y-16400000D03*
X86690000Y-15750000D03*
X84790000Y-15750000D03*
X84790000Y-17050000D03*
%TD*%
D28*
%TO.C,C37*%
X29150000Y-58125000D03*
X29150000Y-50125000D03*
%TD*%
D29*
%TO.C,C34*%
X22150000Y-61125000D03*
X22150000Y-59225000D03*
%TD*%
D16*
%TO.C,C40*%
X84540000Y-58300000D03*
X84540000Y-60200000D03*
%TD*%
D15*
%TO.C,R29*%
X61377500Y-74500000D03*
X63202500Y-74500000D03*
%TD*%
D30*
%TO.C,C10*%
X84740000Y-18900000D03*
X86640000Y-18900000D03*
%TD*%
D15*
%TO.C,R49*%
X85627500Y-13000000D03*
X87452500Y-13000000D03*
%TD*%
D31*
%TO.C,C11*%
X25040000Y-74100000D03*
X23140000Y-74100000D03*
%TD*%
D13*
%TO.C,R48*%
X19327500Y-43000000D03*
X17502500Y-43000000D03*
%TD*%
D16*
%TO.C,C33*%
X37375000Y-69250000D03*
X37375000Y-71150000D03*
%TD*%
D29*
%TO.C,C50*%
X22315000Y-97875000D03*
X22315000Y-95975000D03*
%TD*%
D32*
%TO.C,L6*%
X75505000Y-102100000D03*
X81555000Y-102100000D03*
%TD*%
D29*
%TO.C,C32*%
X25500000Y-71950000D03*
X25500000Y-70050000D03*
%TD*%
D33*
%TO.C,C83*%
X61140000Y-109750000D03*
X64090000Y-109750000D03*
%TD*%
D15*
%TO.C,R57*%
X84877500Y-85500000D03*
X86702500Y-85500000D03*
%TD*%
D34*
%TO.C,C46*%
X72390000Y-57400000D03*
X72390000Y-55850000D03*
%TD*%
D35*
%TO.C,C6*%
X26040000Y-148250000D03*
X24490000Y-148250000D03*
%TD*%
D31*
%TO.C,C9*%
X24840000Y-37100000D03*
X22940000Y-37100000D03*
%TD*%
D26*
%TO.C,C71*%
X47540000Y-37200000D03*
X47540000Y-34250000D03*
%TD*%
%TO.C,C31*%
X22500000Y-71950000D03*
X22500000Y-69000000D03*
%TD*%
D13*
%TO.C,R54*%
X84252500Y-48400000D03*
X82427500Y-48400000D03*
%TD*%
D19*
%TO.C,D5*%
X29315000Y-122250000D03*
X29315000Y-126250000D03*
%TD*%
D18*
%TO.C,D15*%
X12040000Y-112875000D03*
X12040000Y-114750000D03*
%TD*%
D13*
%TO.C,R19*%
X82440000Y-124425000D03*
X80615000Y-124425000D03*
%TD*%
D15*
%TO.C,R35*%
X28290000Y-79000000D03*
X30115000Y-79000000D03*
%TD*%
D26*
%TO.C,C47*%
X22665000Y-108700000D03*
X22665000Y-105750000D03*
%TD*%
D36*
%TO.C,D22*%
X51977500Y-44000000D03*
X50102500Y-44000000D03*
%TD*%
D14*
%TO.C,C23*%
X87140000Y-21300000D03*
X87140000Y-24250000D03*
%TD*%
D26*
%TO.C,C28*%
X84489999Y-29600000D03*
X84489999Y-26650000D03*
%TD*%
D30*
%TO.C,C14*%
X85540000Y-93150000D03*
X87440000Y-93150000D03*
%TD*%
D22*
%TO.C,U10*%
X87440000Y-91300000D03*
X87440000Y-90650000D03*
X87440000Y-90000000D03*
X85540000Y-90000000D03*
X85540000Y-91300000D03*
%TD*%
D16*
%TO.C,C17*%
X37375000Y-32250000D03*
X37375000Y-34150000D03*
%TD*%
D11*
%TO.C,U16*%
X78530000Y-94600000D03*
D12*
X81230000Y-96505000D03*
X81230000Y-95235000D03*
X81230000Y-93965000D03*
X81230000Y-92695000D03*
X75830000Y-92695000D03*
X75830000Y-93965000D03*
X75830000Y-95235000D03*
X75830000Y-96505000D03*
%TD*%
D20*
%TO.C,U20*%
X47640000Y-134127500D03*
X48590000Y-134127500D03*
X49540000Y-134127500D03*
X49540000Y-131852500D03*
X47640000Y-131852500D03*
%TD*%
D32*
%TO.C,L1*%
X34675000Y-28150000D03*
X28625000Y-28150000D03*
%TD*%
D15*
%TO.C,R50*%
X89127500Y-13000000D03*
X90952500Y-13000000D03*
%TD*%
D25*
%TO.C,C78*%
X62690000Y-38100000D03*
X62690000Y-39650000D03*
%TD*%
D10*
%TO.C,R9*%
X65250000Y-5087500D03*
X65250000Y-6912500D03*
%TD*%
D16*
%TO.C,C58*%
X88030000Y-106125000D03*
X88030000Y-108025000D03*
%TD*%
D25*
%TO.C,C38*%
X37650000Y-72850000D03*
X37650000Y-74400000D03*
%TD*%
D13*
%TO.C,R18*%
X61790000Y1250000D03*
X59965000Y1250000D03*
%TD*%
D27*
%TO.C,R36*%
X21340000Y-77675000D03*
X21340000Y-75850000D03*
%TD*%
D15*
%TO.C,R51*%
X21740000Y-80400000D03*
X23565000Y-80400000D03*
%TD*%
D37*
%TO.C,R74*%
X61440000Y-93987500D03*
X61440000Y-99912500D03*
%TD*%
D16*
%TO.C,C49*%
X37540000Y-106000000D03*
X37540000Y-107900000D03*
%TD*%
D33*
%TO.C,C79*%
X44340000Y-109750000D03*
X47290000Y-109750000D03*
%TD*%
D37*
%TO.C,R69*%
X53040000Y-93987500D03*
X53040000Y-99912500D03*
%TD*%
D29*
%TO.C,C57*%
X72805000Y-98000000D03*
X72805000Y-96100000D03*
%TD*%
D38*
%TO.C,L10*%
X55190000Y-141200000D03*
X55190000Y-152500000D03*
%TD*%
D26*
%TO.C,C59*%
X88030000Y-103625000D03*
X88030000Y-100675000D03*
%TD*%
D16*
%TO.C,C7*%
X23515000Y-131212500D03*
X23515000Y-133112500D03*
%TD*%
D28*
%TO.C,C77*%
X54190000Y-23375000D03*
X54190000Y-15375000D03*
%TD*%
D22*
%TO.C,U5*%
X22890000Y-38950000D03*
X22890000Y-39600000D03*
X22890000Y-40250000D03*
X24790000Y-40250000D03*
X24790000Y-38950000D03*
%TD*%
D29*
%TO.C,C66*%
X47246250Y-59125000D03*
X47246250Y-57225000D03*
%TD*%
D39*
%TO.C,Q1*%
X35290000Y-5140000D03*
D40*
X28565000Y-5375000D03*
X28565000Y175000D03*
X23715000Y-5375000D03*
X23715000Y175000D03*
D39*
X35290000Y-60000D03*
%TD*%
D27*
%TO.C,R43*%
X42290000Y-112412500D03*
X42290000Y-110587500D03*
%TD*%
D11*
%TO.C,U13*%
X31650000Y-72650000D03*
D12*
X28950000Y-70745000D03*
X28950000Y-72015000D03*
X28950000Y-73285000D03*
X28950000Y-74555000D03*
X34350000Y-74555000D03*
X34350000Y-73285000D03*
X34350000Y-72015000D03*
X34350000Y-70745000D03*
%TD*%
D21*
%TO.C,D12*%
X10040000Y-81937500D03*
X10040000Y-80062500D03*
%TD*%
D16*
%TO.C,C26*%
X87489999Y-32125000D03*
X87489999Y-34025000D03*
%TD*%
D10*
%TO.C,R15*%
X25765000Y-150337500D03*
X25765000Y-152162500D03*
%TD*%
D26*
%TO.C,C27*%
X87490000Y-29625000D03*
X87490000Y-26675000D03*
%TD*%
D14*
%TO.C,C35*%
X22150000Y-63625000D03*
X22150000Y-66575000D03*
%TD*%
D36*
%TO.C,D2*%
X101350000Y-2166666D03*
X99475000Y-2166666D03*
%TD*%
D27*
%TO.C,R25*%
X34250000Y-41412500D03*
X34250000Y-39587500D03*
%TD*%
D41*
%TO.C,U4*%
X86415000Y-130830000D03*
X86415000Y-129560000D03*
X86415000Y-128290000D03*
X86415000Y-127020000D03*
X81465000Y-127020000D03*
X81465000Y-128290000D03*
X81465000Y-129560000D03*
X81465000Y-130830000D03*
%TD*%
D38*
%TO.C,L11*%
X71040000Y-141200000D03*
X71040000Y-152500000D03*
%TD*%
D10*
%TO.C,R30*%
X75250000Y-14837500D03*
X75250000Y-16662500D03*
%TD*%
%TO.C,R45*%
X89240000Y-89487500D03*
X89240000Y-91312500D03*
%TD*%
D13*
%TO.C,R55*%
X19565000Y-116600000D03*
X17740000Y-116600000D03*
%TD*%
D27*
%TO.C,R2*%
X61490000Y14990000D03*
X61490000Y16815000D03*
%TD*%
D16*
%TO.C,C42*%
X87290000Y-69125000D03*
X87290000Y-71025000D03*
%TD*%
D13*
%TO.C,R31*%
X73412500Y-16750000D03*
X71587500Y-16750000D03*
%TD*%
D26*
%TO.C,C44*%
X84890000Y-66600000D03*
X84890000Y-63650000D03*
%TD*%
D13*
%TO.C,R38*%
X84452500Y-50750000D03*
X82627500Y-50750000D03*
%TD*%
D27*
%TO.C,R76*%
X64740000Y-129777500D03*
X64740000Y-127952500D03*
%TD*%
D14*
%TO.C,C19*%
X22150000Y-26625000D03*
X22150000Y-29575000D03*
%TD*%
D42*
%TO.C,R65*%
X48640000Y-124665000D03*
X48640000Y-118740000D03*
%TD*%
D27*
%TO.C,R27*%
X21040000Y-40075000D03*
X21040000Y-38250000D03*
%TD*%
%TO.C,R33*%
X59540000Y-43662500D03*
X59540000Y-41837500D03*
%TD*%
D38*
%TO.C,L9*%
X39340000Y-141200000D03*
X39340000Y-152500000D03*
%TD*%
D27*
%TO.C,R21*%
X89440000Y-130800000D03*
X89440000Y-128975000D03*
%TD*%
D42*
%TO.C,R70*%
X57040000Y-124665000D03*
X57040000Y-118740000D03*
%TD*%
D23*
%TO.C,D19*%
X50102500Y-75150000D03*
X51977500Y-75150000D03*
%TD*%
D29*
%TO.C,C18*%
X22150000Y-24125000D03*
X22150000Y-22225000D03*
%TD*%
D32*
%TO.C,L3*%
X34675000Y-65150000D03*
X28625000Y-65150000D03*
%TD*%
D37*
%TO.C,R73*%
X65640000Y-93987500D03*
X65640000Y-99912500D03*
%TD*%
D18*
%TO.C,D14*%
X100040000Y-46312500D03*
X100040000Y-48187500D03*
%TD*%
D13*
%TO.C,R59*%
X52115000Y-71900000D03*
X50290000Y-71900000D03*
%TD*%
D20*
%TO.C,U22*%
X56040000Y-134127500D03*
X56990000Y-134127500D03*
X57940000Y-134127500D03*
X57940000Y-131852500D03*
X56040000Y-131852500D03*
%TD*%
D43*
%TO.C,D23*%
X44440000Y-124265000D03*
X44440000Y-120265000D03*
%TD*%
D21*
%TO.C,D9*%
X98040000Y-13187500D03*
X98040000Y-11312500D03*
%TD*%
D33*
%TO.C,C81*%
X52740000Y-109750000D03*
X55690000Y-109750000D03*
%TD*%
D11*
%TO.C,U18*%
X56690000Y-37900000D03*
D12*
X53990000Y-35995000D03*
X53990000Y-37265000D03*
X53990000Y-38535000D03*
X53990000Y-39805000D03*
X59390000Y-39805000D03*
X59390000Y-38535000D03*
X59390000Y-37265000D03*
X59390000Y-35995000D03*
%TD*%
D42*
%TO.C,R75*%
X65440000Y-124665000D03*
X65440000Y-118740000D03*
%TD*%
D21*
%TO.C,D17*%
X98040000Y-83187500D03*
X98040000Y-81312500D03*
%TD*%
D15*
%TO.C,R26*%
X36250000Y-39587500D03*
X38075000Y-39587500D03*
%TD*%
%TO.C,R40*%
X68877500Y-54500000D03*
X70702500Y-54500000D03*
%TD*%
D11*
%TO.C,U15*%
X31815000Y-109400000D03*
D12*
X29115000Y-107495000D03*
X29115000Y-108765000D03*
X29115000Y-110035000D03*
X29115000Y-111305000D03*
X34515000Y-111305000D03*
X34515000Y-110035000D03*
X34515000Y-108765000D03*
X34515000Y-107495000D03*
%TD*%
D15*
%TO.C,R53*%
X85827500Y-48400000D03*
X87652500Y-48400000D03*
%TD*%
D37*
%TO.C,R68*%
X57240000Y-93987500D03*
X57240000Y-99912500D03*
%TD*%
D20*
%TO.C,U24*%
X64440000Y-134127500D03*
X65390000Y-134127500D03*
X66340000Y-134127500D03*
X66340000Y-131852500D03*
X64440000Y-131852500D03*
%TD*%
D10*
%TO.C,R32*%
X88540000Y-15300000D03*
X88540000Y-17125000D03*
%TD*%
D22*
%TO.C,U7*%
X23140000Y-75950000D03*
X23140000Y-76600000D03*
X23140000Y-77250000D03*
X25040000Y-77250000D03*
X25040000Y-75950000D03*
%TD*%
D32*
%TO.C,L8*%
X59715000Y-30400000D03*
X53665000Y-30400000D03*
%TD*%
D27*
%TO.C,R71*%
X56340000Y-129777500D03*
X56340000Y-127952500D03*
%TD*%
D14*
%TO.C,C55*%
X87680000Y-95300000D03*
X87680000Y-98250000D03*
%TD*%
D29*
%TO.C,C41*%
X72665000Y-61000000D03*
X72665000Y-59100000D03*
%TD*%
D28*
%TO.C,C69*%
X54246250Y-56125000D03*
X54246250Y-48125000D03*
%TD*%
D44*
%TO.C,U1*%
X56977500Y15350000D03*
X56977500Y14400000D03*
X56977500Y13450000D03*
X59252500Y13450000D03*
X59252500Y15350000D03*
%TD*%
D13*
%TO.C,R52*%
X20152500Y-80350000D03*
X18327500Y-80350000D03*
%TD*%
D15*
%TO.C,R47*%
X20940000Y-43000000D03*
X22765000Y-43000000D03*
%TD*%
D29*
%TO.C,C25*%
X72265000Y-23999999D03*
X72265000Y-22099999D03*
%TD*%
D45*
%TO.C,U3*%
X22490000Y-142000000D03*
X24040000Y-142000000D03*
X22490000Y-140500000D03*
X24040000Y-140500000D03*
D46*
X21315000Y-144112500D03*
X21965000Y-144112500D03*
X22615000Y-144112500D03*
X23265000Y-144112500D03*
X23915000Y-144112500D03*
X24565000Y-144112500D03*
X25215000Y-144112500D03*
X25215000Y-138387500D03*
X24565000Y-138387500D03*
X23915000Y-138387500D03*
X23265000Y-138387500D03*
X22615000Y-138387500D03*
X21965000Y-138387500D03*
X21315000Y-138387500D03*
%TD*%
D27*
%TO.C,R20*%
X78440000Y-130837500D03*
X78440000Y-129012500D03*
%TD*%
D11*
%TO.C,U11*%
X31650000Y-35650000D03*
D12*
X28950000Y-33745000D03*
X28950000Y-35015000D03*
X28950000Y-36285000D03*
X28950000Y-37555000D03*
X34350000Y-37555000D03*
X34350000Y-36285000D03*
X34350000Y-35015000D03*
X34350000Y-33745000D03*
%TD*%
D27*
%TO.C,R28*%
X59290000Y-76412500D03*
X59290000Y-74587500D03*
%TD*%
D22*
%TO.C,U9*%
X22790000Y-112700000D03*
X22790000Y-113350000D03*
X22790000Y-114000000D03*
X24690000Y-114000000D03*
X24690000Y-112700000D03*
%TD*%
D15*
%TO.C,R56*%
X21315000Y-116600000D03*
X23140000Y-116600000D03*
%TD*%
D24*
%TO.C,C4*%
X28490000Y-138250000D03*
X30040000Y-138250000D03*
%TD*%
D14*
%TO.C,C52*%
X25315000Y-100400000D03*
X25315000Y-103350000D03*
%TD*%
D16*
%TO.C,C73*%
X62415000Y-34500000D03*
X62415000Y-36400000D03*
%TD*%
D29*
%TO.C,C74*%
X47190000Y-26375000D03*
X47190000Y-24475000D03*
%TD*%
D27*
%TO.C,R17*%
X90790000Y-143912500D03*
X90790000Y-142087500D03*
%TD*%
D25*
%TO.C,C22*%
X37650000Y-35850000D03*
X37650000Y-37400000D03*
%TD*%
D11*
%TO.C,U17*%
X56746250Y-70650000D03*
D12*
X54046250Y-68745000D03*
X54046250Y-70015000D03*
X54046250Y-71285000D03*
X54046250Y-72555000D03*
X59446250Y-72555000D03*
X59446250Y-71285000D03*
X59446250Y-70015000D03*
X59446250Y-68745000D03*
%TD*%
D43*
%TO.C,D24*%
X52840000Y-124265000D03*
X52840000Y-120265000D03*
%TD*%
D13*
%TO.C,R62*%
X48202500Y-39500000D03*
X46377500Y-39500000D03*
%TD*%
D15*
%TO.C,R72*%
X56027500Y-136352500D03*
X57852500Y-136352500D03*
%TD*%
D37*
%TO.C,R63*%
X48840000Y-93987500D03*
X48840000Y-99912500D03*
%TD*%
D20*
%TO.C,U19*%
X46790000Y-116400000D03*
X47740000Y-116400000D03*
X48690000Y-116400000D03*
X48690000Y-114125000D03*
X46790000Y-114125000D03*
%TD*%
D16*
%TO.C,C24*%
X84140000Y-21300000D03*
X84140000Y-23200000D03*
%TD*%
D13*
%TO.C,R60*%
X48702500Y-71900000D03*
X46877500Y-71900000D03*
%TD*%
D10*
%TO.C,R12*%
X21265000Y-131250000D03*
X21265000Y-133075000D03*
%TD*%
D28*
%TO.C,C21*%
X29150000Y-21125000D03*
X29150000Y-13125000D03*
%TD*%
D14*
%TO.C,C76*%
X50190000Y-28900000D03*
X50190000Y-31850000D03*
%TD*%
D21*
%TO.C,D3*%
X98040000Y-127937500D03*
X98040000Y-126062500D03*
%TD*%
D13*
%TO.C,R5*%
X76992500Y14416668D03*
X75167500Y14416668D03*
%TD*%
D26*
%TO.C,C43*%
X87890000Y-66625000D03*
X87890000Y-63675000D03*
%TD*%
D16*
%TO.C,C8*%
X23515000Y-150300000D03*
X23515000Y-152200000D03*
%TD*%
D11*
%TO.C,U12*%
X77990000Y-20600000D03*
D12*
X80690000Y-22505000D03*
X80690000Y-21235000D03*
X80690000Y-19965000D03*
X80690000Y-18695000D03*
X75290000Y-18695000D03*
X75290000Y-19965000D03*
X75290000Y-21235000D03*
X75290000Y-22505000D03*
%TD*%
D47*
%TO.C,C82*%
X58140000Y-128552500D03*
X58140000Y-127592500D03*
%TD*%
%TO.C,C84*%
X66540000Y-128552500D03*
X66540000Y-127592500D03*
%TD*%
D48*
%TO.C,R1*%
X60627500Y19840000D03*
X54702500Y19840000D03*
%TD*%
D36*
%TO.C,D1*%
X101350000Y1250000D03*
X99475000Y1250000D03*
%TD*%
D49*
%TO.C,D4*%
X101200000Y-5583334D03*
X99625000Y-5583334D03*
%TD*%
D45*
%TO.C,U2*%
X22490000Y-123000000D03*
X24040000Y-123000000D03*
X22490000Y-121500000D03*
X24040000Y-121500000D03*
D46*
X21315000Y-125112500D03*
X21965000Y-125112500D03*
X22615000Y-125112500D03*
X23265000Y-125112500D03*
X23915000Y-125112500D03*
X24565000Y-125112500D03*
X25215000Y-125112500D03*
X25215000Y-119387500D03*
X24565000Y-119387500D03*
X23915000Y-119387500D03*
X23265000Y-119387500D03*
X22615000Y-119387500D03*
X21965000Y-119387500D03*
X21315000Y-119387500D03*
%TD*%
D27*
%TO.C,R42*%
X20990000Y-114512500D03*
X20990000Y-112687500D03*
%TD*%
D26*
%TO.C,C15*%
X22500000Y-34950000D03*
X22500000Y-32000000D03*
%TD*%
D29*
%TO.C,C64*%
X50596250Y-69950000D03*
X50596250Y-68050000D03*
%TD*%
D34*
%TO.C,C30*%
X71990000Y-20400000D03*
X71990000Y-18850000D03*
%TD*%
D10*
%TO.C,R46*%
X69790000Y-91337500D03*
X69790000Y-93162500D03*
%TD*%
D14*
%TO.C,C68*%
X50246250Y-61650000D03*
X50246250Y-64600000D03*
%TD*%
D15*
%TO.C,R23*%
X88587500Y-1250000D03*
X90412500Y-1250000D03*
%TD*%
D13*
%TO.C,R61*%
X51615000Y-39500000D03*
X49790000Y-39500000D03*
%TD*%
D32*
%TO.C,L5*%
X34840000Y-101900000D03*
X28790000Y-101900000D03*
%TD*%
D15*
%TO.C,R34*%
X61627500Y-41750000D03*
X63452500Y-41750000D03*
%TD*%
D34*
%TO.C,C62*%
X72530000Y-94400000D03*
X72530000Y-92850000D03*
%TD*%
D17*
%TO.C,C61*%
X81030000Y-109125000D03*
X81030000Y-117125000D03*
%TD*%
D14*
%TO.C,C20*%
X25150000Y-26650000D03*
X25150000Y-29600000D03*
%TD*%
D32*
%TO.C,L7*%
X59771250Y-63150000D03*
X53721250Y-63150000D03*
%TD*%
D26*
%TO.C,C60*%
X85030000Y-103600000D03*
X85030000Y-100650000D03*
%TD*%
D13*
%TO.C,R24*%
X90412500Y-3250000D03*
X88587500Y-3250000D03*
%TD*%
D30*
%TO.C,C12*%
X85790000Y-55900000D03*
X87690000Y-55900000D03*
%TD*%
D27*
%TO.C,R22*%
X78440000Y-126837500D03*
X78440000Y-125012500D03*
%TD*%
D32*
%TO.C,L2*%
X74965000Y-28100000D03*
X81015000Y-28100000D03*
%TD*%
D43*
%TO.C,D25*%
X61240000Y-124265000D03*
X61240000Y-120265000D03*
%TD*%
D50*
%TO.C,C2*%
X61040000Y13500000D03*
X61040000Y12540000D03*
%TD*%
D29*
%TO.C,C48*%
X25665000Y-108700000D03*
X25665000Y-106800000D03*
%TD*%
D10*
%TO.C,R10*%
X80500000Y-5087500D03*
X80500000Y-6912500D03*
%TD*%
D29*
%TO.C,C72*%
X50540000Y-37200000D03*
X50540000Y-35300000D03*
%TD*%
D21*
%TO.C,D16*%
X10040000Y-114750000D03*
X10040000Y-112875000D03*
%TD*%
D47*
%TO.C,C80*%
X49740000Y-128552500D03*
X49740000Y-127592500D03*
%TD*%
D15*
%TO.C,R41*%
X26877500Y-115750000D03*
X28702500Y-115750000D03*
%TD*%
D31*
%TO.C,C13*%
X24640000Y-110850000D03*
X22740000Y-110850000D03*
%TD*%
D27*
%TO.C,R37*%
X40040000Y-75250000D03*
X40040000Y-73425000D03*
%TD*%
D32*
%TO.C,L4*%
X75365000Y-65100000D03*
X81415000Y-65100000D03*
%TD*%
D18*
%TO.C,D7*%
X12040000Y-42875000D03*
X12040000Y-44750000D03*
%TD*%
D14*
%TO.C,C51*%
X22315000Y-100375000D03*
X22315000Y-103325000D03*
%TD*%
D16*
%TO.C,C56*%
X84680000Y-95300000D03*
X84680000Y-97200000D03*
%TD*%
D36*
%TO.C,D20*%
X51977500Y-77150000D03*
X50102500Y-77150000D03*
%TD*%
D28*
%TO.C,C53*%
X29315000Y-94875000D03*
X29315000Y-86875000D03*
%TD*%
D13*
%TO.C,R7*%
X76992500Y11000000D03*
X75167500Y11000000D03*
%TD*%
D29*
%TO.C,C16*%
X25500000Y-34950000D03*
X25500000Y-33050000D03*
%TD*%
D14*
%TO.C,C36*%
X25150000Y-63650000D03*
X25150000Y-66600000D03*
%TD*%
D37*
%TO.C,R64*%
X44640000Y-93987500D03*
X44640000Y-99912500D03*
%TD*%
D15*
%TO.C,R67*%
X47627500Y-136352500D03*
X49452500Y-136352500D03*
%TD*%
D35*
%TO.C,C5*%
X26040000Y-129250000D03*
X24490000Y-129250000D03*
%TD*%
D10*
%TO.C,R39*%
X89440000Y-52237500D03*
X89440000Y-54062500D03*
%TD*%
%TO.C,R3*%
X60000000Y-5087500D03*
X60000000Y-6912500D03*
%TD*%
D13*
%TO.C,R4*%
X76992500Y17833334D03*
X75167500Y17833334D03*
%TD*%
D10*
%TO.C,R6*%
X84440000Y-122925000D03*
X84440000Y-124750000D03*
%TD*%
%TO.C,R13*%
X21265000Y-150337500D03*
X21265000Y-152162500D03*
%TD*%
D15*
%TO.C,R58*%
X88377500Y-85500000D03*
X90202500Y-85500000D03*
%TD*%
D31*
%TO.C,C1*%
X80500000Y2750000D03*
X78600000Y2750000D03*
%TD*%
D27*
%TO.C,R66*%
X47940000Y-129777500D03*
X47940000Y-127952500D03*
%TD*%
D25*
%TO.C,C54*%
X37815000Y-109600000D03*
X37815000Y-111150000D03*
%TD*%
D10*
%TO.C,R16*%
X62500000Y-5087500D03*
X62500000Y-6912500D03*
%TD*%
M02*
