M48
INCH
T1C0.0118
T2C0.0157
T3C0.0315
T4C0.0394
T5C0.0512
%
G90
G05
T1
X0.8136Y-4.7618
X0.8136Y-4.813
X0.8136Y-4.8642
X0.8136Y-5.5098
X0.8136Y-5.561
X0.8136Y-5.6122
X0.8648Y-4.7618
X0.8648Y-4.813
X0.8648Y-4.8642
X0.8648Y-5.5098
X0.8648Y-5.561
X0.8648Y-5.6122
X0.9159Y-4.7618
X0.9159Y-4.813
X0.9159Y-4.8642
X0.9159Y-5.5098
X0.9159Y-5.561
X0.9159Y-5.6122
X0.9671Y-4.7618
X0.9671Y-4.813
X0.9671Y-4.8642
X0.9671Y-5.5098
X0.9671Y-5.561
X0.9671Y-5.6122
X1.0183Y-4.7618
X1.0183Y-4.813
X1.0183Y-4.8642
X1.0183Y-5.5098
X1.0183Y-5.561
X1.0183Y-5.6122
X1.2205Y-1.3268
X1.2205Y-1.378
X1.2205Y-1.4291
X1.2205Y-1.4803
X1.2205Y-2.7835
X1.2205Y-2.8346
X1.2205Y-2.8858
X1.2205Y-2.937
X1.227Y-4.2303
X1.227Y-4.2815
X1.227Y-4.3327
X1.227Y-4.3839
X1.2717Y-1.3268
X1.2717Y-1.378
X1.2717Y-1.4291
X1.2717Y-1.4803
X1.2717Y-2.7835
X1.2717Y-2.8346
X1.2717Y-2.8858
X1.2717Y-2.937
X1.2781Y-4.2303
X1.2781Y-4.2815
X1.2781Y-4.3327
X1.2781Y-4.3839
X2.2063Y-1.4154
X2.2063Y-1.4665
X2.2063Y-1.5177
X2.2063Y-1.5689
X2.2085Y-2.7047
X2.2085Y-2.7559
X2.2085Y-2.8071
X2.2085Y-2.8583
X2.2575Y-1.4154
X2.2575Y-1.4665
X2.2575Y-1.5177
X2.2575Y-1.5689
X2.2597Y-2.7047
X2.2597Y-2.7559
X2.2597Y-2.8071
X2.2597Y-2.8583
X3.0449Y-0.7343
X3.0449Y-0.7854
X3.0449Y-0.8366
X3.0449Y-0.8878
X3.0606Y-2.1909
X3.0606Y-2.2421
X3.0606Y-2.2933
X3.0606Y-2.3445
X3.0661Y-3.6476
X3.0661Y-3.6988
X3.0661Y-3.75
X3.0661Y-3.8012
X3.0961Y-0.7343
X3.0961Y-0.7854
X3.0961Y-0.8366
X3.0961Y-0.8878
X3.1118Y-2.1909
X3.1118Y-2.2421
X3.1118Y-2.2933
X3.1118Y-2.3445
X3.1173Y-3.6476
X3.1173Y-3.6988
X3.1173Y-3.75
X3.1173Y-3.8012
T2
X0.3953Y-1.811
X0.3953Y-3.2677
X0.3953Y-4.5669
X0.4839Y-1.624
X0.4839Y-4.3996
X0.5035Y-3.0768
X0.6433Y-1.7244
X0.6748Y-4.5433
X0.7496Y-1.5059
X0.7594Y-4.4094
X0.7637Y-1.5798
X0.7693Y-4.5079
X0.7732Y-1.378
X0.7732Y-2.8346
X0.7791Y-3.0118
X0.7797Y-4.2815
X0.7803Y-3.0598
X0.7831Y-1.1614
X0.7831Y-1.2205
X0.7831Y-1.2795
X0.7831Y-2.6181
X0.7831Y-2.6772
X0.7831Y-2.7362
X0.7896Y-4.065
X0.7896Y-4.124
X0.7896Y-4.1831
X0.8224Y-1.378
X0.8224Y-2.8346
X0.8289Y-4.2815
X0.8372Y-5.28
X0.8372Y-6.0379
X0.9258Y-5.28
X0.9258Y-6.0379
X0.9583Y-4.5748
X0.9858Y-1.6634
X0.9934Y-3.1178
X1.0144Y-5.28
X1.0144Y-6.0379
X1.0154Y-1.4469
X1.0213Y-1.5906
X1.0252Y-4.3504
X1.0252Y-4.4783
X1.0449Y-0.4921
X1.0449Y-2.8937
X1.0449Y-3.1181
X1.0547Y-4.7146
X1.0553Y-3.4055
X1.0623Y-4.266
X1.0628Y-5.4643
X1.0685Y-1.378
X1.0744Y-1.9547
X1.0744Y-2.8346
X1.1Y-3.0472
X1.1325Y-5.0438
X1.1325Y-5.7918
X1.1719Y-5.0438
X1.1719Y-5.7918
X1.226Y-4.6895
X1.226Y-5.4331
X1.2555Y-0.4921
X1.2555Y-1.9587
X1.2614Y-3.4154
X1.5114Y-0.0039
X1.5409Y-1.378
X1.5409Y-1.4764
X1.5469Y-2.7264
X1.5469Y-2.8248
X1.5567Y-4.1732
X1.5567Y-4.2717
X1.5606Y-0.0039
X1.5803Y-1.4272
X1.5862Y-2.7756
X1.5961Y-4.2224
X1.6098Y-0.0039
X1.6551Y-3.1988
X1.6551Y-3.2579
X1.6551Y-3.3169
X1.6551Y-3.376
X1.6551Y-3.435
X1.6551Y-3.4941
X1.6551Y-3.5531
X1.6551Y-3.6122
X1.6591Y-0.0039
X1.6945Y-3.2283
X1.6945Y-3.2874
X1.6945Y-3.3465
X1.6945Y-3.4055
X1.6945Y-3.4646
X1.6945Y-3.5236
X1.6945Y-3.5827
X1.6945Y-3.6417
X1.7591Y-1.4665
X1.7613Y-2.7559
X1.7689Y-1.25
X1.7689Y-1.3091
X1.7689Y-1.3681
X1.7711Y-2.5394
X1.7711Y-2.5984
X1.7711Y-2.6575
X1.8083Y-1.4665
X1.8105Y-2.7559
X1.8224Y-5.4134
X1.852Y-4.8327
X1.8795Y-4.376
X1.8795Y-4.4409
X1.8795Y-4.5039
X1.9209Y-5.2264
X1.9898Y-5.2362
X2.0346Y-0.5906
X2.0369Y-1.8799
X2.0488Y-1.6043
X2.0543Y-1.4665
X2.0565Y-2.7559
X2.0685Y-2.8996
X2.0882Y-1.6831
X2.0882Y-2.3228
X2.0882Y-2.3819
X2.098Y-2.9685
X2.1571Y-2.3228
X2.1571Y-2.3819
X2.1571Y-2.9587
X2.1571Y-3.0079
X2.1571Y-3.0571
X2.1866Y0.561
X2.1866Y0.3839
X2.2102Y-4.376
X2.2102Y-4.4331
X2.2102Y-4.5098
X2.226Y-0.9941
X2.226Y-1.0433
X2.2413Y-0.5906
X2.2436Y-1.8799
X2.2457Y-4.6063
X2.2457Y-5.2116
X2.2654Y-1.7224
X2.285Y-0.9941
X2.285Y-1.0433
X2.3047Y0.0492
X2.3244Y-5.2756
X2.3539Y-4.9902
X2.3622Y-0.1919
X2.3955Y-3.061
X2.4425Y0.8169
X2.4425Y0.7677
X2.4425Y0.7185
X2.4917Y0.8169
X2.4917Y0.7677
X2.4917Y0.7185
X2.4917Y0.6693
X2.4917Y0.6201
X2.4917Y-0.0098
X2.5311Y-1.3681
X2.5311Y-1.4665
X2.5311Y-2.7559
X2.5311Y-2.8543
X2.5374Y0.8116
X2.5409Y0.7677
X2.5409Y0.7185
X2.5409Y0.6693
X2.5409Y0.6201
X2.5409Y-4.376
X2.5409Y-4.4409
X2.5409Y-4.5098
X2.5675Y0.374
X2.5705Y-0.1378
X2.5705Y-1.4173
X2.5705Y-2.8051
X2.5705Y-4.6063
X2.5777Y-5.2238
X2.6251Y0.3145
X2.6581Y0.0295
X2.6689Y0.3346
X2.6689Y0.1083
X2.6689Y-5.2067
X2.6856Y-4.6904
X2.6984Y0.2854
X2.6994Y-5.0295
X2.728Y-0.7874
X2.728Y-5.0787
X2.7575Y-2.3524
X2.7673Y-3.7628
X2.7673Y-0.7382
X2.7673Y-0.8366
X2.7673Y-4.9508
X2.7772Y-0.1673
X2.787Y-3.7402
X2.7919Y-3.8373
X2.7969Y-2.3031
X2.7969Y-2.4016
X2.8119Y-0.1407
X2.8751Y0.3445
X2.8779Y-0.1847
X2.9419Y0.3543
X2.9422Y-0.44
X2.9518Y-0.2781
X2.9839Y-0.4528
X2.9937Y-0.1181
X3.0134Y-0.0197
X3.0246Y0.3012
X3.0413Y0.1083
X3.0429Y-0.4528
X3.061Y-1.7126
X3.0724Y0.0197
X3.0823Y-3.1693
X3.0823Y-4.626
X3.0843Y0.4331
X3.0882Y-4.874
X3.0921Y0.7087
X3.0921Y0.5709
X3.0921Y-0.1673
X3.1007Y-0.1169
X3.1571Y-5.1791
X3.16Y0.0212
X3.1709Y0.7087
X3.1787Y0.4331
X3.1807Y0.5709
X3.2073Y0.1083
X3.2336Y0.016
X3.2398Y0.3051
X3.248Y-0.8366
X3.2638Y-2.2933
X3.2677Y-1.7126
X3.2693Y0.1673
X3.2693Y-3.75
X3.2752Y-4.9921
X3.2791Y-0.748
X3.2835Y-3.1693
X3.289Y-3.5197
X3.289Y-4.626
X3.2969Y-0.6063
X3.2988Y-0.2264
X3.2988Y-3.6713
X3.3185Y-2.1949
X3.3628Y-5.1321
X3.3776Y-3.4065
X3.3776Y-3.5728
X3.4071Y-0.5522
X3.4268Y-1.9596
X3.4547Y-0.0886
X3.472Y-5.002
X3.4941Y-0.8366
X3.5094Y-3.4094
X3.5098Y-2.2933
X3.5154Y-3.75
X3.5335Y-0.935
X3.5335Y-0.9941
X3.5335Y-1.0531
X3.5409Y-0.4724
X3.5411Y-0.5988
X3.5433Y-0.8366
X3.5492Y-2.3917
X3.5492Y-2.4508
X3.5492Y-2.5098
X3.5547Y-3.8484
X3.5547Y-3.9075
X3.5547Y-3.9665
X3.5553Y-0.6312
X3.5591Y-2.2933
X3.5646Y-3.75
X3.5727Y-2.0562
X3.5727Y-2.1072
X3.5744Y-3.5138
X3.5744Y-3.5531
X3.6335Y-0.0492
X3.6335Y-0.1083
X3.8303Y-0.5807
X3.85Y-2.0571
X3.85Y-3.5236
X3.9189Y-5.0591
X3.9386Y-0.3937
X3.9386Y-1.7717
X3.9386Y-3.1496
X4.0449Y-0.0866
X4.0528Y0.0472
X4.0528Y-0.2205
T3
X1.3189Y-4.5571
X1.3303Y-3.1201
X1.4189Y-4.5571
X1.4303Y-3.1201
X1.5189Y-4.5571
X1.5303Y-3.1201
X2.8264Y-1.998
X2.8331Y-3.4547
X2.9264Y-1.998
X2.9331Y-3.4547
X3.0264Y-1.998
X3.0331Y-3.4547
X3.2268Y-5.4193
X3.3268Y-5.4193
X3.4268Y-5.4193
T4
X1.7614Y-4.0555
X1.7614Y-4.1555
X1.9189Y-4.0555
X1.9189Y-4.1555
X1.9685Y0.226
X1.9685Y-0.374
X2.0685Y0.226
X2.0685Y-0.374
X2.0921Y-4.0555
X2.0921Y-4.1555
X2.1685Y0.226
X2.1685Y-0.374
X2.2496Y-4.0555
X2.2496Y-4.1555
X2.2685Y0.226
X2.2685Y-0.374
X2.3685Y0.226
X2.3685Y-0.374
X2.4228Y-4.0555
X2.4228Y-4.1555
X2.4685Y0.226
X2.4685Y-0.374
X2.5685Y0.226
X2.5685Y-0.374
X2.5803Y-4.0555
X2.5803Y-4.1555
X2.6685Y0.226
X2.6685Y-0.374
X2.6984Y0.6014
X2.6984Y0.5014
X2.7685Y0.226
X2.7685Y-0.374
X2.8685Y0.226
X2.8685Y-0.374
X2.9685Y0.226
X2.9685Y-0.374
X3.0685Y0.226
X3.0685Y-0.374
X3.1685Y0.226
X3.1685Y-0.374
X3.2685Y0.226
X3.2685Y-0.374
X3.3685Y0.226
X3.3685Y-0.374
T5
X0.0114Y0.7185
X0.0114Y0.5217
X0.0114Y0.1083
X0.0114Y-0.0886
X0.0114Y-0.5118
X0.0114Y-0.7087
X0.0114Y-0.9055
X0.0114Y-1.1024
X0.0114Y-1.2992
X0.0114Y-1.4961
X0.0114Y-1.6929
X0.0114Y-1.8898
X0.0114Y-2.0866
X0.0114Y-2.2835
X0.0114Y-2.4803
X0.0114Y-2.6772
X0.0114Y-2.874
X0.0114Y-3.0709
X0.0114Y-3.2677
X0.0114Y-3.4646
X0.0114Y-3.6614
X0.0114Y-3.8583
X0.0114Y-4.0551
X0.0114Y-4.252
X0.0114Y-4.4488
X0.0114Y-4.6457
X0.0114Y-4.8425
X0.0114Y-5.0394
X0.0114Y-5.2362
X0.0114Y-5.4331
X0.0114Y-5.6299
X0.0114Y-5.8268
X0.0114Y-6.0236
X0.8874Y1.565
X1.0843Y1.565
X1.2811Y1.565
X1.3933Y-6.8551
X1.478Y1.565
X1.5902Y-6.8551
X1.6748Y1.565
X1.787Y-6.8551
X1.8717Y1.565
X1.9839Y-6.8551
X2.0685Y1.565
X2.1807Y-6.8551
X2.2654Y1.565
X2.3776Y-6.8551
X2.4622Y1.565
X2.5744Y-6.8551
X2.6591Y1.565
X2.7713Y-6.8551
X2.8559Y1.565
X2.9681Y-6.8551
X3.0528Y1.565
X3.2496Y1.565
X3.4465Y1.565
X4.3224Y0.7185
X4.3224Y0.5217
X4.3224Y0.3248
X4.3224Y-0.5118
X4.3224Y-0.7087
X4.3224Y-0.9055
X4.3224Y-1.1024
X4.3224Y-1.2992
X4.3224Y-1.4961
X4.3224Y-1.6929
X4.3224Y-1.8898
X4.3224Y-2.0866
X4.3224Y-2.2835
X4.3224Y-2.4803
X4.3224Y-2.6772
X4.3224Y-2.874
X4.3224Y-3.0709
X4.3224Y-3.2677
X4.3224Y-3.4646
X4.3224Y-3.6614
X4.3224Y-3.8583
X4.3224Y-4.0551
X4.3224Y-4.252
X4.3224Y-4.4488
X4.3224Y-5.0394
X4.3224Y-5.2362
X4.3224Y-5.4331
X4.3224Y-5.6299
X4.3224Y-5.8268
X4.3224Y-6.0236
T5
G00X0.9169Y0.6791
M15
G01X0.9169Y0.4626
M16
G05
G00X1.5232Y0.6791
M15
G01X1.5232Y0.4626
M16
G05
T0
M30
