M48
INCH
T1C0.0118
T2C0.0157
T3C0.0315
T4C0.0394
T5C0.0512
T6C0.0787
%
G90
G05
T1
X1.1452Y-5.6654
X1.1452Y-5.7165
X1.1452Y-5.7677
X1.1452Y-5.8189
X1.1452Y-5.8701
X1.1964Y-5.6654
X1.1964Y-5.7165
X1.1964Y-5.7677
X1.1964Y-5.8189
X1.1964Y-5.8701
X1.2205Y-1.3268
X1.2205Y-1.378
X1.2205Y-1.4291
X1.2205Y-1.4803
X1.2205Y-2.7835
X1.2205Y-2.8346
X1.2205Y-2.8858
X1.2205Y-2.937
X1.227Y-4.2303
X1.227Y-4.2815
X1.227Y-4.3327
X1.227Y-4.3839
X1.2475Y-5.6654
X1.2475Y-5.7165
X1.2475Y-5.7677
X1.2475Y-5.8189
X1.2475Y-5.8701
X1.2717Y-1.3268
X1.2717Y-1.378
X1.2717Y-1.4291
X1.2717Y-1.4803
X1.2717Y-2.7835
X1.2717Y-2.8346
X1.2717Y-2.8858
X1.2717Y-2.937
X1.2781Y-4.2303
X1.2781Y-4.2815
X1.2781Y-4.3327
X1.2781Y-4.3839
X1.8932Y-5.6654
X1.8932Y-5.7165
X1.8932Y-5.7677
X1.8932Y-5.8189
X1.8932Y-5.8701
X1.9444Y-5.6654
X1.9444Y-5.7165
X1.9444Y-5.7677
X1.9444Y-5.8189
X1.9444Y-5.8701
X1.9956Y-5.6654
X1.9956Y-5.7165
X1.9956Y-5.7677
X1.9956Y-5.8189
X1.9956Y-5.8701
X2.2063Y-1.4154
X2.2063Y-1.4665
X2.2063Y-1.5177
X2.2063Y-1.5689
X2.2085Y-2.7874
X2.2085Y-2.8386
X2.2085Y-2.8898
X2.2085Y-2.9409
X2.2575Y-1.4154
X2.2575Y-1.4665
X2.2575Y-1.5177
X2.2575Y-1.5689
X2.2597Y-2.7874
X2.2597Y-2.8386
X2.2597Y-2.8898
X2.2597Y-2.9409
X2.6412Y-5.6654
X2.6412Y-5.7165
X2.6412Y-5.7677
X2.6412Y-5.8189
X2.6412Y-5.8701
X2.6924Y-5.6654
X2.6924Y-5.7165
X2.6924Y-5.7677
X2.6924Y-5.8189
X2.6924Y-5.8701
X2.7436Y-5.6654
X2.7436Y-5.7165
X2.7436Y-5.7677
X2.7436Y-5.8189
X2.7436Y-5.8701
X3.0449Y-0.7343
X3.0449Y-0.7854
X3.0449Y-0.8366
X3.0449Y-0.8878
X3.0606Y-2.1909
X3.0606Y-2.2421
X3.0606Y-2.2933
X3.0606Y-2.3445
X3.0661Y-3.6476
X3.0661Y-3.6988
X3.0661Y-3.75
X3.0661Y-3.8012
X3.0961Y-0.7343
X3.0961Y-0.7854
X3.0961Y-0.8366
X3.0961Y-0.8878
X3.1118Y-2.1909
X3.1118Y-2.2421
X3.1118Y-2.2933
X3.1118Y-2.3445
X3.1173Y-3.6476
X3.1173Y-3.6988
X3.1173Y-3.75
X3.1173Y-3.8012
T2
X0.6807Y-1.624
X0.6807Y-4.5374
X0.6906Y-3.0807
X0.7496Y-1.5059
X0.7594Y-4.439
X0.7693Y-1.5846
X0.7693Y-4.5079
X0.7732Y-1.378
X0.7732Y-2.8346
X0.7791Y-3.0118
X0.7791Y-3.061
X0.7797Y-4.2815
X0.7831Y-1.1614
X0.7831Y-1.2205
X0.7831Y-1.2795
X0.7831Y-2.6181
X0.7831Y-2.6772
X0.7831Y-2.7362
X0.7896Y-4.065
X0.7896Y-4.124
X0.7896Y-4.1831
X0.8224Y-1.378
X0.8224Y-2.8346
X0.8289Y-4.2815
X0.9957Y-0.0098
X1.0154Y-1.4469
X1.0252Y-4.3504
X1.0335Y-5.689
X1.0335Y-5.7382
X1.0449Y-0.0098
X1.0449Y-0.4921
X1.0449Y-2.8937
X1.0488Y-1.9587
X1.0531Y-5.6299
X1.0553Y-3.4055
X1.0623Y-4.266
X1.0685Y-1.378
X1.0685Y-2.8346
X1.0728Y-5.4901
X1.0941Y-0.0098
X1.1335Y-3.189
X1.1433Y-0.0098
X1.1713Y-1.565
X1.1713Y-1.6732
X1.1713Y-3.0217
X1.1778Y-4.4685
X1.1827Y-3.2185
X1.1827Y-4.6358
X1.1925Y-4.6767
X1.2555Y-0.4921
X1.2555Y-1.9587
X1.2614Y-3.4154
X1.4075Y-1.7126
X1.4173Y-1.4173
X1.4173Y-2.874
X1.4238Y-4.3209
X1.4272Y-5.5118
X1.4272Y-5.5512
X1.5409Y-1.378
X1.5409Y-1.4764
X1.5469Y-2.7264
X1.5469Y-2.8248
X1.5567Y-4.1732
X1.5567Y-4.2717
X1.5803Y-1.4272
X1.5862Y-2.7756
X1.5961Y-4.2224
X1.6453Y-3.8386
X1.6551Y-1.2106
X1.6551Y-2.6476
X1.6634Y-5.6693
X1.6634Y-5.7579
X1.6634Y-5.8465
X1.6669Y-5.1102
X1.6748Y-3.9685
X1.6748Y-4.0394
X1.6748Y-4.1024
X1.6748Y-4.1732
X1.7063Y-3.9055
X1.7591Y-1.4665
X1.7613Y-2.8386
X1.7689Y-1.25
X1.7689Y-1.3091
X1.7689Y-1.3681
X1.7711Y-2.622
X1.7711Y-2.6811
X1.7711Y-2.7402
X1.7717Y-5.689
X1.7717Y-5.7382
X1.8083Y-1.4665
X1.8105Y-2.8386
X1.811Y-5.6299
X1.8209Y-5.4901
X1.8421Y0.5217
X1.8421Y0.3445
X1.9189Y-4.5591
X1.9189Y-4.6299
X1.9346Y-4.4961
X1.9504Y-4.5906
X1.9819Y-4.7874
X2.0346Y-0.5906
X2.0369Y-1.9626
X2.0543Y-1.4665
X2.0565Y-2.8386
X2.0882Y-2.4055
X2.0882Y-2.4646
X2.1079Y0.7874
X2.1079Y0.7283
X2.1571Y-2.4055
X2.1571Y-2.4646
X2.1669Y0.7874
X2.1669Y0.7283
X2.1669Y0.6693
X2.1669Y-3.0945
X2.1752Y-5.5118
X2.1752Y-5.5512
X2.226Y0.7874
X2.226Y0.7283
X2.226Y0.6693
X2.226Y-0.9941
X2.226Y-1.0433
X2.2413Y-0.5906
X2.2436Y-1.9626
X2.2654Y-1.7224
X2.285Y0.7874
X2.285Y0.7283
X2.285Y0.6693
X2.285Y0.6102
X2.285Y-0.9941
X2.285Y-1.0433
X2.3047Y0.0492
X2.3441Y0.7874
X2.3441Y0.7283
X2.3441Y0.6693
X2.3441Y0.6102
X2.3622Y-0.1919
X2.3933Y-1.7717
X2.3955Y-3.1437
X2.4031Y0.7874
X2.4031Y0.7283
X2.4031Y0.6693
X2.4031Y0.6102
X2.4031Y-1.5059
X2.4054Y-2.878
X2.4213Y-5.6693
X2.4213Y-5.7579
X2.4213Y-5.8465
X2.4622Y0.7874
X2.4622Y0.7283
X2.4622Y0.6693
X2.4622Y0.6102
X2.4622Y0.1476
X2.4917Y-0.0098
X2.5197Y-5.689
X2.5197Y-5.7382
X2.5252Y-4.5591
X2.5252Y-4.6299
X2.5311Y-1.3681
X2.5311Y-1.4665
X2.5311Y-2.8386
X2.5311Y-2.937
X2.5409Y-4.4882
X2.5567Y-4.5906
X2.5591Y-5.4528
X2.5591Y-5.6201
X2.5606Y-0.1476
X2.5705Y-1.4173
X2.5705Y-2.8878
X2.5852Y0.3248
X2.6527Y0.0295
X2.6906Y-4.7559
X2.726Y-4.0079
X2.726Y-4.0748
X2.726Y-4.1378
X2.728Y-0.7874
X2.7476Y-3.7894
X2.7575Y-2.3524
X2.7614Y-4.2008
X2.7673Y-0.7382
X2.7673Y-0.8366
X2.7772Y-0.1673
X2.787Y-3.7402
X2.787Y-3.8386
X2.789Y-4.8386
X2.7969Y-2.3031
X2.7969Y-2.4016
X2.8751Y0.3445
X2.8992Y-0.7972
X2.9091Y-0.502
X2.915Y-2.2539
X2.9205Y-3.7106
X2.9232Y-5.5118
X2.9232Y-5.5512
X2.9419Y0.3543
X2.9543Y0.1083
X3.0413Y0.1083
X3.061Y-1.7126
X3.0724Y0.0197
X3.0823Y-3.1693
X3.0823Y-4.626
X3.1453Y-0.4981
X3.1453Y-0.6496
X3.1512Y-1.9291
X3.16Y0.0212
X3.161Y-2.1063
X3.1665Y-3.5335
X3.1682Y-5.6704
X3.1693Y-5.7579
X3.1693Y-5.8465
X3.1709Y-3.3661
X3.1816Y-3.4213
X3.1943Y-1.9646
X3.2283Y0.1083
X3.2299Y0.7021
X3.2299Y0.5741
X3.2299Y0.4265
X3.2398Y-0.1969
X3.248Y-0.8366
X3.2638Y-2.2933
X3.2677Y-1.7126
X3.2693Y-3.75
X3.2791Y-0.748
X3.2835Y-3.1693
X3.289Y-4.626
X3.2988Y0.315
X3.2988Y-3.6713
X3.3185Y-2.1949
X3.3677Y-0.1969
X3.3972Y-0.2362
X3.4547Y-0.0886
X3.4941Y-0.8366
X3.5098Y-2.2933
X3.5154Y-3.75
X3.5335Y-0.935
X3.5335Y-0.9941
X3.5335Y-1.0531
X3.5433Y-0.8366
X3.5449Y-0.5807
X3.5492Y-2.3917
X3.5492Y-2.4508
X3.5492Y-2.5098
X3.5547Y-0.6299
X3.5547Y-3.8484
X3.5547Y-3.9075
X3.5547Y-3.9665
X3.5591Y-2.2933
X3.5646Y-3.75
X3.5744Y-2.0571
X3.5744Y-2.1063
X3.5744Y-3.5138
X3.5744Y-3.5728
X3.622Y-0.0492
X3.622Y-0.1083
X3.6335Y-0.5807
X3.6531Y-2.0571
X3.6531Y-3.5138
X3.6713Y-4.9311
X3.7106Y-4.813
X3.7598Y-5.0787
X3.8484Y-5.2461
X3.8583Y-5.0492
X3.937Y-5.2559
X3.9764Y-4.8622
T3
X1.3189Y-4.5571
X1.3303Y-3.1201
X1.4189Y-4.5571
X1.4303Y-3.1201
X1.5189Y-4.5571
X1.5303Y-3.1201
X2.8264Y-1.998
X2.8331Y-3.4547
X2.9264Y-1.998
X2.9331Y-3.4547
X3.0264Y-1.998
X3.0331Y-3.4547
X3.4252Y-5.5866
X3.4252Y-5.6866
X3.4252Y-5.7866
T4
X1.8165Y-4.1756
X1.8165Y-4.2756
X1.9685Y0.226
X1.9685Y-0.374
X1.974Y-4.1756
X1.974Y-4.2756
X2.0685Y0.226
X2.0685Y-0.374
X2.1685Y0.226
X2.1685Y-0.374
X2.2685Y0.226
X2.2685Y-0.374
X2.3685Y0.226
X2.3685Y-0.374
X2.4228Y-4.1662
X2.4228Y-4.2662
X2.4685Y0.226
X2.4685Y-0.374
X2.5685Y0.226
X2.5685Y-0.374
X2.5803Y-4.1662
X2.5803Y-4.2662
X2.6492Y0.7906
X2.6492Y0.6906
X2.6492Y0.5906
X2.6492Y0.4906
X2.6492Y0.3906
X2.6685Y0.226
X2.6685Y-0.374
X2.7685Y0.226
X2.7685Y-0.374
X2.8685Y0.226
X2.8685Y-0.374
X2.9685Y0.226
X2.9685Y-0.374
X3.0685Y0.226
X3.0685Y-0.374
X3.1685Y0.226
X3.1685Y-0.374
X3.2685Y0.226
X3.2685Y-0.374
X3.3685Y0.226
X3.3685Y-0.374
T5
X0.2165Y-5.4921
X0.2165Y-5.689
X0.2165Y-5.8858
X0.2165Y-6.0827
X0.2165Y-6.2795
X0.2165Y-6.4764
X0.222Y-0.5138
X0.222Y-0.7106
X0.222Y-0.9075
X0.222Y-1.1043
X0.222Y-1.3012
X0.222Y-1.498
X0.222Y-1.6949
X0.222Y-1.9685
X0.222Y-2.1654
X0.222Y-2.3622
X0.222Y-2.5591
X0.222Y-2.7559
X0.222Y-2.9528
X0.222Y-3.1496
X0.222Y-3.4252
X0.222Y-3.622
X0.222Y-3.8189
X0.222Y-4.0157
X0.222Y-4.2126
X0.222Y-4.4094
X0.222Y-4.6063
X0.3362Y1.3583
X0.5331Y1.3583
X0.8677Y1.3583
X1.0646Y1.3583
X1.122Y-6.4764
X1.3189Y-6.4764
X1.3795Y1.3583
X1.5157Y-6.4764
X1.5764Y1.3583
X1.7126Y-6.4764
X1.7732Y1.3583
X1.9094Y-6.4764
X1.9701Y1.3583
X2.1063Y-6.4764
X2.1669Y1.3583
X2.3031Y-6.4764
X2.3638Y1.3583
X2.5Y-6.4764
X2.5606Y1.3583
X2.6969Y-6.4764
X2.7575Y1.3583
X2.8937Y-6.4764
X2.9543Y1.3583
X3.0906Y-6.4764
X3.1512Y1.3583
X3.2874Y-6.4764
X3.348Y1.3583
X3.5449Y1.3583
X3.7417Y1.3583
X3.9386Y1.3583
X4.1142Y0.7579
X4.1142Y0.561
X4.1142Y0.3642
X4.1142Y-0.5118
X4.1142Y-0.7087
X4.1142Y-0.9055
X4.1142Y-1.1024
X4.1142Y-1.2992
X4.1142Y-1.4961
X4.1142Y-1.6929
X4.1142Y-1.9685
X4.1142Y-2.1654
X4.1142Y-2.3622
X4.1142Y-2.5591
X4.1142Y-2.7559
X4.1142Y-2.9528
X4.1142Y-3.1496
X4.1142Y-3.4252
X4.1142Y-3.622
X4.1142Y-3.8189
X4.1142Y-4.0157
X4.1142Y-4.2126
X4.1142Y-4.4094
X4.1142Y-4.6063
X4.1339Y-5.4921
X4.1339Y-5.689
X4.1339Y-5.8858
X4.1339Y-6.0827
X4.1339Y-6.2795
X4.1339Y-6.4764
T6
G00X0.5272Y0.626
M15
G01X0.5272Y0.437
M16
G05
G00X1.661Y0.626
M15
G01X1.661Y0.437
M16
G05
T0
M30
