G04 #@! TF.GenerationSoftware,KiCad,Pcbnew,(6.0.5-0)*
G04 #@! TF.CreationDate,2023-01-20T14:12:10+00:00*
G04 #@! TF.ProjectId,pipcb,70697063-622e-46b6-9963-61645f706362,rev?*
G04 #@! TF.SameCoordinates,Original*
G04 #@! TF.FileFunction,Copper,L1,Top*
G04 #@! TF.FilePolarity,Positive*
%FSLAX46Y46*%
G04 Gerber Fmt 4.6, Leading zero omitted, Abs format (unit mm)*
G04 Created by KiCad (PCBNEW (6.0.5-0)) date 2023-01-20 14:12:10*
%MOMM*%
%LPD*%
G01*
G04 APERTURE LIST*
G04 Aperture macros list*
%AMRoundRect*
0 Rectangle with rounded corners*
0 $1 Rounding radius*
0 $2 $3 $4 $5 $6 $7 $8 $9 X,Y pos of 4 corners*
0 Add a 4 corners polygon primitive as box body*
4,1,4,$2,$3,$4,$5,$6,$7,$8,$9,$2,$3,0*
0 Add four circle primitives for the rounded corners*
1,1,$1+$1,$2,$3*
1,1,$1+$1,$4,$5*
1,1,$1+$1,$6,$7*
1,1,$1+$1,$8,$9*
0 Add four rect primitives between the rounded corners*
20,1,$1+$1,$2,$3,$4,$5,0*
20,1,$1+$1,$4,$5,$6,$7,0*
20,1,$1+$1,$6,$7,$8,$9,0*
20,1,$1+$1,$8,$9,$2,$3,0*%
G04 Aperture macros list end*
G04 #@! TA.AperFunction,SMDPad,CuDef*
%ADD10RoundRect,0.250000X-0.450000X0.262500X-0.450000X-0.262500X0.450000X-0.262500X0.450000X0.262500X0*%
G04 #@! TD*
G04 #@! TA.AperFunction,SMDPad,CuDef*
%ADD11R,2.500000X1.900000*%
G04 #@! TD*
G04 #@! TA.AperFunction,ComponentPad*
%ADD12R,2.600000X2.600000*%
G04 #@! TD*
G04 #@! TA.AperFunction,ComponentPad*
%ADD13C,2.600000*%
G04 #@! TD*
G04 #@! TA.AperFunction,SMDPad,CuDef*
%ADD14R,2.500000X1.800000*%
G04 #@! TD*
G04 #@! TA.AperFunction,SMDPad,CuDef*
%ADD15RoundRect,0.250000X1.000000X-1.750000X1.000000X1.750000X-1.000000X1.750000X-1.000000X-1.750000X0*%
G04 #@! TD*
G04 #@! TA.AperFunction,SMDPad,CuDef*
%ADD16RoundRect,0.250000X0.450000X-0.262500X0.450000X0.262500X-0.450000X0.262500X-0.450000X-0.262500X0*%
G04 #@! TD*
G04 #@! TA.AperFunction,SMDPad,CuDef*
%ADD17RoundRect,0.250000X0.475000X-0.250000X0.475000X0.250000X-0.475000X0.250000X-0.475000X-0.250000X0*%
G04 #@! TD*
G04 #@! TA.AperFunction,SMDPad,CuDef*
%ADD18RoundRect,0.250000X-1.000000X1.750000X-1.000000X-1.750000X1.000000X-1.750000X1.000000X1.750000X0*%
G04 #@! TD*
G04 #@! TA.AperFunction,SMDPad,CuDef*
%ADD19RoundRect,0.250000X-0.262500X-0.450000X0.262500X-0.450000X0.262500X0.450000X-0.262500X0.450000X0*%
G04 #@! TD*
G04 #@! TA.AperFunction,SMDPad,CuDef*
%ADD20RoundRect,0.250000X1.750000X1.000000X-1.750000X1.000000X-1.750000X-1.000000X1.750000X-1.000000X0*%
G04 #@! TD*
G04 #@! TA.AperFunction,SMDPad,CuDef*
%ADD21R,4.100000X4.100000*%
G04 #@! TD*
G04 #@! TA.AperFunction,SMDPad,CuDef*
%ADD22RoundRect,0.250000X-1.750000X-1.000000X1.750000X-1.000000X1.750000X1.000000X-1.750000X1.000000X0*%
G04 #@! TD*
G04 #@! TA.AperFunction,ComponentPad*
%ADD23C,1.440000*%
G04 #@! TD*
G04 #@! TA.AperFunction,SMDPad,CuDef*
%ADD24RoundRect,0.225000X-0.250000X0.225000X-0.250000X-0.225000X0.250000X-0.225000X0.250000X0.225000X0*%
G04 #@! TD*
G04 #@! TA.AperFunction,SMDPad,CuDef*
%ADD25R,4.600000X1.100000*%
G04 #@! TD*
G04 #@! TA.AperFunction,SMDPad,CuDef*
%ADD26R,9.400000X10.800000*%
G04 #@! TD*
G04 #@! TA.AperFunction,SMDPad,CuDef*
%ADD27RoundRect,0.250000X-0.650000X0.325000X-0.650000X-0.325000X0.650000X-0.325000X0.650000X0.325000X0*%
G04 #@! TD*
G04 #@! TA.AperFunction,SMDPad,CuDef*
%ADD28RoundRect,0.250000X-0.250000X-0.475000X0.250000X-0.475000X0.250000X0.475000X-0.250000X0.475000X0*%
G04 #@! TD*
G04 #@! TA.AperFunction,SMDPad,CuDef*
%ADD29R,2.200000X1.200000*%
G04 #@! TD*
G04 #@! TA.AperFunction,SMDPad,CuDef*
%ADD30R,6.400000X5.800000*%
G04 #@! TD*
G04 #@! TA.AperFunction,SMDPad,CuDef*
%ADD31RoundRect,0.243750X0.243750X0.456250X-0.243750X0.456250X-0.243750X-0.456250X0.243750X-0.456250X0*%
G04 #@! TD*
G04 #@! TA.AperFunction,SMDPad,CuDef*
%ADD32RoundRect,0.150000X0.150000X-0.825000X0.150000X0.825000X-0.150000X0.825000X-0.150000X-0.825000X0*%
G04 #@! TD*
G04 #@! TA.AperFunction,SMDPad,CuDef*
%ADD33RoundRect,0.100000X0.687500X0.100000X-0.687500X0.100000X-0.687500X-0.100000X0.687500X-0.100000X0*%
G04 #@! TD*
G04 #@! TA.AperFunction,ComponentPad*
%ADD34C,0.600000*%
G04 #@! TD*
G04 #@! TA.AperFunction,SMDPad,CuDef*
%ADD35R,3.400000X5.000000*%
G04 #@! TD*
G04 #@! TA.AperFunction,SMDPad,CuDef*
%ADD36RoundRect,0.250000X0.650000X-0.325000X0.650000X0.325000X-0.650000X0.325000X-0.650000X-0.325000X0*%
G04 #@! TD*
G04 #@! TA.AperFunction,SMDPad,CuDef*
%ADD37RoundRect,0.150000X-0.825000X-0.150000X0.825000X-0.150000X0.825000X0.150000X-0.825000X0.150000X0*%
G04 #@! TD*
G04 #@! TA.AperFunction,SMDPad,CuDef*
%ADD38R,2.000000X1.500000*%
G04 #@! TD*
G04 #@! TA.AperFunction,SMDPad,CuDef*
%ADD39R,2.000000X3.800000*%
G04 #@! TD*
G04 #@! TA.AperFunction,SMDPad,CuDef*
%ADD40RoundRect,0.243750X-0.243750X-0.456250X0.243750X-0.456250X0.243750X0.456250X-0.243750X0.456250X0*%
G04 #@! TD*
G04 #@! TA.AperFunction,SMDPad,CuDef*
%ADD41RoundRect,0.250000X0.262500X0.450000X-0.262500X0.450000X-0.262500X-0.450000X0.262500X-0.450000X0*%
G04 #@! TD*
G04 #@! TA.AperFunction,SMDPad,CuDef*
%ADD42RoundRect,0.218750X0.218750X0.256250X-0.218750X0.256250X-0.218750X-0.256250X0.218750X-0.256250X0*%
G04 #@! TD*
G04 #@! TA.AperFunction,ComponentPad*
%ADD43C,2.000000*%
G04 #@! TD*
G04 #@! TA.AperFunction,SMDPad,CuDef*
%ADD44R,1.800000X2.500000*%
G04 #@! TD*
G04 #@! TA.AperFunction,ComponentPad*
%ADD45R,1.600000X1.600000*%
G04 #@! TD*
G04 #@! TA.AperFunction,ComponentPad*
%ADD46O,1.600000X1.600000*%
G04 #@! TD*
G04 #@! TA.AperFunction,SMDPad,CuDef*
%ADD47RoundRect,0.250000X0.250000X0.475000X-0.250000X0.475000X-0.250000X-0.475000X0.250000X-0.475000X0*%
G04 #@! TD*
G04 #@! TA.AperFunction,ViaPad*
%ADD48C,0.800000*%
G04 #@! TD*
G04 #@! TA.AperFunction,Conductor*
%ADD49C,0.250000*%
G04 #@! TD*
G04 #@! TA.AperFunction,Conductor*
%ADD50C,1.000000*%
G04 #@! TD*
G04 #@! TA.AperFunction,Conductor*
%ADD51C,4.000000*%
G04 #@! TD*
G04 #@! TA.AperFunction,Conductor*
%ADD52C,0.500000*%
G04 #@! TD*
G04 APERTURE END LIST*
D10*
X68000000Y-5087500D03*
X68000000Y-6912500D03*
D11*
X63000000Y-32700000D03*
X63000000Y-36800000D03*
D12*
X31000000Y34500000D03*
D13*
X26000000Y34500000D03*
X21000000Y34500000D03*
X16000000Y34500000D03*
D11*
X46000000Y-32575000D03*
X46000000Y-28475000D03*
D12*
X104500000Y-80000000D03*
D13*
X104500000Y-75000000D03*
X104500000Y-70000000D03*
X104500000Y-65000000D03*
X104500000Y-60000000D03*
X104500000Y-55000000D03*
X104500000Y-50000000D03*
D10*
X51000000Y-31337500D03*
X51000000Y-33162500D03*
D14*
X49387500Y-140500000D03*
X53387500Y-140500000D03*
D15*
X46500000Y-24000000D03*
X46500000Y-16000000D03*
D16*
X39000000Y-72187500D03*
X39000000Y-70362500D03*
D17*
X27387500Y-141450000D03*
X27387500Y-139550000D03*
D18*
X62000000Y-41750000D03*
X62000000Y-49750000D03*
D19*
X39387500Y-144000000D03*
X41212500Y-144000000D03*
X77475000Y-148500000D03*
X79300000Y-148500000D03*
D15*
X76000000Y-22750000D03*
X76000000Y-14750000D03*
D20*
X37000000Y-102275000D03*
X29000000Y-102275000D03*
D15*
X48000000Y-107275000D03*
X48000000Y-99275000D03*
D21*
X63000000Y-105375000D03*
X63000000Y-113175000D03*
D11*
X47000000Y-74325000D03*
X47000000Y-70225000D03*
D19*
X28893750Y-2250000D03*
X30718750Y-2250000D03*
D22*
X20750000Y9000000D03*
X28750000Y9000000D03*
D23*
X70000000Y-76450000D03*
X70000000Y-78990000D03*
X70000000Y-81530000D03*
D24*
X56387500Y-143725000D03*
X56387500Y-145275000D03*
D14*
X65000000Y-99275000D03*
X61000000Y-99275000D03*
X30387500Y-140450000D03*
X34387500Y-140450000D03*
D23*
X40000000Y-121450000D03*
X40000000Y-123990000D03*
X40000000Y-126530000D03*
D18*
X61500000Y-127500000D03*
X61500000Y-135500000D03*
D16*
X100375000Y-127500000D03*
X100375000Y-125675000D03*
D21*
X34600000Y-4000000D03*
X42400000Y-4000000D03*
D12*
X104500000Y-117000000D03*
D13*
X104500000Y-112000000D03*
X104500000Y-107000000D03*
X104500000Y-102000000D03*
X104500000Y-97000000D03*
X104500000Y-92000000D03*
X104500000Y-87000000D03*
D12*
X104500000Y9250000D03*
D13*
X104500000Y14250000D03*
X104500000Y19250000D03*
D10*
X65250000Y-5087500D03*
X65250000Y-6912500D03*
D25*
X76225000Y-69850000D03*
X76225000Y-71550000D03*
D26*
X85375000Y-73250000D03*
D25*
X76225000Y-73250000D03*
X76225000Y-74950000D03*
X76225000Y-76650000D03*
D14*
X29950000Y-8000000D03*
X25950000Y-8000000D03*
D10*
X52000000Y-112362500D03*
X52000000Y-114187500D03*
D27*
X54000000Y14475000D03*
X54000000Y11525000D03*
D22*
X75000000Y-89275000D03*
X83000000Y-89275000D03*
D28*
X39350000Y-146250000D03*
X41250000Y-146250000D03*
D16*
X71000000Y-115187500D03*
X71000000Y-113362500D03*
D29*
X48200000Y15632500D03*
X48200000Y17912500D03*
D30*
X41900000Y17912500D03*
D29*
X48200000Y20192500D03*
D11*
X47000000Y-117325000D03*
X47000000Y-113225000D03*
D19*
X58475000Y-144000000D03*
X60300000Y-144000000D03*
D21*
X62750000Y-61500000D03*
X62750000Y-69300000D03*
D31*
X76500000Y13083334D03*
X74625000Y13083334D03*
D32*
X93970000Y-131475000D03*
X95240000Y-131475000D03*
X96510000Y-131475000D03*
X97780000Y-131475000D03*
X97780000Y-126525000D03*
X96510000Y-126525000D03*
X95240000Y-126525000D03*
X93970000Y-126525000D03*
D15*
X77000000Y-107275000D03*
X77000000Y-99275000D03*
D12*
X104500000Y-43000000D03*
D13*
X104500000Y-38000000D03*
X104500000Y-33000000D03*
X104500000Y-28000000D03*
X104500000Y-23000000D03*
X104500000Y-18000000D03*
X104500000Y-13000000D03*
D25*
X33775000Y-119675000D03*
X33775000Y-117975000D03*
X33775000Y-116275000D03*
D26*
X24625000Y-116275000D03*
D25*
X33775000Y-114575000D03*
X33775000Y-112875000D03*
D16*
X71000000Y-70187500D03*
X71000000Y-68362500D03*
D25*
X33725000Y-76675000D03*
X33725000Y-74975000D03*
X33725000Y-73275000D03*
D26*
X24575000Y-73275000D03*
D25*
X33725000Y-71575000D03*
X33725000Y-69875000D03*
D11*
X62500000Y-117950000D03*
X62500000Y-122050000D03*
D10*
X52000000Y-73275000D03*
X52000000Y-75100000D03*
D12*
X5500000Y-139500000D03*
D13*
X5500000Y-144500000D03*
X5500000Y-149500000D03*
X5500000Y-154500000D03*
X5500000Y-159500000D03*
X5500000Y-164500000D03*
D21*
X62000000Y-20850000D03*
X62000000Y-28650000D03*
D19*
X71127500Y19916666D03*
X72952500Y19916666D03*
X94000000Y-134500000D03*
X95825000Y-134500000D03*
D22*
X77000000Y-129000000D03*
X85000000Y-129000000D03*
D20*
X42250000Y8250000D03*
X34250000Y8250000D03*
D10*
X39050000Y-31975000D03*
X39050000Y-33800000D03*
D15*
X77000000Y-63500000D03*
X77000000Y-55500000D03*
D33*
X71250000Y-148450000D03*
X71250000Y-147800000D03*
X71250000Y-147150000D03*
X71250000Y-146500000D03*
X71250000Y-145850000D03*
X71250000Y-145200000D03*
X71250000Y-144550000D03*
X65525000Y-144550000D03*
X65525000Y-145200000D03*
X65525000Y-145850000D03*
X65525000Y-146500000D03*
X65525000Y-147150000D03*
X65525000Y-147800000D03*
X65525000Y-148450000D03*
D34*
X67087500Y-145200000D03*
X68387500Y-143900000D03*
X69687500Y-147800000D03*
D35*
X68387500Y-146500000D03*
D34*
X69687500Y-143900000D03*
X69687500Y-146500000D03*
X68387500Y-149100000D03*
X67087500Y-143900000D03*
X68387500Y-145200000D03*
X67087500Y-147800000D03*
X68387500Y-146500000D03*
X67087500Y-149100000D03*
X69687500Y-149100000D03*
X69687500Y-145200000D03*
X68387500Y-147800000D03*
X67087500Y-146500000D03*
D36*
X54000000Y16525000D03*
X54000000Y19475000D03*
D28*
X25000000Y1500000D03*
X26900000Y1500000D03*
D18*
X33550000Y-42475000D03*
X33550000Y-50475000D03*
D16*
X58750000Y-37537500D03*
X58750000Y-35712500D03*
D12*
X5640000Y-13000000D03*
D13*
X5640000Y-18000000D03*
X5640000Y-23000000D03*
X5640000Y-28000000D03*
X5640000Y-33000000D03*
X5640000Y-38000000D03*
D21*
X47000000Y-44650000D03*
X47000000Y-36850000D03*
D25*
X33725000Y-36150000D03*
X33725000Y-34450000D03*
X33725000Y-32750000D03*
D26*
X24575000Y-32750000D03*
D25*
X33725000Y-31050000D03*
X33725000Y-29350000D03*
D10*
X52000000Y-69362500D03*
X52000000Y-71187500D03*
D16*
X39000000Y-116100000D03*
X39000000Y-114275000D03*
D25*
X76225000Y-29350000D03*
X76225000Y-31050000D03*
D26*
X85375000Y-32750000D03*
D25*
X76225000Y-32750000D03*
X76225000Y-34450000D03*
X76225000Y-36150000D03*
D14*
X67500000Y-15250000D03*
X63500000Y-15250000D03*
D33*
X52250000Y-148450000D03*
X52250000Y-147800000D03*
X52250000Y-147150000D03*
X52250000Y-146500000D03*
X52250000Y-145850000D03*
X52250000Y-145200000D03*
X52250000Y-144550000D03*
X46525000Y-144550000D03*
X46525000Y-145200000D03*
X46525000Y-145850000D03*
X46525000Y-146500000D03*
X46525000Y-147150000D03*
X46525000Y-147800000D03*
X46525000Y-148450000D03*
D34*
X50687500Y-149100000D03*
X48087500Y-149100000D03*
X50687500Y-145200000D03*
X50687500Y-146500000D03*
X48087500Y-147800000D03*
X48087500Y-146500000D03*
X50687500Y-143900000D03*
X50687500Y-147800000D03*
X49387500Y-143900000D03*
X49387500Y-145200000D03*
X49387500Y-149100000D03*
X49387500Y-146500000D03*
X49387500Y-147800000D03*
X48087500Y-143900000D03*
D35*
X49387500Y-146500000D03*
D34*
X48087500Y-145200000D03*
D10*
X52000000Y-116362500D03*
X52000000Y-118187500D03*
D12*
X5640000Y-47500000D03*
D13*
X5640000Y-52500000D03*
X5640000Y-57500000D03*
X5640000Y-62500000D03*
X5640000Y-67500000D03*
X5640000Y-72500000D03*
X5640000Y-77500000D03*
D19*
X93962500Y-123500000D03*
X95787500Y-123500000D03*
D37*
X8525000Y-124190000D03*
X8525000Y-125460000D03*
X8525000Y-126730000D03*
X8525000Y-128000000D03*
X8525000Y-129270000D03*
X8525000Y-130540000D03*
X8525000Y-131810000D03*
X13475000Y-131810000D03*
X13475000Y-130540000D03*
X13475000Y-129270000D03*
X13475000Y-128000000D03*
X13475000Y-126730000D03*
X13475000Y-125460000D03*
X13475000Y-124190000D03*
D20*
X37050000Y-18750000D03*
X29050000Y-18750000D03*
D14*
X68387500Y-140500000D03*
X72387500Y-140500000D03*
D17*
X46387500Y-141450000D03*
X46387500Y-139550000D03*
D23*
X70500000Y-121450000D03*
X70500000Y-123990000D03*
X70500000Y-126530000D03*
D12*
X28500000Y-164000000D03*
D13*
X33500000Y-164000000D03*
X38500000Y-164000000D03*
X43500000Y-164000000D03*
X48500000Y-164000000D03*
X53500000Y-164000000D03*
X58500000Y-164000000D03*
X63500000Y-164000000D03*
X68500000Y-164000000D03*
X73500000Y-164000000D03*
X78500000Y-164000000D03*
X83500000Y-164000000D03*
D16*
X58750000Y-34037500D03*
X58750000Y-32212500D03*
D18*
X30000000Y-126275000D03*
X30000000Y-134275000D03*
D25*
X19725000Y-6400000D03*
X19725000Y-4700000D03*
X19725000Y-3000000D03*
D26*
X10575000Y-3000000D03*
D25*
X19725000Y-1300000D03*
X19725000Y400000D03*
D38*
X57850000Y18800000D03*
X57850000Y16500000D03*
D39*
X64150000Y16500000D03*
D38*
X57850000Y14200000D03*
D21*
X49500000Y-87175000D03*
X49500000Y-79375000D03*
D19*
X39387500Y-148500000D03*
X41212500Y-148500000D03*
D40*
X100000000Y-132000000D03*
X101875000Y-132000000D03*
D41*
X72952500Y13083334D03*
X71127500Y13083334D03*
D10*
X71000000Y-35837500D03*
X71000000Y-37662500D03*
D28*
X58437500Y-146250000D03*
X60337500Y-146250000D03*
D25*
X76275000Y-112875000D03*
X76275000Y-114575000D03*
D26*
X85425000Y-116275000D03*
D25*
X76275000Y-116275000D03*
X76275000Y-117975000D03*
X76275000Y-119675000D03*
D22*
X73000000Y-46750000D03*
X81000000Y-46750000D03*
D31*
X76500000Y16500000D03*
X74625000Y16500000D03*
D42*
X76350000Y9666666D03*
X74775000Y9666666D03*
D33*
X33250000Y-148450000D03*
X33250000Y-147800000D03*
X33250000Y-147150000D03*
X33250000Y-146500000D03*
X33250000Y-145850000D03*
X33250000Y-145200000D03*
X33250000Y-144550000D03*
X27525000Y-144550000D03*
X27525000Y-145200000D03*
X27525000Y-145850000D03*
X27525000Y-146500000D03*
X27525000Y-147150000D03*
X27525000Y-147800000D03*
X27525000Y-148450000D03*
D34*
X30387500Y-149100000D03*
X29087500Y-149100000D03*
X31687500Y-147800000D03*
X31687500Y-145200000D03*
X29087500Y-143900000D03*
X30387500Y-146500000D03*
X30387500Y-143900000D03*
D35*
X30387500Y-146500000D03*
D34*
X29087500Y-145200000D03*
X30387500Y-147800000D03*
X29087500Y-147800000D03*
X30387500Y-145200000D03*
X31687500Y-149100000D03*
X29087500Y-146500000D03*
X31687500Y-146500000D03*
X31687500Y-143900000D03*
D16*
X71000000Y-33825000D03*
X71000000Y-32000000D03*
D10*
X51000000Y-27837500D03*
X51000000Y-29662500D03*
D28*
X77437500Y-146250000D03*
X79337500Y-146250000D03*
D11*
X62250000Y-75225000D03*
X62250000Y-79325000D03*
D12*
X5640000Y-87000000D03*
D13*
X5640000Y-92000000D03*
X5640000Y-97000000D03*
X5640000Y-102000000D03*
X5640000Y-107000000D03*
X5640000Y-112000000D03*
X5640000Y-117000000D03*
D19*
X88587500Y-1250000D03*
X90412500Y-1250000D03*
D15*
X48000000Y-65275000D03*
X48000000Y-57275000D03*
D18*
X30000000Y-84275000D03*
X30000000Y-92275000D03*
D43*
X22550000Y18250000D03*
X33950000Y18250000D03*
D41*
X90412500Y-3250000D03*
X88587500Y-3250000D03*
D16*
X58250000Y-122912500D03*
X58250000Y-121087500D03*
D19*
X97962500Y-123500000D03*
X99787500Y-123500000D03*
D44*
X40000000Y-87275000D03*
X40000000Y-91275000D03*
D16*
X58000000Y-80187500D03*
X58000000Y-78362500D03*
D10*
X80500000Y-5087500D03*
X80500000Y-6912500D03*
D12*
X93500000Y34500000D03*
D13*
X88500000Y34500000D03*
X83500000Y34500000D03*
X78500000Y34500000D03*
X73500000Y34500000D03*
X68500000Y34500000D03*
X63500000Y34500000D03*
X58500000Y34500000D03*
X53500000Y34500000D03*
X48500000Y34500000D03*
X43500000Y34500000D03*
X38500000Y34500000D03*
D45*
X50000000Y-9500000D03*
D46*
X52540000Y-9500000D03*
X55080000Y-9500000D03*
X57620000Y-9500000D03*
X60160000Y-9500000D03*
X62700000Y-9500000D03*
X65240000Y-9500000D03*
X67780000Y-9500000D03*
X70320000Y-9500000D03*
X72860000Y-9500000D03*
X75400000Y-9500000D03*
X77940000Y-9500000D03*
X80480000Y-9500000D03*
X83020000Y-9500000D03*
X85560000Y-9500000D03*
X85560000Y5740000D03*
X83020000Y5740000D03*
X80480000Y5740000D03*
X77940000Y5740000D03*
X75400000Y5740000D03*
X72860000Y5740000D03*
X70320000Y5740000D03*
X67780000Y5740000D03*
X65240000Y5740000D03*
X62700000Y5740000D03*
X60160000Y5740000D03*
X57620000Y5740000D03*
X55080000Y5740000D03*
X52540000Y5740000D03*
X50000000Y5740000D03*
D21*
X50000000Y-131275000D03*
X50000000Y-123475000D03*
D16*
X58000000Y-76187500D03*
X58000000Y-74362500D03*
D14*
X45000000Y-50250000D03*
X49000000Y-50250000D03*
D16*
X39050000Y-29887500D03*
X39050000Y-28062500D03*
D19*
X77475000Y-144000000D03*
X79300000Y-144000000D03*
X29037500Y1500000D03*
X30862500Y1500000D03*
D41*
X26718750Y-2250000D03*
X24893750Y-2250000D03*
D12*
X104500000Y-164500000D03*
D13*
X104500000Y-159500000D03*
X104500000Y-154500000D03*
X104500000Y-149500000D03*
X104500000Y-144500000D03*
X104500000Y-139500000D03*
D40*
X74665000Y19916666D03*
X76540000Y19916666D03*
D12*
X5500000Y19250000D03*
D13*
X5500000Y14250000D03*
X5500000Y9250000D03*
D20*
X37000000Y-60275000D03*
X29000000Y-60275000D03*
D41*
X72952500Y9666666D03*
X71127500Y9666666D03*
D16*
X58250000Y-118912500D03*
X58250000Y-117087500D03*
D23*
X40000000Y-76460000D03*
X40000000Y-79000000D03*
X40000000Y-81540000D03*
D24*
X37387500Y-143725000D03*
X37387500Y-145275000D03*
D10*
X60000000Y-5087500D03*
X60000000Y-6912500D03*
D41*
X72952500Y16500000D03*
X71127500Y16500000D03*
D18*
X61500000Y-85275000D03*
X61500000Y-93275000D03*
D44*
X40000000Y-131275000D03*
X40000000Y-135275000D03*
D24*
X75387500Y-143725000D03*
X75387500Y-145275000D03*
D41*
X101875000Y-129500000D03*
X100050000Y-129500000D03*
D19*
X58475000Y-148500000D03*
X60300000Y-148500000D03*
D23*
X87000000Y-141900000D03*
X87000000Y-144440000D03*
X87000000Y-146980000D03*
D17*
X65387500Y-141450000D03*
X65387500Y-139550000D03*
D47*
X80500000Y2750000D03*
X78600000Y2750000D03*
D10*
X62500000Y-5087500D03*
X62500000Y-6912500D03*
D14*
X64750000Y-56250000D03*
X60750000Y-56250000D03*
D48*
X26750000Y-143000000D03*
X51750000Y9750000D03*
X50000000Y-20000000D03*
X26250000Y-144500000D03*
X26250000Y-145750000D03*
X46000000Y-143000000D03*
X45000000Y-144500000D03*
X50000000Y-19000000D03*
X50000000Y-21000000D03*
X64000000Y-144500000D03*
X64000000Y-145750000D03*
X51750000Y8750000D03*
X45000000Y-145750000D03*
X50000000Y-23000000D03*
X65000000Y-142750000D03*
X50000000Y-22000000D03*
X51750000Y10750000D03*
X8750000Y0D03*
X7000000Y0D03*
X10500000Y1500000D03*
X12250000Y-7500000D03*
X12250000Y-1500000D03*
X8750000Y-1500000D03*
X7000000Y-4500000D03*
X14000000Y-3000000D03*
X14000000Y-4500000D03*
X12250000Y0D03*
X14000000Y-1500000D03*
X7000000Y-1500000D03*
X12250000Y-6000000D03*
X10500000Y0D03*
X14000000Y-6000000D03*
X7000000Y-7500000D03*
X14000000Y0D03*
X7000000Y-6000000D03*
X8750000Y-3000000D03*
X10500000Y-4500000D03*
X8750000Y-4500000D03*
X12250000Y-4500000D03*
X12250000Y-3000000D03*
X8750000Y-6000000D03*
X12250000Y1500000D03*
X8750000Y-7500000D03*
X7000000Y1500000D03*
X8750000Y1500000D03*
X10500000Y-3000000D03*
X7000000Y-3000000D03*
X10500000Y-1500000D03*
X14000000Y1500000D03*
X14000000Y-7500000D03*
X10500000Y-6000000D03*
X10500000Y-7500000D03*
X92750000Y-141250000D03*
X94250000Y-122250000D03*
X93250000Y-125250000D03*
X60500000Y11000000D03*
X60500000Y10000000D03*
X82000000Y2750000D03*
X60500000Y9000000D03*
X60000000Y-3750000D03*
X15500000Y-124250000D03*
X75250000Y-111500000D03*
X28000000Y-83500000D03*
X92000000Y-1250000D03*
X76250000Y-111500000D03*
X34750000Y-78000000D03*
X19500000Y-7750000D03*
X79230831Y-64083037D03*
X75750000Y-28000000D03*
X28000000Y-84750000D03*
X79250000Y-63000000D03*
X20500000Y-7750000D03*
X33750000Y-121250000D03*
X76750000Y-28000000D03*
X32000000Y-127250000D03*
X23500000Y8500000D03*
X23500000Y9750000D03*
X34750000Y-37500000D03*
X75000000Y-106500000D03*
X76250000Y-68250000D03*
X75250000Y-68250000D03*
X74000000Y-23250000D03*
X25000000Y3000000D03*
X32000000Y-126250000D03*
X35500000Y-41750000D03*
X33750000Y-78000000D03*
X34750000Y-121250000D03*
X33750000Y-37500000D03*
X74000000Y-22000000D03*
X75000000Y-107750000D03*
X35500000Y-43250000D03*
X84250000Y26500000D03*
X78750000Y27974500D03*
X80373521Y28772874D03*
X82750000Y27500000D03*
X71250000Y2250000D03*
X72250000Y1500000D03*
X66750000Y1250000D03*
X80264333Y538931D03*
X87750000Y-2250000D03*
X65737589Y3868400D03*
X72585945Y7589011D03*
X66250000Y-1000000D03*
X63750000Y4249998D03*
X55321070Y2601559D03*
X60250000Y1000000D03*
X65750000Y-2000000D03*
X66750000Y8000000D03*
X40500000Y-137250000D03*
X22750000Y-77750000D03*
X54000000Y10250000D03*
X24500000Y-34250000D03*
X24500000Y-32750000D03*
X87000000Y-68750000D03*
X88750000Y-28250000D03*
X80500000Y-148500000D03*
X24500000Y-71750000D03*
X26250000Y-32750000D03*
X21000000Y-29750000D03*
X87000000Y-74750000D03*
X26250000Y-77750000D03*
X21250000Y-120750000D03*
X28000000Y-37250000D03*
X22750000Y-29750000D03*
X40500000Y-114250000D03*
X28250000Y-116250000D03*
X73000000Y-73250000D03*
X65000000Y-138500000D03*
X83500000Y-68750000D03*
X83500000Y-34250000D03*
X61500000Y-14750000D03*
X73250000Y-32750000D03*
X40500000Y-70250000D03*
X25750000Y-3750000D03*
X42000000Y-6750000D03*
X50500000Y-112500000D03*
X88500000Y-116000000D03*
X86750000Y-117500000D03*
X21000000Y-71750000D03*
X26250000Y-29750000D03*
X57250000Y-37500000D03*
X58750000Y-56250000D03*
X80250000Y-89000000D03*
X28000000Y-29750000D03*
X21250000Y-114750000D03*
X88750000Y-68750000D03*
X48500000Y-54500000D03*
X21000000Y-34250000D03*
X87000000Y-70250000D03*
X23000000Y-119250000D03*
X61500000Y-146250000D03*
X22750000Y-37250000D03*
X88750000Y-70250000D03*
X28000000Y-31250000D03*
X46000000Y-18750000D03*
X39500000Y-137250000D03*
X26250000Y-37250000D03*
X22750000Y-73250000D03*
X83250000Y-119000000D03*
X28000000Y-74750000D03*
X36250000Y-140000000D03*
X24500000Y-31250000D03*
X88750000Y-29750000D03*
X21000000Y-28250000D03*
X23000000Y-113250000D03*
X81500000Y-111500000D03*
X21000000Y-31250000D03*
X81750000Y-37250000D03*
X88500000Y-119000000D03*
X29500000Y-137000000D03*
X81750000Y-35750000D03*
X26500000Y-117750000D03*
X88500000Y-111500000D03*
X83250000Y-120500000D03*
X59000000Y-99000000D03*
X88750000Y-37250000D03*
X36250000Y-141000000D03*
X51000000Y-49750000D03*
X28000000Y-34250000D03*
X26250000Y-70250000D03*
X28000000Y-28250000D03*
X85000000Y-116000000D03*
X78000000Y16500000D03*
X88750000Y-77750000D03*
X45250000Y7750000D03*
X23000000Y-111750000D03*
X21000000Y-35750000D03*
X26250000Y-35750000D03*
X28000000Y-35750000D03*
X22750000Y-28250000D03*
X88500000Y-120500000D03*
X28250000Y-114750000D03*
X80500000Y-146250000D03*
X81750000Y-34250000D03*
X28250000Y-111750000D03*
X88500000Y-114500000D03*
X81750000Y-73250000D03*
X28000000Y-77750000D03*
X28000000Y-71750000D03*
X85250000Y-32750000D03*
X81750000Y-32750000D03*
X22750000Y-35750000D03*
X74250000Y-140000000D03*
X81500000Y-117500000D03*
X24750000Y-117750000D03*
X81500000Y-114500000D03*
X87000000Y-77750000D03*
X85000000Y-114500000D03*
X24500000Y-68750000D03*
X88750000Y-31250000D03*
X83250000Y-117500000D03*
X86750000Y-120500000D03*
X100000000Y-133500000D03*
X22750000Y-70250000D03*
X47250000Y-54500000D03*
X24750000Y-116250000D03*
X88500000Y-113000000D03*
X61500000Y-148500000D03*
X85000000Y-127000000D03*
X26500000Y-114750000D03*
X85250000Y-74750000D03*
X72500000Y-37750000D03*
X83500000Y-31250000D03*
X81750000Y-77750000D03*
X78000000Y13250000D03*
X26250000Y-28250000D03*
X81500000Y-116000000D03*
X83500000Y-76250000D03*
X42250000Y-144000000D03*
X57000000Y-123000000D03*
X85250000Y-35750000D03*
X83500000Y-37250000D03*
X42250000Y-148500000D03*
X33000000Y-47750000D03*
X26500000Y-116250000D03*
X88500000Y-117500000D03*
X59750000Y18750000D03*
X46250000Y-138250000D03*
X85000000Y-113000000D03*
X81750000Y-29750000D03*
X81500000Y-113000000D03*
X69750000Y20000000D03*
X69500000Y-68250000D03*
X36750000Y-29250000D03*
X101000000Y-123500000D03*
X24500000Y-77750000D03*
X83500000Y-77750000D03*
X24750000Y-120750000D03*
X22750000Y-34250000D03*
X87000000Y-31250000D03*
X24750000Y-113250000D03*
X61500000Y-15750000D03*
X28250000Y-120750000D03*
X54250000Y20750000D03*
X85250000Y-71750000D03*
X87000000Y-71750000D03*
X88750000Y-76250000D03*
X81750000Y-71750000D03*
X86750000Y-119000000D03*
X49500000Y-27750000D03*
X81750000Y-70250000D03*
X22750000Y-71750000D03*
X74250000Y-141000000D03*
X83500000Y-29750000D03*
X85250000Y-31250000D03*
X81750000Y-28250000D03*
X85250000Y-29750000D03*
X34250000Y-47750000D03*
X85250000Y-73250000D03*
X39500000Y-93250000D03*
X62250000Y-96000000D03*
X83500000Y-35750000D03*
X28000000Y-32750000D03*
X77250000Y2750000D03*
X85250000Y-77750000D03*
X83250000Y-116000000D03*
X24750000Y-111750000D03*
X23000000Y-116250000D03*
X85250000Y-37250000D03*
X55250000Y-140000000D03*
X21000000Y-32750000D03*
X61500000Y-144000000D03*
X24500000Y-37250000D03*
X81500000Y-119000000D03*
X28250000Y-119250000D03*
X21250000Y-116250000D03*
X50000000Y-100250000D03*
X28000000Y-73250000D03*
X87000000Y-76250000D03*
X26250000Y-34250000D03*
X21250000Y-111750000D03*
X26500000Y-113250000D03*
X85000000Y-120500000D03*
X81750000Y-76250000D03*
X22750000Y-31250000D03*
X88750000Y-35750000D03*
X88750000Y-32750000D03*
X22750000Y-76250000D03*
X62250000Y-138250000D03*
X87000000Y-37250000D03*
X40500000Y-93250000D03*
X85250000Y-28250000D03*
X83500000Y-74750000D03*
X92000000Y-2750000D03*
X58000000Y-81500000D03*
X24750000Y-114750000D03*
X88750000Y-71750000D03*
X83500000Y-71750000D03*
X22750000Y-32750000D03*
X81750000Y-74750000D03*
X87000000Y-34250000D03*
X24750000Y-119250000D03*
X26250000Y-73250000D03*
X28000000Y-68750000D03*
X21000000Y-73250000D03*
X50000000Y-99000000D03*
X42250000Y-146250000D03*
X24500000Y-28250000D03*
X30750000Y-137000000D03*
X61500000Y-47000000D03*
X85250000Y-68750000D03*
X27250000Y-138250000D03*
X86750000Y-111500000D03*
X26250000Y-68750000D03*
X36750000Y-32750000D03*
X61000000Y-138250000D03*
X50250000Y20250000D03*
X59000000Y-100000000D03*
X24500000Y-73250000D03*
X28250000Y-117750000D03*
X83250000Y-114500000D03*
X43250000Y-6750000D03*
X97750000Y-133250000D03*
X61250000Y-96000000D03*
X88750000Y-74750000D03*
X24500000Y-29750000D03*
X86250000Y-127000000D03*
X45250000Y9000000D03*
X28250000Y-113250000D03*
X87000000Y-28250000D03*
X21000000Y-68750000D03*
X23000000Y-114750000D03*
X8500000Y-133000000D03*
X24500000Y-70250000D03*
X85000000Y-111500000D03*
X21000000Y-70250000D03*
X55250000Y-141000000D03*
X83250000Y-113000000D03*
X22750000Y-68750000D03*
X21250000Y-119250000D03*
X87000000Y-29750000D03*
X22750000Y-74750000D03*
X85000000Y-117500000D03*
X83500000Y-73250000D03*
X26500000Y-120750000D03*
X83500000Y-70250000D03*
X85250000Y-70250000D03*
X50250000Y21250000D03*
X85250000Y-76250000D03*
X86750000Y-114500000D03*
X80472536Y-144027464D03*
X24500000Y-74750000D03*
X26250000Y-71750000D03*
X52000000Y-68000000D03*
X51000000Y-50750000D03*
X80250000Y-90000000D03*
X86750000Y-116000000D03*
X62500000Y-47000000D03*
X83250000Y-111500000D03*
X21250000Y-117750000D03*
X83500000Y-32750000D03*
X81750000Y-31250000D03*
X21000000Y-76250000D03*
X21000000Y-74750000D03*
X24500000Y-76250000D03*
X26250000Y-76250000D03*
X28000000Y-70250000D03*
X87000000Y-73250000D03*
X23000000Y-117750000D03*
X87000000Y-35750000D03*
X85250000Y-34250000D03*
X26500000Y-119250000D03*
X81750000Y-68750000D03*
X36750000Y-73250000D03*
X26500000Y-111750000D03*
X88750000Y-73250000D03*
X30750000Y-116250000D03*
X79250000Y-116250000D03*
X69750000Y-113250000D03*
X87000000Y-32750000D03*
X24500000Y-35750000D03*
X86750000Y-113000000D03*
X83500000Y-28250000D03*
X47250000Y-18750000D03*
X26250000Y-74750000D03*
X40750000Y-34000000D03*
X78000000Y9500000D03*
X21000000Y-77750000D03*
X85000000Y-119000000D03*
X21000000Y-37250000D03*
X81500000Y-120500000D03*
X88750000Y-34250000D03*
X28000000Y-76250000D03*
X26250000Y-31250000D03*
X21250000Y-113250000D03*
X23000000Y-120750000D03*
X75750000Y250000D03*
X88308041Y17347536D03*
X56500000Y-1750000D03*
X53250000Y1000000D03*
X95500000Y-129000000D03*
X98000000Y-128250000D03*
D49*
X87750000Y14953992D02*
X87750000Y5250000D01*
X74124511Y-8375489D02*
X71444511Y-8375489D01*
X71250000Y31453992D02*
X87750000Y14953992D01*
X60500000Y36500000D02*
X69537500Y36500000D01*
X58500000Y34500000D02*
X60500000Y36500000D01*
X71250000Y34787500D02*
X71250000Y31453992D01*
X69537500Y36500000D02*
X71250000Y34787500D01*
X87750000Y5250000D02*
X74124511Y-8375489D01*
X71444511Y-8375489D02*
X70320000Y-9500000D01*
X88199510Y15140186D02*
X79649021Y23690675D01*
X73635704Y-9500000D02*
X88199511Y5063807D01*
X73347897Y36949510D02*
X55949510Y36949510D01*
X72860000Y-9500000D02*
X73635704Y-9500000D01*
X55949510Y36949510D02*
X53500000Y34500000D01*
X79649021Y23690675D02*
X79649021Y30648386D01*
X88199511Y5063807D02*
X88199510Y15140186D01*
X79649021Y30648386D02*
X73347897Y36949510D01*
D50*
X7639511Y-65500489D02*
X5640000Y-67500000D01*
X48000000Y-65275000D02*
X37725000Y-55000000D01*
X47000000Y-66275000D02*
X48000000Y-65275000D01*
X5640000Y-57500000D02*
X7639511Y-55500489D01*
X47000000Y-70330324D02*
X51769676Y-75100000D01*
X7639511Y-49499511D02*
X5640000Y-47500000D01*
X5640000Y-57500000D02*
X7639511Y-59499511D01*
X13140000Y-55000000D02*
X5640000Y-47500000D01*
X7639511Y-55500489D02*
X7639511Y-49499511D01*
X51769676Y-75100000D02*
X52000000Y-75100000D01*
X47000000Y-70225000D02*
X47000000Y-66275000D01*
X7639511Y-59499511D02*
X7639511Y-65500489D01*
X37725000Y-55000000D02*
X13140000Y-55000000D01*
X3333330Y-10693330D02*
X3333330Y17083330D01*
D49*
X27525000Y-145850000D02*
X26350000Y-145850000D01*
X64050000Y-144550000D02*
X64000000Y-144500000D01*
D50*
X36250000Y-13000000D02*
X46500000Y-23250000D01*
D49*
X65525000Y-144550000D02*
X64050000Y-144550000D01*
X65387500Y-142362500D02*
X65000000Y-142750000D01*
X26300000Y-144550000D02*
X26250000Y-144500000D01*
D50*
X50687500Y-33162500D02*
X51000000Y-33162500D01*
D49*
X27525000Y-145850000D02*
X27525000Y-144550000D01*
D50*
X7639511Y-31000489D02*
X5640000Y-33000000D01*
X7639511Y-14999511D02*
X7639511Y-21000489D01*
X51750000Y8750000D02*
X51750000Y10750000D01*
X7639511Y-21000489D02*
X5640000Y-23000000D01*
D49*
X45050000Y-144550000D02*
X45000000Y-144500000D01*
X46525000Y-144550000D02*
X45050000Y-144550000D01*
X65387500Y-141450000D02*
X65387500Y-142362500D01*
X27387500Y-142362500D02*
X26750000Y-143000000D01*
X27525000Y-144550000D02*
X26300000Y-144550000D01*
X46387500Y-141450000D02*
X46387500Y-142612500D01*
D50*
X5640000Y-13000000D02*
X36250000Y-13000000D01*
X5640000Y-13000000D02*
X7639511Y-14999511D01*
D49*
X46387500Y-142612500D02*
X46000000Y-143000000D01*
X46525000Y-145850000D02*
X45100000Y-145850000D01*
D50*
X57850000Y14200000D02*
X54275000Y14200000D01*
X54275000Y14200000D02*
X54000000Y14475000D01*
X50000000Y-19000000D02*
X50000000Y-23000000D01*
X5640000Y-23000000D02*
X7639511Y-24999511D01*
X3333330Y17083330D02*
X5500000Y19250000D01*
X49000000Y-24000000D02*
X50000000Y-23000000D01*
D49*
X65525000Y-145850000D02*
X65525000Y-144550000D01*
X46525000Y-145200000D02*
X46525000Y-144550000D01*
D50*
X46500000Y-24000000D02*
X49000000Y-24000000D01*
D49*
X45100000Y-145850000D02*
X45000000Y-145750000D01*
X26350000Y-145850000D02*
X26250000Y-145750000D01*
X64100000Y-145850000D02*
X64000000Y-145750000D01*
D50*
X5640000Y-13000000D02*
X3333330Y-10693330D01*
X46000000Y-28475000D02*
X46000000Y-24500000D01*
X46000000Y-28475000D02*
X50687500Y-33162500D01*
D49*
X27387500Y-141450000D02*
X27387500Y-142362500D01*
X46525000Y-145200000D02*
X46525000Y-145850000D01*
X65525000Y-145850000D02*
X64100000Y-145850000D01*
D50*
X51750000Y12225000D02*
X51750000Y10750000D01*
X54000000Y14475000D02*
X51750000Y12225000D01*
X7639511Y-24999511D02*
X7639511Y-31000489D01*
X102500489Y-24999511D02*
X104500000Y-23000000D01*
X69574511Y-49324511D02*
X98175489Y-49324511D01*
X104500000Y-43000000D02*
X102500489Y-41000489D01*
X58980324Y-32212500D02*
X58750000Y-32212500D01*
X98175489Y-49324511D02*
X104500000Y-43000000D01*
X63000000Y-36800000D02*
X61050489Y-34850489D01*
X62000000Y-41750000D02*
X69574511Y-49324511D01*
X62000000Y-41750000D02*
X62000000Y-37800000D01*
X61050489Y-34850489D02*
X61050489Y-34282665D01*
X102500489Y-41000489D02*
X102500489Y-34999511D01*
X102500489Y-31000489D02*
X102500489Y-24999511D01*
X102500489Y-34999511D02*
X104500000Y-33000000D01*
X61050489Y-34282665D02*
X58980324Y-32212500D01*
X104500000Y-33000000D02*
X102500489Y-31000489D01*
X62000000Y-37800000D02*
X63000000Y-36800000D01*
X62250000Y-79325000D02*
X59399520Y-76474520D01*
X102500489Y-68000489D02*
X104500000Y-70000000D01*
X102500489Y-78000489D02*
X104500000Y-80000000D01*
X98000000Y-80000000D02*
X85000000Y-93000000D01*
X102500489Y-61999511D02*
X102500489Y-68000489D01*
X61500000Y-85275000D02*
X61500000Y-80075000D01*
X59399520Y-76474520D02*
X59399520Y-75531696D01*
X68000000Y-93000000D02*
X61500000Y-86500000D01*
X102500489Y-71999511D02*
X102500489Y-78000489D01*
X58230324Y-74362500D02*
X58000000Y-74362500D01*
X59399520Y-75531696D02*
X58230324Y-74362500D01*
X104500000Y-60000000D02*
X102500489Y-61999511D01*
X104500000Y-80000000D02*
X98000000Y-80000000D01*
X61500000Y-80075000D02*
X62250000Y-79325000D01*
X104500000Y-70000000D02*
X102500489Y-71999511D01*
X85000000Y-93000000D02*
X68000000Y-93000000D01*
X30067824Y-88250000D02*
X48000000Y-106182176D01*
X47000000Y-113225000D02*
X47000000Y-108275000D01*
X47000000Y-108275000D02*
X48000000Y-107275000D01*
X7639511Y-88999511D02*
X7639511Y-95000489D01*
X7639511Y-95000489D02*
X5640000Y-97000000D01*
X12500000Y-88250000D02*
X30067824Y-88250000D01*
X52000000Y-118187500D02*
X51769676Y-118187500D01*
X5640000Y-87000000D02*
X11250000Y-87000000D01*
X5640000Y-97000000D02*
X7639511Y-98999511D01*
X5640000Y-87000000D02*
X7639511Y-88999511D01*
X11250000Y-87000000D02*
X12500000Y-88250000D01*
X51769676Y-118187500D02*
X47000000Y-113417824D01*
X7639511Y-105000489D02*
X5640000Y-107000000D01*
X7639511Y-98999511D02*
X7639511Y-105000489D01*
X104500000Y-97000000D02*
X102500489Y-98999511D01*
X62500000Y-122050000D02*
X62500000Y-126500000D01*
X62500000Y-126500000D02*
X61500000Y-127500000D01*
X60000000Y-119550000D02*
X62500000Y-122050000D01*
X102500489Y-108999511D02*
X104500000Y-107000000D01*
X87000000Y-132000000D02*
X92000000Y-127000000D01*
X97000000Y-117000000D02*
X104500000Y-117000000D01*
X66000000Y-132000000D02*
X87000000Y-132000000D01*
X58250000Y-117087500D02*
X58480324Y-117087500D01*
X92000000Y-122000000D02*
X97000000Y-117000000D01*
X102500489Y-115000489D02*
X102500489Y-108999511D01*
X102500489Y-105000489D02*
X104500000Y-107000000D01*
X92000000Y-127000000D02*
X92000000Y-122000000D01*
X58480324Y-117087500D02*
X60000000Y-118607176D01*
X104500000Y-117000000D02*
X102500489Y-115000489D01*
X61500000Y-127500000D02*
X66000000Y-132000000D01*
X102500489Y-98999511D02*
X102500489Y-105000489D01*
X60000000Y-118607176D02*
X60000000Y-119550000D01*
X25950000Y-8000000D02*
X30718750Y-3231250D01*
X5500000Y9250000D02*
X8250000Y12000000D01*
X30718750Y-3231250D02*
X30718750Y-2250000D01*
X30718750Y-2250000D02*
X30718750Y1356250D01*
X30718750Y1356250D02*
X30862500Y1500000D01*
X19725000Y-3000000D02*
X23025000Y-3000000D01*
X25750000Y12000000D02*
X28750000Y9000000D01*
X23025000Y-3000000D02*
X25950000Y-5925000D01*
X25950000Y-5925000D02*
X25950000Y-8000000D01*
X28750000Y9000000D02*
X33500000Y9000000D01*
X8250000Y12000000D02*
X25750000Y12000000D01*
X19725000Y-3000000D02*
X10575000Y-3000000D01*
X28750000Y9000000D02*
X30862500Y6887500D01*
X30862500Y6887500D02*
X30862500Y1500000D01*
D51*
X40588478Y17912500D02*
X41900000Y17912500D01*
D49*
X60160000Y-9500000D02*
X60160000Y-7072500D01*
X87000000Y1250000D02*
X87000000Y-10250000D01*
X104500000Y14250000D02*
X100000000Y14250000D01*
X61284511Y-10624511D02*
X60160000Y-9500000D01*
X87000000Y-10250000D02*
X86625489Y-10624511D01*
X86625489Y-10624511D02*
X61284511Y-10624511D01*
X100000000Y14250000D02*
X87000000Y1250000D01*
D50*
X42250000Y-142000000D02*
X43500000Y-143250000D01*
X33250000Y-143312500D02*
X33250000Y-144750000D01*
X37387500Y-142862500D02*
X38250000Y-142000000D01*
X37387500Y-143725000D02*
X37387500Y-142862500D01*
X43500000Y-159000000D02*
X38500000Y-164000000D01*
X30387500Y-140450000D02*
X33250000Y-143312500D01*
X33250000Y-144550000D02*
X34075000Y-143725000D01*
X34075000Y-143725000D02*
X37387500Y-143725000D01*
X43500000Y-143250000D02*
X43500000Y-159000000D01*
X38250000Y-142000000D02*
X42250000Y-142000000D01*
D49*
X27000000Y-162500000D02*
X27000000Y-148975000D01*
X27000000Y-148975000D02*
X27525000Y-148450000D01*
X28500000Y-164000000D02*
X27000000Y-162500000D01*
D50*
X52250000Y-143362500D02*
X49387500Y-140500000D01*
X52250000Y-144550000D02*
X52250000Y-143362500D01*
X53075000Y-143725000D02*
X56387500Y-143725000D01*
X62750000Y-159750000D02*
X58500000Y-164000000D01*
X52250000Y-144550000D02*
X52250000Y-144950480D01*
X52250000Y-144550000D02*
X53075000Y-143725000D01*
X62750000Y-143500000D02*
X62750000Y-159750000D01*
X56387500Y-143362500D02*
X57750000Y-142000000D01*
X56387500Y-143725000D02*
X56387500Y-143362500D01*
X61250000Y-142000000D02*
X62750000Y-143500000D01*
X57750000Y-142000000D02*
X61250000Y-142000000D01*
D49*
X48500000Y-164000000D02*
X46525000Y-162025000D01*
X46525000Y-162025000D02*
X46525000Y-148450000D01*
X100050000Y-129500000D02*
X100050000Y-127825000D01*
X91575988Y-130565084D02*
X95240000Y-126901072D01*
X97838928Y-129500000D02*
X100050000Y-129500000D01*
X95240000Y-126901072D02*
X97838928Y-129500000D01*
X91575988Y-145575988D02*
X91575988Y-130565084D01*
X104500000Y-154500000D02*
X100500000Y-154500000D01*
X100500000Y-154500000D02*
X91575988Y-145575988D01*
X96750000Y-131715000D02*
X96750000Y-137250000D01*
X96510000Y-131475000D02*
X96750000Y-131715000D01*
X96750000Y-137250000D02*
X92750000Y-141250000D01*
X104500000Y-159500000D02*
X87000000Y-142000000D01*
X76540000Y19916666D02*
X80480000Y15976666D01*
X80500000Y2750000D02*
X82000000Y2750000D01*
X13475000Y-124190000D02*
X15440000Y-124190000D01*
D50*
X61150000Y16500000D02*
X60500000Y15850000D01*
D49*
X93962500Y-123500000D02*
X93962500Y-122537500D01*
D50*
X57850000Y16500000D02*
X59850000Y16500000D01*
D49*
X93962500Y-122537500D02*
X94250000Y-122250000D01*
X15440000Y-124190000D02*
X15500000Y-124250000D01*
X80480000Y15976666D02*
X80480000Y5740000D01*
D50*
X59850000Y16500000D02*
X60500000Y15850000D01*
X61150000Y16500000D02*
X64150000Y16500000D01*
D49*
X93970000Y-125970000D02*
X93250000Y-125250000D01*
D50*
X60500000Y15850000D02*
X60500000Y9000000D01*
D49*
X80480000Y2770000D02*
X80480000Y5740000D01*
X60000000Y-5087500D02*
X60000000Y-3750000D01*
D50*
X57850000Y16500000D02*
X54025000Y16500000D01*
X30000000Y-84275000D02*
X28775000Y-84275000D01*
X33725000Y-36150000D02*
X33725000Y-36475000D01*
X33725000Y-37475000D02*
X33750000Y-37500000D01*
X76225000Y-69225000D02*
X75250000Y-68250000D01*
X74500000Y-22750000D02*
X74000000Y-23250000D01*
D49*
X90412500Y-1250000D02*
X92000000Y-1250000D01*
D50*
X76225000Y-28475000D02*
X76275000Y-28475000D01*
X28475000Y-84275000D02*
X28000000Y-84750000D01*
X33775000Y-120275000D02*
X34750000Y-121250000D01*
X76000000Y-22750000D02*
X74500000Y-22750000D01*
X77000000Y-63500000D02*
X78750000Y-63500000D01*
X33725000Y-76975000D02*
X34750000Y-78000000D01*
X75775000Y-107275000D02*
X75000000Y-106500000D01*
X78647794Y-63500000D02*
X79230831Y-64083037D01*
X33725000Y-76675000D02*
X33725000Y-76975000D01*
X20750000Y9000000D02*
X23000000Y9000000D01*
X78750000Y-63500000D02*
X79250000Y-63000000D01*
X32000000Y-126250000D02*
X30025000Y-126250000D01*
X33725000Y-76675000D02*
X33725000Y-77975000D01*
X33725000Y-36475000D02*
X34750000Y-37500000D01*
X32000000Y-127250000D02*
X30975000Y-127250000D01*
X74750000Y-22750000D02*
X74000000Y-22000000D01*
X33725000Y-36150000D02*
X33725000Y-37475000D01*
X75475000Y-107275000D02*
X75000000Y-107750000D01*
X33775000Y-121225000D02*
X33750000Y-121250000D01*
X25000000Y1500000D02*
X25000000Y3000000D01*
X76275000Y-112525000D02*
X75250000Y-111500000D01*
X77000000Y-107275000D02*
X75475000Y-107275000D01*
X76225000Y-69850000D02*
X76225000Y-69225000D01*
X33725000Y-77975000D02*
X33750000Y-78000000D01*
X20750000Y9000000D02*
X22750000Y9000000D01*
X23000000Y9000000D02*
X23500000Y8500000D01*
X77000000Y-63500000D02*
X78647794Y-63500000D01*
X30975000Y-127250000D02*
X30000000Y-126275000D01*
X76275000Y-112875000D02*
X76275000Y-111525000D01*
X30000000Y-84275000D02*
X28475000Y-84275000D01*
X77000000Y-107275000D02*
X75775000Y-107275000D01*
X76225000Y-28475000D02*
X75750000Y-28000000D01*
X33550000Y-42475000D02*
X34725000Y-42475000D01*
X28775000Y-84275000D02*
X28000000Y-83500000D01*
X33775000Y-119675000D02*
X33775000Y-121225000D01*
X76225000Y-29350000D02*
X76225000Y-28475000D01*
X76275000Y-28475000D02*
X76750000Y-28000000D01*
X20500000Y-7175000D02*
X19725000Y-6400000D01*
X19500000Y-6625000D02*
X19725000Y-6400000D01*
X33550000Y-42475000D02*
X34775000Y-42475000D01*
X76225000Y-69850000D02*
X76225000Y-68275000D01*
X76275000Y-112875000D02*
X76275000Y-112525000D01*
X76225000Y-68275000D02*
X76250000Y-68250000D01*
X76000000Y-22750000D02*
X74750000Y-22750000D01*
X76275000Y-111525000D02*
X76250000Y-111500000D01*
X34775000Y-42475000D02*
X35500000Y-41750000D01*
X20500000Y-7750000D02*
X20500000Y-7175000D01*
X22750000Y9000000D02*
X23500000Y9750000D01*
X19500000Y-7750000D02*
X19500000Y-6625000D01*
X34725000Y-42475000D02*
X35500000Y-43250000D01*
X33775000Y-119675000D02*
X33775000Y-120275000D01*
D49*
X67699511Y30300489D02*
X63500000Y34500000D01*
X61695499Y7275499D02*
X67050099Y7275499D01*
X60160000Y5740000D02*
X61695499Y7275499D01*
X67050099Y7275499D02*
X67699511Y7924911D01*
X67699511Y7924911D02*
X67699511Y30300489D01*
X85560000Y16508288D02*
X68500000Y33568288D01*
X85560000Y5740000D02*
X85560000Y16508288D01*
X85560000Y-9500000D02*
X85560000Y445704D01*
X84250000Y26000000D02*
X84250000Y26500000D01*
X78936193Y29063807D02*
X78936193Y28160693D01*
X85560000Y445704D02*
X89548040Y4433744D01*
X89548040Y20701960D02*
X84250000Y26000000D01*
X73500000Y34500000D02*
X78936193Y29063807D01*
X89548040Y4433744D02*
X89548040Y20701960D01*
X78936193Y28160693D02*
X78750000Y27974500D01*
X89098530Y20515766D02*
X82750000Y26864296D01*
X83020000Y-1458592D02*
X89098529Y4619937D01*
X89098529Y4619937D02*
X89098530Y20515766D01*
X83020000Y-9500000D02*
X83020000Y-1458592D01*
X80373521Y32626479D02*
X80373521Y28772874D01*
X82750000Y26864296D02*
X82750000Y27500000D01*
X78500000Y34500000D02*
X80373521Y32626479D01*
X71127500Y16500000D02*
X69840969Y15213469D01*
X71444511Y6205789D02*
X71444511Y2444511D01*
X71444511Y2444511D02*
X71250000Y2250000D01*
X69840969Y15213469D02*
X69840969Y7809331D01*
X69840969Y7809331D02*
X71444511Y6205789D01*
X73984511Y6205789D02*
X73984511Y3234511D01*
X73984511Y3234511D02*
X72250000Y1500000D01*
X73325789Y6864511D02*
X73984511Y6205789D01*
X70290480Y8095224D02*
X71521193Y6864511D01*
X71127500Y13083334D02*
X70290480Y12246314D01*
X71521193Y6864511D02*
X73325789Y6864511D01*
X70290480Y12246314D02*
X70290480Y8095224D01*
X80500000Y-3342888D02*
X88649018Y4806130D01*
X81575988Y32575988D02*
X83500000Y34500000D01*
X88649020Y15326380D02*
X81575988Y22399412D01*
X80500000Y-5087500D02*
X80500000Y-3342888D01*
X81575988Y22399412D02*
X81575988Y32575988D01*
X88649018Y4806130D02*
X88649020Y15326380D01*
X75449901Y974501D02*
X79525499Y974501D01*
D52*
X88587500Y-3250000D02*
X88587500Y-1250000D01*
D49*
X88587500Y-1250000D02*
X88587500Y-1412500D01*
X88587500Y-1412500D02*
X87750000Y-2250000D01*
X66750000Y1250000D02*
X68300490Y-300490D01*
X79961069Y538931D02*
X80264333Y538931D01*
X79525499Y974501D02*
X79961069Y538931D01*
X68300490Y-300490D02*
X74174910Y-300490D01*
X74174910Y-300490D02*
X75449901Y974501D01*
X46600978Y-10372385D02*
X46600978Y-8717300D01*
X54899018Y-69259883D02*
X54899019Y-18670427D01*
X53550490Y-70608412D02*
X54899018Y-69259883D01*
X46600978Y-8717300D02*
X55378012Y59734D01*
D50*
X58250000Y-119750000D02*
X58250000Y-118912500D01*
X58250000Y-121087500D02*
X58250000Y-119750000D01*
D49*
X58250000Y-119750000D02*
X54050489Y-115550489D01*
X55665937Y323049D02*
X58196815Y2853927D01*
X55378012Y59734D02*
X55378022Y59734D01*
X55378022Y59734D02*
X55641337Y323049D01*
X64723116Y2853927D02*
X65737589Y3868400D01*
X55641337Y323049D02*
X55665937Y323049D01*
X54050489Y-115550489D02*
X54050489Y-73686193D01*
X58196815Y2853927D02*
X64723116Y2853927D01*
X53550489Y-73186189D02*
X53550490Y-70608412D01*
X54050489Y-73686193D02*
X53550489Y-73186189D01*
X54899019Y-18670427D02*
X46600978Y-10372385D01*
X67780000Y-9500000D02*
X67780000Y-7132500D01*
X54665191Y-17383D02*
X54665191Y-17373D01*
X53100978Y-70422219D02*
X54449507Y-69073690D01*
X54928519Y245945D02*
X55191819Y509245D01*
X53977472Y-705102D02*
X53977472Y-705092D01*
X54449507Y-69073690D02*
X54449507Y-18856619D01*
X54665191Y-17373D02*
X54665199Y-17365D01*
X64050099Y3525497D02*
X65117502Y4592900D01*
X53474030Y-73745438D02*
X53100978Y-73372382D01*
X55191819Y509245D02*
X55191828Y509244D01*
X54449507Y-18856619D02*
X46151467Y-10558578D01*
X54665183Y-17401D02*
X54665184Y-17390D01*
D50*
X52000000Y-116362500D02*
X52000000Y-115000000D01*
D49*
X52000000Y-115000000D02*
X53474030Y-113525970D01*
X46151467Y-8531117D02*
X53977464Y-705120D01*
X53977464Y-705120D02*
X53977465Y-705109D01*
X58208081Y3525497D02*
X64050099Y3525497D01*
X54240790Y-441774D02*
X54240800Y-441774D01*
X54240800Y-441774D02*
X54504100Y-178474D01*
X53977480Y-705074D02*
X54109143Y-573421D01*
X53977465Y-705109D02*
X53977472Y-705102D01*
D50*
X52000000Y-115000000D02*
X52000000Y-114187500D01*
D49*
X54504109Y-178475D02*
X54665183Y-17401D01*
X54109143Y-573421D02*
X54240790Y-441774D01*
X54928509Y245945D02*
X54928519Y245945D01*
X46151467Y-10558578D02*
X46151467Y-8531117D01*
X66632900Y4592900D02*
X67780000Y5740000D01*
X54504100Y-178474D02*
X54504109Y-178475D01*
X54796862Y114298D02*
X54928509Y245945D01*
X54665199Y-17365D02*
X54665199Y-17355D01*
X54665184Y-17390D02*
X54665191Y-17383D01*
X54665199Y-17355D02*
X54796862Y114298D01*
X53100978Y-73372382D02*
X53100978Y-70422219D01*
X53977472Y-705092D02*
X53977480Y-705084D01*
X53474030Y-113525970D02*
X53474030Y-73745438D01*
X53977480Y-705084D02*
X53977480Y-705074D01*
X55191828Y509244D02*
X58208081Y3525497D01*
X65117502Y4592900D02*
X66632900Y4592900D01*
X65240000Y-9500000D02*
X65240000Y-6922500D01*
D50*
X58000000Y-77000000D02*
X58000000Y-76187500D01*
D49*
X55348529Y-18484233D02*
X47050489Y-10186193D01*
X55564205Y-389777D02*
X55827504Y-126478D01*
X58000000Y-77000000D02*
X55348529Y-74348529D01*
X55348529Y-74348529D02*
X55348529Y-18484233D01*
X58287174Y2308582D02*
X64901470Y2308582D01*
X55564205Y-389787D02*
X55564205Y-389777D01*
X64901470Y2308582D02*
X65736787Y3143899D01*
X47050489Y-10186193D02*
X47050489Y-8903503D01*
X55852122Y-126470D02*
X58287174Y2308582D01*
X65736787Y3143899D02*
X67723899Y3143899D01*
X67723899Y3143899D02*
X70320000Y5740000D01*
X47050489Y-8903503D02*
X55564205Y-389787D01*
X55827524Y-126478D02*
X55827533Y-126469D01*
X55827504Y-126478D02*
X55827524Y-126478D01*
X55827533Y-126469D02*
X55852122Y-126470D01*
D50*
X58000000Y-78362500D02*
X58000000Y-77000000D01*
D49*
X66250000Y-1000000D02*
X65725400Y-1000000D01*
X65725400Y-1000000D02*
X63524520Y-3200880D01*
X62700000Y-9500000D02*
X62700000Y-7112500D01*
X63524520Y-5887980D02*
X62500000Y-6912500D01*
X71127500Y9666666D02*
X71127500Y9047456D01*
X71127500Y9047456D02*
X72585945Y7589011D01*
X63524520Y-3200880D02*
X63524520Y-5887980D01*
X53999996Y-68887497D02*
X53999997Y-19042813D01*
D50*
X52000000Y-72000000D02*
X52000000Y-73275000D01*
D49*
X45701956Y-8255228D02*
X58207182Y4249998D01*
X45701956Y-10744770D02*
X45701956Y-8255228D01*
X53999997Y-19042813D02*
X45701956Y-10744770D01*
X52000000Y-70887493D02*
X53999996Y-68887497D01*
X52000000Y-72000000D02*
X52000000Y-70887493D01*
X58207182Y4249998D02*
X63750000Y4249998D01*
X68756414Y2694388D02*
X70700802Y750000D01*
X55325988Y-1288308D02*
X55325989Y-1263707D01*
X56013708Y-575988D02*
X56038307Y-575989D01*
X75400000Y2833782D02*
X75400000Y5740000D01*
X58750000Y-34750000D02*
X56000000Y-32000000D01*
X73316218Y750000D02*
X75400000Y2833782D01*
X56038307Y-575989D02*
X58338797Y1724501D01*
X64953093Y1724501D02*
X65922980Y2694388D01*
X58338797Y1724501D02*
X64953093Y1724501D01*
X56000000Y-18500000D02*
X47500000Y-10000000D01*
X55325989Y-1263707D02*
X56013708Y-575988D01*
X47500000Y-10000000D02*
X47500000Y-9114296D01*
X65922980Y2694388D02*
X68756414Y2694388D01*
X47500000Y-9114296D02*
X55325988Y-1288308D01*
D50*
X58750000Y-34750000D02*
X58750000Y-34037500D01*
D49*
X56000000Y-32000000D02*
X56000000Y-18500000D01*
X70700802Y750000D02*
X73316218Y750000D01*
D50*
X58750000Y-35712500D02*
X58750000Y-34750000D01*
D49*
X53974501Y699901D02*
X53974501Y724501D01*
X51000000Y-30500000D02*
X52024520Y-29475480D01*
X53974501Y724501D02*
X55321070Y2071070D01*
D50*
X51000000Y-30500000D02*
X51000000Y-29662500D01*
X51000000Y-31337500D02*
X51000000Y-30500000D01*
D49*
X70565098Y250000D02*
X68714118Y2100980D01*
X77940000Y5740000D02*
X77940000Y4608630D01*
X77940000Y4608630D02*
X73581370Y250000D01*
X65965276Y2100980D02*
X64864296Y1000000D01*
X73581370Y250000D02*
X70565098Y250000D01*
X52024520Y-29475480D02*
X52024520Y-17962027D01*
X68714118Y2100980D02*
X65965276Y2100980D01*
X52024520Y-17962027D02*
X45252446Y-11189953D01*
X45252446Y-8022154D02*
X53974501Y699901D01*
X55321070Y2071070D02*
X55321070Y2601559D01*
X45252446Y-11189953D02*
X45252446Y-8022154D01*
X64864296Y1000000D02*
X60250000Y1000000D01*
X33250000Y-145850000D02*
X36812500Y-145850000D01*
X36812500Y-145850000D02*
X37387500Y-145275000D01*
X62750000Y32000000D02*
X67250000Y27500000D01*
X51000000Y32000000D02*
X62750000Y32000000D01*
X67250000Y27500000D02*
X67250000Y8500000D01*
X48500000Y34500000D02*
X51000000Y32000000D01*
X65750000Y-2837500D02*
X65750000Y-2000000D01*
X67250000Y8500000D02*
X66750000Y8000000D01*
X68000000Y-5087500D02*
X65750000Y-2837500D01*
D50*
X40750000Y-34000000D02*
X39250000Y-34000000D01*
X83000000Y-89275000D02*
X80525000Y-89275000D01*
X30000000Y-136250000D02*
X30750000Y-137000000D01*
X80525000Y-89275000D02*
X80250000Y-89000000D01*
X24893750Y-2893750D02*
X25750000Y-3750000D01*
D49*
X46525000Y-146500000D02*
X49387500Y-146500000D01*
D50*
X57087500Y-122912500D02*
X57000000Y-123000000D01*
X48200000Y20192500D02*
X50192500Y20192500D01*
X61500000Y-95250000D02*
X62250000Y-96000000D01*
D49*
X41212500Y-144000000D02*
X42250000Y-144000000D01*
D50*
X62000000Y-47500000D02*
X61500000Y-47000000D01*
D49*
X8500000Y-133000000D02*
X8500000Y-131835000D01*
D50*
X57850000Y18800000D02*
X59700000Y18800000D01*
X63500000Y-15250000D02*
X62000000Y-15250000D01*
X40500000Y-70250000D02*
X39112500Y-70250000D01*
X58750000Y-37537500D02*
X57287500Y-37537500D01*
X33825000Y-29250000D02*
X33725000Y-29350000D01*
X35800000Y-140450000D02*
X36250000Y-140000000D01*
X59700000Y18800000D02*
X59750000Y18750000D01*
X61000000Y-99275000D02*
X59275000Y-99275000D01*
D49*
X42250000Y-148500000D02*
X41212500Y-148500000D01*
D50*
X50500000Y-50250000D02*
X51000000Y-50750000D01*
D49*
X65387500Y-139550000D02*
X65387500Y-138887500D01*
D50*
X73750000Y-140500000D02*
X74250000Y-140000000D01*
D49*
X101000000Y-123500000D02*
X99787500Y-123500000D01*
D50*
X46500000Y-18000000D02*
X47250000Y-18750000D01*
X42250000Y8250000D02*
X44500000Y8250000D01*
X40500000Y-114250000D02*
X39025000Y-114250000D01*
X61000000Y-99275000D02*
X59725000Y-99275000D01*
X53387500Y-140500000D02*
X54750000Y-140500000D01*
X49725000Y-99975000D02*
X50000000Y-100250000D01*
X85000000Y-128250000D02*
X86250000Y-127000000D01*
X42400000Y-4000000D02*
X42400000Y-5900000D01*
X62000000Y-47500000D02*
X62500000Y-47000000D01*
D49*
X69833334Y19916666D02*
X69750000Y20000000D01*
D50*
X40000000Y-136750000D02*
X40500000Y-137250000D01*
X46500000Y-16000000D02*
X46500000Y-18250000D01*
X54000000Y19475000D02*
X54000000Y20500000D01*
X40000000Y-91275000D02*
X40000000Y-92750000D01*
D49*
X78000000Y13250000D02*
X76666666Y13250000D01*
D50*
X30000000Y-134275000D02*
X30000000Y-136500000D01*
D49*
X79300000Y-144000000D02*
X80445072Y-144000000D01*
X78600000Y2750000D02*
X77250000Y2750000D01*
D50*
X24893750Y-2250000D02*
X24893750Y-2893750D01*
X44500000Y8250000D02*
X45000000Y7750000D01*
X30000000Y-134275000D02*
X30000000Y-136250000D01*
X58250000Y-122912500D02*
X57087500Y-122912500D01*
D49*
X78000000Y9500000D02*
X76666666Y9500000D01*
X78000000Y16500000D02*
X76500000Y16500000D01*
D50*
X60750000Y-56250000D02*
X58750000Y-56250000D01*
X42400000Y-4000000D02*
X42400000Y-6350000D01*
X30775000Y-116275000D02*
X30750000Y-116250000D01*
D49*
X90912500Y-2750000D02*
X92000000Y-2750000D01*
D50*
X62250000Y-138250000D02*
X62250000Y-136250000D01*
X49725000Y-99275000D02*
X49725000Y-99975000D01*
D49*
X61500000Y-146250000D02*
X60337500Y-146250000D01*
D50*
X40000000Y-136750000D02*
X39500000Y-137250000D01*
X49725000Y-99275000D02*
X50000000Y-99000000D01*
X33550000Y-50475000D02*
X33550000Y-48450000D01*
D49*
X27525000Y-146500000D02*
X30387500Y-146500000D01*
X90412500Y-3250000D02*
X90912500Y-2750000D01*
D50*
X36750000Y-29250000D02*
X33825000Y-29250000D01*
D49*
X100000000Y-133500000D02*
X100000000Y-132000000D01*
D50*
X50192500Y20192500D02*
X50250000Y20250000D01*
X34387500Y-140450000D02*
X35700000Y-140450000D01*
X61500000Y-93275000D02*
X61500000Y-95250000D01*
X54000000Y20500000D02*
X54250000Y20750000D01*
X50500000Y-50250000D02*
X51000000Y-49750000D01*
X61500000Y-93275000D02*
X61500000Y-95750000D01*
D49*
X80500000Y-146250000D02*
X79337500Y-146250000D01*
D50*
X48000000Y-55250000D02*
X47250000Y-54500000D01*
X54000000Y10250000D02*
X54000000Y11525000D01*
D49*
X61500000Y-148500000D02*
X60300000Y-148500000D01*
D50*
X48000000Y-55000000D02*
X48500000Y-54500000D01*
X49587500Y-27837500D02*
X49500000Y-27750000D01*
X57287500Y-37537500D02*
X57250000Y-37500000D01*
X48000000Y-57275000D02*
X48000000Y-55250000D01*
X40000000Y-135275000D02*
X40000000Y-136750000D01*
X36750000Y-73250000D02*
X33750000Y-73250000D01*
D49*
X71127500Y19916666D02*
X69833334Y19916666D01*
D50*
X44500000Y8250000D02*
X45250000Y9000000D01*
X36750000Y-32750000D02*
X33725000Y-32750000D01*
X71000000Y-68362500D02*
X69612500Y-68362500D01*
X45000000Y7750000D02*
X45250000Y7750000D01*
X42400000Y-5900000D02*
X43250000Y-6750000D01*
X59725000Y-99275000D02*
X59000000Y-100000000D01*
X69862500Y-113362500D02*
X69750000Y-113250000D01*
X49192500Y20192500D02*
X50250000Y21250000D01*
X51000000Y-27837500D02*
X49587500Y-27837500D01*
X33550000Y-48300000D02*
X33000000Y-47750000D01*
X40000000Y-92750000D02*
X40500000Y-93250000D01*
X33550000Y-48450000D02*
X34250000Y-47750000D01*
X73250000Y-32750000D02*
X76225000Y-32750000D01*
D49*
X65525000Y-146500000D02*
X67087500Y-146500000D01*
D50*
X83000000Y-89275000D02*
X80975000Y-89275000D01*
X61000000Y-138250000D02*
X61000000Y-136000000D01*
X69612500Y-68362500D02*
X69500000Y-68250000D01*
X52000000Y-112362500D02*
X50637500Y-112362500D01*
X49000000Y-50250000D02*
X50500000Y-50250000D01*
X85000000Y-129000000D02*
X85000000Y-127000000D01*
D49*
X27387500Y-138387500D02*
X27250000Y-138250000D01*
D50*
X71000000Y-113362500D02*
X69862500Y-113362500D01*
X72387500Y-140500000D02*
X73750000Y-140500000D01*
X39025000Y-114250000D02*
X39000000Y-114275000D01*
D49*
X80445072Y-144000000D02*
X80472536Y-144027464D01*
D50*
X46500000Y-16000000D02*
X46500000Y-18000000D01*
D49*
X46387500Y-139550000D02*
X46387500Y-138387500D01*
D50*
X62000000Y-15250000D02*
X61500000Y-15750000D01*
X76275000Y-116275000D02*
X79225000Y-116275000D01*
X80975000Y-89275000D02*
X80250000Y-90000000D01*
X48000000Y-99275000D02*
X49725000Y-99275000D01*
X30000000Y-136500000D02*
X29500000Y-137000000D01*
X54750000Y-140500000D02*
X55250000Y-140000000D01*
X59275000Y-99275000D02*
X59000000Y-99000000D01*
X76225000Y-73250000D02*
X73000000Y-73250000D01*
X62000000Y-15250000D02*
X61500000Y-14750000D01*
X33775000Y-116275000D02*
X30775000Y-116275000D01*
X62000000Y-49750000D02*
X62000000Y-47500000D01*
X42400000Y-6350000D02*
X42000000Y-6750000D01*
X48000000Y-57275000D02*
X48000000Y-55000000D01*
X33550000Y-50475000D02*
X33550000Y-48300000D01*
D49*
X27387500Y-139550000D02*
X27387500Y-138387500D01*
X80500000Y-148500000D02*
X79300000Y-148500000D01*
D50*
X58000000Y-80187500D02*
X58000000Y-81500000D01*
D49*
X97750000Y-133250000D02*
X97750000Y-131505000D01*
X65387500Y-138887500D02*
X65000000Y-138500000D01*
D50*
X71000000Y-37662500D02*
X72412500Y-37662500D01*
X73750000Y-140500000D02*
X74250000Y-141000000D01*
X52000000Y-69362500D02*
X52000000Y-68000000D01*
X35700000Y-140450000D02*
X36250000Y-141000000D01*
D49*
X42250000Y-146250000D02*
X41250000Y-146250000D01*
D50*
X50637500Y-112362500D02*
X50500000Y-112500000D01*
X72412500Y-37662500D02*
X72500000Y-37750000D01*
D49*
X46387500Y-138387500D02*
X46250000Y-138250000D01*
D50*
X39250000Y-34000000D02*
X39050000Y-33800000D01*
X79225000Y-116275000D02*
X79250000Y-116250000D01*
X54750000Y-140500000D02*
X55250000Y-141000000D01*
D49*
X61500000Y-144000000D02*
X60300000Y-144000000D01*
D50*
X40000000Y-92750000D02*
X39500000Y-93250000D01*
X34387500Y-140450000D02*
X35800000Y-140450000D01*
X48200000Y20192500D02*
X49192500Y20192500D01*
X39112500Y-70250000D02*
X39000000Y-70362500D01*
X61500000Y-95750000D02*
X61250000Y-96000000D01*
X46500000Y-18250000D02*
X46000000Y-18750000D01*
X47000000Y-74325000D02*
X47000000Y-76875000D01*
X37000000Y-64325000D02*
X37000000Y-60275000D01*
X42165000Y-79375000D02*
X40000000Y-81540000D01*
X47000000Y-76875000D02*
X49500000Y-79375000D01*
X47000000Y-74325000D02*
X37000000Y-64325000D01*
X49500000Y-79375000D02*
X42165000Y-79375000D01*
X70000000Y-81530000D02*
X68555000Y-81530000D01*
X62250000Y-75225000D02*
X62250000Y-69800000D01*
X70000000Y-84275000D02*
X75000000Y-89275000D01*
X70000000Y-81530000D02*
X70000000Y-84275000D01*
X68555000Y-81530000D02*
X62250000Y-75225000D01*
X45050489Y-119050489D02*
X45274511Y-119050489D01*
X45050489Y-119050489D02*
X45050489Y-121575489D01*
X45050489Y-121575489D02*
X46950000Y-123475000D01*
X44000000Y-118000000D02*
X45050489Y-119050489D01*
X44000000Y-109275000D02*
X44000000Y-118000000D01*
X43055000Y-123475000D02*
X40000000Y-126530000D01*
X45274511Y-119050489D02*
X47000000Y-117325000D01*
X46950000Y-123475000D02*
X50000000Y-123475000D01*
X37000000Y-102275000D02*
X44000000Y-109275000D01*
X50000000Y-123475000D02*
X43055000Y-123475000D01*
D49*
X74665000Y19916666D02*
X72952500Y19916666D01*
X101875000Y-129500000D02*
X101875000Y-132000000D01*
X74625000Y9666666D02*
X72952500Y9666666D01*
D50*
X72925000Y-31050000D02*
X62725000Y-20850000D01*
X76225000Y-31050000D02*
X72925000Y-31050000D01*
X62000000Y-20750000D02*
X67500000Y-15250000D01*
X38000000Y-85275000D02*
X38000000Y-76700978D01*
X49500000Y-87175000D02*
X40100000Y-87175000D01*
X40000000Y-87275000D02*
X38000000Y-85275000D01*
X38000000Y-76700978D02*
X36274022Y-74975000D01*
X36274022Y-74975000D02*
X33725000Y-74975000D01*
X62750000Y-61500000D02*
X66192824Y-61500000D01*
X64750000Y-59500000D02*
X62750000Y-61500000D01*
X73225489Y-68532665D02*
X73225489Y-71099511D01*
X66192824Y-61500000D02*
X73225489Y-68532665D01*
X64750000Y-56250000D02*
X64750000Y-59500000D01*
X73225489Y-71099511D02*
X73675978Y-71550000D01*
X73675978Y-71550000D02*
X76225000Y-71550000D01*
X38000000Y-129275000D02*
X38000000Y-119650978D01*
X40000000Y-131275000D02*
X38000000Y-129275000D01*
X40000000Y-131275000D02*
X50000000Y-131275000D01*
X36324022Y-117975000D02*
X33775000Y-117975000D01*
X38000000Y-119650978D02*
X36324022Y-117975000D01*
X73000000Y-113849022D02*
X73000000Y-113000000D01*
X76275000Y-114575000D02*
X73725978Y-114575000D01*
X65375000Y-105375000D02*
X63000000Y-105375000D01*
X63000000Y-105375000D02*
X63000000Y-101275000D01*
X63000000Y-101275000D02*
X65000000Y-99275000D01*
X73725978Y-114575000D02*
X73000000Y-113849022D01*
X73000000Y-113000000D02*
X65375000Y-105375000D01*
X29600000Y-8000000D02*
X27700000Y-9900000D01*
X24000489Y-9599511D02*
X24000489Y-5675489D01*
X27700000Y-9900000D02*
X24300978Y-9900000D01*
X29950000Y-7575000D02*
X31025000Y-7575000D01*
X24000489Y-5675489D02*
X23025000Y-4700000D01*
X24300978Y-9900000D02*
X24000489Y-9599511D01*
X23025000Y-4700000D02*
X19725000Y-4700000D01*
X31025000Y-7575000D02*
X34600000Y-4000000D01*
D49*
X55764638Y-147150000D02*
X58475000Y-144439638D01*
X52250000Y-147150000D02*
X55764638Y-147150000D01*
X77475000Y-148500000D02*
X71300000Y-148500000D01*
X77475000Y-144439638D02*
X74764638Y-147150000D01*
X74764638Y-147150000D02*
X71250000Y-147150000D01*
X95787500Y-123500000D02*
X97962500Y-123500000D01*
X100137500Y-125675000D02*
X97962500Y-123500000D01*
X96510000Y-124222500D02*
X95787500Y-123500000D01*
X96510000Y-126525000D02*
X96510000Y-124222500D01*
D50*
X72387500Y-34450000D02*
X71000000Y-35837500D01*
X76225000Y-34450000D02*
X72387500Y-34450000D01*
X71625000Y-34450000D02*
X71000000Y-33825000D01*
X72387500Y-34450000D02*
X71625000Y-34450000D01*
X71000000Y-35837500D02*
X71000000Y-33825000D01*
D49*
X36750342Y-147800000D02*
X33250000Y-147800000D01*
X38300342Y-146250000D02*
X36750342Y-147800000D01*
X39350000Y-146250000D02*
X38300342Y-146250000D01*
X56887500Y-147800000D02*
X52250000Y-147800000D01*
X58437500Y-146250000D02*
X56887500Y-147800000D01*
X55812500Y-145850000D02*
X56387500Y-145275000D01*
X52250000Y-145850000D02*
X55812500Y-145850000D01*
X75887500Y-147800000D02*
X77437500Y-146250000D01*
X71250000Y-147800000D02*
X75887500Y-147800000D01*
D50*
X80750000Y-142250000D02*
X82000000Y-143500000D01*
X71250000Y-143750000D02*
X71250000Y-143362500D01*
X71250000Y-143362500D02*
X68387500Y-140500000D01*
X75387500Y-143725000D02*
X76862500Y-142250000D01*
X76862500Y-142250000D02*
X80750000Y-142250000D01*
X71250000Y-144550000D02*
X71250000Y-143750000D01*
X82000000Y-143500000D02*
X82000000Y-160500000D01*
X82000000Y-160500000D02*
X78500000Y-164000000D01*
X75387500Y-143725000D02*
X71275000Y-143725000D01*
X71275000Y-143725000D02*
X71250000Y-143750000D01*
D49*
X71250000Y-145850000D02*
X74812500Y-145850000D01*
X74812500Y-145850000D02*
X75387500Y-145275000D01*
X74625000Y16500000D02*
X72952500Y16500000D01*
X74625000Y13083334D02*
X72952500Y13083334D01*
D50*
X45000000Y-46650000D02*
X47000000Y-44650000D01*
X45000000Y-50250000D02*
X45000000Y-46650000D01*
X37644676Y-34450000D02*
X47000000Y-43805324D01*
X33725000Y-34450000D02*
X37644676Y-34450000D01*
D49*
X76225000Y-45537493D02*
X79187507Y-48500000D01*
X101000000Y-45000000D02*
X101000000Y-16500000D01*
X97500000Y-48500000D02*
X101000000Y-45000000D01*
X76225000Y-36150000D02*
X76225000Y-45537493D01*
X79187507Y-48500000D02*
X97500000Y-48500000D01*
X101000000Y-16500000D02*
X104500000Y-13000000D01*
X31100489Y-81812996D02*
X31574520Y-82287027D01*
X31100489Y-70749511D02*
X31100489Y-81812996D01*
X31574520Y-86675480D02*
X14815480Y-86675480D01*
X14815480Y-86675480D02*
X5640000Y-77500000D01*
X31574520Y-82287027D02*
X31574520Y-86675480D01*
X31975000Y-69875000D02*
X31100489Y-70749511D01*
X78000000Y-85000000D02*
X76225000Y-83225000D01*
X90500000Y-85000000D02*
X78000000Y-85000000D01*
X76225000Y-83225000D02*
X76225000Y-76650000D01*
X104500000Y-50000000D02*
X99500000Y-55000000D01*
X99500000Y-76000000D02*
X90500000Y-85000000D01*
X99500000Y-55000000D02*
X99500000Y-76000000D01*
X32025000Y-112875000D02*
X29649511Y-115250489D01*
X10640000Y-122000000D02*
X5640000Y-117000000D01*
X29649511Y-115250489D02*
X29649511Y-121999511D01*
X29649511Y-121999511D02*
X29649022Y-122000000D01*
X29649022Y-122000000D02*
X10640000Y-122000000D01*
X101000000Y-111500000D02*
X88500000Y-124000000D01*
X80600000Y-124000000D02*
X76275000Y-119675000D01*
X104500000Y-87000000D02*
X101000000Y-90500000D01*
X88500000Y-124000000D02*
X80600000Y-124000000D01*
X101000000Y-90500000D02*
X101000000Y-111500000D01*
X66087020Y-5924520D02*
X69575480Y-5924520D01*
X69575480Y-5924520D02*
X75750000Y250000D01*
X82025499Y26360205D02*
X88033052Y20352652D01*
X82025499Y28025499D02*
X82025499Y26360205D01*
X88033052Y17622525D02*
X88308041Y17347536D01*
X65250000Y-5087500D02*
X66087020Y-5924520D01*
X88033052Y20352652D02*
X88033052Y17622525D01*
X88500000Y34500000D02*
X82025499Y28025499D01*
X5401468Y-139401468D02*
X5401468Y-126937460D01*
X5401468Y-126937460D02*
X8148928Y-124190000D01*
X8148928Y-125460000D02*
X5850979Y-127757949D01*
X5850979Y-127757949D02*
X5850979Y-136601957D01*
X5850979Y-136601957D02*
X7124511Y-137875489D01*
X7124511Y-142875489D02*
X5500000Y-144500000D01*
X7124511Y-137875489D02*
X7124511Y-142875489D01*
X6300489Y-136415763D02*
X6300489Y-128578439D01*
X7574021Y-137689295D02*
X6300489Y-136415763D01*
X5500000Y-154500000D02*
X7574020Y-152425980D01*
X6300489Y-128578439D02*
X8148928Y-126730000D01*
X7574020Y-152425980D02*
X7574021Y-137689295D01*
X8023531Y-156976469D02*
X8023531Y-137503101D01*
X6750000Y-129398928D02*
X8148928Y-128000000D01*
X8023531Y-137503101D02*
X6750000Y-136229570D01*
X6750000Y-136229570D02*
X6750000Y-129398928D01*
X5500000Y-159500000D02*
X8023531Y-156976469D01*
X65525000Y-148450000D02*
X65525000Y-161025000D01*
X65525000Y-161025000D02*
X68500000Y-164000000D01*
X56500000Y-1750000D02*
X59162500Y-1750000D01*
X48200000Y5949700D02*
X53149700Y1000000D01*
X48200000Y15632500D02*
X48200000Y5949700D01*
X53149700Y1000000D02*
X53250000Y1000000D01*
X59162500Y-1750000D02*
X62500000Y-5087500D01*
X80480000Y-9500000D02*
X80480000Y-6932500D01*
X33250000Y-148450000D02*
X39337500Y-148450000D01*
X36764638Y-147150000D02*
X39387500Y-144527138D01*
X33250000Y-147150000D02*
X36764638Y-147150000D01*
X52250000Y-148450000D02*
X58425000Y-148450000D01*
X93970000Y-130530000D02*
X95500000Y-129000000D01*
X98000000Y-128250000D02*
X98000000Y-126745000D01*
X104500000Y-144500000D02*
X94000000Y-144500000D01*
X92025499Y-136474501D02*
X94000000Y-134500000D01*
X94000000Y-144500000D02*
X92025499Y-142525499D01*
X93970000Y-131475000D02*
X93970000Y-130530000D01*
X94000000Y-134500000D02*
X94000000Y-131505000D01*
X92025499Y-142525499D02*
X92025499Y-136474501D01*
X98000000Y-126745000D02*
X97780000Y-126525000D01*
X95825000Y-134500000D02*
X95825000Y-132060000D01*
X95825000Y-132060000D02*
X95240000Y-131475000D01*
D50*
X33725000Y-71575000D02*
X38387500Y-71575000D01*
X40000000Y-79000000D02*
X40000000Y-73187500D01*
X40000000Y-73187500D02*
X39000000Y-72187500D01*
X38387500Y-71575000D02*
X39000000Y-72187500D01*
X37050000Y-18750000D02*
X37050000Y-26062500D01*
X47000000Y-33575000D02*
X46000000Y-32575000D01*
X47000000Y-36850000D02*
X47000000Y-33575000D01*
X37050000Y-26062500D02*
X39050000Y-28062500D01*
X41487500Y-28062500D02*
X39050000Y-28062500D01*
X46000000Y-32575000D02*
X41487500Y-28062500D01*
X63700000Y-32000000D02*
X71000000Y-32000000D01*
X62000000Y-28650000D02*
X62000000Y-31700000D01*
X73000000Y-42700000D02*
X63000000Y-32700000D01*
X63000000Y-32700000D02*
X63700000Y-32000000D01*
X62000000Y-31700000D02*
X63000000Y-32700000D01*
X73000000Y-46750000D02*
X73000000Y-42700000D01*
X62500000Y-117950000D02*
X62500000Y-113675000D01*
X70500000Y-126530000D02*
X62500000Y-118530000D01*
X62500000Y-118530000D02*
X62500000Y-117950000D01*
X74530000Y-126530000D02*
X77000000Y-129000000D01*
X70500000Y-126530000D02*
X74530000Y-126530000D01*
D52*
X25725480Y325480D02*
X26900000Y1500000D01*
X19799520Y325480D02*
X25725480Y325480D01*
D50*
X26900000Y1500000D02*
X29037500Y1500000D01*
X39050000Y-31975000D02*
X38812500Y-31975000D01*
X37887500Y-31050000D02*
X39050000Y-29887500D01*
X38812500Y-31975000D02*
X37887500Y-31050000D01*
X33725000Y-31050000D02*
X37887500Y-31050000D01*
X71500000Y-74950000D02*
X76225000Y-74950000D01*
X71000000Y-75450000D02*
X70000000Y-76450000D01*
X71000000Y-70187500D02*
X71000000Y-75450000D01*
X70000000Y-78990000D02*
X70000000Y-76450000D01*
X70000000Y-76450000D02*
X71500000Y-74950000D01*
X39000000Y-116100000D02*
X37849022Y-116100000D01*
X40000000Y-123990000D02*
X40000000Y-117100000D01*
X36324022Y-114575000D02*
X33775000Y-114575000D01*
X37849022Y-116100000D02*
X36324022Y-114575000D01*
X40000000Y-117100000D02*
X39000000Y-116100000D01*
X70500000Y-123990000D02*
X70500000Y-121262500D01*
X73787500Y-117975000D02*
X71000000Y-115187500D01*
X76275000Y-117975000D02*
X73787500Y-117975000D01*
X70500000Y-121262500D02*
X73787500Y-117975000D01*
D52*
X25569230Y-1100480D02*
X26718750Y-2250000D01*
D50*
X26718750Y-2250000D02*
X28893750Y-2250000D01*
D52*
X19924520Y-1100480D02*
X25569230Y-1100480D01*
G04 #@! TA.AperFunction,Conductor*
G36*
X27942121Y37479998D02*
G01*
X27988614Y37426342D01*
X28000000Y37374000D01*
X28000000Y26500000D01*
X41947810Y26500000D01*
X42015931Y26479998D01*
X42036905Y26463095D01*
X45963095Y22536905D01*
X45997121Y22474593D01*
X46000000Y22447810D01*
X46000000Y19000000D01*
X50374000Y19000000D01*
X50442121Y18979998D01*
X50488614Y18926342D01*
X50500000Y18874000D01*
X50500000Y17126000D01*
X50479998Y17057879D01*
X50426342Y17011386D01*
X50374000Y17000000D01*
X46000000Y17000000D01*
X46000000Y14626000D01*
X45979998Y14557879D01*
X45926342Y14511386D01*
X45874000Y14500000D01*
X37126000Y14500000D01*
X37057879Y14520002D01*
X37011386Y14573658D01*
X37000000Y14626000D01*
X37000000Y21000000D01*
X27052190Y21000000D01*
X26984069Y21020002D01*
X26963095Y21036905D01*
X24036905Y23963095D01*
X24002879Y24025407D01*
X24000000Y24052190D01*
X24000000Y37374000D01*
X24020002Y37442121D01*
X24073658Y37488614D01*
X24126000Y37500000D01*
X27874000Y37500000D01*
X27942121Y37479998D01*
G37*
G04 #@! TD.AperFunction*
G04 #@! TA.AperFunction,Conductor*
G36*
X99418032Y-49176790D02*
G01*
X99474868Y-49219337D01*
X99499679Y-49285857D01*
X99500000Y-49294846D01*
X99500000Y-54487484D01*
X99479998Y-54555605D01*
X99463095Y-54576579D01*
X99283785Y-54755889D01*
X99275681Y-54763316D01*
X99246806Y-54787545D01*
X99241293Y-54797094D01*
X99227961Y-54820185D01*
X99222055Y-54829456D01*
X99200446Y-54860316D01*
X99197592Y-54870966D01*
X99196115Y-54874134D01*
X99194923Y-54877410D01*
X99189412Y-54886955D01*
X99183462Y-54920699D01*
X99182870Y-54924058D01*
X99180492Y-54934785D01*
X99170736Y-54971193D01*
X99171697Y-54982178D01*
X99171697Y-54982180D01*
X99174020Y-55008728D01*
X99174500Y-55019710D01*
X99174500Y-75812984D01*
X99154498Y-75881105D01*
X99137595Y-75902079D01*
X90576579Y-84463095D01*
X90514267Y-84497121D01*
X90487484Y-84500000D01*
X79126000Y-84500000D01*
X79057879Y-84479998D01*
X79011386Y-84426342D01*
X79000000Y-84374000D01*
X79000000Y-70000000D01*
X78768527Y-69797461D01*
X78730434Y-69737552D01*
X78725500Y-69702638D01*
X78725500Y-69280252D01*
X78713867Y-69221769D01*
X78669552Y-69155448D01*
X78603231Y-69111133D01*
X78591062Y-69108712D01*
X78591061Y-69108712D01*
X78550816Y-69100707D01*
X78544748Y-69099500D01*
X78018200Y-69099500D01*
X77950079Y-69079498D01*
X77935232Y-69068328D01*
X77514641Y-68700311D01*
X76988907Y-68240293D01*
X76950813Y-68180382D01*
X76946088Y-68152721D01*
X76944929Y-68132627D01*
X76944492Y-68125041D01*
X76894639Y-67962989D01*
X76807569Y-67817505D01*
X76802232Y-67812112D01*
X76802229Y-67812108D01*
X76713081Y-67722022D01*
X76688310Y-67696990D01*
X76599588Y-67642622D01*
X76550222Y-67612371D01*
X76550219Y-67612370D01*
X76543746Y-67608403D01*
X76382224Y-67556855D01*
X76374644Y-67556338D01*
X76374643Y-67556338D01*
X76315304Y-67552292D01*
X76235507Y-67546852D01*
X76168906Y-67522263D01*
X76161107Y-67515969D01*
X75043027Y-66537649D01*
X75004934Y-66477739D01*
X75000000Y-66442825D01*
X75000000Y-65303834D01*
X75549500Y-65303834D01*
X75552481Y-65335369D01*
X75597366Y-65463184D01*
X75602958Y-65470754D01*
X75602959Y-65470757D01*
X75665335Y-65555206D01*
X75677850Y-65572150D01*
X75685421Y-65577742D01*
X75779243Y-65647041D01*
X75779246Y-65647042D01*
X75786816Y-65652634D01*
X75914631Y-65697519D01*
X75922277Y-65698242D01*
X75922278Y-65698242D01*
X75928248Y-65698806D01*
X75946166Y-65700500D01*
X78053834Y-65700500D01*
X78071752Y-65698806D01*
X78077722Y-65698242D01*
X78077723Y-65698242D01*
X78085369Y-65697519D01*
X78213184Y-65652634D01*
X78220754Y-65647042D01*
X78220757Y-65647041D01*
X78314579Y-65577742D01*
X78322150Y-65572150D01*
X78334665Y-65555206D01*
X78397041Y-65470757D01*
X78397042Y-65470754D01*
X78402634Y-65463184D01*
X78447519Y-65335369D01*
X78450500Y-65303834D01*
X78450500Y-64597553D01*
X78470502Y-64529432D01*
X78524158Y-64482939D01*
X78594432Y-64472835D01*
X78659012Y-64502329D01*
X78665595Y-64508458D01*
X78765566Y-64608429D01*
X78768553Y-64610771D01*
X78768554Y-64610772D01*
X78811577Y-64644506D01*
X78865288Y-64686621D01*
X79019815Y-64756392D01*
X79186523Y-64787289D01*
X79194103Y-64786852D01*
X79194104Y-64786852D01*
X79225330Y-64785052D01*
X79355790Y-64777530D01*
X79517842Y-64727676D01*
X79663326Y-64640606D01*
X79668719Y-64635269D01*
X79668723Y-64635266D01*
X79724745Y-64579827D01*
X79783841Y-64521347D01*
X79872429Y-64376783D01*
X79923977Y-64215262D01*
X79935509Y-64046107D01*
X79906359Y-63879083D01*
X79838210Y-63723835D01*
X79833588Y-63717811D01*
X79833584Y-63717805D01*
X79765865Y-63629553D01*
X79740264Y-63563333D01*
X79754528Y-63493784D01*
X79771530Y-63469278D01*
X79772706Y-63467951D01*
X79775392Y-63465265D01*
X79853584Y-63365543D01*
X79923355Y-63211016D01*
X79954252Y-63044308D01*
X79944493Y-62875041D01*
X79894639Y-62712989D01*
X79807569Y-62567505D01*
X79802232Y-62562112D01*
X79802229Y-62562108D01*
X79745372Y-62504653D01*
X79688310Y-62446990D01*
X79543746Y-62358402D01*
X79446986Y-62327522D01*
X79389464Y-62309164D01*
X79389462Y-62309164D01*
X79382225Y-62306854D01*
X79374645Y-62306337D01*
X79374644Y-62306337D01*
X79220646Y-62295838D01*
X79220642Y-62295838D01*
X79213070Y-62295322D01*
X79205593Y-62296627D01*
X79205591Y-62296627D01*
X79053524Y-62323167D01*
X79046047Y-62324472D01*
X79039101Y-62327521D01*
X79039098Y-62327522D01*
X78983051Y-62352125D01*
X78890798Y-62392621D01*
X78787322Y-62472022D01*
X78784403Y-62474941D01*
X78784395Y-62474948D01*
X78665595Y-62593748D01*
X78603283Y-62627774D01*
X78532468Y-62622709D01*
X78475632Y-62580162D01*
X78450821Y-62513642D01*
X78450500Y-62504653D01*
X78450500Y-61696166D01*
X78447519Y-61664631D01*
X78402634Y-61536816D01*
X78397042Y-61529246D01*
X78397041Y-61529243D01*
X78327742Y-61435421D01*
X78322150Y-61427850D01*
X78305206Y-61415335D01*
X78220757Y-61352959D01*
X78220754Y-61352958D01*
X78213184Y-61347366D01*
X78085369Y-61302481D01*
X78077723Y-61301758D01*
X78077722Y-61301758D01*
X78071752Y-61301194D01*
X78053834Y-61299500D01*
X75946166Y-61299500D01*
X75928248Y-61301194D01*
X75922278Y-61301758D01*
X75922277Y-61301758D01*
X75914631Y-61302481D01*
X75786816Y-61347366D01*
X75779246Y-61352958D01*
X75779243Y-61352959D01*
X75694794Y-61415335D01*
X75677850Y-61427850D01*
X75672258Y-61435421D01*
X75602959Y-61529243D01*
X75602958Y-61529246D01*
X75597366Y-61536816D01*
X75552481Y-61664631D01*
X75549500Y-61696166D01*
X75549500Y-65303834D01*
X75000000Y-65303834D01*
X75000000Y-50151011D01*
X75020002Y-50082890D01*
X75073658Y-50036397D01*
X75126000Y-50025011D01*
X98146848Y-50025011D01*
X98155418Y-50025303D01*
X98204843Y-50028673D01*
X98204847Y-50028673D01*
X98212419Y-50029189D01*
X98219895Y-50027884D01*
X98219898Y-50027884D01*
X98274621Y-50018333D01*
X98281147Y-50017370D01*
X98321585Y-50012476D01*
X98343809Y-50009787D01*
X98350916Y-50007102D01*
X98354209Y-50006293D01*
X98368680Y-50002334D01*
X98371956Y-50001345D01*
X98379443Y-50000038D01*
X98386403Y-49996983D01*
X98437249Y-49974664D01*
X98443355Y-49972172D01*
X98495307Y-49952541D01*
X98495309Y-49952540D01*
X98502412Y-49949856D01*
X98508667Y-49945557D01*
X98511692Y-49943976D01*
X98524788Y-49936686D01*
X98527732Y-49934945D01*
X98534691Y-49931890D01*
X98584762Y-49893469D01*
X98590098Y-49889592D01*
X98635875Y-49858130D01*
X98635881Y-49858125D01*
X98642140Y-49853823D01*
X98683098Y-49807853D01*
X98688078Y-49802578D01*
X99284905Y-49205751D01*
X99347217Y-49171725D01*
X99418032Y-49176790D01*
G37*
G04 #@! TD.AperFunction*
G04 #@! TA.AperFunction,Conductor*
G36*
X99500000Y-84500000D02*
G01*
X94490656Y-84500000D01*
X98253251Y-80737405D01*
X98315563Y-80703379D01*
X98342346Y-80700500D01*
X99500000Y-80700500D01*
X99500000Y-84500000D01*
G37*
G04 #@! TD.AperFunction*
G04 #@! TA.AperFunction,Conductor*
G36*
X97402079Y-48137595D02*
G01*
X97339767Y-48171621D01*
X97312984Y-48174500D01*
X79374523Y-48174500D01*
X79306402Y-48154498D01*
X79285428Y-48137595D01*
X78362928Y-47215095D01*
X78328902Y-47152783D01*
X78333967Y-47081968D01*
X78376514Y-47025132D01*
X78443034Y-47000321D01*
X78452023Y-47000000D01*
X98539674Y-47000000D01*
X97402079Y-48137595D01*
G37*
G04 #@! TD.AperFunction*
G04 #@! TA.AperFunction,Conductor*
G36*
X10208512Y-53059623D02*
G01*
X10215095Y-53065752D01*
X12624418Y-55475075D01*
X12630271Y-55481340D01*
X12667831Y-55524396D01*
X12719473Y-55560690D01*
X12724758Y-55564616D01*
X12768476Y-55598895D01*
X12768480Y-55598897D01*
X12774457Y-55603584D01*
X12781380Y-55606710D01*
X12784328Y-55608495D01*
X12797288Y-55615887D01*
X12800334Y-55617520D01*
X12806547Y-55621887D01*
X12865366Y-55644820D01*
X12871445Y-55647375D01*
X12928984Y-55673355D01*
X12936455Y-55674740D01*
X12939723Y-55675764D01*
X12954164Y-55679877D01*
X12957437Y-55680717D01*
X12964513Y-55683476D01*
X13009183Y-55689356D01*
X13027106Y-55691716D01*
X13033623Y-55692748D01*
X13075035Y-55700423D01*
X13095692Y-55704252D01*
X13103272Y-55703815D01*
X13103273Y-55703815D01*
X13157144Y-55700709D01*
X13164396Y-55700500D01*
X33874000Y-55700500D01*
X33942121Y-55720502D01*
X33988614Y-55774158D01*
X34000000Y-55826500D01*
X34000000Y-61947810D01*
X33979998Y-62015931D01*
X33963095Y-62036905D01*
X30500000Y-65500000D01*
X30500000Y-81948500D01*
X30479998Y-82016621D01*
X30426342Y-82063114D01*
X30374000Y-82074500D01*
X28946166Y-82074500D01*
X28928248Y-82076194D01*
X28922278Y-82076758D01*
X28922277Y-82076758D01*
X28914631Y-82077481D01*
X28786816Y-82122366D01*
X28779246Y-82127958D01*
X28779243Y-82127959D01*
X28753000Y-82147343D01*
X28677850Y-82202850D01*
X28672258Y-82210421D01*
X28602959Y-82304243D01*
X28602958Y-82304246D01*
X28597366Y-82311816D01*
X28552481Y-82439631D01*
X28549500Y-82471166D01*
X28549500Y-82785277D01*
X28529498Y-82853398D01*
X28475842Y-82899891D01*
X28405568Y-82909995D01*
X28365832Y-82895776D01*
X28365543Y-82896416D01*
X28211016Y-82826645D01*
X28044308Y-82795748D01*
X28036728Y-82796185D01*
X28036727Y-82796185D01*
X28005501Y-82797985D01*
X27875041Y-82805507D01*
X27712989Y-82855361D01*
X27567505Y-82942431D01*
X27562112Y-82947768D01*
X27562108Y-82947771D01*
X27534989Y-82974608D01*
X27446990Y-83061690D01*
X27358402Y-83206254D01*
X27306854Y-83367775D01*
X27295322Y-83536930D01*
X27324473Y-83703954D01*
X27392621Y-83859202D01*
X27472022Y-83962678D01*
X27474941Y-83965597D01*
X27474948Y-83965605D01*
X27545248Y-84035905D01*
X27579274Y-84098217D01*
X27574209Y-84169032D01*
X27545248Y-84214095D01*
X27474608Y-84284735D01*
X27396416Y-84384457D01*
X27326645Y-84538984D01*
X27295748Y-84705692D01*
X27305507Y-84874959D01*
X27355361Y-85037011D01*
X27442431Y-85182495D01*
X27447768Y-85187888D01*
X27447771Y-85187892D01*
X27503210Y-85243914D01*
X27561690Y-85303010D01*
X27706254Y-85391598D01*
X27784686Y-85416629D01*
X27860536Y-85440836D01*
X27860538Y-85440836D01*
X27867775Y-85443146D01*
X27875355Y-85443663D01*
X27875356Y-85443663D01*
X28029354Y-85454162D01*
X28029358Y-85454162D01*
X28036930Y-85454678D01*
X28044407Y-85453373D01*
X28044408Y-85453373D01*
X28196477Y-85426832D01*
X28203954Y-85425527D01*
X28210903Y-85422476D01*
X28210905Y-85422476D01*
X28252457Y-85404236D01*
X28359202Y-85357379D01*
X28361371Y-85355715D01*
X28428180Y-85338766D01*
X28495510Y-85361284D01*
X28539979Y-85416629D01*
X28549500Y-85464679D01*
X28549500Y-86078834D01*
X28552481Y-86110369D01*
X28555026Y-86117616D01*
X28577717Y-86182232D01*
X28581415Y-86253132D01*
X28546195Y-86314777D01*
X28483238Y-86347594D01*
X28458834Y-86349980D01*
X15002497Y-86349980D01*
X14934376Y-86329978D01*
X14913402Y-86313075D01*
X12559731Y-83959404D01*
X10036904Y-81436578D01*
X10002879Y-81374267D01*
X10000000Y-81347484D01*
X10000000Y-53154847D01*
X10020002Y-53086726D01*
X10073658Y-53040233D01*
X10143932Y-53030129D01*
X10208512Y-53059623D01*
G37*
G04 #@! TD.AperFunction*
G04 #@! TA.AperFunction,Conductor*
G36*
X100442121Y-80720502D02*
G01*
X100488614Y-80774158D01*
X100500000Y-80826500D01*
X100500000Y-111487484D01*
X100479998Y-111555605D01*
X100463095Y-111576579D01*
X89076579Y-122963095D01*
X89014267Y-122997121D01*
X88987484Y-123000000D01*
X80126000Y-123000000D01*
X80057879Y-122979998D01*
X80011386Y-122926342D01*
X80000000Y-122874000D01*
X80000000Y-108500000D01*
X78493528Y-107181837D01*
X78455434Y-107121926D01*
X78450500Y-107087012D01*
X78450500Y-105471166D01*
X78447519Y-105439631D01*
X78402634Y-105311816D01*
X78397042Y-105304246D01*
X78397041Y-105304243D01*
X78327742Y-105210421D01*
X78322150Y-105202850D01*
X78305206Y-105190335D01*
X78220757Y-105127959D01*
X78220754Y-105127958D01*
X78213184Y-105122366D01*
X78085369Y-105077481D01*
X78077723Y-105076758D01*
X78077722Y-105076758D01*
X78071752Y-105076194D01*
X78053834Y-105074500D01*
X76132486Y-105074500D01*
X76064365Y-105054498D01*
X76049513Y-105043324D01*
X76044176Y-105038654D01*
X76006082Y-104978742D01*
X76001174Y-104941311D01*
X76223520Y-93823981D01*
X76244880Y-93756273D01*
X76299455Y-93710863D01*
X76349495Y-93700500D01*
X84971359Y-93700500D01*
X84979929Y-93700792D01*
X85029354Y-93704162D01*
X85029358Y-93704162D01*
X85036930Y-93704678D01*
X85044406Y-93703373D01*
X85044409Y-93703373D01*
X85099132Y-93693822D01*
X85105658Y-93692859D01*
X85146096Y-93687965D01*
X85168320Y-93685276D01*
X85175427Y-93682591D01*
X85178720Y-93681782D01*
X85193191Y-93677823D01*
X85196467Y-93676834D01*
X85203954Y-93675527D01*
X85210914Y-93672472D01*
X85261760Y-93650153D01*
X85267866Y-93647661D01*
X85319818Y-93628030D01*
X85319820Y-93628029D01*
X85326923Y-93625345D01*
X85333178Y-93621046D01*
X85336203Y-93619465D01*
X85349299Y-93612175D01*
X85352243Y-93610434D01*
X85359202Y-93607379D01*
X85409273Y-93568958D01*
X85414609Y-93565081D01*
X85460386Y-93533619D01*
X85460392Y-93533614D01*
X85466651Y-93529312D01*
X85507609Y-93483342D01*
X85512589Y-93478067D01*
X98253251Y-80737405D01*
X98315563Y-80703379D01*
X98342346Y-80700500D01*
X100374000Y-80700500D01*
X100442121Y-80720502D01*
G37*
G04 #@! TD.AperFunction*
G04 #@! TA.AperFunction,Conductor*
G36*
X23442121Y37479998D02*
G01*
X23488614Y37426342D01*
X23500000Y37374000D01*
X23500000Y24000000D01*
X26463095Y21036905D01*
X26497121Y20974593D01*
X26500000Y20947810D01*
X26500000Y15626000D01*
X26479998Y15557879D01*
X26426342Y15511386D01*
X26374000Y15500000D01*
X21538149Y15500000D01*
X21468257Y15521162D01*
X18556108Y17462595D01*
X18510523Y17517024D01*
X18500000Y17567433D01*
X18500000Y37374000D01*
X18520002Y37442121D01*
X18573658Y37488614D01*
X18626000Y37500000D01*
X23374000Y37500000D01*
X23442121Y37479998D01*
G37*
G04 #@! TD.AperFunction*
G04 #@! TA.AperFunction,Conductor*
G36*
X100442121Y-12020002D02*
G01*
X100488614Y-12073658D01*
X100500000Y-12126000D01*
X100500000Y-44987483D01*
X100479998Y-45055604D01*
X100463095Y-45076578D01*
X98039674Y-47500000D01*
X80000000Y-47500000D01*
X80000000Y-29000000D01*
X76050400Y-26037800D01*
X76007905Y-25980926D01*
X76000000Y-25937000D01*
X76000000Y-25076500D01*
X76020002Y-25008379D01*
X76073658Y-24961886D01*
X76126000Y-24950500D01*
X77053834Y-24950500D01*
X77071752Y-24948806D01*
X77077722Y-24948242D01*
X77077723Y-24948242D01*
X77085369Y-24947519D01*
X77213184Y-24902634D01*
X77220754Y-24897042D01*
X77220757Y-24897041D01*
X77314579Y-24827742D01*
X77322150Y-24822150D01*
X77334665Y-24805206D01*
X77397041Y-24720757D01*
X77397042Y-24720754D01*
X77402634Y-24713184D01*
X77447519Y-24585369D01*
X77450500Y-24553834D01*
X77450500Y-20946166D01*
X77447519Y-20914631D01*
X77402634Y-20786816D01*
X77397042Y-20779246D01*
X77397041Y-20779243D01*
X77327742Y-20685421D01*
X77322150Y-20677850D01*
X77305206Y-20665335D01*
X77220757Y-20602959D01*
X77220754Y-20602958D01*
X77213184Y-20597366D01*
X77085369Y-20552481D01*
X77077723Y-20551758D01*
X77077722Y-20551758D01*
X77071752Y-20551194D01*
X77053834Y-20549500D01*
X76126000Y-20549500D01*
X76057879Y-20529498D01*
X76011386Y-20475842D01*
X76000000Y-20423500D01*
X76000000Y-12126000D01*
X76020002Y-12057879D01*
X76073658Y-12011386D01*
X76126000Y-12000000D01*
X100374000Y-12000000D01*
X100442121Y-12020002D01*
G37*
G04 #@! TD.AperFunction*
G04 #@! TA.AperFunction,Conductor*
G36*
X33942121Y-15020002D02*
G01*
X33988614Y-15073658D01*
X34000000Y-15126000D01*
X34000000Y-23947810D01*
X33979998Y-24015931D01*
X33963095Y-24036905D01*
X30500000Y-27500000D01*
X30500000Y-49874000D01*
X30479998Y-49942121D01*
X30426342Y-49988614D01*
X30374000Y-50000000D01*
X10126000Y-50000000D01*
X10057879Y-49979998D01*
X10011386Y-49926342D01*
X10000000Y-49874000D01*
X10000000Y-15126000D01*
X10020002Y-15057879D01*
X10073658Y-15011386D01*
X10126000Y-15000000D01*
X33874000Y-15000000D01*
X33942121Y-15020002D01*
G37*
G04 #@! TD.AperFunction*
G04 #@! TA.AperFunction,Conductor*
G36*
X30418032Y-115046460D02*
G01*
X30474868Y-115089007D01*
X30499679Y-115155527D01*
X30500000Y-115164516D01*
X30500000Y-122374000D01*
X30479998Y-122442121D01*
X30426342Y-122488614D01*
X30374000Y-122500000D01*
X29905621Y-122500000D01*
X29837500Y-122479998D01*
X29791007Y-122426342D01*
X29780903Y-122356068D01*
X29810397Y-122291488D01*
X29824629Y-122277479D01*
X29827687Y-122274913D01*
X29845681Y-122262314D01*
X29851928Y-122258707D01*
X29861477Y-122253194D01*
X29873201Y-122239222D01*
X29888730Y-122223693D01*
X29894258Y-122219055D01*
X29894261Y-122219051D01*
X29902705Y-122211966D01*
X29911825Y-122196170D01*
X29924424Y-122178177D01*
X29928175Y-122173707D01*
X29928175Y-122173706D01*
X29935262Y-122165261D01*
X29939033Y-122154900D01*
X29940818Y-122151809D01*
X29941764Y-122150324D01*
X29942744Y-122148223D01*
X29949065Y-122139195D01*
X29951919Y-122128546D01*
X29953390Y-122125390D01*
X29954585Y-122122106D01*
X29960099Y-122112556D01*
X29963498Y-122093279D01*
X29969183Y-122072064D01*
X29970751Y-122067757D01*
X29970752Y-122067752D01*
X29974522Y-122057394D01*
X29974522Y-122046368D01*
X29974691Y-122045409D01*
X29975793Y-122040439D01*
X29975922Y-122038965D01*
X29978775Y-122028318D01*
X29975490Y-121990768D01*
X29975011Y-121979787D01*
X29975011Y-115437505D01*
X29995013Y-115369384D01*
X30011916Y-115348410D01*
X30284905Y-115075421D01*
X30347217Y-115041395D01*
X30418032Y-115046460D01*
G37*
G04 #@! TD.AperFunction*
G04 #@! TA.AperFunction,Conductor*
G36*
X30843099Y-90020002D02*
G01*
X30864073Y-90036905D01*
X33963095Y-93135927D01*
X33997121Y-93198239D01*
X34000000Y-93225022D01*
X34000000Y-98947810D01*
X33979998Y-99015931D01*
X33963095Y-99036905D01*
X30500000Y-102500000D01*
X30500000Y-113887484D01*
X30479998Y-113955605D01*
X30463095Y-113976579D01*
X29433296Y-115006378D01*
X29425192Y-115013805D01*
X29396317Y-115038034D01*
X29390804Y-115047583D01*
X29377472Y-115070674D01*
X29371566Y-115079945D01*
X29349957Y-115110805D01*
X29347103Y-115121455D01*
X29345626Y-115124623D01*
X29344434Y-115127899D01*
X29338923Y-115137444D01*
X29335735Y-115155527D01*
X29332381Y-115174547D01*
X29330003Y-115185274D01*
X29320247Y-115221682D01*
X29321208Y-115232667D01*
X29321208Y-115232669D01*
X29323531Y-115259217D01*
X29324011Y-115270199D01*
X29324011Y-121548500D01*
X29304009Y-121616621D01*
X29250353Y-121663114D01*
X29198011Y-121674500D01*
X10827016Y-121674500D01*
X10758895Y-121654498D01*
X10737921Y-121637595D01*
X10036905Y-120936579D01*
X10002879Y-120874267D01*
X10000000Y-120847484D01*
X10000000Y-90126000D01*
X10020002Y-90057879D01*
X10073658Y-90011386D01*
X10126000Y-90000000D01*
X30774978Y-90000000D01*
X30843099Y-90020002D01*
G37*
G04 #@! TD.AperFunction*
G04 #@! TA.AperFunction,Conductor*
G36*
X29442121Y11979998D02*
G01*
X29488614Y11926342D01*
X29500000Y11874000D01*
X29500000Y2525156D01*
X29479998Y2457035D01*
X29426342Y2410542D01*
X29362147Y2399715D01*
X29356794Y2400221D01*
X29356777Y2400222D01*
X29353834Y2400500D01*
X28721166Y2400500D01*
X28703248Y2398806D01*
X28697278Y2398242D01*
X28697277Y2398242D01*
X28689631Y2397519D01*
X28561816Y2352634D01*
X28554246Y2347042D01*
X28554243Y2347041D01*
X28494273Y2302746D01*
X28452850Y2272150D01*
X28447258Y2264579D01*
X28437701Y2251640D01*
X28381140Y2208730D01*
X28336350Y2200500D01*
X27607115Y2200500D01*
X27538994Y2220502D01*
X27505764Y2251640D01*
X27477745Y2289575D01*
X27472150Y2297150D01*
X27464574Y2302746D01*
X27370757Y2372041D01*
X27370754Y2372042D01*
X27363184Y2377634D01*
X27235369Y2422519D01*
X27227723Y2423242D01*
X27227722Y2423242D01*
X27221752Y2423806D01*
X27203834Y2425500D01*
X26596166Y2425500D01*
X26578248Y2423806D01*
X26572278Y2423242D01*
X26572277Y2423242D01*
X26564631Y2422519D01*
X26436816Y2377634D01*
X26429246Y2372042D01*
X26429243Y2372041D01*
X26344794Y2309665D01*
X26327850Y2297150D01*
X26322258Y2289579D01*
X26252959Y2195757D01*
X26252958Y2195754D01*
X26247366Y2188184D01*
X26202481Y2060369D01*
X26199500Y2028834D01*
X26199500Y1508719D01*
X26199498Y1508059D01*
X26199393Y1488028D01*
X26179034Y1420013D01*
X26162490Y1399593D01*
X25915595Y1152698D01*
X25853283Y1118672D01*
X25782468Y1123737D01*
X25725632Y1166284D01*
X25700821Y1232804D01*
X25700500Y1241793D01*
X25700500Y3042516D01*
X25685276Y3168320D01*
X25625345Y3326923D01*
X25529312Y3466651D01*
X25517514Y3477163D01*
X25408392Y3574388D01*
X25408388Y3574390D01*
X25402721Y3579440D01*
X25252881Y3658776D01*
X25088441Y3700081D01*
X25080843Y3700121D01*
X25080841Y3700121D01*
X25003668Y3700525D01*
X24918895Y3700969D01*
X24911508Y3699195D01*
X24911504Y3699195D01*
X24768162Y3664780D01*
X24754032Y3661388D01*
X24747288Y3657907D01*
X24747285Y3657906D01*
X24742089Y3655224D01*
X24603369Y3583625D01*
X24475604Y3472169D01*
X24378113Y3333453D01*
X24316524Y3175487D01*
X24299500Y3046174D01*
X24299500Y971166D01*
X24302481Y939631D01*
X24305025Y932387D01*
X24305772Y928982D01*
X24300833Y858158D01*
X24258387Y801246D01*
X24191911Y776317D01*
X24182699Y775980D01*
X22351500Y775980D01*
X22283379Y795982D01*
X22236886Y849638D01*
X22225500Y901980D01*
X22225500Y969748D01*
X22213867Y1028231D01*
X22169552Y1094552D01*
X22103231Y1138867D01*
X22091062Y1141288D01*
X22091061Y1141288D01*
X22050816Y1149293D01*
X22044748Y1150500D01*
X17405252Y1150500D01*
X17399184Y1149293D01*
X17358939Y1141288D01*
X17358938Y1141288D01*
X17346769Y1138867D01*
X17280448Y1094552D01*
X17236133Y1028231D01*
X17224500Y969748D01*
X17224500Y-169748D01*
X17225707Y-175816D01*
X17231432Y-204595D01*
X17236133Y-228231D01*
X17280448Y-294552D01*
X17346769Y-338867D01*
X17346949Y-338903D01*
X17395639Y-378139D01*
X17418060Y-445502D01*
X17400502Y-514293D01*
X17351124Y-560267D01*
X17346769Y-561133D01*
X17280448Y-605448D01*
X17236133Y-671769D01*
X17233712Y-683938D01*
X17233712Y-683939D01*
X17230946Y-697846D01*
X17224500Y-730252D01*
X17224500Y-1869748D01*
X17236133Y-1928231D01*
X17280448Y-1994552D01*
X17346769Y-2038867D01*
X17358938Y-2041288D01*
X17358939Y-2041288D01*
X17399184Y-2049293D01*
X17405252Y-2050500D01*
X22044748Y-2050500D01*
X22050816Y-2049293D01*
X22091061Y-2041288D01*
X22091062Y-2041288D01*
X22103231Y-2038867D01*
X22169552Y-1994552D01*
X22213867Y-1928231D01*
X22225500Y-1869748D01*
X22225500Y-1676980D01*
X22245502Y-1608859D01*
X22299158Y-1562366D01*
X22351500Y-1550980D01*
X24063949Y-1550980D01*
X24132070Y-1570982D01*
X24178563Y-1624638D01*
X24188667Y-1694912D01*
X24187022Y-1703982D01*
X24186275Y-1707387D01*
X24183731Y-1714631D01*
X24180750Y-1746166D01*
X24180750Y-2753834D01*
X24183731Y-2785369D01*
X24186276Y-2792617D01*
X24187921Y-2800112D01*
X24187496Y-2800205D01*
X24193250Y-2833955D01*
X24193250Y-2865109D01*
X24192958Y-2873679D01*
X24190265Y-2913184D01*
X24189072Y-2930680D01*
X24190377Y-2938156D01*
X24190377Y-2938159D01*
X24199928Y-2992882D01*
X24200891Y-2999408D01*
X24208474Y-3062070D01*
X24211159Y-3069177D01*
X24211968Y-3072470D01*
X24215927Y-3086941D01*
X24216916Y-3090217D01*
X24218223Y-3097704D01*
X24221278Y-3104663D01*
X24221278Y-3104664D01*
X24243597Y-3155510D01*
X24246089Y-3161616D01*
X24268405Y-3220673D01*
X24272704Y-3226928D01*
X24274285Y-3229953D01*
X24281575Y-3243049D01*
X24283316Y-3245993D01*
X24286371Y-3252952D01*
X24290996Y-3258980D01*
X24290997Y-3258981D01*
X24324792Y-3303023D01*
X24328669Y-3308359D01*
X24360131Y-3354136D01*
X24360136Y-3354142D01*
X24364438Y-3360401D01*
X24370112Y-3365456D01*
X24410407Y-3401358D01*
X24415683Y-3406339D01*
X25284735Y-4275391D01*
X25384457Y-4353583D01*
X25391375Y-4356707D01*
X25391379Y-4356709D01*
X25475385Y-4394639D01*
X25538984Y-4423355D01*
X25546452Y-4424739D01*
X25546455Y-4424740D01*
X25640977Y-4442258D01*
X25705692Y-4454252D01*
X25713272Y-4453815D01*
X25713273Y-4453815D01*
X25748804Y-4451766D01*
X25874959Y-4444492D01*
X26037011Y-4394639D01*
X26182495Y-4307569D01*
X26187888Y-4302232D01*
X26187892Y-4302229D01*
X26272347Y-4218653D01*
X26303010Y-4188310D01*
X26356448Y-4101105D01*
X26387629Y-4050222D01*
X26387630Y-4050219D01*
X26391597Y-4043746D01*
X26443145Y-3882224D01*
X26454678Y-3713070D01*
X26425527Y-3546046D01*
X26357378Y-3390797D01*
X26328530Y-3353202D01*
X26302931Y-3286983D01*
X26317196Y-3217435D01*
X26366797Y-3166639D01*
X26428494Y-3150500D01*
X27035084Y-3150500D01*
X27053002Y-3148806D01*
X27058972Y-3148242D01*
X27058973Y-3148242D01*
X27066619Y-3147519D01*
X27194434Y-3102634D01*
X27202004Y-3097042D01*
X27202007Y-3097041D01*
X27295829Y-3027742D01*
X27303400Y-3022150D01*
X27318549Y-3001640D01*
X27375110Y-2958730D01*
X27419900Y-2950500D01*
X28192600Y-2950500D01*
X28260721Y-2970502D01*
X28293951Y-3001640D01*
X28309100Y-3022150D01*
X28316671Y-3027742D01*
X28410493Y-3097041D01*
X28410496Y-3097042D01*
X28418066Y-3102634D01*
X28545881Y-3147519D01*
X28553527Y-3148242D01*
X28553528Y-3148242D01*
X28559498Y-3148806D01*
X28577416Y-3150500D01*
X29210084Y-3150500D01*
X29228002Y-3148806D01*
X29233972Y-3148242D01*
X29233973Y-3148242D01*
X29241619Y-3147519D01*
X29332253Y-3115691D01*
X29403152Y-3111993D01*
X29464796Y-3147213D01*
X29497614Y-3210169D01*
X29500000Y-3234574D01*
X29500000Y-6773500D01*
X29479998Y-6841621D01*
X29426342Y-6888114D01*
X29374000Y-6899500D01*
X28680252Y-6899500D01*
X28674184Y-6900707D01*
X28633939Y-6908712D01*
X28633938Y-6908712D01*
X28621769Y-6911133D01*
X28555448Y-6955448D01*
X28511133Y-7021769D01*
X28508712Y-7033938D01*
X28508712Y-7033939D01*
X28505397Y-7050604D01*
X28499500Y-7080252D01*
X28499500Y-8057654D01*
X28479498Y-8125775D01*
X28462595Y-8146749D01*
X27446748Y-9162595D01*
X27384436Y-9196621D01*
X27357653Y-9199500D01*
X24826989Y-9199500D01*
X24758868Y-9179498D01*
X24712375Y-9125842D01*
X24700989Y-9073500D01*
X24700989Y-5704130D01*
X24701281Y-5695560D01*
X24704421Y-5649500D01*
X24705167Y-5638559D01*
X24702254Y-5621864D01*
X24694312Y-5576359D01*
X24693349Y-5569835D01*
X24686678Y-5514710D01*
X24686677Y-5514707D01*
X24685765Y-5507169D01*
X24683081Y-5500067D01*
X24682262Y-5496731D01*
X24678306Y-5482274D01*
X24677323Y-5479017D01*
X24676017Y-5471536D01*
X24661035Y-5437405D01*
X24650640Y-5413722D01*
X24648149Y-5407617D01*
X24628522Y-5355678D01*
X24628520Y-5355674D01*
X24625834Y-5348566D01*
X24621529Y-5342302D01*
X24619940Y-5339263D01*
X24612665Y-5326190D01*
X24610920Y-5323239D01*
X24607868Y-5316287D01*
X24569447Y-5266216D01*
X24565570Y-5260880D01*
X24534108Y-5215103D01*
X24534103Y-5215097D01*
X24529801Y-5208838D01*
X24483841Y-5167889D01*
X24478564Y-5162908D01*
X23540576Y-4224919D01*
X23534723Y-4218653D01*
X23502165Y-4181331D01*
X23497169Y-4175604D01*
X23445527Y-4139310D01*
X23440242Y-4135384D01*
X23396524Y-4101105D01*
X23396520Y-4101103D01*
X23390543Y-4096416D01*
X23383620Y-4093290D01*
X23380672Y-4091505D01*
X23367712Y-4084113D01*
X23364666Y-4082480D01*
X23358453Y-4078113D01*
X23299633Y-4055180D01*
X23293554Y-4052624D01*
X23273891Y-4043746D01*
X23236016Y-4026645D01*
X23228545Y-4025260D01*
X23225277Y-4024236D01*
X23210836Y-4020123D01*
X23207563Y-4019283D01*
X23200487Y-4016524D01*
X23155817Y-4010644D01*
X23137894Y-4008284D01*
X23131377Y-4007252D01*
X23076775Y-3997132D01*
X23069308Y-3995748D01*
X23061728Y-3996185D01*
X23061727Y-3996185D01*
X23007856Y-3999291D01*
X23000604Y-3999500D01*
X22198872Y-3999500D01*
X22128871Y-3978266D01*
X22103231Y-3961133D01*
X22044748Y-3949500D01*
X17405252Y-3949500D01*
X17399184Y-3950707D01*
X17358939Y-3958712D01*
X17358938Y-3958712D01*
X17346769Y-3961133D01*
X17280448Y-4005448D01*
X17236133Y-4071769D01*
X17233712Y-4083938D01*
X17233712Y-4083939D01*
X17232749Y-4088780D01*
X17224500Y-4130252D01*
X17224500Y-5269748D01*
X17236133Y-5328231D01*
X17280448Y-5394552D01*
X17346769Y-5438867D01*
X17346949Y-5438903D01*
X17395639Y-5478139D01*
X17418060Y-5545502D01*
X17400502Y-5614293D01*
X17351124Y-5660267D01*
X17346769Y-5661133D01*
X17280448Y-5705448D01*
X17236133Y-5771769D01*
X17224500Y-5830252D01*
X17224500Y-6969748D01*
X17225707Y-6975816D01*
X17232796Y-7011453D01*
X17236133Y-7028231D01*
X17280448Y-7094552D01*
X17346769Y-7138867D01*
X17358938Y-7141288D01*
X17358939Y-7141288D01*
X17399184Y-7149293D01*
X17405252Y-7150500D01*
X18673500Y-7150500D01*
X18741621Y-7170502D01*
X18788114Y-7224158D01*
X18799500Y-7276500D01*
X18799500Y-7792516D01*
X18814724Y-7918320D01*
X18874655Y-8076923D01*
X18970688Y-8216651D01*
X18976358Y-8221703D01*
X18976359Y-8221704D01*
X19091608Y-8324388D01*
X19091612Y-8324390D01*
X19097279Y-8329440D01*
X19247119Y-8408776D01*
X19411559Y-8450081D01*
X19419157Y-8450121D01*
X19419159Y-8450121D01*
X19496332Y-8450525D01*
X19581105Y-8450969D01*
X19588492Y-8449195D01*
X19588496Y-8449195D01*
X19738583Y-8413161D01*
X19745968Y-8411388D01*
X19752712Y-8407907D01*
X19752715Y-8407906D01*
X19889883Y-8337108D01*
X19889884Y-8337108D01*
X19896631Y-8333625D01*
X19916680Y-8316136D01*
X19981161Y-8286428D01*
X20051468Y-8296298D01*
X20083324Y-8317006D01*
X20097279Y-8329440D01*
X20247119Y-8408776D01*
X20411559Y-8450081D01*
X20419157Y-8450121D01*
X20419159Y-8450121D01*
X20496332Y-8450525D01*
X20581105Y-8450969D01*
X20588492Y-8449195D01*
X20588496Y-8449195D01*
X20738583Y-8413161D01*
X20745968Y-8411388D01*
X20752712Y-8407907D01*
X20752715Y-8407906D01*
X20889883Y-8337108D01*
X20889884Y-8337108D01*
X20896631Y-8333625D01*
X20907217Y-8324391D01*
X21018671Y-8227163D01*
X21024396Y-8222169D01*
X21121887Y-8083453D01*
X21183476Y-7925487D01*
X21200500Y-7796174D01*
X21200500Y-7276500D01*
X21220502Y-7208379D01*
X21274158Y-7161886D01*
X21326500Y-7150500D01*
X22044748Y-7150500D01*
X22050816Y-7149293D01*
X22091061Y-7141288D01*
X22091062Y-7141288D01*
X22103231Y-7138867D01*
X22169552Y-7094552D01*
X22213867Y-7028231D01*
X22217205Y-7011453D01*
X22224293Y-6975816D01*
X22225500Y-6969748D01*
X22225500Y-5830252D01*
X22213867Y-5771769D01*
X22169552Y-5705448D01*
X22154754Y-5695560D01*
X22113549Y-5668027D01*
X22113548Y-5668026D01*
X22103231Y-5661133D01*
X22103051Y-5661097D01*
X22054362Y-5621864D01*
X22031939Y-5554501D01*
X22049495Y-5485709D01*
X22098873Y-5439734D01*
X22103231Y-5438867D01*
X22128871Y-5421734D01*
X22198872Y-5400500D01*
X22682653Y-5400500D01*
X22750774Y-5420502D01*
X22771749Y-5437405D01*
X23263085Y-5928742D01*
X23297110Y-5991054D01*
X23299989Y-6017837D01*
X23299989Y-9570870D01*
X23299697Y-9579440D01*
X23295811Y-9636441D01*
X23297116Y-9643917D01*
X23297116Y-9643920D01*
X23306667Y-9698643D01*
X23307630Y-9705169D01*
X23315213Y-9767831D01*
X23317898Y-9774938D01*
X23318707Y-9778231D01*
X23322666Y-9792702D01*
X23323655Y-9795978D01*
X23324962Y-9803465D01*
X23328017Y-9810424D01*
X23328017Y-9810425D01*
X23350336Y-9861271D01*
X23352828Y-9867377D01*
X23375144Y-9926434D01*
X23379443Y-9932689D01*
X23381024Y-9935714D01*
X23388314Y-9948810D01*
X23390055Y-9951754D01*
X23393110Y-9958713D01*
X23397735Y-9964741D01*
X23397736Y-9964742D01*
X23431531Y-10008784D01*
X23435408Y-10014120D01*
X23466870Y-10059897D01*
X23466875Y-10059903D01*
X23471177Y-10066162D01*
X23476851Y-10071217D01*
X23517136Y-10107110D01*
X23522413Y-10112091D01*
X23785402Y-10375081D01*
X23791255Y-10381347D01*
X23828809Y-10424396D01*
X23880451Y-10460690D01*
X23885736Y-10464616D01*
X23929454Y-10498895D01*
X23929458Y-10498897D01*
X23935435Y-10503584D01*
X23942358Y-10506710D01*
X23945306Y-10508495D01*
X23958266Y-10515887D01*
X23961312Y-10517520D01*
X23967525Y-10521887D01*
X23983281Y-10528030D01*
X24026344Y-10544820D01*
X24032423Y-10547375D01*
X24089962Y-10573355D01*
X24097433Y-10574740D01*
X24100701Y-10575764D01*
X24115142Y-10579877D01*
X24118415Y-10580717D01*
X24125491Y-10583476D01*
X24170161Y-10589356D01*
X24188084Y-10591716D01*
X24194601Y-10592748D01*
X24200396Y-10593822D01*
X24256670Y-10604252D01*
X24264250Y-10603815D01*
X24264251Y-10603815D01*
X24318122Y-10600709D01*
X24325374Y-10600500D01*
X27671359Y-10600500D01*
X27679929Y-10600792D01*
X27729354Y-10604162D01*
X27729358Y-10604162D01*
X27736930Y-10604678D01*
X27744406Y-10603373D01*
X27744409Y-10603373D01*
X27799132Y-10593822D01*
X27805658Y-10592859D01*
X27846096Y-10587965D01*
X27868320Y-10585276D01*
X27875427Y-10582591D01*
X27878720Y-10581782D01*
X27893191Y-10577823D01*
X27896467Y-10576834D01*
X27903954Y-10575527D01*
X27916026Y-10570228D01*
X27961760Y-10550153D01*
X27967866Y-10547661D01*
X28019818Y-10528030D01*
X28019820Y-10528029D01*
X28026923Y-10525345D01*
X28033178Y-10521046D01*
X28036203Y-10519465D01*
X28049299Y-10512175D01*
X28052243Y-10510434D01*
X28059202Y-10507379D01*
X28070259Y-10498895D01*
X28109273Y-10468958D01*
X28114609Y-10465081D01*
X28160386Y-10433619D01*
X28160392Y-10433614D01*
X28166651Y-10429312D01*
X28207609Y-10383342D01*
X28212589Y-10378067D01*
X29284905Y-9305752D01*
X29347217Y-9271726D01*
X29418033Y-9276791D01*
X29474868Y-9319338D01*
X29499679Y-9385858D01*
X29500000Y-9394847D01*
X29500000Y-11374000D01*
X29479998Y-11442121D01*
X29426342Y-11488614D01*
X29374000Y-11500000D01*
X6964826Y-11500000D01*
X6961422Y-11499833D01*
X6959748Y-11499500D01*
X5182346Y-11499500D01*
X5114225Y-11479498D01*
X5093251Y-11462595D01*
X5036905Y-11406249D01*
X5002879Y-11343937D01*
X5000000Y-11317154D01*
X5000000Y7946166D01*
X18549500Y7946166D01*
X18552481Y7914631D01*
X18597366Y7786816D01*
X18602958Y7779246D01*
X18602959Y7779243D01*
X18665335Y7694794D01*
X18677850Y7677850D01*
X18685421Y7672258D01*
X18779243Y7602959D01*
X18779246Y7602958D01*
X18786816Y7597366D01*
X18914631Y7552481D01*
X18922277Y7551758D01*
X18922278Y7551758D01*
X18928248Y7551194D01*
X18946166Y7549500D01*
X22553834Y7549500D01*
X22571752Y7551194D01*
X22577722Y7551758D01*
X22577723Y7551758D01*
X22585369Y7552481D01*
X22713184Y7597366D01*
X22720754Y7602958D01*
X22720757Y7602959D01*
X22814579Y7672258D01*
X22822150Y7677850D01*
X22834665Y7694794D01*
X22897041Y7779243D01*
X22897042Y7779246D01*
X22902634Y7786816D01*
X22924605Y7849380D01*
X22966047Y7907024D01*
X23032076Y7933113D01*
X23101728Y7919363D01*
X23121228Y7906789D01*
X23134457Y7896416D01*
X23288984Y7826645D01*
X23455692Y7795748D01*
X23463272Y7796185D01*
X23463273Y7796185D01*
X23494499Y7797985D01*
X23624959Y7805507D01*
X23787011Y7855361D01*
X23932495Y7942431D01*
X23937888Y7947768D01*
X23937892Y7947771D01*
X23993914Y8003210D01*
X24053010Y8061690D01*
X24141598Y8206254D01*
X24193146Y8367775D01*
X24204678Y8536930D01*
X24175528Y8703953D01*
X24107379Y8859202D01*
X24027978Y8962678D01*
X24025059Y8965597D01*
X24025052Y8965605D01*
X23954752Y9035905D01*
X23920726Y9098217D01*
X23925791Y9169032D01*
X23954752Y9214095D01*
X24025392Y9284735D01*
X24103583Y9384457D01*
X24106707Y9391375D01*
X24106709Y9391379D01*
X24170229Y9532061D01*
X24173355Y9538984D01*
X24204252Y9705692D01*
X24194493Y9874959D01*
X24144639Y10037011D01*
X24057569Y10182495D01*
X24052232Y10187888D01*
X24052229Y10187892D01*
X23960596Y10280489D01*
X23938310Y10303010D01*
X23849588Y10357378D01*
X23800227Y10387626D01*
X23800224Y10387627D01*
X23793746Y10391597D01*
X23776688Y10397041D01*
X23639461Y10440837D01*
X23639458Y10440838D01*
X23632225Y10443146D01*
X23624649Y10443663D01*
X23624646Y10443663D01*
X23470646Y10454162D01*
X23470642Y10454162D01*
X23463070Y10454678D01*
X23455593Y10453373D01*
X23455592Y10453373D01*
X23399958Y10443663D01*
X23296046Y10425527D01*
X23289097Y10422477D01*
X23289095Y10422476D01*
X23250999Y10405753D01*
X23140797Y10357378D01*
X23037322Y10277978D01*
X23034402Y10275058D01*
X23031306Y10272343D01*
X23030317Y10273470D01*
X22973506Y10242448D01*
X22902691Y10247513D01*
X22845371Y10290711D01*
X22840276Y10297610D01*
X22822150Y10322150D01*
X22805206Y10334665D01*
X22720757Y10397041D01*
X22720754Y10397042D01*
X22713184Y10402634D01*
X22585369Y10447519D01*
X22577723Y10448242D01*
X22577722Y10448242D01*
X22571752Y10448806D01*
X22553834Y10450500D01*
X18946166Y10450500D01*
X18928248Y10448806D01*
X18922278Y10448242D01*
X18922277Y10448242D01*
X18914631Y10447519D01*
X18786816Y10402634D01*
X18779246Y10397042D01*
X18779243Y10397041D01*
X18694794Y10334665D01*
X18677850Y10322150D01*
X18672258Y10314579D01*
X18602959Y10220757D01*
X18602958Y10220754D01*
X18597366Y10213184D01*
X18552481Y10085369D01*
X18549500Y10053834D01*
X18549500Y7946166D01*
X5000000Y7946166D01*
X5000000Y11874000D01*
X5020002Y11942121D01*
X5073658Y11988614D01*
X5126000Y12000000D01*
X29374000Y12000000D01*
X29442121Y11979998D01*
G37*
G04 #@! TD.AperFunction*
M02*
