%FSLAX45Y45*%
G04 Gerber Fmt 4.5, Leading zero omitted, Abs format (unit mm)*
G04 Created by KiCad (PCBNEW (6.0.5-0)) date 2023-01-20 14:12:16*
%MOMM*%
%LPD*%
G01*
G04 APERTURE LIST*
%TA.AperFunction,Profile*%
%ADD10C,0.050000*%
%TD*%
%TA.AperFunction,Profile*%
%ADD11C,0.200000*%
%TD*%
%ADD12C,0.200000*%
%ADD13C,0.030000*%
%ADD14C,0.040000*%
%ADD15C,0.080000*%
%ADD16C,0.100000*%
%ADD17C,0.130000*%
G04 APERTURE END LIST*
D10*
X10400000Y-17000000D02*
X600000Y-17000000D01*
X0Y-1000000D02*
X0Y-12000000D01*
D11*
X11250000Y0D02*
G75*
G03*
X11250000Y0I-250000J0D01*
G01*
X11250000Y-13000000D02*
G75*
G03*
X11250000Y-13000000I-250000J0D01*
G01*
D10*
X0Y3400000D02*
X0Y1000000D01*
X0Y1000000D02*
G75*
G03*
X0Y-1000000I0J-1000000D01*
G01*
X600000Y4000000D02*
G75*
G03*
X0Y3400000I0J-600000D01*
G01*
X10400000Y-17000000D02*
G75*
G03*
X11000000Y-16400000I0J600000D01*
G01*
X0Y-16400000D02*
G75*
G03*
X600000Y-17000000I600000J0D01*
G01*
X0Y-14000000D02*
X0Y-16400000D01*
X11000000Y3400000D02*
G75*
G03*
X10400000Y4000000I-600000J0D01*
G01*
D11*
X250000Y-13000000D02*
G75*
G03*
X250000Y-13000000I-250000J0D01*
G01*
D10*
X10400000Y4000000D02*
X600000Y4000000D01*
X11000000Y-14000000D02*
G75*
G03*
X11000000Y-12000000I0J1000000D01*
G01*
D11*
X250000Y0D02*
G75*
G03*
X250000Y0I-250000J0D01*
G01*
D10*
X11000000Y-1000000D02*
X11000000Y-12000000D01*
X11000000Y3400000D02*
X11000000Y1000000D01*
X0Y-12000000D02*
G75*
G03*
X0Y-14000000I0J-1000000D01*
G01*
X11000000Y-1000000D02*
G75*
G03*
X11000000Y1000000I0J1000000D01*
G01*
X11000000Y-14000000D02*
X11000000Y-16400000D01*
D12*
D13*
X2893750Y-14375000D02*
X2923750Y-14405000D01*
X2923750Y-14375000D02*
X2893750Y-14405000D01*
X2893750Y-14505000D02*
X2923750Y-14535000D01*
X2923750Y-14505000D02*
X2893750Y-14535000D01*
X2893750Y-14635000D02*
X2923750Y-14665000D01*
X2923750Y-14635000D02*
X2893750Y-14665000D01*
X2893750Y-14765000D02*
X2923750Y-14795000D01*
X2923750Y-14765000D02*
X2893750Y-14795000D01*
X2893750Y-14895000D02*
X2923750Y-14925000D01*
X2923750Y-14895000D02*
X2893750Y-14925000D01*
X3023750Y-14375000D02*
X3053750Y-14405000D01*
X3053750Y-14375000D02*
X3023750Y-14405000D01*
X3023750Y-14505000D02*
X3053750Y-14535000D01*
X3053750Y-14505000D02*
X3023750Y-14535000D01*
X3023750Y-14635000D02*
X3053750Y-14665000D01*
X3053750Y-14635000D02*
X3023750Y-14665000D01*
X3023750Y-14765000D02*
X3053750Y-14795000D01*
X3053750Y-14765000D02*
X3023750Y-14795000D01*
X3023750Y-14895000D02*
X3053750Y-14925000D01*
X3053750Y-14895000D02*
X3023750Y-14925000D01*
X3153750Y-14375000D02*
X3183750Y-14405000D01*
X3183750Y-14375000D02*
X3153750Y-14405000D01*
X3153750Y-14505000D02*
X3183750Y-14535000D01*
X3183750Y-14505000D02*
X3153750Y-14535000D01*
X3153750Y-14635000D02*
X3183750Y-14665000D01*
X3183750Y-14635000D02*
X3153750Y-14665000D01*
X3153750Y-14765000D02*
X3183750Y-14795000D01*
X3183750Y-14765000D02*
X3153750Y-14795000D01*
X3153750Y-14895000D02*
X3183750Y-14925000D01*
X3183750Y-14895000D02*
X3153750Y-14925000D01*
X4793750Y-14375000D02*
X4823750Y-14405000D01*
X4823750Y-14375000D02*
X4793750Y-14405000D01*
X4793750Y-14505000D02*
X4823750Y-14535000D01*
X4823750Y-14505000D02*
X4793750Y-14535000D01*
X4793750Y-14635000D02*
X4823750Y-14665000D01*
X4823750Y-14635000D02*
X4793750Y-14665000D01*
X4793750Y-14765000D02*
X4823750Y-14795000D01*
X4823750Y-14765000D02*
X4793750Y-14795000D01*
X4793750Y-14895000D02*
X4823750Y-14925000D01*
X4823750Y-14895000D02*
X4793750Y-14925000D01*
X4923750Y-14375000D02*
X4953750Y-14405000D01*
X4953750Y-14375000D02*
X4923750Y-14405000D01*
X4923750Y-14505000D02*
X4953750Y-14535000D01*
X4953750Y-14505000D02*
X4923750Y-14535000D01*
X4923750Y-14635000D02*
X4953750Y-14665000D01*
X4953750Y-14635000D02*
X4923750Y-14665000D01*
X4923750Y-14765000D02*
X4953750Y-14795000D01*
X4953750Y-14765000D02*
X4923750Y-14795000D01*
X4923750Y-14895000D02*
X4953750Y-14925000D01*
X4953750Y-14895000D02*
X4923750Y-14925000D01*
X5053750Y-14375000D02*
X5083750Y-14405000D01*
X5083750Y-14375000D02*
X5053750Y-14405000D01*
X5053750Y-14505000D02*
X5083750Y-14535000D01*
X5083750Y-14505000D02*
X5053750Y-14535000D01*
X5053750Y-14635000D02*
X5083750Y-14665000D01*
X5083750Y-14635000D02*
X5053750Y-14665000D01*
X5053750Y-14765000D02*
X5083750Y-14795000D01*
X5083750Y-14765000D02*
X5053750Y-14795000D01*
X5053750Y-14895000D02*
X5083750Y-14925000D01*
X5083750Y-14895000D02*
X5053750Y-14925000D01*
X6693750Y-14375000D02*
X6723750Y-14405000D01*
X6723750Y-14375000D02*
X6693750Y-14405000D01*
X6693750Y-14505000D02*
X6723750Y-14535000D01*
X6723750Y-14505000D02*
X6693750Y-14535000D01*
X6693750Y-14635000D02*
X6723750Y-14665000D01*
X6723750Y-14635000D02*
X6693750Y-14665000D01*
X6693750Y-14765000D02*
X6723750Y-14795000D01*
X6723750Y-14765000D02*
X6693750Y-14795000D01*
X6693750Y-14895000D02*
X6723750Y-14925000D01*
X6723750Y-14895000D02*
X6693750Y-14925000D01*
X6823750Y-14375000D02*
X6853750Y-14405000D01*
X6853750Y-14375000D02*
X6823750Y-14405000D01*
X6823750Y-14505000D02*
X6853750Y-14535000D01*
X6853750Y-14505000D02*
X6823750Y-14535000D01*
X6823750Y-14635000D02*
X6853750Y-14665000D01*
X6853750Y-14635000D02*
X6823750Y-14665000D01*
X6823750Y-14765000D02*
X6853750Y-14795000D01*
X6853750Y-14765000D02*
X6823750Y-14795000D01*
X6823750Y-14895000D02*
X6853750Y-14925000D01*
X6853750Y-14895000D02*
X6823750Y-14925000D01*
X6953750Y-14375000D02*
X6983750Y-14405000D01*
X6983750Y-14375000D02*
X6953750Y-14405000D01*
X6953750Y-14505000D02*
X6983750Y-14535000D01*
X6983750Y-14505000D02*
X6953750Y-14535000D01*
X6953750Y-14635000D02*
X6983750Y-14665000D01*
X6983750Y-14635000D02*
X6953750Y-14665000D01*
X6953750Y-14765000D02*
X6983750Y-14795000D01*
X6983750Y-14765000D02*
X6953750Y-14795000D01*
X6953750Y-14895000D02*
X6983750Y-14925000D01*
X6983750Y-14895000D02*
X6953750Y-14925000D01*
D14*
X720000Y150000D02*
G75*
G03*
X720000Y150000I-20000J0D01*
G01*
X720000Y0D02*
G75*
G03*
X720000Y0I-20000J0D01*
G01*
X720000Y-150000D02*
G75*
G03*
X720000Y-150000I-20000J0D01*
G01*
X720000Y-300000D02*
G75*
G03*
X720000Y-300000I-20000J0D01*
G01*
X720000Y-450000D02*
G75*
G03*
X720000Y-450000I-20000J0D01*
G01*
X720000Y-600000D02*
G75*
G03*
X720000Y-600000I-20000J0D01*
G01*
X720000Y-750000D02*
G75*
G03*
X720000Y-750000I-20000J0D01*
G01*
X870000Y-13300000D02*
G75*
G03*
X870000Y-13300000I-20000J0D01*
G01*
X895000Y150000D02*
G75*
G03*
X895000Y150000I-20000J0D01*
G01*
X895000Y0D02*
G75*
G03*
X895000Y0I-20000J0D01*
G01*
X895000Y-150000D02*
G75*
G03*
X895000Y-150000I-20000J0D01*
G01*
X895000Y-300000D02*
G75*
G03*
X895000Y-300000I-20000J0D01*
G01*
X895000Y-450000D02*
G75*
G03*
X895000Y-450000I-20000J0D01*
G01*
X895000Y-600000D02*
G75*
G03*
X895000Y-600000I-20000J0D01*
G01*
X895000Y-750000D02*
G75*
G03*
X895000Y-750000I-20000J0D01*
G01*
X1070000Y150000D02*
G75*
G03*
X1070000Y150000I-20000J0D01*
G01*
X1070000Y0D02*
G75*
G03*
X1070000Y0I-20000J0D01*
G01*
X1070000Y-150000D02*
G75*
G03*
X1070000Y-150000I-20000J0D01*
G01*
X1070000Y-300000D02*
G75*
G03*
X1070000Y-300000I-20000J0D01*
G01*
X1070000Y-450000D02*
G75*
G03*
X1070000Y-450000I-20000J0D01*
G01*
X1070000Y-600000D02*
G75*
G03*
X1070000Y-600000I-20000J0D01*
G01*
X1070000Y-750000D02*
G75*
G03*
X1070000Y-750000I-20000J0D01*
G01*
X1245000Y150000D02*
G75*
G03*
X1245000Y150000I-20000J0D01*
G01*
X1245000Y0D02*
G75*
G03*
X1245000Y0I-20000J0D01*
G01*
X1245000Y-150000D02*
G75*
G03*
X1245000Y-150000I-20000J0D01*
G01*
X1245000Y-300000D02*
G75*
G03*
X1245000Y-300000I-20000J0D01*
G01*
X1245000Y-450000D02*
G75*
G03*
X1245000Y-450000I-20000J0D01*
G01*
X1245000Y-600000D02*
G75*
G03*
X1245000Y-600000I-20000J0D01*
G01*
X1245000Y-750000D02*
G75*
G03*
X1245000Y-750000I-20000J0D01*
G01*
X1420000Y150000D02*
G75*
G03*
X1420000Y150000I-20000J0D01*
G01*
X1420000Y0D02*
G75*
G03*
X1420000Y0I-20000J0D01*
G01*
X1420000Y-150000D02*
G75*
G03*
X1420000Y-150000I-20000J0D01*
G01*
X1420000Y-300000D02*
G75*
G03*
X1420000Y-300000I-20000J0D01*
G01*
X1420000Y-450000D02*
G75*
G03*
X1420000Y-450000I-20000J0D01*
G01*
X1420000Y-600000D02*
G75*
G03*
X1420000Y-600000I-20000J0D01*
G01*
X1420000Y-750000D02*
G75*
G03*
X1420000Y-750000I-20000J0D01*
G01*
X1570000Y-12425000D02*
G75*
G03*
X1570000Y-12425000I-20000J0D01*
G01*
X1970000Y-775000D02*
G75*
G03*
X1970000Y-775000I-20000J0D01*
G01*
X2070000Y-775000D02*
G75*
G03*
X2070000Y-775000I-20000J0D01*
G01*
X2120000Y-2825000D02*
G75*
G03*
X2120000Y-2825000I-20000J0D01*
G01*
X2120000Y-2975000D02*
G75*
G03*
X2120000Y-2975000I-20000J0D01*
G01*
X2120000Y-3125000D02*
G75*
G03*
X2120000Y-3125000I-20000J0D01*
G01*
X2120000Y-3275000D02*
G75*
G03*
X2120000Y-3275000I-20000J0D01*
G01*
X2120000Y-3425000D02*
G75*
G03*
X2120000Y-3425000I-20000J0D01*
G01*
X2120000Y-3575000D02*
G75*
G03*
X2120000Y-3575000I-20000J0D01*
G01*
X2120000Y-3725000D02*
G75*
G03*
X2120000Y-3725000I-20000J0D01*
G01*
X2120000Y-6875000D02*
G75*
G03*
X2120000Y-6875000I-20000J0D01*
G01*
X2120000Y-7025000D02*
G75*
G03*
X2120000Y-7025000I-20000J0D01*
G01*
X2120000Y-7175000D02*
G75*
G03*
X2120000Y-7175000I-20000J0D01*
G01*
X2120000Y-7325000D02*
G75*
G03*
X2120000Y-7325000I-20000J0D01*
G01*
X2120000Y-7475000D02*
G75*
G03*
X2120000Y-7475000I-20000J0D01*
G01*
X2120000Y-7625000D02*
G75*
G03*
X2120000Y-7625000I-20000J0D01*
G01*
X2120000Y-7775000D02*
G75*
G03*
X2120000Y-7775000I-20000J0D01*
G01*
X2145000Y-11175000D02*
G75*
G03*
X2145000Y-11175000I-20000J0D01*
G01*
X2145000Y-11325000D02*
G75*
G03*
X2145000Y-11325000I-20000J0D01*
G01*
X2145000Y-11475000D02*
G75*
G03*
X2145000Y-11475000I-20000J0D01*
G01*
X2145000Y-11625000D02*
G75*
G03*
X2145000Y-11625000I-20000J0D01*
G01*
X2145000Y-11775000D02*
G75*
G03*
X2145000Y-11775000I-20000J0D01*
G01*
X2145000Y-11925000D02*
G75*
G03*
X2145000Y-11925000I-20000J0D01*
G01*
X2145000Y-12075000D02*
G75*
G03*
X2145000Y-12075000I-20000J0D01*
G01*
X2295000Y-2825000D02*
G75*
G03*
X2295000Y-2825000I-20000J0D01*
G01*
X2295000Y-2975000D02*
G75*
G03*
X2295000Y-2975000I-20000J0D01*
G01*
X2295000Y-3125000D02*
G75*
G03*
X2295000Y-3125000I-20000J0D01*
G01*
X2295000Y-3275000D02*
G75*
G03*
X2295000Y-3275000I-20000J0D01*
G01*
X2295000Y-3425000D02*
G75*
G03*
X2295000Y-3425000I-20000J0D01*
G01*
X2295000Y-3575000D02*
G75*
G03*
X2295000Y-3575000I-20000J0D01*
G01*
X2295000Y-3725000D02*
G75*
G03*
X2295000Y-3725000I-20000J0D01*
G01*
X2295000Y-6875000D02*
G75*
G03*
X2295000Y-6875000I-20000J0D01*
G01*
X2295000Y-7025000D02*
G75*
G03*
X2295000Y-7025000I-20000J0D01*
G01*
X2295000Y-7175000D02*
G75*
G03*
X2295000Y-7175000I-20000J0D01*
G01*
X2295000Y-7325000D02*
G75*
G03*
X2295000Y-7325000I-20000J0D01*
G01*
X2295000Y-7475000D02*
G75*
G03*
X2295000Y-7475000I-20000J0D01*
G01*
X2295000Y-7625000D02*
G75*
G03*
X2295000Y-7625000I-20000J0D01*
G01*
X2295000Y-7775000D02*
G75*
G03*
X2295000Y-7775000I-20000J0D01*
G01*
X2320000Y-11175000D02*
G75*
G03*
X2320000Y-11175000I-20000J0D01*
G01*
X2320000Y-11325000D02*
G75*
G03*
X2320000Y-11325000I-20000J0D01*
G01*
X2320000Y-11475000D02*
G75*
G03*
X2320000Y-11475000I-20000J0D01*
G01*
X2320000Y-11625000D02*
G75*
G03*
X2320000Y-11625000I-20000J0D01*
G01*
X2320000Y-11775000D02*
G75*
G03*
X2320000Y-11775000I-20000J0D01*
G01*
X2320000Y-11925000D02*
G75*
G03*
X2320000Y-11925000I-20000J0D01*
G01*
X2320000Y-12075000D02*
G75*
G03*
X2320000Y-12075000I-20000J0D01*
G01*
X2370000Y975000D02*
G75*
G03*
X2370000Y975000I-20000J0D01*
G01*
X2370000Y850000D02*
G75*
G03*
X2370000Y850000I-20000J0D01*
G01*
X2470000Y-2825000D02*
G75*
G03*
X2470000Y-2825000I-20000J0D01*
G01*
X2470000Y-2975000D02*
G75*
G03*
X2470000Y-2975000I-20000J0D01*
G01*
X2470000Y-3125000D02*
G75*
G03*
X2470000Y-3125000I-20000J0D01*
G01*
X2470000Y-3275000D02*
G75*
G03*
X2470000Y-3275000I-20000J0D01*
G01*
X2470000Y-3425000D02*
G75*
G03*
X2470000Y-3425000I-20000J0D01*
G01*
X2470000Y-3575000D02*
G75*
G03*
X2470000Y-3575000I-20000J0D01*
G01*
X2470000Y-3725000D02*
G75*
G03*
X2470000Y-3725000I-20000J0D01*
G01*
X2470000Y-6875000D02*
G75*
G03*
X2470000Y-6875000I-20000J0D01*
G01*
X2470000Y-7025000D02*
G75*
G03*
X2470000Y-7025000I-20000J0D01*
G01*
X2470000Y-7175000D02*
G75*
G03*
X2470000Y-7175000I-20000J0D01*
G01*
X2470000Y-7325000D02*
G75*
G03*
X2470000Y-7325000I-20000J0D01*
G01*
X2470000Y-7475000D02*
G75*
G03*
X2470000Y-7475000I-20000J0D01*
G01*
X2470000Y-7625000D02*
G75*
G03*
X2470000Y-7625000I-20000J0D01*
G01*
X2470000Y-7775000D02*
G75*
G03*
X2470000Y-7775000I-20000J0D01*
G01*
X2495000Y-11175000D02*
G75*
G03*
X2495000Y-11175000I-20000J0D01*
G01*
X2495000Y-11325000D02*
G75*
G03*
X2495000Y-11325000I-20000J0D01*
G01*
X2495000Y-11475000D02*
G75*
G03*
X2495000Y-11475000I-20000J0D01*
G01*
X2495000Y-11625000D02*
G75*
G03*
X2495000Y-11625000I-20000J0D01*
G01*
X2495000Y-11775000D02*
G75*
G03*
X2495000Y-11775000I-20000J0D01*
G01*
X2495000Y-11925000D02*
G75*
G03*
X2495000Y-11925000I-20000J0D01*
G01*
X2495000Y-12075000D02*
G75*
G03*
X2495000Y-12075000I-20000J0D01*
G01*
X2520000Y300000D02*
G75*
G03*
X2520000Y300000I-20000J0D01*
G01*
X2595000Y-375000D02*
G75*
G03*
X2595000Y-375000I-20000J0D01*
G01*
X2645000Y-2825000D02*
G75*
G03*
X2645000Y-2825000I-20000J0D01*
G01*
X2645000Y-2975000D02*
G75*
G03*
X2645000Y-2975000I-20000J0D01*
G01*
X2645000Y-3125000D02*
G75*
G03*
X2645000Y-3125000I-20000J0D01*
G01*
X2645000Y-3275000D02*
G75*
G03*
X2645000Y-3275000I-20000J0D01*
G01*
X2645000Y-3425000D02*
G75*
G03*
X2645000Y-3425000I-20000J0D01*
G01*
X2645000Y-3575000D02*
G75*
G03*
X2645000Y-3575000I-20000J0D01*
G01*
X2645000Y-3725000D02*
G75*
G03*
X2645000Y-3725000I-20000J0D01*
G01*
X2645000Y-6875000D02*
G75*
G03*
X2645000Y-6875000I-20000J0D01*
G01*
X2645000Y-7025000D02*
G75*
G03*
X2645000Y-7025000I-20000J0D01*
G01*
X2645000Y-7175000D02*
G75*
G03*
X2645000Y-7175000I-20000J0D01*
G01*
X2645000Y-7325000D02*
G75*
G03*
X2645000Y-7325000I-20000J0D01*
G01*
X2645000Y-7475000D02*
G75*
G03*
X2645000Y-7475000I-20000J0D01*
G01*
X2645000Y-7625000D02*
G75*
G03*
X2645000Y-7625000I-20000J0D01*
G01*
X2645000Y-7775000D02*
G75*
G03*
X2645000Y-7775000I-20000J0D01*
G01*
X2645000Y-14450000D02*
G75*
G03*
X2645000Y-14450000I-20000J0D01*
G01*
X2645000Y-14575000D02*
G75*
G03*
X2645000Y-14575000I-20000J0D01*
G01*
X2670000Y-11175000D02*
G75*
G03*
X2670000Y-11175000I-20000J0D01*
G01*
X2670000Y-11325000D02*
G75*
G03*
X2670000Y-11325000I-20000J0D01*
G01*
X2670000Y-11475000D02*
G75*
G03*
X2670000Y-11475000I-20000J0D01*
G01*
X2670000Y-11625000D02*
G75*
G03*
X2670000Y-11625000I-20000J0D01*
G01*
X2670000Y-11775000D02*
G75*
G03*
X2670000Y-11775000I-20000J0D01*
G01*
X2670000Y-11925000D02*
G75*
G03*
X2670000Y-11925000I-20000J0D01*
G01*
X2670000Y-12075000D02*
G75*
G03*
X2670000Y-12075000I-20000J0D01*
G01*
X2695000Y-14300000D02*
G75*
G03*
X2695000Y-14300000I-20000J0D01*
G01*
X2745000Y-13825000D02*
G75*
G03*
X2745000Y-13825000I-20000J0D01*
G01*
X2820000Y-2825000D02*
G75*
G03*
X2820000Y-2825000I-20000J0D01*
G01*
X2820000Y-2975000D02*
G75*
G03*
X2820000Y-2975000I-20000J0D01*
G01*
X2820000Y-3125000D02*
G75*
G03*
X2820000Y-3125000I-20000J0D01*
G01*
X2820000Y-3275000D02*
G75*
G03*
X2820000Y-3275000I-20000J0D01*
G01*
X2820000Y-3425000D02*
G75*
G03*
X2820000Y-3425000I-20000J0D01*
G01*
X2820000Y-3575000D02*
G75*
G03*
X2820000Y-3575000I-20000J0D01*
G01*
X2820000Y-3725000D02*
G75*
G03*
X2820000Y-3725000I-20000J0D01*
G01*
X2820000Y-6875000D02*
G75*
G03*
X2820000Y-6875000I-20000J0D01*
G01*
X2820000Y-7025000D02*
G75*
G03*
X2820000Y-7025000I-20000J0D01*
G01*
X2820000Y-7175000D02*
G75*
G03*
X2820000Y-7175000I-20000J0D01*
G01*
X2820000Y-7325000D02*
G75*
G03*
X2820000Y-7325000I-20000J0D01*
G01*
X2820000Y-7475000D02*
G75*
G03*
X2820000Y-7475000I-20000J0D01*
G01*
X2820000Y-7625000D02*
G75*
G03*
X2820000Y-7625000I-20000J0D01*
G01*
X2820000Y-7775000D02*
G75*
G03*
X2820000Y-7775000I-20000J0D01*
G01*
X2820000Y-8350000D02*
G75*
G03*
X2820000Y-8350000I-20000J0D01*
G01*
X2820000Y-8475000D02*
G75*
G03*
X2820000Y-8475000I-20000J0D01*
G01*
X2845000Y-11175000D02*
G75*
G03*
X2845000Y-11175000I-20000J0D01*
G01*
X2845000Y-11325000D02*
G75*
G03*
X2845000Y-11325000I-20000J0D01*
G01*
X2845000Y-11475000D02*
G75*
G03*
X2845000Y-11475000I-20000J0D01*
G01*
X2845000Y-11625000D02*
G75*
G03*
X2845000Y-11625000I-20000J0D01*
G01*
X2845000Y-11775000D02*
G75*
G03*
X2845000Y-11775000I-20000J0D01*
G01*
X2845000Y-11925000D02*
G75*
G03*
X2845000Y-11925000I-20000J0D01*
G01*
X2845000Y-12075000D02*
G75*
G03*
X2845000Y-12075000I-20000J0D01*
G01*
X2970000Y-13700000D02*
G75*
G03*
X2970000Y-13700000I-20000J0D01*
G01*
X3095000Y-11625000D02*
G75*
G03*
X3095000Y-11625000I-20000J0D01*
G01*
X3095000Y-13700000D02*
G75*
G03*
X3095000Y-13700000I-20000J0D01*
G01*
X3220000Y-12625000D02*
G75*
G03*
X3220000Y-12625000I-20000J0D01*
G01*
X3220000Y-12725000D02*
G75*
G03*
X3220000Y-12725000I-20000J0D01*
G01*
X3320000Y-4775000D02*
G75*
G03*
X3320000Y-4775000I-20000J0D01*
G01*
X3395000Y-3750000D02*
G75*
G03*
X3395000Y-3750000I-20000J0D01*
G01*
X3395000Y-7800000D02*
G75*
G03*
X3395000Y-7800000I-20000J0D01*
G01*
X3395000Y-12125000D02*
G75*
G03*
X3395000Y-12125000I-20000J0D01*
G01*
X3445000Y-4775000D02*
G75*
G03*
X3445000Y-4775000I-20000J0D01*
G01*
X3495000Y-3750000D02*
G75*
G03*
X3495000Y-3750000I-20000J0D01*
G01*
X3495000Y-7800000D02*
G75*
G03*
X3495000Y-7800000I-20000J0D01*
G01*
X3495000Y-12125000D02*
G75*
G03*
X3495000Y-12125000I-20000J0D01*
G01*
X3570000Y-4175000D02*
G75*
G03*
X3570000Y-4175000I-20000J0D01*
G01*
X3570000Y-4325000D02*
G75*
G03*
X3570000Y-4325000I-20000J0D01*
G01*
X3645000Y-14000000D02*
G75*
G03*
X3645000Y-14000000I-20000J0D01*
G01*
X3645000Y-14100000D02*
G75*
G03*
X3645000Y-14100000I-20000J0D01*
G01*
X3695000Y-2925000D02*
G75*
G03*
X3695000Y-2925000I-20000J0D01*
G01*
X3695000Y-3275000D02*
G75*
G03*
X3695000Y-3275000I-20000J0D01*
G01*
X3695000Y-7325000D02*
G75*
G03*
X3695000Y-7325000I-20000J0D01*
G01*
X3970000Y-9325000D02*
G75*
G03*
X3970000Y-9325000I-20000J0D01*
G01*
X3970000Y-13725000D02*
G75*
G03*
X3970000Y-13725000I-20000J0D01*
G01*
X4070000Y-7025000D02*
G75*
G03*
X4070000Y-7025000I-20000J0D01*
G01*
X4070000Y-9325000D02*
G75*
G03*
X4070000Y-9325000I-20000J0D01*
G01*
X4070000Y-11425000D02*
G75*
G03*
X4070000Y-11425000I-20000J0D01*
G01*
X4070000Y-13725000D02*
G75*
G03*
X4070000Y-13725000I-20000J0D01*
G01*
X4095000Y-3400000D02*
G75*
G03*
X4095000Y-3400000I-20000J0D01*
G01*
X4220000Y-675000D02*
G75*
G03*
X4220000Y-675000I-20000J0D01*
G01*
X4245000Y-14400000D02*
G75*
G03*
X4245000Y-14400000I-20000J0D01*
G01*
X4245000Y-14625000D02*
G75*
G03*
X4245000Y-14625000I-20000J0D01*
G01*
X4245000Y-14850000D02*
G75*
G03*
X4245000Y-14850000I-20000J0D01*
G01*
X4345000Y-675000D02*
G75*
G03*
X4345000Y-675000I-20000J0D01*
G01*
X4520000Y-14450000D02*
G75*
G03*
X4520000Y-14450000I-20000J0D01*
G01*
X4520000Y-14575000D02*
G75*
G03*
X4520000Y-14575000I-20000J0D01*
G01*
X4545000Y900000D02*
G75*
G03*
X4545000Y900000I-20000J0D01*
G01*
X4545000Y775000D02*
G75*
G03*
X4545000Y775000I-20000J0D01*
G01*
X4620000Y-1875000D02*
G75*
G03*
X4620000Y-1875000I-20000J0D01*
G01*
X4620000Y-14300000D02*
G75*
G03*
X4620000Y-14300000I-20000J0D01*
G01*
X4645000Y-13825000D02*
G75*
G03*
X4645000Y-13825000I-20000J0D01*
G01*
X4745000Y-1875000D02*
G75*
G03*
X4745000Y-1875000I-20000J0D01*
G01*
X4745000Y-5450000D02*
G75*
G03*
X4745000Y-5450000I-20000J0D01*
G01*
X4870000Y-5450000D02*
G75*
G03*
X4870000Y-5450000I-20000J0D01*
G01*
X4970000Y-2775000D02*
G75*
G03*
X4970000Y-2775000I-20000J0D01*
G01*
X5020000Y-1900000D02*
G75*
G03*
X5020000Y-1900000I-20000J0D01*
G01*
X5020000Y-2000000D02*
G75*
G03*
X5020000Y-2000000I-20000J0D01*
G01*
X5020000Y-2100000D02*
G75*
G03*
X5020000Y-2100000I-20000J0D01*
G01*
X5020000Y-2200000D02*
G75*
G03*
X5020000Y-2200000I-20000J0D01*
G01*
X5020000Y-2300000D02*
G75*
G03*
X5020000Y-2300000I-20000J0D01*
G01*
X5020000Y-9900000D02*
G75*
G03*
X5020000Y-9900000I-20000J0D01*
G01*
X5020000Y-10025000D02*
G75*
G03*
X5020000Y-10025000I-20000J0D01*
G01*
X5045000Y2125000D02*
G75*
G03*
X5045000Y2125000I-20000J0D01*
G01*
X5045000Y2025000D02*
G75*
G03*
X5045000Y2025000I-20000J0D01*
G01*
X5070000Y-11250000D02*
G75*
G03*
X5070000Y-11250000I-20000J0D01*
G01*
X5120000Y-4975000D02*
G75*
G03*
X5120000Y-4975000I-20000J0D01*
G01*
X5120000Y-5075000D02*
G75*
G03*
X5120000Y-5075000I-20000J0D01*
G01*
X5195000Y1075000D02*
G75*
G03*
X5195000Y1075000I-20000J0D01*
G01*
X5195000Y975000D02*
G75*
G03*
X5195000Y975000I-20000J0D01*
G01*
X5195000Y875000D02*
G75*
G03*
X5195000Y875000I-20000J0D01*
G01*
X5220000Y-6800000D02*
G75*
G03*
X5220000Y-6800000I-20000J0D01*
G01*
X5345000Y100000D02*
G75*
G03*
X5345000Y100000I-20000J0D01*
G01*
X5420000Y1025000D02*
G75*
G03*
X5420000Y1025000I-20000J0D01*
G01*
X5445000Y2075000D02*
G75*
G03*
X5445000Y2075000I-20000J0D01*
G01*
X5545000Y-14000000D02*
G75*
G03*
X5545000Y-14000000I-20000J0D01*
G01*
X5545000Y-14100000D02*
G75*
G03*
X5545000Y-14100000I-20000J0D01*
G01*
X5552107Y260156D02*
G75*
G03*
X5552107Y260156I-20000J0D01*
G01*
X5670000Y-175000D02*
G75*
G03*
X5670000Y-175000I-20000J0D01*
G01*
X5720000Y-12300000D02*
G75*
G03*
X5720000Y-12300000I-20000J0D01*
G01*
X5745000Y-3750000D02*
G75*
G03*
X5745000Y-3750000I-20000J0D01*
G01*
X5820000Y-8150000D02*
G75*
G03*
X5820000Y-8150000I-20000J0D01*
G01*
X5895000Y-5625000D02*
G75*
G03*
X5895000Y-5625000I-20000J0D01*
G01*
X5920000Y-9900000D02*
G75*
G03*
X5920000Y-9900000I-20000J0D01*
G01*
X5920000Y-10000000D02*
G75*
G03*
X5920000Y-10000000I-20000J0D01*
G01*
X5995000Y1875000D02*
G75*
G03*
X5995000Y1875000I-20000J0D01*
G01*
X6020000Y-375000D02*
G75*
G03*
X6020000Y-375000I-20000J0D01*
G01*
X6045000Y100000D02*
G75*
G03*
X6045000Y100000I-20000J0D01*
G01*
X6070000Y1100000D02*
G75*
G03*
X6070000Y1100000I-20000J0D01*
G01*
X6070000Y1000000D02*
G75*
G03*
X6070000Y1000000I-20000J0D01*
G01*
X6070000Y900000D02*
G75*
G03*
X6070000Y900000I-20000J0D01*
G01*
X6120000Y-13825000D02*
G75*
G03*
X6120000Y-13825000I-20000J0D01*
G01*
X6145000Y-9600000D02*
G75*
G03*
X6145000Y-9600000I-20000J0D01*
G01*
X6170000Y-1475000D02*
G75*
G03*
X6170000Y-1475000I-20000J0D01*
G01*
X6170000Y-1575000D02*
G75*
G03*
X6170000Y-1575000I-20000J0D01*
G01*
X6170000Y-4700000D02*
G75*
G03*
X6170000Y-4700000I-20000J0D01*
G01*
X6170000Y-14400000D02*
G75*
G03*
X6170000Y-14400000I-20000J0D01*
G01*
X6170000Y-14625000D02*
G75*
G03*
X6170000Y-14625000I-20000J0D01*
G01*
X6170000Y-14850000D02*
G75*
G03*
X6170000Y-14850000I-20000J0D01*
G01*
X6245000Y-9600000D02*
G75*
G03*
X6245000Y-9600000I-20000J0D01*
G01*
X6245000Y-13825000D02*
G75*
G03*
X6245000Y-13825000I-20000J0D01*
G01*
X6270000Y-4700000D02*
G75*
G03*
X6270000Y-4700000I-20000J0D01*
G01*
X6395000Y425000D02*
G75*
G03*
X6395000Y425000I-20000J0D01*
G01*
X6420000Y-14450000D02*
G75*
G03*
X6420000Y-14450000I-20000J0D01*
G01*
X6420000Y-14575000D02*
G75*
G03*
X6420000Y-14575000I-20000J0D01*
G01*
X6520000Y-13850000D02*
G75*
G03*
X6520000Y-13850000I-20000J0D01*
G01*
X6520000Y-14275000D02*
G75*
G03*
X6520000Y-14275000I-20000J0D01*
G01*
X6593759Y386840D02*
G75*
G03*
X6593759Y386840I-20000J0D01*
G01*
X6595000Y-200000D02*
G75*
G03*
X6595000Y-200000I-20000J0D01*
G01*
X6645000Y-100000D02*
G75*
G03*
X6645000Y-100000I-20000J0D01*
G01*
X6695000Y800000D02*
G75*
G03*
X6695000Y800000I-20000J0D01*
G01*
X6695000Y125000D02*
G75*
G03*
X6695000Y125000I-20000J0D01*
G01*
X6970000Y-6825000D02*
G75*
G03*
X6970000Y-6825000I-20000J0D01*
G01*
X6995000Y2000000D02*
G75*
G03*
X6995000Y2000000I-20000J0D01*
G01*
X6995000Y-11325000D02*
G75*
G03*
X6995000Y-11325000I-20000J0D01*
G01*
X7145000Y225000D02*
G75*
G03*
X7145000Y225000I-20000J0D01*
G01*
X7245000Y150000D02*
G75*
G03*
X7245000Y150000I-20000J0D01*
G01*
X7270000Y-3775000D02*
G75*
G03*
X7270000Y-3775000I-20000J0D01*
G01*
X7278594Y758901D02*
G75*
G03*
X7278594Y758901I-20000J0D01*
G01*
X7320000Y-7325000D02*
G75*
G03*
X7320000Y-7325000I-20000J0D01*
G01*
X7345000Y-3275000D02*
G75*
G03*
X7345000Y-3275000I-20000J0D01*
G01*
X7420000Y-2200000D02*
G75*
G03*
X7420000Y-2200000I-20000J0D01*
G01*
X7420000Y-2325000D02*
G75*
G03*
X7420000Y-2325000I-20000J0D01*
G01*
X7445000Y-14000000D02*
G75*
G03*
X7445000Y-14000000I-20000J0D01*
G01*
X7445000Y-14100000D02*
G75*
G03*
X7445000Y-14100000I-20000J0D01*
G01*
X7520000Y-10650000D02*
G75*
G03*
X7520000Y-10650000I-20000J0D01*
G01*
X7520000Y-10775000D02*
G75*
G03*
X7520000Y-10775000I-20000J0D01*
G01*
X7545000Y-6825000D02*
G75*
G03*
X7545000Y-6825000I-20000J0D01*
G01*
X7545000Y-11150000D02*
G75*
G03*
X7545000Y-11150000I-20000J0D01*
G01*
X7595000Y25000D02*
G75*
G03*
X7595000Y25000I-20000J0D01*
G01*
X7595000Y-2800000D02*
G75*
G03*
X7595000Y-2800000I-20000J0D01*
G01*
X7645000Y-6825000D02*
G75*
G03*
X7645000Y-6825000I-20000J0D01*
G01*
X7645000Y-11150000D02*
G75*
G03*
X7645000Y-11150000I-20000J0D01*
G01*
X7695000Y-2800000D02*
G75*
G03*
X7695000Y-2800000I-20000J0D01*
G01*
X7745000Y275000D02*
G75*
G03*
X7745000Y275000I-20000J0D01*
G01*
X7820000Y1650000D02*
G75*
G03*
X7820000Y1650000I-20000J0D01*
G01*
X7820000Y1325000D02*
G75*
G03*
X7820000Y1325000I-20000J0D01*
G01*
X7820000Y950000D02*
G75*
G03*
X7820000Y950000I-20000J0D01*
G01*
X7895000Y2797450D02*
G75*
G03*
X7895000Y2797450I-20000J0D01*
G01*
X7943083Y-6408304D02*
G75*
G03*
X7943083Y-6408304I-20000J0D01*
G01*
X7945000Y-6300000D02*
G75*
G03*
X7945000Y-6300000I-20000J0D01*
G01*
X7945000Y-11625000D02*
G75*
G03*
X7945000Y-11625000I-20000J0D01*
G01*
X8045000Y-8900000D02*
G75*
G03*
X8045000Y-8900000I-20000J0D01*
G01*
X8045000Y-9000000D02*
G75*
G03*
X8045000Y-9000000I-20000J0D01*
G01*
X8046433Y53893D02*
G75*
G03*
X8046433Y53893I-20000J0D01*
G01*
X8057352Y2877287D02*
G75*
G03*
X8057352Y2877287I-20000J0D01*
G01*
X8067254Y-14402746D02*
G75*
G03*
X8067254Y-14402746I-20000J0D01*
G01*
X8070000Y-14625000D02*
G75*
G03*
X8070000Y-14625000I-20000J0D01*
G01*
X8070000Y-14850000D02*
G75*
G03*
X8070000Y-14850000I-20000J0D01*
G01*
X8170000Y-11150000D02*
G75*
G03*
X8170000Y-11150000I-20000J0D01*
G01*
X8170000Y-11300000D02*
G75*
G03*
X8170000Y-11300000I-20000J0D01*
G01*
X8170000Y-11450000D02*
G75*
G03*
X8170000Y-11450000I-20000J0D01*
G01*
X8170000Y-11600000D02*
G75*
G03*
X8170000Y-11600000I-20000J0D01*
G01*
X8170000Y-11750000D02*
G75*
G03*
X8170000Y-11750000I-20000J0D01*
G01*
X8170000Y-11900000D02*
G75*
G03*
X8170000Y-11900000I-20000J0D01*
G01*
X8170000Y-12050000D02*
G75*
G03*
X8170000Y-12050000I-20000J0D01*
G01*
X8195000Y-2825000D02*
G75*
G03*
X8195000Y-2825000I-20000J0D01*
G01*
X8195000Y-2975000D02*
G75*
G03*
X8195000Y-2975000I-20000J0D01*
G01*
X8195000Y-3125000D02*
G75*
G03*
X8195000Y-3125000I-20000J0D01*
G01*
X8195000Y-3275000D02*
G75*
G03*
X8195000Y-3275000I-20000J0D01*
G01*
X8195000Y-3425000D02*
G75*
G03*
X8195000Y-3425000I-20000J0D01*
G01*
X8195000Y-3575000D02*
G75*
G03*
X8195000Y-3575000I-20000J0D01*
G01*
X8195000Y-3725000D02*
G75*
G03*
X8195000Y-3725000I-20000J0D01*
G01*
X8195000Y-6875000D02*
G75*
G03*
X8195000Y-6875000I-20000J0D01*
G01*
X8195000Y-7025000D02*
G75*
G03*
X8195000Y-7025000I-20000J0D01*
G01*
X8195000Y-7175000D02*
G75*
G03*
X8195000Y-7175000I-20000J0D01*
G01*
X8195000Y-7325000D02*
G75*
G03*
X8195000Y-7325000I-20000J0D01*
G01*
X8195000Y-7475000D02*
G75*
G03*
X8195000Y-7475000I-20000J0D01*
G01*
X8195000Y-7625000D02*
G75*
G03*
X8195000Y-7625000I-20000J0D01*
G01*
X8195000Y-7775000D02*
G75*
G03*
X8195000Y-7775000I-20000J0D01*
G01*
X8220000Y275000D02*
G75*
G03*
X8220000Y275000I-20000J0D01*
G01*
X8295000Y2750000D02*
G75*
G03*
X8295000Y2750000I-20000J0D01*
G01*
X8345000Y-11150000D02*
G75*
G03*
X8345000Y-11150000I-20000J0D01*
G01*
X8345000Y-11300000D02*
G75*
G03*
X8345000Y-11300000I-20000J0D01*
G01*
X8345000Y-11450000D02*
G75*
G03*
X8345000Y-11450000I-20000J0D01*
G01*
X8345000Y-11600000D02*
G75*
G03*
X8345000Y-11600000I-20000J0D01*
G01*
X8345000Y-11750000D02*
G75*
G03*
X8345000Y-11750000I-20000J0D01*
G01*
X8345000Y-11900000D02*
G75*
G03*
X8345000Y-11900000I-20000J0D01*
G01*
X8345000Y-12050000D02*
G75*
G03*
X8345000Y-12050000I-20000J0D01*
G01*
X8370000Y-2825000D02*
G75*
G03*
X8370000Y-2825000I-20000J0D01*
G01*
X8370000Y-2975000D02*
G75*
G03*
X8370000Y-2975000I-20000J0D01*
G01*
X8370000Y-3125000D02*
G75*
G03*
X8370000Y-3125000I-20000J0D01*
G01*
X8370000Y-3275000D02*
G75*
G03*
X8370000Y-3275000I-20000J0D01*
G01*
X8370000Y-3425000D02*
G75*
G03*
X8370000Y-3425000I-20000J0D01*
G01*
X8370000Y-3575000D02*
G75*
G03*
X8370000Y-3575000I-20000J0D01*
G01*
X8370000Y-3725000D02*
G75*
G03*
X8370000Y-3725000I-20000J0D01*
G01*
X8370000Y-6875000D02*
G75*
G03*
X8370000Y-6875000I-20000J0D01*
G01*
X8370000Y-7025000D02*
G75*
G03*
X8370000Y-7025000I-20000J0D01*
G01*
X8370000Y-7175000D02*
G75*
G03*
X8370000Y-7175000I-20000J0D01*
G01*
X8370000Y-7325000D02*
G75*
G03*
X8370000Y-7325000I-20000J0D01*
G01*
X8370000Y-7475000D02*
G75*
G03*
X8370000Y-7475000I-20000J0D01*
G01*
X8370000Y-7625000D02*
G75*
G03*
X8370000Y-7625000I-20000J0D01*
G01*
X8370000Y-7775000D02*
G75*
G03*
X8370000Y-7775000I-20000J0D01*
G01*
X8445000Y2650000D02*
G75*
G03*
X8445000Y2650000I-20000J0D01*
G01*
X8520000Y-11150000D02*
G75*
G03*
X8520000Y-11150000I-20000J0D01*
G01*
X8520000Y-11300000D02*
G75*
G03*
X8520000Y-11300000I-20000J0D01*
G01*
X8520000Y-11450000D02*
G75*
G03*
X8520000Y-11450000I-20000J0D01*
G01*
X8520000Y-11600000D02*
G75*
G03*
X8520000Y-11600000I-20000J0D01*
G01*
X8520000Y-11750000D02*
G75*
G03*
X8520000Y-11750000I-20000J0D01*
G01*
X8520000Y-11900000D02*
G75*
G03*
X8520000Y-11900000I-20000J0D01*
G01*
X8520000Y-12050000D02*
G75*
G03*
X8520000Y-12050000I-20000J0D01*
G01*
X8520000Y-12700000D02*
G75*
G03*
X8520000Y-12700000I-20000J0D01*
G01*
X8545000Y-2825000D02*
G75*
G03*
X8545000Y-2825000I-20000J0D01*
G01*
X8545000Y-2975000D02*
G75*
G03*
X8545000Y-2975000I-20000J0D01*
G01*
X8545000Y-3125000D02*
G75*
G03*
X8545000Y-3125000I-20000J0D01*
G01*
X8545000Y-3275000D02*
G75*
G03*
X8545000Y-3275000I-20000J0D01*
G01*
X8545000Y-3425000D02*
G75*
G03*
X8545000Y-3425000I-20000J0D01*
G01*
X8545000Y-3575000D02*
G75*
G03*
X8545000Y-3575000I-20000J0D01*
G01*
X8545000Y-3725000D02*
G75*
G03*
X8545000Y-3725000I-20000J0D01*
G01*
X8545000Y-6875000D02*
G75*
G03*
X8545000Y-6875000I-20000J0D01*
G01*
X8545000Y-7025000D02*
G75*
G03*
X8545000Y-7025000I-20000J0D01*
G01*
X8545000Y-7175000D02*
G75*
G03*
X8545000Y-7175000I-20000J0D01*
G01*
X8545000Y-7325000D02*
G75*
G03*
X8545000Y-7325000I-20000J0D01*
G01*
X8545000Y-7475000D02*
G75*
G03*
X8545000Y-7475000I-20000J0D01*
G01*
X8545000Y-7625000D02*
G75*
G03*
X8545000Y-7625000I-20000J0D01*
G01*
X8545000Y-7775000D02*
G75*
G03*
X8545000Y-7775000I-20000J0D01*
G01*
X8645000Y-12700000D02*
G75*
G03*
X8645000Y-12700000I-20000J0D01*
G01*
X8695000Y-11150000D02*
G75*
G03*
X8695000Y-11150000I-20000J0D01*
G01*
X8695000Y-11300000D02*
G75*
G03*
X8695000Y-11300000I-20000J0D01*
G01*
X8695000Y-11450000D02*
G75*
G03*
X8695000Y-11450000I-20000J0D01*
G01*
X8695000Y-11600000D02*
G75*
G03*
X8695000Y-11600000I-20000J0D01*
G01*
X8695000Y-11750000D02*
G75*
G03*
X8695000Y-11750000I-20000J0D01*
G01*
X8695000Y-11900000D02*
G75*
G03*
X8695000Y-11900000I-20000J0D01*
G01*
X8695000Y-12050000D02*
G75*
G03*
X8695000Y-12050000I-20000J0D01*
G01*
X8720000Y-2825000D02*
G75*
G03*
X8720000Y-2825000I-20000J0D01*
G01*
X8720000Y-2975000D02*
G75*
G03*
X8720000Y-2975000I-20000J0D01*
G01*
X8720000Y-3125000D02*
G75*
G03*
X8720000Y-3125000I-20000J0D01*
G01*
X8720000Y-3275000D02*
G75*
G03*
X8720000Y-3275000I-20000J0D01*
G01*
X8720000Y-3425000D02*
G75*
G03*
X8720000Y-3425000I-20000J0D01*
G01*
X8720000Y-3575000D02*
G75*
G03*
X8720000Y-3575000I-20000J0D01*
G01*
X8720000Y-3725000D02*
G75*
G03*
X8720000Y-3725000I-20000J0D01*
G01*
X8720000Y-6875000D02*
G75*
G03*
X8720000Y-6875000I-20000J0D01*
G01*
X8720000Y-7025000D02*
G75*
G03*
X8720000Y-7025000I-20000J0D01*
G01*
X8720000Y-7175000D02*
G75*
G03*
X8720000Y-7175000I-20000J0D01*
G01*
X8720000Y-7325000D02*
G75*
G03*
X8720000Y-7325000I-20000J0D01*
G01*
X8720000Y-7475000D02*
G75*
G03*
X8720000Y-7475000I-20000J0D01*
G01*
X8720000Y-7625000D02*
G75*
G03*
X8720000Y-7625000I-20000J0D01*
G01*
X8720000Y-7775000D02*
G75*
G03*
X8720000Y-7775000I-20000J0D01*
G01*
X8795000Y-225000D02*
G75*
G03*
X8795000Y-225000I-20000J0D01*
G01*
X8850804Y1734754D02*
G75*
G03*
X8850804Y1734754I-20000J0D01*
G01*
X8870000Y-11150000D02*
G75*
G03*
X8870000Y-11150000I-20000J0D01*
G01*
X8870000Y-11300000D02*
G75*
G03*
X8870000Y-11300000I-20000J0D01*
G01*
X8870000Y-11450000D02*
G75*
G03*
X8870000Y-11450000I-20000J0D01*
G01*
X8870000Y-11600000D02*
G75*
G03*
X8870000Y-11600000I-20000J0D01*
G01*
X8870000Y-11750000D02*
G75*
G03*
X8870000Y-11750000I-20000J0D01*
G01*
X8870000Y-11900000D02*
G75*
G03*
X8870000Y-11900000I-20000J0D01*
G01*
X8870000Y-12050000D02*
G75*
G03*
X8870000Y-12050000I-20000J0D01*
G01*
X8895000Y-2825000D02*
G75*
G03*
X8895000Y-2825000I-20000J0D01*
G01*
X8895000Y-2975000D02*
G75*
G03*
X8895000Y-2975000I-20000J0D01*
G01*
X8895000Y-3125000D02*
G75*
G03*
X8895000Y-3125000I-20000J0D01*
G01*
X8895000Y-3275000D02*
G75*
G03*
X8895000Y-3275000I-20000J0D01*
G01*
X8895000Y-3425000D02*
G75*
G03*
X8895000Y-3425000I-20000J0D01*
G01*
X8895000Y-3575000D02*
G75*
G03*
X8895000Y-3575000I-20000J0D01*
G01*
X8895000Y-3725000D02*
G75*
G03*
X8895000Y-3725000I-20000J0D01*
G01*
X8895000Y-6875000D02*
G75*
G03*
X8895000Y-6875000I-20000J0D01*
G01*
X8895000Y-7025000D02*
G75*
G03*
X8895000Y-7025000I-20000J0D01*
G01*
X8895000Y-7175000D02*
G75*
G03*
X8895000Y-7175000I-20000J0D01*
G01*
X8895000Y-7325000D02*
G75*
G03*
X8895000Y-7325000I-20000J0D01*
G01*
X8895000Y-7475000D02*
G75*
G03*
X8895000Y-7475000I-20000J0D01*
G01*
X8895000Y-7625000D02*
G75*
G03*
X8895000Y-7625000I-20000J0D01*
G01*
X8895000Y-7775000D02*
G75*
G03*
X8895000Y-7775000I-20000J0D01*
G01*
X9220000Y-125000D02*
G75*
G03*
X9220000Y-125000I-20000J0D01*
G01*
X9220000Y-275000D02*
G75*
G03*
X9220000Y-275000I-20000J0D01*
G01*
X9295000Y-14125000D02*
G75*
G03*
X9295000Y-14125000I-20000J0D01*
G01*
X9345000Y-12525000D02*
G75*
G03*
X9345000Y-12525000I-20000J0D01*
G01*
X9445000Y-12225000D02*
G75*
G03*
X9445000Y-12225000I-20000J0D01*
G01*
X9570000Y-12900000D02*
G75*
G03*
X9570000Y-12900000I-20000J0D01*
G01*
X9795000Y-13325000D02*
G75*
G03*
X9795000Y-13325000I-20000J0D01*
G01*
X9820000Y-12825000D02*
G75*
G03*
X9820000Y-12825000I-20000J0D01*
G01*
X10020000Y-13350000D02*
G75*
G03*
X10020000Y-13350000I-20000J0D01*
G01*
X10120000Y-12350000D02*
G75*
G03*
X10120000Y-12350000I-20000J0D01*
G01*
D15*
X4000000Y-7606000D02*
X4000000Y-7686000D01*
X3960000Y-7646000D02*
X4040000Y-7646000D01*
X4000000Y-7860000D02*
X4000000Y-7940000D01*
X3960000Y-7900000D02*
X4040000Y-7900000D01*
X4000000Y-8114000D02*
X4000000Y-8194000D01*
X3960000Y-8154000D02*
X4040000Y-8154000D01*
X4000000Y-12105000D02*
X4000000Y-12185000D01*
X3960000Y-12145000D02*
X4040000Y-12145000D01*
X4000000Y-12359000D02*
X4000000Y-12439000D01*
X3960000Y-12399000D02*
X4040000Y-12399000D01*
X4000000Y-12613000D02*
X4000000Y-12693000D01*
X3960000Y-12653000D02*
X4040000Y-12653000D01*
X7000000Y-7605000D02*
X7000000Y-7685000D01*
X6960000Y-7645000D02*
X7040000Y-7645000D01*
X7000000Y-7859000D02*
X7000000Y-7939000D01*
X6960000Y-7899000D02*
X7040000Y-7899000D01*
X7000000Y-8113000D02*
X7000000Y-8193000D01*
X6960000Y-8153000D02*
X7040000Y-8153000D01*
X7050000Y-12105000D02*
X7050000Y-12185000D01*
X7010000Y-12145000D02*
X7090000Y-12145000D01*
X7050000Y-12359000D02*
X7050000Y-12439000D01*
X7010000Y-12399000D02*
X7090000Y-12399000D01*
X7050000Y-12613000D02*
X7050000Y-12693000D01*
X7010000Y-12653000D02*
X7090000Y-12653000D01*
X8700000Y-14150000D02*
X8700000Y-14230000D01*
X8660000Y-14190000D02*
X8740000Y-14190000D01*
X8700000Y-14404000D02*
X8700000Y-14484000D01*
X8660000Y-14444000D02*
X8740000Y-14444000D01*
X8700000Y-14658000D02*
X8700000Y-14738000D01*
X8660000Y-14698000D02*
X8740000Y-14698000D01*
D16*
X2290356Y1789644D02*
X2290356Y1860356D01*
X2219644Y1860356D01*
X2219644Y1789644D01*
X2290356Y1789644D01*
X3430356Y1789644D02*
X3430356Y1860356D01*
X3359644Y1860356D01*
X3359644Y1789644D01*
X3430356Y1789644D01*
X5035356Y538644D02*
X5035356Y609356D01*
X4964644Y609356D01*
X4964644Y538644D01*
X5035356Y538644D01*
X5035356Y-985356D02*
X5035356Y-914644D01*
X4964644Y-914644D01*
X4964644Y-985356D01*
X5035356Y-985356D01*
X5289356Y538644D02*
X5289356Y609356D01*
X5218644Y609356D01*
X5218644Y538644D01*
X5289356Y538644D01*
X5289356Y-985356D02*
X5289356Y-914644D01*
X5218644Y-914644D01*
X5218644Y-985356D01*
X5289356Y-985356D01*
X5543356Y538644D02*
X5543356Y609356D01*
X5472644Y609356D01*
X5472644Y538644D01*
X5543356Y538644D01*
X5543356Y-985356D02*
X5543356Y-914644D01*
X5472644Y-914644D01*
X5472644Y-985356D01*
X5543356Y-985356D01*
X5797356Y538644D02*
X5797356Y609356D01*
X5726644Y609356D01*
X5726644Y538644D01*
X5797356Y538644D01*
X5797356Y-985356D02*
X5797356Y-914644D01*
X5726644Y-914644D01*
X5726644Y-985356D01*
X5797356Y-985356D01*
X6051356Y538644D02*
X6051356Y609356D01*
X5980644Y609356D01*
X5980644Y538644D01*
X6051356Y538644D01*
X6051356Y-985356D02*
X6051356Y-914644D01*
X5980644Y-914644D01*
X5980644Y-985356D01*
X6051356Y-985356D01*
X6305356Y538644D02*
X6305356Y609356D01*
X6234644Y609356D01*
X6234644Y538644D01*
X6305356Y538644D01*
X6305356Y-985356D02*
X6305356Y-914644D01*
X6234644Y-914644D01*
X6234644Y-985356D01*
X6305356Y-985356D01*
X6559356Y538644D02*
X6559356Y609356D01*
X6488644Y609356D01*
X6488644Y538644D01*
X6559356Y538644D01*
X6559356Y-985356D02*
X6559356Y-914644D01*
X6488644Y-914644D01*
X6488644Y-985356D01*
X6559356Y-985356D01*
X6813356Y538644D02*
X6813356Y609356D01*
X6742644Y609356D01*
X6742644Y538644D01*
X6813356Y538644D01*
X6813356Y-985356D02*
X6813356Y-914644D01*
X6742644Y-914644D01*
X6742644Y-985356D01*
X6813356Y-985356D01*
X7067356Y538644D02*
X7067356Y609356D01*
X6996644Y609356D01*
X6996644Y538644D01*
X7067356Y538644D01*
X7067356Y-985356D02*
X7067356Y-914644D01*
X6996644Y-914644D01*
X6996644Y-985356D01*
X7067356Y-985356D01*
X7321356Y538644D02*
X7321356Y609356D01*
X7250644Y609356D01*
X7250644Y538644D01*
X7321356Y538644D01*
X7321356Y-985356D02*
X7321356Y-914644D01*
X7250644Y-914644D01*
X7250644Y-985356D01*
X7321356Y-985356D01*
X7575356Y538644D02*
X7575356Y609356D01*
X7504644Y609356D01*
X7504644Y538644D01*
X7575356Y538644D01*
X7575356Y-985356D02*
X7575356Y-914644D01*
X7504644Y-914644D01*
X7504644Y-985356D01*
X7575356Y-985356D01*
X7829356Y538644D02*
X7829356Y609356D01*
X7758644Y609356D01*
X7758644Y538644D01*
X7829356Y538644D01*
X7829356Y-985356D02*
X7829356Y-914644D01*
X7758644Y-914644D01*
X7758644Y-985356D01*
X7829356Y-985356D01*
X8083356Y538644D02*
X8083356Y609356D01*
X8012644Y609356D01*
X8012644Y538644D01*
X8083356Y538644D01*
X8083356Y-985356D02*
X8083356Y-914644D01*
X8012644Y-914644D01*
X8012644Y-985356D01*
X8083356Y-985356D01*
X8337356Y538644D02*
X8337356Y609356D01*
X8266644Y609356D01*
X8266644Y538644D01*
X8337356Y538644D01*
X8337356Y-985356D02*
X8337356Y-914644D01*
X8266644Y-914644D01*
X8266644Y-985356D01*
X8337356Y-985356D01*
X8591356Y538644D02*
X8591356Y609356D01*
X8520644Y609356D01*
X8520644Y538644D01*
X8591356Y538644D01*
X8591356Y-985356D02*
X8591356Y-914644D01*
X8520644Y-914644D01*
X8520644Y-985356D01*
X8591356Y-985356D01*
D17*
X550000Y1860000D02*
X615000Y1925000D01*
X550000Y1990000D01*
X485000Y1925000D01*
X550000Y1860000D01*
X550000Y1360000D02*
X615000Y1425000D01*
X550000Y1490000D01*
X485000Y1425000D01*
X550000Y1360000D01*
X550000Y860000D02*
X615000Y925000D01*
X550000Y990000D01*
X485000Y925000D01*
X550000Y860000D01*
X550000Y-14015000D02*
X615000Y-13950000D01*
X550000Y-13885000D01*
X485000Y-13950000D01*
X550000Y-14015000D01*
X550000Y-14515000D02*
X615000Y-14450000D01*
X550000Y-14385000D01*
X485000Y-14450000D01*
X550000Y-14515000D01*
X550000Y-15015000D02*
X615000Y-14950000D01*
X550000Y-14885000D01*
X485000Y-14950000D01*
X550000Y-15015000D01*
X550000Y-15515000D02*
X615000Y-15450000D01*
X550000Y-15385000D01*
X485000Y-15450000D01*
X550000Y-15515000D01*
X550000Y-16015000D02*
X615000Y-15950000D01*
X550000Y-15885000D01*
X485000Y-15950000D01*
X550000Y-16015000D01*
X550000Y-16515000D02*
X615000Y-16450000D01*
X550000Y-16385000D01*
X485000Y-16450000D01*
X550000Y-16515000D01*
X564000Y-1365000D02*
X629000Y-1300000D01*
X564000Y-1235000D01*
X499000Y-1300000D01*
X564000Y-1365000D01*
X564000Y-1865000D02*
X629000Y-1800000D01*
X564000Y-1735000D01*
X499000Y-1800000D01*
X564000Y-1865000D01*
X564000Y-2365000D02*
X629000Y-2300000D01*
X564000Y-2235000D01*
X499000Y-2300000D01*
X564000Y-2365000D01*
X564000Y-2865000D02*
X629000Y-2800000D01*
X564000Y-2735000D01*
X499000Y-2800000D01*
X564000Y-2865000D01*
X564000Y-3365000D02*
X629000Y-3300000D01*
X564000Y-3235000D01*
X499000Y-3300000D01*
X564000Y-3365000D01*
X564000Y-3865000D02*
X629000Y-3800000D01*
X564000Y-3735000D01*
X499000Y-3800000D01*
X564000Y-3865000D01*
X564000Y-4815000D02*
X629000Y-4750000D01*
X564000Y-4685000D01*
X499000Y-4750000D01*
X564000Y-4815000D01*
X564000Y-5315000D02*
X629000Y-5250000D01*
X564000Y-5185000D01*
X499000Y-5250000D01*
X564000Y-5315000D01*
X564000Y-5815000D02*
X629000Y-5750000D01*
X564000Y-5685000D01*
X499000Y-5750000D01*
X564000Y-5815000D01*
X564000Y-6315000D02*
X629000Y-6250000D01*
X564000Y-6185000D01*
X499000Y-6250000D01*
X564000Y-6315000D01*
X564000Y-6815000D02*
X629000Y-6750000D01*
X564000Y-6685000D01*
X499000Y-6750000D01*
X564000Y-6815000D01*
X564000Y-7315000D02*
X629000Y-7250000D01*
X564000Y-7185000D01*
X499000Y-7250000D01*
X564000Y-7315000D01*
X564000Y-7815000D02*
X629000Y-7750000D01*
X564000Y-7685000D01*
X499000Y-7750000D01*
X564000Y-7815000D01*
X564000Y-8765000D02*
X629000Y-8700000D01*
X564000Y-8635000D01*
X499000Y-8700000D01*
X564000Y-8765000D01*
X564000Y-9265000D02*
X629000Y-9200000D01*
X564000Y-9135000D01*
X499000Y-9200000D01*
X564000Y-9265000D01*
X564000Y-9765000D02*
X629000Y-9700000D01*
X564000Y-9635000D01*
X499000Y-9700000D01*
X564000Y-9765000D01*
X564000Y-10265000D02*
X629000Y-10200000D01*
X564000Y-10135000D01*
X499000Y-10200000D01*
X564000Y-10265000D01*
X564000Y-10765000D02*
X629000Y-10700000D01*
X564000Y-10635000D01*
X499000Y-10700000D01*
X564000Y-10765000D01*
X564000Y-11265000D02*
X629000Y-11200000D01*
X564000Y-11135000D01*
X499000Y-11200000D01*
X564000Y-11265000D01*
X564000Y-11765000D02*
X629000Y-11700000D01*
X564000Y-11635000D01*
X499000Y-11700000D01*
X564000Y-11765000D01*
X1600000Y3385000D02*
X1665000Y3450000D01*
X1600000Y3515000D01*
X1535000Y3450000D01*
X1600000Y3385000D01*
X2100000Y3385000D02*
X2165000Y3450000D01*
X2100000Y3515000D01*
X2035000Y3450000D01*
X2100000Y3385000D01*
X2600000Y3385000D02*
X2665000Y3450000D01*
X2600000Y3515000D01*
X2535000Y3450000D01*
X2600000Y3385000D01*
X2850000Y-16465000D02*
X2915000Y-16400000D01*
X2850000Y-16335000D01*
X2785000Y-16400000D01*
X2850000Y-16465000D01*
X3100000Y3385000D02*
X3165000Y3450000D01*
X3100000Y3515000D01*
X3035000Y3450000D01*
X3100000Y3385000D01*
X3350000Y-16465000D02*
X3415000Y-16400000D01*
X3350000Y-16335000D01*
X3285000Y-16400000D01*
X3350000Y-16465000D01*
X3850000Y3385000D02*
X3915000Y3450000D01*
X3850000Y3515000D01*
X3785000Y3450000D01*
X3850000Y3385000D01*
X3850000Y-16465000D02*
X3915000Y-16400000D01*
X3850000Y-16335000D01*
X3785000Y-16400000D01*
X3850000Y-16465000D01*
X4350000Y3385000D02*
X4415000Y3450000D01*
X4350000Y3515000D01*
X4285000Y3450000D01*
X4350000Y3385000D01*
X4350000Y-16465000D02*
X4415000Y-16400000D01*
X4350000Y-16335000D01*
X4285000Y-16400000D01*
X4350000Y-16465000D01*
X4850000Y3385000D02*
X4915000Y3450000D01*
X4850000Y3515000D01*
X4785000Y3450000D01*
X4850000Y3385000D01*
X4850000Y-16465000D02*
X4915000Y-16400000D01*
X4850000Y-16335000D01*
X4785000Y-16400000D01*
X4850000Y-16465000D01*
X5350000Y3385000D02*
X5415000Y3450000D01*
X5350000Y3515000D01*
X5285000Y3450000D01*
X5350000Y3385000D01*
X5350000Y-16465000D02*
X5415000Y-16400000D01*
X5350000Y-16335000D01*
X5285000Y-16400000D01*
X5350000Y-16465000D01*
X5850000Y3385000D02*
X5915000Y3450000D01*
X5850000Y3515000D01*
X5785000Y3450000D01*
X5850000Y3385000D01*
X5850000Y-16465000D02*
X5915000Y-16400000D01*
X5850000Y-16335000D01*
X5785000Y-16400000D01*
X5850000Y-16465000D01*
X6350000Y3385000D02*
X6415000Y3450000D01*
X6350000Y3515000D01*
X6285000Y3450000D01*
X6350000Y3385000D01*
X6350000Y-16465000D02*
X6415000Y-16400000D01*
X6350000Y-16335000D01*
X6285000Y-16400000D01*
X6350000Y-16465000D01*
X6850000Y3385000D02*
X6915000Y3450000D01*
X6850000Y3515000D01*
X6785000Y3450000D01*
X6850000Y3385000D01*
X6850000Y-16465000D02*
X6915000Y-16400000D01*
X6850000Y-16335000D01*
X6785000Y-16400000D01*
X6850000Y-16465000D01*
X7350000Y3385000D02*
X7415000Y3450000D01*
X7350000Y3515000D01*
X7285000Y3450000D01*
X7350000Y3385000D01*
X7350000Y-16465000D02*
X7415000Y-16400000D01*
X7350000Y-16335000D01*
X7285000Y-16400000D01*
X7350000Y-16465000D01*
X7850000Y3385000D02*
X7915000Y3450000D01*
X7850000Y3515000D01*
X7785000Y3450000D01*
X7850000Y3385000D01*
X7850000Y-16465000D02*
X7915000Y-16400000D01*
X7850000Y-16335000D01*
X7785000Y-16400000D01*
X7850000Y-16465000D01*
X8350000Y3385000D02*
X8415000Y3450000D01*
X8350000Y3515000D01*
X8285000Y3450000D01*
X8350000Y3385000D01*
X8350000Y-16465000D02*
X8415000Y-16400000D01*
X8350000Y-16335000D01*
X8285000Y-16400000D01*
X8350000Y-16465000D01*
X8850000Y3385000D02*
X8915000Y3450000D01*
X8850000Y3515000D01*
X8785000Y3450000D01*
X8850000Y3385000D01*
X9350000Y3385000D02*
X9415000Y3450000D01*
X9350000Y3515000D01*
X9285000Y3450000D01*
X9350000Y3385000D01*
X10450000Y1860000D02*
X10515000Y1925000D01*
X10450000Y1990000D01*
X10385000Y1925000D01*
X10450000Y1860000D01*
X10450000Y1360000D02*
X10515000Y1425000D01*
X10450000Y1490000D01*
X10385000Y1425000D01*
X10450000Y1360000D01*
X10450000Y860000D02*
X10515000Y925000D01*
X10450000Y990000D01*
X10385000Y925000D01*
X10450000Y860000D01*
X10450000Y-1365000D02*
X10515000Y-1300000D01*
X10450000Y-1235000D01*
X10385000Y-1300000D01*
X10450000Y-1365000D01*
X10450000Y-1865000D02*
X10515000Y-1800000D01*
X10450000Y-1735000D01*
X10385000Y-1800000D01*
X10450000Y-1865000D01*
X10450000Y-2365000D02*
X10515000Y-2300000D01*
X10450000Y-2235000D01*
X10385000Y-2300000D01*
X10450000Y-2365000D01*
X10450000Y-2865000D02*
X10515000Y-2800000D01*
X10450000Y-2735000D01*
X10385000Y-2800000D01*
X10450000Y-2865000D01*
X10450000Y-3365000D02*
X10515000Y-3300000D01*
X10450000Y-3235000D01*
X10385000Y-3300000D01*
X10450000Y-3365000D01*
X10450000Y-3865000D02*
X10515000Y-3800000D01*
X10450000Y-3735000D01*
X10385000Y-3800000D01*
X10450000Y-3865000D01*
X10450000Y-4365000D02*
X10515000Y-4300000D01*
X10450000Y-4235000D01*
X10385000Y-4300000D01*
X10450000Y-4365000D01*
X10450000Y-5065000D02*
X10515000Y-5000000D01*
X10450000Y-4935000D01*
X10385000Y-5000000D01*
X10450000Y-5065000D01*
X10450000Y-5565000D02*
X10515000Y-5500000D01*
X10450000Y-5435000D01*
X10385000Y-5500000D01*
X10450000Y-5565000D01*
X10450000Y-6065000D02*
X10515000Y-6000000D01*
X10450000Y-5935000D01*
X10385000Y-6000000D01*
X10450000Y-6065000D01*
X10450000Y-6565000D02*
X10515000Y-6500000D01*
X10450000Y-6435000D01*
X10385000Y-6500000D01*
X10450000Y-6565000D01*
X10450000Y-7065000D02*
X10515000Y-7000000D01*
X10450000Y-6935000D01*
X10385000Y-7000000D01*
X10450000Y-7065000D01*
X10450000Y-7565000D02*
X10515000Y-7500000D01*
X10450000Y-7435000D01*
X10385000Y-7500000D01*
X10450000Y-7565000D01*
X10450000Y-8065000D02*
X10515000Y-8000000D01*
X10450000Y-7935000D01*
X10385000Y-8000000D01*
X10450000Y-8065000D01*
X10450000Y-8765000D02*
X10515000Y-8700000D01*
X10450000Y-8635000D01*
X10385000Y-8700000D01*
X10450000Y-8765000D01*
X10450000Y-9265000D02*
X10515000Y-9200000D01*
X10450000Y-9135000D01*
X10385000Y-9200000D01*
X10450000Y-9265000D01*
X10450000Y-9765000D02*
X10515000Y-9700000D01*
X10450000Y-9635000D01*
X10385000Y-9700000D01*
X10450000Y-9765000D01*
X10450000Y-10265000D02*
X10515000Y-10200000D01*
X10450000Y-10135000D01*
X10385000Y-10200000D01*
X10450000Y-10265000D01*
X10450000Y-10765000D02*
X10515000Y-10700000D01*
X10450000Y-10635000D01*
X10385000Y-10700000D01*
X10450000Y-10765000D01*
X10450000Y-11265000D02*
X10515000Y-11200000D01*
X10450000Y-11135000D01*
X10385000Y-11200000D01*
X10450000Y-11265000D01*
X10450000Y-11765000D02*
X10515000Y-11700000D01*
X10450000Y-11635000D01*
X10385000Y-11700000D01*
X10450000Y-11765000D01*
X10450000Y-14015000D02*
X10515000Y-13950000D01*
X10450000Y-13885000D01*
X10385000Y-13950000D01*
X10450000Y-14015000D01*
X10450000Y-14515000D02*
X10515000Y-14450000D01*
X10450000Y-14385000D01*
X10385000Y-14450000D01*
X10450000Y-14515000D01*
X10450000Y-15015000D02*
X10515000Y-14950000D01*
X10450000Y-14885000D01*
X10385000Y-14950000D01*
X10450000Y-15015000D01*
X10450000Y-15515000D02*
X10515000Y-15450000D01*
X10450000Y-15385000D01*
X10385000Y-15450000D01*
X10450000Y-15515000D01*
X10450000Y-16015000D02*
X10515000Y-15950000D01*
X10450000Y-15885000D01*
X10385000Y-15950000D01*
X10450000Y-16015000D01*
X10450000Y-16515000D02*
X10515000Y-16450000D01*
X10450000Y-16385000D01*
X10385000Y-16450000D01*
X10450000Y-16515000D01*
D12*
X-744881Y-17312976D02*
X-744881Y-17112976D01*
X-697262Y-17112976D01*
X-668690Y-17122500D01*
X-649643Y-17141548D01*
X-640119Y-17160595D01*
X-630595Y-17198690D01*
X-630595Y-17227262D01*
X-640119Y-17265357D01*
X-649643Y-17284405D01*
X-668690Y-17303452D01*
X-697262Y-17312976D01*
X-744881Y-17312976D01*
X-544881Y-17312976D02*
X-544881Y-17179643D01*
X-544881Y-17217738D02*
X-535357Y-17198690D01*
X-525833Y-17189167D01*
X-506786Y-17179643D01*
X-487738Y-17179643D01*
X-421071Y-17312976D02*
X-421071Y-17179643D01*
X-421071Y-17112976D02*
X-430595Y-17122500D01*
X-421071Y-17132024D01*
X-411548Y-17122500D01*
X-421071Y-17112976D01*
X-421071Y-17132024D01*
X-297262Y-17312976D02*
X-316310Y-17303452D01*
X-325833Y-17284405D01*
X-325833Y-17112976D01*
X-192500Y-17312976D02*
X-211548Y-17303452D01*
X-221071Y-17284405D01*
X-221071Y-17112976D01*
X36071Y-17312976D02*
X36071Y-17112976D01*
X102738Y-17255833D01*
X169405Y-17112976D01*
X169405Y-17312976D01*
X350357Y-17312976D02*
X350357Y-17208214D01*
X340833Y-17189167D01*
X321786Y-17179643D01*
X283690Y-17179643D01*
X264643Y-17189167D01*
X350357Y-17303452D02*
X331310Y-17312976D01*
X283690Y-17312976D01*
X264643Y-17303452D01*
X255119Y-17284405D01*
X255119Y-17265357D01*
X264643Y-17246310D01*
X283690Y-17236786D01*
X331310Y-17236786D01*
X350357Y-17227262D01*
X445595Y-17179643D02*
X445595Y-17379643D01*
X445595Y-17189167D02*
X464643Y-17179643D01*
X502738Y-17179643D01*
X521786Y-17189167D01*
X531310Y-17198690D01*
X540833Y-17217738D01*
X540833Y-17274881D01*
X531310Y-17293929D01*
X521786Y-17303452D01*
X502738Y-17312976D01*
X464643Y-17312976D01*
X445595Y-17303452D01*
X626548Y-17293929D02*
X636071Y-17303452D01*
X626548Y-17312976D01*
X617024Y-17303452D01*
X626548Y-17293929D01*
X626548Y-17312976D01*
X626548Y-17189167D02*
X636071Y-17198690D01*
X626548Y-17208214D01*
X617024Y-17198690D01*
X626548Y-17189167D01*
X626548Y-17208214D01*
D13*
X-1032500Y-17627500D02*
X-1002500Y-17657500D01*
X-1002500Y-17627500D02*
X-1032500Y-17657500D01*
D12*
X-706786Y-17532976D02*
X-687738Y-17532976D01*
X-668690Y-17542500D01*
X-659167Y-17552024D01*
X-649643Y-17571071D01*
X-640119Y-17609167D01*
X-640119Y-17656786D01*
X-649643Y-17694881D01*
X-659167Y-17713929D01*
X-668690Y-17723452D01*
X-687738Y-17732976D01*
X-706786Y-17732976D01*
X-725833Y-17723452D01*
X-735357Y-17713929D01*
X-744881Y-17694881D01*
X-754405Y-17656786D01*
X-754405Y-17609167D01*
X-744881Y-17571071D01*
X-735357Y-17552024D01*
X-725833Y-17542500D01*
X-706786Y-17532976D01*
X-554405Y-17713929D02*
X-544881Y-17723452D01*
X-554405Y-17732976D01*
X-563929Y-17723452D01*
X-554405Y-17713929D01*
X-554405Y-17732976D01*
X-478214Y-17532976D02*
X-354405Y-17532976D01*
X-421071Y-17609167D01*
X-392500Y-17609167D01*
X-373452Y-17618690D01*
X-363928Y-17628214D01*
X-354405Y-17647262D01*
X-354405Y-17694881D01*
X-363928Y-17713929D01*
X-373452Y-17723452D01*
X-392500Y-17732976D01*
X-449643Y-17732976D01*
X-468690Y-17723452D01*
X-478214Y-17713929D01*
X-230595Y-17532976D02*
X-211548Y-17532976D01*
X-192500Y-17542500D01*
X-182976Y-17552024D01*
X-173452Y-17571071D01*
X-163929Y-17609167D01*
X-163929Y-17656786D01*
X-173452Y-17694881D01*
X-182976Y-17713929D01*
X-192500Y-17723452D01*
X-211548Y-17732976D01*
X-230595Y-17732976D01*
X-249643Y-17723452D01*
X-259167Y-17713929D01*
X-268690Y-17694881D01*
X-278214Y-17656786D01*
X-278214Y-17609167D01*
X-268690Y-17571071D01*
X-259167Y-17552024D01*
X-249643Y-17542500D01*
X-230595Y-17532976D01*
X-40119Y-17532976D02*
X-21071Y-17532976D01*
X-2024Y-17542500D01*
X7500Y-17552024D01*
X17024Y-17571071D01*
X26548Y-17609167D01*
X26548Y-17656786D01*
X17024Y-17694881D01*
X7500Y-17713929D01*
X-2024Y-17723452D01*
X-21071Y-17732976D01*
X-40119Y-17732976D01*
X-59167Y-17723452D01*
X-68690Y-17713929D01*
X-78214Y-17694881D01*
X-87738Y-17656786D01*
X-87738Y-17609167D01*
X-78214Y-17571071D01*
X-68690Y-17552024D01*
X-59167Y-17542500D01*
X-40119Y-17532976D01*
X112262Y-17732976D02*
X112262Y-17599643D01*
X112262Y-17618690D02*
X121786Y-17609167D01*
X140833Y-17599643D01*
X169405Y-17599643D01*
X188452Y-17609167D01*
X197976Y-17628214D01*
X197976Y-17732976D01*
X197976Y-17628214D02*
X207500Y-17609167D01*
X226548Y-17599643D01*
X255119Y-17599643D01*
X274167Y-17609167D01*
X283690Y-17628214D01*
X283690Y-17732976D01*
X378928Y-17732976D02*
X378928Y-17599643D01*
X378928Y-17618690D02*
X388452Y-17609167D01*
X407500Y-17599643D01*
X436071Y-17599643D01*
X455119Y-17609167D01*
X464643Y-17628214D01*
X464643Y-17732976D01*
X464643Y-17628214D02*
X474167Y-17609167D01*
X493214Y-17599643D01*
X521786Y-17599643D01*
X540833Y-17609167D01*
X550357Y-17628214D01*
X550357Y-17732976D01*
X940833Y-17523452D02*
X769405Y-17780595D01*
X1197976Y-17532976D02*
X1217024Y-17532976D01*
X1236071Y-17542500D01*
X1245595Y-17552024D01*
X1255119Y-17571071D01*
X1264643Y-17609167D01*
X1264643Y-17656786D01*
X1255119Y-17694881D01*
X1245595Y-17713929D01*
X1236071Y-17723452D01*
X1217024Y-17732976D01*
X1197976Y-17732976D01*
X1178929Y-17723452D01*
X1169405Y-17713929D01*
X1159881Y-17694881D01*
X1150357Y-17656786D01*
X1150357Y-17609167D01*
X1159881Y-17571071D01*
X1169405Y-17552024D01*
X1178929Y-17542500D01*
X1197976Y-17532976D01*
X1350357Y-17713929D02*
X1359881Y-17723452D01*
X1350357Y-17732976D01*
X1340833Y-17723452D01*
X1350357Y-17713929D01*
X1350357Y-17732976D01*
X1483690Y-17532976D02*
X1502738Y-17532976D01*
X1521786Y-17542500D01*
X1531309Y-17552024D01*
X1540833Y-17571071D01*
X1550357Y-17609167D01*
X1550357Y-17656786D01*
X1540833Y-17694881D01*
X1531309Y-17713929D01*
X1521786Y-17723452D01*
X1502738Y-17732976D01*
X1483690Y-17732976D01*
X1464643Y-17723452D01*
X1455119Y-17713929D01*
X1445595Y-17694881D01*
X1436071Y-17656786D01*
X1436071Y-17609167D01*
X1445595Y-17571071D01*
X1455119Y-17552024D01*
X1464643Y-17542500D01*
X1483690Y-17532976D01*
X1740833Y-17732976D02*
X1626548Y-17732976D01*
X1683690Y-17732976D02*
X1683690Y-17532976D01*
X1664643Y-17561548D01*
X1645595Y-17580595D01*
X1626548Y-17590119D01*
X1931309Y-17732976D02*
X1817024Y-17732976D01*
X1874167Y-17732976D02*
X1874167Y-17532976D01*
X1855119Y-17561548D01*
X1836071Y-17580595D01*
X1817024Y-17590119D01*
X2045595Y-17618690D02*
X2026548Y-17609167D01*
X2017024Y-17599643D01*
X2007500Y-17580595D01*
X2007500Y-17571071D01*
X2017024Y-17552024D01*
X2026548Y-17542500D01*
X2045595Y-17532976D01*
X2083690Y-17532976D01*
X2102738Y-17542500D01*
X2112262Y-17552024D01*
X2121786Y-17571071D01*
X2121786Y-17580595D01*
X2112262Y-17599643D01*
X2102738Y-17609167D01*
X2083690Y-17618690D01*
X2045595Y-17618690D01*
X2026548Y-17628214D01*
X2017024Y-17637738D01*
X2007500Y-17656786D01*
X2007500Y-17694881D01*
X2017024Y-17713929D01*
X2026548Y-17723452D01*
X2045595Y-17732976D01*
X2083690Y-17732976D01*
X2102738Y-17723452D01*
X2112262Y-17713929D01*
X2121786Y-17694881D01*
X2121786Y-17656786D01*
X2112262Y-17637738D01*
X2102738Y-17628214D01*
X2083690Y-17618690D01*
X2197976Y-17532976D02*
X2197976Y-17571071D01*
X2274167Y-17532976D02*
X2274167Y-17571071D01*
X2569405Y-17809167D02*
X2559881Y-17799643D01*
X2540833Y-17771071D01*
X2531310Y-17752024D01*
X2521786Y-17723452D01*
X2512262Y-17675833D01*
X2512262Y-17637738D01*
X2521786Y-17590119D01*
X2531310Y-17561548D01*
X2540833Y-17542500D01*
X2559881Y-17513929D01*
X2569405Y-17504405D01*
X2731310Y-17599643D02*
X2731310Y-17732976D01*
X2683690Y-17523452D02*
X2636071Y-17666310D01*
X2759881Y-17666310D01*
X2931309Y-17532976D02*
X2836071Y-17532976D01*
X2826548Y-17628214D01*
X2836071Y-17618690D01*
X2855119Y-17609167D01*
X2902738Y-17609167D01*
X2921786Y-17618690D01*
X2931309Y-17628214D01*
X2940833Y-17647262D01*
X2940833Y-17694881D01*
X2931309Y-17713929D01*
X2921786Y-17723452D01*
X2902738Y-17732976D01*
X2855119Y-17732976D01*
X2836071Y-17723452D01*
X2826548Y-17713929D01*
X3178928Y-17732976D02*
X3178928Y-17532976D01*
X3264643Y-17732976D02*
X3264643Y-17628214D01*
X3255119Y-17609167D01*
X3236071Y-17599643D01*
X3207500Y-17599643D01*
X3188452Y-17609167D01*
X3178928Y-17618690D01*
X3388452Y-17732976D02*
X3369405Y-17723452D01*
X3359881Y-17713929D01*
X3350357Y-17694881D01*
X3350357Y-17637738D01*
X3359881Y-17618690D01*
X3369405Y-17609167D01*
X3388452Y-17599643D01*
X3417024Y-17599643D01*
X3436071Y-17609167D01*
X3445595Y-17618690D01*
X3455119Y-17637738D01*
X3455119Y-17694881D01*
X3445595Y-17713929D01*
X3436071Y-17723452D01*
X3417024Y-17732976D01*
X3388452Y-17732976D01*
X3569405Y-17732976D02*
X3550357Y-17723452D01*
X3540833Y-17704405D01*
X3540833Y-17532976D01*
X3721786Y-17723452D02*
X3702738Y-17732976D01*
X3664643Y-17732976D01*
X3645595Y-17723452D01*
X3636071Y-17704405D01*
X3636071Y-17628214D01*
X3645595Y-17609167D01*
X3664643Y-17599643D01*
X3702738Y-17599643D01*
X3721786Y-17609167D01*
X3731309Y-17628214D01*
X3731309Y-17647262D01*
X3636071Y-17666310D01*
X3807500Y-17723452D02*
X3826548Y-17732976D01*
X3864643Y-17732976D01*
X3883690Y-17723452D01*
X3893214Y-17704405D01*
X3893214Y-17694881D01*
X3883690Y-17675833D01*
X3864643Y-17666310D01*
X3836071Y-17666310D01*
X3817024Y-17656786D01*
X3807500Y-17637738D01*
X3807500Y-17628214D01*
X3817024Y-17609167D01*
X3836071Y-17599643D01*
X3864643Y-17599643D01*
X3883690Y-17609167D01*
X3959881Y-17809167D02*
X3969405Y-17799643D01*
X3988452Y-17771071D01*
X3997976Y-17752024D01*
X4007500Y-17723452D01*
X4017024Y-17675833D01*
X4017024Y-17637738D01*
X4007500Y-17590119D01*
X3997976Y-17561548D01*
X3988452Y-17542500D01*
X3969405Y-17513929D01*
X3959881Y-17504405D01*
D14*
X-1002500Y-17906500D02*
G75*
G03*
X-1002500Y-17906500I-20000J0D01*
G01*
D12*
X-706786Y-17796976D02*
X-687738Y-17796976D01*
X-668690Y-17806500D01*
X-659167Y-17816024D01*
X-649643Y-17835071D01*
X-640119Y-17873167D01*
X-640119Y-17920786D01*
X-649643Y-17958881D01*
X-659167Y-17977929D01*
X-668690Y-17987452D01*
X-687738Y-17996976D01*
X-706786Y-17996976D01*
X-725833Y-17987452D01*
X-735357Y-17977929D01*
X-744881Y-17958881D01*
X-754405Y-17920786D01*
X-754405Y-17873167D01*
X-744881Y-17835071D01*
X-735357Y-17816024D01*
X-725833Y-17806500D01*
X-706786Y-17796976D01*
X-554405Y-17977929D02*
X-544881Y-17987452D01*
X-554405Y-17996976D01*
X-563929Y-17987452D01*
X-554405Y-17977929D01*
X-554405Y-17996976D01*
X-373452Y-17863643D02*
X-373452Y-17996976D01*
X-421071Y-17787452D02*
X-468690Y-17930310D01*
X-344881Y-17930310D01*
X-230595Y-17796976D02*
X-211548Y-17796976D01*
X-192500Y-17806500D01*
X-182976Y-17816024D01*
X-173452Y-17835071D01*
X-163929Y-17873167D01*
X-163929Y-17920786D01*
X-173452Y-17958881D01*
X-182976Y-17977929D01*
X-192500Y-17987452D01*
X-211548Y-17996976D01*
X-230595Y-17996976D01*
X-249643Y-17987452D01*
X-259167Y-17977929D01*
X-268690Y-17958881D01*
X-278214Y-17920786D01*
X-278214Y-17873167D01*
X-268690Y-17835071D01*
X-259167Y-17816024D01*
X-249643Y-17806500D01*
X-230595Y-17796976D01*
X-40119Y-17796976D02*
X-21071Y-17796976D01*
X-2024Y-17806500D01*
X7500Y-17816024D01*
X17024Y-17835071D01*
X26548Y-17873167D01*
X26548Y-17920786D01*
X17024Y-17958881D01*
X7500Y-17977929D01*
X-2024Y-17987452D01*
X-21071Y-17996976D01*
X-40119Y-17996976D01*
X-59167Y-17987452D01*
X-68690Y-17977929D01*
X-78214Y-17958881D01*
X-87738Y-17920786D01*
X-87738Y-17873167D01*
X-78214Y-17835071D01*
X-68690Y-17816024D01*
X-59167Y-17806500D01*
X-40119Y-17796976D01*
X112262Y-17996976D02*
X112262Y-17863643D01*
X112262Y-17882690D02*
X121786Y-17873167D01*
X140833Y-17863643D01*
X169405Y-17863643D01*
X188452Y-17873167D01*
X197976Y-17892214D01*
X197976Y-17996976D01*
X197976Y-17892214D02*
X207500Y-17873167D01*
X226548Y-17863643D01*
X255119Y-17863643D01*
X274167Y-17873167D01*
X283690Y-17892214D01*
X283690Y-17996976D01*
X378928Y-17996976D02*
X378928Y-17863643D01*
X378928Y-17882690D02*
X388452Y-17873167D01*
X407500Y-17863643D01*
X436071Y-17863643D01*
X455119Y-17873167D01*
X464643Y-17892214D01*
X464643Y-17996976D01*
X464643Y-17892214D02*
X474167Y-17873167D01*
X493214Y-17863643D01*
X521786Y-17863643D01*
X540833Y-17873167D01*
X550357Y-17892214D01*
X550357Y-17996976D01*
X940833Y-17787452D02*
X769405Y-18044595D01*
X1197976Y-17796976D02*
X1217024Y-17796976D01*
X1236071Y-17806500D01*
X1245595Y-17816024D01*
X1255119Y-17835071D01*
X1264643Y-17873167D01*
X1264643Y-17920786D01*
X1255119Y-17958881D01*
X1245595Y-17977929D01*
X1236071Y-17987452D01*
X1217024Y-17996976D01*
X1197976Y-17996976D01*
X1178929Y-17987452D01*
X1169405Y-17977929D01*
X1159881Y-17958881D01*
X1150357Y-17920786D01*
X1150357Y-17873167D01*
X1159881Y-17835071D01*
X1169405Y-17816024D01*
X1178929Y-17806500D01*
X1197976Y-17796976D01*
X1350357Y-17977929D02*
X1359881Y-17987452D01*
X1350357Y-17996976D01*
X1340833Y-17987452D01*
X1350357Y-17977929D01*
X1350357Y-17996976D01*
X1483690Y-17796976D02*
X1502738Y-17796976D01*
X1521786Y-17806500D01*
X1531309Y-17816024D01*
X1540833Y-17835071D01*
X1550357Y-17873167D01*
X1550357Y-17920786D01*
X1540833Y-17958881D01*
X1531309Y-17977929D01*
X1521786Y-17987452D01*
X1502738Y-17996976D01*
X1483690Y-17996976D01*
X1464643Y-17987452D01*
X1455119Y-17977929D01*
X1445595Y-17958881D01*
X1436071Y-17920786D01*
X1436071Y-17873167D01*
X1445595Y-17835071D01*
X1455119Y-17816024D01*
X1464643Y-17806500D01*
X1483690Y-17796976D01*
X1740833Y-17996976D02*
X1626548Y-17996976D01*
X1683690Y-17996976D02*
X1683690Y-17796976D01*
X1664643Y-17825548D01*
X1645595Y-17844595D01*
X1626548Y-17854119D01*
X1921786Y-17796976D02*
X1826548Y-17796976D01*
X1817024Y-17892214D01*
X1826548Y-17882690D01*
X1845595Y-17873167D01*
X1893214Y-17873167D01*
X1912262Y-17882690D01*
X1921786Y-17892214D01*
X1931309Y-17911262D01*
X1931309Y-17958881D01*
X1921786Y-17977929D01*
X1912262Y-17987452D01*
X1893214Y-17996976D01*
X1845595Y-17996976D01*
X1826548Y-17987452D01*
X1817024Y-17977929D01*
X1997976Y-17796976D02*
X2131310Y-17796976D01*
X2045595Y-17996976D01*
X2197976Y-17796976D02*
X2197976Y-17835071D01*
X2274167Y-17796976D02*
X2274167Y-17835071D01*
X2569405Y-18073167D02*
X2559881Y-18063643D01*
X2540833Y-18035071D01*
X2531310Y-18016024D01*
X2521786Y-17987452D01*
X2512262Y-17939833D01*
X2512262Y-17901738D01*
X2521786Y-17854119D01*
X2531310Y-17825548D01*
X2540833Y-17806500D01*
X2559881Y-17777929D01*
X2569405Y-17768405D01*
X2731310Y-17863643D02*
X2731310Y-17996976D01*
X2683690Y-17787452D02*
X2636071Y-17930310D01*
X2759881Y-17930310D01*
X2940833Y-17996976D02*
X2826548Y-17996976D01*
X2883690Y-17996976D02*
X2883690Y-17796976D01*
X2864643Y-17825548D01*
X2845595Y-17844595D01*
X2826548Y-17854119D01*
X3017024Y-17816024D02*
X3026548Y-17806500D01*
X3045595Y-17796976D01*
X3093214Y-17796976D01*
X3112262Y-17806500D01*
X3121786Y-17816024D01*
X3131309Y-17835071D01*
X3131309Y-17854119D01*
X3121786Y-17882690D01*
X3007500Y-17996976D01*
X3131309Y-17996976D01*
X3369405Y-17996976D02*
X3369405Y-17796976D01*
X3455119Y-17996976D02*
X3455119Y-17892214D01*
X3445595Y-17873167D01*
X3426548Y-17863643D01*
X3397976Y-17863643D01*
X3378928Y-17873167D01*
X3369405Y-17882690D01*
X3578928Y-17996976D02*
X3559881Y-17987452D01*
X3550357Y-17977929D01*
X3540833Y-17958881D01*
X3540833Y-17901738D01*
X3550357Y-17882690D01*
X3559881Y-17873167D01*
X3578928Y-17863643D01*
X3607500Y-17863643D01*
X3626548Y-17873167D01*
X3636071Y-17882690D01*
X3645595Y-17901738D01*
X3645595Y-17958881D01*
X3636071Y-17977929D01*
X3626548Y-17987452D01*
X3607500Y-17996976D01*
X3578928Y-17996976D01*
X3759881Y-17996976D02*
X3740833Y-17987452D01*
X3731309Y-17968405D01*
X3731309Y-17796976D01*
X3912262Y-17987452D02*
X3893214Y-17996976D01*
X3855119Y-17996976D01*
X3836071Y-17987452D01*
X3826548Y-17968405D01*
X3826548Y-17892214D01*
X3836071Y-17873167D01*
X3855119Y-17863643D01*
X3893214Y-17863643D01*
X3912262Y-17873167D01*
X3921786Y-17892214D01*
X3921786Y-17911262D01*
X3826548Y-17930310D01*
X3997976Y-17987452D02*
X4017024Y-17996976D01*
X4055119Y-17996976D01*
X4074167Y-17987452D01*
X4083690Y-17968405D01*
X4083690Y-17958881D01*
X4074167Y-17939833D01*
X4055119Y-17930310D01*
X4026548Y-17930310D01*
X4007500Y-17920786D01*
X3997976Y-17901738D01*
X3997976Y-17892214D01*
X4007500Y-17873167D01*
X4026548Y-17863643D01*
X4055119Y-17863643D01*
X4074167Y-17873167D01*
X4150357Y-18073167D02*
X4159881Y-18063643D01*
X4178928Y-18035071D01*
X4188452Y-18016024D01*
X4197976Y-17987452D01*
X4207500Y-17939833D01*
X4207500Y-17901738D01*
X4197976Y-17854119D01*
X4188452Y-17825548D01*
X4178928Y-17806500D01*
X4159881Y-17777929D01*
X4150357Y-17768405D01*
D15*
X-1042500Y-18130500D02*
X-1042500Y-18210500D01*
X-1082500Y-18170500D02*
X-1002500Y-18170500D01*
D12*
X-706786Y-18060976D02*
X-687738Y-18060976D01*
X-668690Y-18070500D01*
X-659167Y-18080024D01*
X-649643Y-18099071D01*
X-640119Y-18137167D01*
X-640119Y-18184786D01*
X-649643Y-18222881D01*
X-659167Y-18241929D01*
X-668690Y-18251452D01*
X-687738Y-18260976D01*
X-706786Y-18260976D01*
X-725833Y-18251452D01*
X-735357Y-18241929D01*
X-744881Y-18222881D01*
X-754405Y-18184786D01*
X-754405Y-18137167D01*
X-744881Y-18099071D01*
X-735357Y-18080024D01*
X-725833Y-18070500D01*
X-706786Y-18060976D01*
X-554405Y-18241929D02*
X-544881Y-18251452D01*
X-554405Y-18260976D01*
X-563929Y-18251452D01*
X-554405Y-18241929D01*
X-554405Y-18260976D01*
X-430595Y-18146690D02*
X-449643Y-18137167D01*
X-459167Y-18127643D01*
X-468690Y-18108595D01*
X-468690Y-18099071D01*
X-459167Y-18080024D01*
X-449643Y-18070500D01*
X-430595Y-18060976D01*
X-392500Y-18060976D01*
X-373452Y-18070500D01*
X-363928Y-18080024D01*
X-354405Y-18099071D01*
X-354405Y-18108595D01*
X-363928Y-18127643D01*
X-373452Y-18137167D01*
X-392500Y-18146690D01*
X-430595Y-18146690D01*
X-449643Y-18156214D01*
X-459167Y-18165738D01*
X-468690Y-18184786D01*
X-468690Y-18222881D01*
X-459167Y-18241929D01*
X-449643Y-18251452D01*
X-430595Y-18260976D01*
X-392500Y-18260976D01*
X-373452Y-18251452D01*
X-363928Y-18241929D01*
X-354405Y-18222881D01*
X-354405Y-18184786D01*
X-363928Y-18165738D01*
X-373452Y-18156214D01*
X-392500Y-18146690D01*
X-230595Y-18060976D02*
X-211548Y-18060976D01*
X-192500Y-18070500D01*
X-182976Y-18080024D01*
X-173452Y-18099071D01*
X-163929Y-18137167D01*
X-163929Y-18184786D01*
X-173452Y-18222881D01*
X-182976Y-18241929D01*
X-192500Y-18251452D01*
X-211548Y-18260976D01*
X-230595Y-18260976D01*
X-249643Y-18251452D01*
X-259167Y-18241929D01*
X-268690Y-18222881D01*
X-278214Y-18184786D01*
X-278214Y-18137167D01*
X-268690Y-18099071D01*
X-259167Y-18080024D01*
X-249643Y-18070500D01*
X-230595Y-18060976D01*
X-40119Y-18060976D02*
X-21071Y-18060976D01*
X-2024Y-18070500D01*
X7500Y-18080024D01*
X17024Y-18099071D01*
X26548Y-18137167D01*
X26548Y-18184786D01*
X17024Y-18222881D01*
X7500Y-18241929D01*
X-2024Y-18251452D01*
X-21071Y-18260976D01*
X-40119Y-18260976D01*
X-59167Y-18251452D01*
X-68690Y-18241929D01*
X-78214Y-18222881D01*
X-87738Y-18184786D01*
X-87738Y-18137167D01*
X-78214Y-18099071D01*
X-68690Y-18080024D01*
X-59167Y-18070500D01*
X-40119Y-18060976D01*
X112262Y-18260976D02*
X112262Y-18127643D01*
X112262Y-18146690D02*
X121786Y-18137167D01*
X140833Y-18127643D01*
X169405Y-18127643D01*
X188452Y-18137167D01*
X197976Y-18156214D01*
X197976Y-18260976D01*
X197976Y-18156214D02*
X207500Y-18137167D01*
X226548Y-18127643D01*
X255119Y-18127643D01*
X274167Y-18137167D01*
X283690Y-18156214D01*
X283690Y-18260976D01*
X378928Y-18260976D02*
X378928Y-18127643D01*
X378928Y-18146690D02*
X388452Y-18137167D01*
X407500Y-18127643D01*
X436071Y-18127643D01*
X455119Y-18137167D01*
X464643Y-18156214D01*
X464643Y-18260976D01*
X464643Y-18156214D02*
X474167Y-18137167D01*
X493214Y-18127643D01*
X521786Y-18127643D01*
X540833Y-18137167D01*
X550357Y-18156214D01*
X550357Y-18260976D01*
X940833Y-18051452D02*
X769405Y-18308595D01*
X1197976Y-18060976D02*
X1217024Y-18060976D01*
X1236071Y-18070500D01*
X1245595Y-18080024D01*
X1255119Y-18099071D01*
X1264643Y-18137167D01*
X1264643Y-18184786D01*
X1255119Y-18222881D01*
X1245595Y-18241929D01*
X1236071Y-18251452D01*
X1217024Y-18260976D01*
X1197976Y-18260976D01*
X1178929Y-18251452D01*
X1169405Y-18241929D01*
X1159881Y-18222881D01*
X1150357Y-18184786D01*
X1150357Y-18137167D01*
X1159881Y-18099071D01*
X1169405Y-18080024D01*
X1178929Y-18070500D01*
X1197976Y-18060976D01*
X1350357Y-18241929D02*
X1359881Y-18251452D01*
X1350357Y-18260976D01*
X1340833Y-18251452D01*
X1350357Y-18241929D01*
X1350357Y-18260976D01*
X1483690Y-18060976D02*
X1502738Y-18060976D01*
X1521786Y-18070500D01*
X1531309Y-18080024D01*
X1540833Y-18099071D01*
X1550357Y-18137167D01*
X1550357Y-18184786D01*
X1540833Y-18222881D01*
X1531309Y-18241929D01*
X1521786Y-18251452D01*
X1502738Y-18260976D01*
X1483690Y-18260976D01*
X1464643Y-18251452D01*
X1455119Y-18241929D01*
X1445595Y-18222881D01*
X1436071Y-18184786D01*
X1436071Y-18137167D01*
X1445595Y-18099071D01*
X1455119Y-18080024D01*
X1464643Y-18070500D01*
X1483690Y-18060976D01*
X1617024Y-18060976D02*
X1740833Y-18060976D01*
X1674167Y-18137167D01*
X1702738Y-18137167D01*
X1721786Y-18146690D01*
X1731309Y-18156214D01*
X1740833Y-18175262D01*
X1740833Y-18222881D01*
X1731309Y-18241929D01*
X1721786Y-18251452D01*
X1702738Y-18260976D01*
X1645595Y-18260976D01*
X1626548Y-18251452D01*
X1617024Y-18241929D01*
X1931309Y-18260976D02*
X1817024Y-18260976D01*
X1874167Y-18260976D02*
X1874167Y-18060976D01*
X1855119Y-18089548D01*
X1836071Y-18108595D01*
X1817024Y-18118119D01*
X2112262Y-18060976D02*
X2017024Y-18060976D01*
X2007500Y-18156214D01*
X2017024Y-18146690D01*
X2036071Y-18137167D01*
X2083690Y-18137167D01*
X2102738Y-18146690D01*
X2112262Y-18156214D01*
X2121786Y-18175262D01*
X2121786Y-18222881D01*
X2112262Y-18241929D01*
X2102738Y-18251452D01*
X2083690Y-18260976D01*
X2036071Y-18260976D01*
X2017024Y-18251452D01*
X2007500Y-18241929D01*
X2197976Y-18060976D02*
X2197976Y-18099071D01*
X2274167Y-18060976D02*
X2274167Y-18099071D01*
X2569405Y-18337167D02*
X2559881Y-18327643D01*
X2540833Y-18299071D01*
X2531310Y-18280024D01*
X2521786Y-18251452D01*
X2512262Y-18203833D01*
X2512262Y-18165738D01*
X2521786Y-18118119D01*
X2531310Y-18089548D01*
X2540833Y-18070500D01*
X2559881Y-18041929D01*
X2569405Y-18032405D01*
X2750357Y-18260976D02*
X2636071Y-18260976D01*
X2693214Y-18260976D02*
X2693214Y-18060976D01*
X2674167Y-18089548D01*
X2655119Y-18108595D01*
X2636071Y-18118119D01*
X2931309Y-18060976D02*
X2836071Y-18060976D01*
X2826548Y-18156214D01*
X2836071Y-18146690D01*
X2855119Y-18137167D01*
X2902738Y-18137167D01*
X2921786Y-18146690D01*
X2931309Y-18156214D01*
X2940833Y-18175262D01*
X2940833Y-18222881D01*
X2931309Y-18241929D01*
X2921786Y-18251452D01*
X2902738Y-18260976D01*
X2855119Y-18260976D01*
X2836071Y-18251452D01*
X2826548Y-18241929D01*
X3178928Y-18260976D02*
X3178928Y-18060976D01*
X3264643Y-18260976D02*
X3264643Y-18156214D01*
X3255119Y-18137167D01*
X3236071Y-18127643D01*
X3207500Y-18127643D01*
X3188452Y-18137167D01*
X3178928Y-18146690D01*
X3388452Y-18260976D02*
X3369405Y-18251452D01*
X3359881Y-18241929D01*
X3350357Y-18222881D01*
X3350357Y-18165738D01*
X3359881Y-18146690D01*
X3369405Y-18137167D01*
X3388452Y-18127643D01*
X3417024Y-18127643D01*
X3436071Y-18137167D01*
X3445595Y-18146690D01*
X3455119Y-18165738D01*
X3455119Y-18222881D01*
X3445595Y-18241929D01*
X3436071Y-18251452D01*
X3417024Y-18260976D01*
X3388452Y-18260976D01*
X3569405Y-18260976D02*
X3550357Y-18251452D01*
X3540833Y-18232405D01*
X3540833Y-18060976D01*
X3721786Y-18251452D02*
X3702738Y-18260976D01*
X3664643Y-18260976D01*
X3645595Y-18251452D01*
X3636071Y-18232405D01*
X3636071Y-18156214D01*
X3645595Y-18137167D01*
X3664643Y-18127643D01*
X3702738Y-18127643D01*
X3721786Y-18137167D01*
X3731309Y-18156214D01*
X3731309Y-18175262D01*
X3636071Y-18194310D01*
X3807500Y-18251452D02*
X3826548Y-18260976D01*
X3864643Y-18260976D01*
X3883690Y-18251452D01*
X3893214Y-18232405D01*
X3893214Y-18222881D01*
X3883690Y-18203833D01*
X3864643Y-18194310D01*
X3836071Y-18194310D01*
X3817024Y-18184786D01*
X3807500Y-18165738D01*
X3807500Y-18156214D01*
X3817024Y-18137167D01*
X3836071Y-18127643D01*
X3864643Y-18127643D01*
X3883690Y-18137167D01*
X3959881Y-18337167D02*
X3969405Y-18327643D01*
X3988452Y-18299071D01*
X3997976Y-18280024D01*
X4007500Y-18251452D01*
X4017024Y-18203833D01*
X4017024Y-18165738D01*
X4007500Y-18118119D01*
X3997976Y-18089548D01*
X3988452Y-18070500D01*
X3969405Y-18041929D01*
X3959881Y-18032405D01*
D16*
X-1017144Y-18469856D02*
X-1017144Y-18399144D01*
X-1087856Y-18399144D01*
X-1087856Y-18469856D01*
X-1017144Y-18469856D01*
D12*
X-640119Y-18524976D02*
X-754405Y-18524976D01*
X-697262Y-18524976D02*
X-697262Y-18324976D01*
X-716309Y-18353548D01*
X-735357Y-18372595D01*
X-754405Y-18382119D01*
X-554405Y-18505929D02*
X-544881Y-18515452D01*
X-554405Y-18524976D01*
X-563929Y-18515452D01*
X-554405Y-18505929D01*
X-554405Y-18524976D01*
X-421071Y-18324976D02*
X-402024Y-18324976D01*
X-382976Y-18334500D01*
X-373452Y-18344024D01*
X-363928Y-18363071D01*
X-354405Y-18401167D01*
X-354405Y-18448786D01*
X-363928Y-18486881D01*
X-373452Y-18505929D01*
X-382976Y-18515452D01*
X-402024Y-18524976D01*
X-421071Y-18524976D01*
X-440119Y-18515452D01*
X-449643Y-18505929D01*
X-459167Y-18486881D01*
X-468690Y-18448786D01*
X-468690Y-18401167D01*
X-459167Y-18363071D01*
X-449643Y-18344024D01*
X-440119Y-18334500D01*
X-421071Y-18324976D01*
X-230595Y-18324976D02*
X-211548Y-18324976D01*
X-192500Y-18334500D01*
X-182976Y-18344024D01*
X-173452Y-18363071D01*
X-163929Y-18401167D01*
X-163929Y-18448786D01*
X-173452Y-18486881D01*
X-182976Y-18505929D01*
X-192500Y-18515452D01*
X-211548Y-18524976D01*
X-230595Y-18524976D01*
X-249643Y-18515452D01*
X-259167Y-18505929D01*
X-268690Y-18486881D01*
X-278214Y-18448786D01*
X-278214Y-18401167D01*
X-268690Y-18363071D01*
X-259167Y-18344024D01*
X-249643Y-18334500D01*
X-230595Y-18324976D01*
X-40119Y-18324976D02*
X-21071Y-18324976D01*
X-2024Y-18334500D01*
X7500Y-18344024D01*
X17024Y-18363071D01*
X26548Y-18401167D01*
X26548Y-18448786D01*
X17024Y-18486881D01*
X7500Y-18505929D01*
X-2024Y-18515452D01*
X-21071Y-18524976D01*
X-40119Y-18524976D01*
X-59167Y-18515452D01*
X-68690Y-18505929D01*
X-78214Y-18486881D01*
X-87738Y-18448786D01*
X-87738Y-18401167D01*
X-78214Y-18363071D01*
X-68690Y-18344024D01*
X-59167Y-18334500D01*
X-40119Y-18324976D01*
X112262Y-18524976D02*
X112262Y-18391643D01*
X112262Y-18410690D02*
X121786Y-18401167D01*
X140833Y-18391643D01*
X169405Y-18391643D01*
X188452Y-18401167D01*
X197976Y-18420214D01*
X197976Y-18524976D01*
X197976Y-18420214D02*
X207500Y-18401167D01*
X226548Y-18391643D01*
X255119Y-18391643D01*
X274167Y-18401167D01*
X283690Y-18420214D01*
X283690Y-18524976D01*
X378928Y-18524976D02*
X378928Y-18391643D01*
X378928Y-18410690D02*
X388452Y-18401167D01*
X407500Y-18391643D01*
X436071Y-18391643D01*
X455119Y-18401167D01*
X464643Y-18420214D01*
X464643Y-18524976D01*
X464643Y-18420214D02*
X474167Y-18401167D01*
X493214Y-18391643D01*
X521786Y-18391643D01*
X540833Y-18401167D01*
X550357Y-18420214D01*
X550357Y-18524976D01*
X940833Y-18315452D02*
X769405Y-18572595D01*
X1197976Y-18324976D02*
X1217024Y-18324976D01*
X1236071Y-18334500D01*
X1245595Y-18344024D01*
X1255119Y-18363071D01*
X1264643Y-18401167D01*
X1264643Y-18448786D01*
X1255119Y-18486881D01*
X1245595Y-18505929D01*
X1236071Y-18515452D01*
X1217024Y-18524976D01*
X1197976Y-18524976D01*
X1178929Y-18515452D01*
X1169405Y-18505929D01*
X1159881Y-18486881D01*
X1150357Y-18448786D01*
X1150357Y-18401167D01*
X1159881Y-18363071D01*
X1169405Y-18344024D01*
X1178929Y-18334500D01*
X1197976Y-18324976D01*
X1350357Y-18505929D02*
X1359881Y-18515452D01*
X1350357Y-18524976D01*
X1340833Y-18515452D01*
X1350357Y-18505929D01*
X1350357Y-18524976D01*
X1483690Y-18324976D02*
X1502738Y-18324976D01*
X1521786Y-18334500D01*
X1531309Y-18344024D01*
X1540833Y-18363071D01*
X1550357Y-18401167D01*
X1550357Y-18448786D01*
X1540833Y-18486881D01*
X1531309Y-18505929D01*
X1521786Y-18515452D01*
X1502738Y-18524976D01*
X1483690Y-18524976D01*
X1464643Y-18515452D01*
X1455119Y-18505929D01*
X1445595Y-18486881D01*
X1436071Y-18448786D01*
X1436071Y-18401167D01*
X1445595Y-18363071D01*
X1455119Y-18344024D01*
X1464643Y-18334500D01*
X1483690Y-18324976D01*
X1617024Y-18324976D02*
X1740833Y-18324976D01*
X1674167Y-18401167D01*
X1702738Y-18401167D01*
X1721786Y-18410690D01*
X1731309Y-18420214D01*
X1740833Y-18439262D01*
X1740833Y-18486881D01*
X1731309Y-18505929D01*
X1721786Y-18515452D01*
X1702738Y-18524976D01*
X1645595Y-18524976D01*
X1626548Y-18515452D01*
X1617024Y-18505929D01*
X1836071Y-18524976D02*
X1874167Y-18524976D01*
X1893214Y-18515452D01*
X1902738Y-18505929D01*
X1921786Y-18477357D01*
X1931309Y-18439262D01*
X1931309Y-18363071D01*
X1921786Y-18344024D01*
X1912262Y-18334500D01*
X1893214Y-18324976D01*
X1855119Y-18324976D01*
X1836071Y-18334500D01*
X1826548Y-18344024D01*
X1817024Y-18363071D01*
X1817024Y-18410690D01*
X1826548Y-18429738D01*
X1836071Y-18439262D01*
X1855119Y-18448786D01*
X1893214Y-18448786D01*
X1912262Y-18439262D01*
X1921786Y-18429738D01*
X1931309Y-18410690D01*
X2102738Y-18391643D02*
X2102738Y-18524976D01*
X2055119Y-18315452D02*
X2007500Y-18458310D01*
X2131310Y-18458310D01*
X2197976Y-18324976D02*
X2197976Y-18363071D01*
X2274167Y-18324976D02*
X2274167Y-18363071D01*
X2569405Y-18601167D02*
X2559881Y-18591643D01*
X2540833Y-18563071D01*
X2531310Y-18544024D01*
X2521786Y-18515452D01*
X2512262Y-18467833D01*
X2512262Y-18429738D01*
X2521786Y-18382119D01*
X2531310Y-18353548D01*
X2540833Y-18334500D01*
X2559881Y-18305929D01*
X2569405Y-18296405D01*
X2626548Y-18324976D02*
X2750357Y-18324976D01*
X2683690Y-18401167D01*
X2712262Y-18401167D01*
X2731310Y-18410690D01*
X2740833Y-18420214D01*
X2750357Y-18439262D01*
X2750357Y-18486881D01*
X2740833Y-18505929D01*
X2731310Y-18515452D01*
X2712262Y-18524976D01*
X2655119Y-18524976D01*
X2636071Y-18515452D01*
X2626548Y-18505929D01*
X2826548Y-18344024D02*
X2836071Y-18334500D01*
X2855119Y-18324976D01*
X2902738Y-18324976D01*
X2921786Y-18334500D01*
X2931309Y-18344024D01*
X2940833Y-18363071D01*
X2940833Y-18382119D01*
X2931309Y-18410690D01*
X2817024Y-18524976D01*
X2940833Y-18524976D01*
X3178928Y-18524976D02*
X3178928Y-18324976D01*
X3264643Y-18524976D02*
X3264643Y-18420214D01*
X3255119Y-18401167D01*
X3236071Y-18391643D01*
X3207500Y-18391643D01*
X3188452Y-18401167D01*
X3178928Y-18410690D01*
X3388452Y-18524976D02*
X3369405Y-18515452D01*
X3359881Y-18505929D01*
X3350357Y-18486881D01*
X3350357Y-18429738D01*
X3359881Y-18410690D01*
X3369405Y-18401167D01*
X3388452Y-18391643D01*
X3417024Y-18391643D01*
X3436071Y-18401167D01*
X3445595Y-18410690D01*
X3455119Y-18429738D01*
X3455119Y-18486881D01*
X3445595Y-18505929D01*
X3436071Y-18515452D01*
X3417024Y-18524976D01*
X3388452Y-18524976D01*
X3569405Y-18524976D02*
X3550357Y-18515452D01*
X3540833Y-18496405D01*
X3540833Y-18324976D01*
X3721786Y-18515452D02*
X3702738Y-18524976D01*
X3664643Y-18524976D01*
X3645595Y-18515452D01*
X3636071Y-18496405D01*
X3636071Y-18420214D01*
X3645595Y-18401167D01*
X3664643Y-18391643D01*
X3702738Y-18391643D01*
X3721786Y-18401167D01*
X3731309Y-18420214D01*
X3731309Y-18439262D01*
X3636071Y-18458310D01*
X3807500Y-18515452D02*
X3826548Y-18524976D01*
X3864643Y-18524976D01*
X3883690Y-18515452D01*
X3893214Y-18496405D01*
X3893214Y-18486881D01*
X3883690Y-18467833D01*
X3864643Y-18458310D01*
X3836071Y-18458310D01*
X3817024Y-18448786D01*
X3807500Y-18429738D01*
X3807500Y-18420214D01*
X3817024Y-18401167D01*
X3836071Y-18391643D01*
X3864643Y-18391643D01*
X3883690Y-18401167D01*
X3959881Y-18601167D02*
X3969405Y-18591643D01*
X3988452Y-18563071D01*
X3997976Y-18544024D01*
X4007500Y-18515452D01*
X4017024Y-18467833D01*
X4017024Y-18429738D01*
X4007500Y-18382119D01*
X3997976Y-18353548D01*
X3988452Y-18334500D01*
X3969405Y-18305929D01*
X3959881Y-18296405D01*
D17*
X-1067500Y-18763500D02*
X-1002500Y-18698500D01*
X-1067500Y-18633500D01*
X-1132500Y-18698500D01*
X-1067500Y-18763500D01*
D12*
X-640119Y-18788976D02*
X-754405Y-18788976D01*
X-697262Y-18788976D02*
X-697262Y-18588976D01*
X-716309Y-18617548D01*
X-735357Y-18636595D01*
X-754405Y-18646119D01*
X-554405Y-18769929D02*
X-544881Y-18779452D01*
X-554405Y-18788976D01*
X-563929Y-18779452D01*
X-554405Y-18769929D01*
X-554405Y-18788976D01*
X-478214Y-18588976D02*
X-354405Y-18588976D01*
X-421071Y-18665167D01*
X-392500Y-18665167D01*
X-373452Y-18674690D01*
X-363928Y-18684214D01*
X-354405Y-18703262D01*
X-354405Y-18750881D01*
X-363928Y-18769929D01*
X-373452Y-18779452D01*
X-392500Y-18788976D01*
X-449643Y-18788976D01*
X-468690Y-18779452D01*
X-478214Y-18769929D01*
X-230595Y-18588976D02*
X-211548Y-18588976D01*
X-192500Y-18598500D01*
X-182976Y-18608024D01*
X-173452Y-18627071D01*
X-163929Y-18665167D01*
X-163929Y-18712786D01*
X-173452Y-18750881D01*
X-182976Y-18769929D01*
X-192500Y-18779452D01*
X-211548Y-18788976D01*
X-230595Y-18788976D01*
X-249643Y-18779452D01*
X-259167Y-18769929D01*
X-268690Y-18750881D01*
X-278214Y-18712786D01*
X-278214Y-18665167D01*
X-268690Y-18627071D01*
X-259167Y-18608024D01*
X-249643Y-18598500D01*
X-230595Y-18588976D01*
X-40119Y-18588976D02*
X-21071Y-18588976D01*
X-2024Y-18598500D01*
X7500Y-18608024D01*
X17024Y-18627071D01*
X26548Y-18665167D01*
X26548Y-18712786D01*
X17024Y-18750881D01*
X7500Y-18769929D01*
X-2024Y-18779452D01*
X-21071Y-18788976D01*
X-40119Y-18788976D01*
X-59167Y-18779452D01*
X-68690Y-18769929D01*
X-78214Y-18750881D01*
X-87738Y-18712786D01*
X-87738Y-18665167D01*
X-78214Y-18627071D01*
X-68690Y-18608024D01*
X-59167Y-18598500D01*
X-40119Y-18588976D01*
X112262Y-18788976D02*
X112262Y-18655643D01*
X112262Y-18674690D02*
X121786Y-18665167D01*
X140833Y-18655643D01*
X169405Y-18655643D01*
X188452Y-18665167D01*
X197976Y-18684214D01*
X197976Y-18788976D01*
X197976Y-18684214D02*
X207500Y-18665167D01*
X226548Y-18655643D01*
X255119Y-18655643D01*
X274167Y-18665167D01*
X283690Y-18684214D01*
X283690Y-18788976D01*
X378928Y-18788976D02*
X378928Y-18655643D01*
X378928Y-18674690D02*
X388452Y-18665167D01*
X407500Y-18655643D01*
X436071Y-18655643D01*
X455119Y-18665167D01*
X464643Y-18684214D01*
X464643Y-18788976D01*
X464643Y-18684214D02*
X474167Y-18665167D01*
X493214Y-18655643D01*
X521786Y-18655643D01*
X540833Y-18665167D01*
X550357Y-18684214D01*
X550357Y-18788976D01*
X940833Y-18579452D02*
X769405Y-18836595D01*
X1197976Y-18588976D02*
X1217024Y-18588976D01*
X1236071Y-18598500D01*
X1245595Y-18608024D01*
X1255119Y-18627071D01*
X1264643Y-18665167D01*
X1264643Y-18712786D01*
X1255119Y-18750881D01*
X1245595Y-18769929D01*
X1236071Y-18779452D01*
X1217024Y-18788976D01*
X1197976Y-18788976D01*
X1178929Y-18779452D01*
X1169405Y-18769929D01*
X1159881Y-18750881D01*
X1150357Y-18712786D01*
X1150357Y-18665167D01*
X1159881Y-18627071D01*
X1169405Y-18608024D01*
X1178929Y-18598500D01*
X1197976Y-18588976D01*
X1350357Y-18769929D02*
X1359881Y-18779452D01*
X1350357Y-18788976D01*
X1340833Y-18779452D01*
X1350357Y-18769929D01*
X1350357Y-18788976D01*
X1483690Y-18588976D02*
X1502738Y-18588976D01*
X1521786Y-18598500D01*
X1531309Y-18608024D01*
X1540833Y-18627071D01*
X1550357Y-18665167D01*
X1550357Y-18712786D01*
X1540833Y-18750881D01*
X1531309Y-18769929D01*
X1521786Y-18779452D01*
X1502738Y-18788976D01*
X1483690Y-18788976D01*
X1464643Y-18779452D01*
X1455119Y-18769929D01*
X1445595Y-18750881D01*
X1436071Y-18712786D01*
X1436071Y-18665167D01*
X1445595Y-18627071D01*
X1455119Y-18608024D01*
X1464643Y-18598500D01*
X1483690Y-18588976D01*
X1731309Y-18588976D02*
X1636071Y-18588976D01*
X1626548Y-18684214D01*
X1636071Y-18674690D01*
X1655119Y-18665167D01*
X1702738Y-18665167D01*
X1721786Y-18674690D01*
X1731309Y-18684214D01*
X1740833Y-18703262D01*
X1740833Y-18750881D01*
X1731309Y-18769929D01*
X1721786Y-18779452D01*
X1702738Y-18788976D01*
X1655119Y-18788976D01*
X1636071Y-18779452D01*
X1626548Y-18769929D01*
X1931309Y-18788976D02*
X1817024Y-18788976D01*
X1874167Y-18788976D02*
X1874167Y-18588976D01*
X1855119Y-18617548D01*
X1836071Y-18636595D01*
X1817024Y-18646119D01*
X2007500Y-18608024D02*
X2017024Y-18598500D01*
X2036071Y-18588976D01*
X2083690Y-18588976D01*
X2102738Y-18598500D01*
X2112262Y-18608024D01*
X2121786Y-18627071D01*
X2121786Y-18646119D01*
X2112262Y-18674690D01*
X1997976Y-18788976D01*
X2121786Y-18788976D01*
X2197976Y-18588976D02*
X2197976Y-18627071D01*
X2274167Y-18588976D02*
X2274167Y-18627071D01*
X2569405Y-18865167D02*
X2559881Y-18855643D01*
X2540833Y-18827071D01*
X2531310Y-18808024D01*
X2521786Y-18779452D01*
X2512262Y-18731833D01*
X2512262Y-18693738D01*
X2521786Y-18646119D01*
X2531310Y-18617548D01*
X2540833Y-18598500D01*
X2559881Y-18569929D01*
X2569405Y-18560405D01*
X2674167Y-18674690D02*
X2655119Y-18665167D01*
X2645595Y-18655643D01*
X2636071Y-18636595D01*
X2636071Y-18627071D01*
X2645595Y-18608024D01*
X2655119Y-18598500D01*
X2674167Y-18588976D01*
X2712262Y-18588976D01*
X2731310Y-18598500D01*
X2740833Y-18608024D01*
X2750357Y-18627071D01*
X2750357Y-18636595D01*
X2740833Y-18655643D01*
X2731310Y-18665167D01*
X2712262Y-18674690D01*
X2674167Y-18674690D01*
X2655119Y-18684214D01*
X2645595Y-18693738D01*
X2636071Y-18712786D01*
X2636071Y-18750881D01*
X2645595Y-18769929D01*
X2655119Y-18779452D01*
X2674167Y-18788976D01*
X2712262Y-18788976D01*
X2731310Y-18779452D01*
X2740833Y-18769929D01*
X2750357Y-18750881D01*
X2750357Y-18712786D01*
X2740833Y-18693738D01*
X2731310Y-18684214D01*
X2712262Y-18674690D01*
X2817024Y-18588976D02*
X2950357Y-18588976D01*
X2864643Y-18788976D01*
X3178928Y-18788976D02*
X3178928Y-18588976D01*
X3264643Y-18788976D02*
X3264643Y-18684214D01*
X3255119Y-18665167D01*
X3236071Y-18655643D01*
X3207500Y-18655643D01*
X3188452Y-18665167D01*
X3178928Y-18674690D01*
X3388452Y-18788976D02*
X3369405Y-18779452D01*
X3359881Y-18769929D01*
X3350357Y-18750881D01*
X3350357Y-18693738D01*
X3359881Y-18674690D01*
X3369405Y-18665167D01*
X3388452Y-18655643D01*
X3417024Y-18655643D01*
X3436071Y-18665167D01*
X3445595Y-18674690D01*
X3455119Y-18693738D01*
X3455119Y-18750881D01*
X3445595Y-18769929D01*
X3436071Y-18779452D01*
X3417024Y-18788976D01*
X3388452Y-18788976D01*
X3569405Y-18788976D02*
X3550357Y-18779452D01*
X3540833Y-18760405D01*
X3540833Y-18588976D01*
X3721786Y-18779452D02*
X3702738Y-18788976D01*
X3664643Y-18788976D01*
X3645595Y-18779452D01*
X3636071Y-18760405D01*
X3636071Y-18684214D01*
X3645595Y-18665167D01*
X3664643Y-18655643D01*
X3702738Y-18655643D01*
X3721786Y-18665167D01*
X3731309Y-18684214D01*
X3731309Y-18703262D01*
X3636071Y-18722310D01*
X3807500Y-18779452D02*
X3826548Y-18788976D01*
X3864643Y-18788976D01*
X3883690Y-18779452D01*
X3893214Y-18760405D01*
X3893214Y-18750881D01*
X3883690Y-18731833D01*
X3864643Y-18722310D01*
X3836071Y-18722310D01*
X3817024Y-18712786D01*
X3807500Y-18693738D01*
X3807500Y-18684214D01*
X3817024Y-18665167D01*
X3836071Y-18655643D01*
X3864643Y-18655643D01*
X3883690Y-18665167D01*
X3959881Y-18865167D02*
X3969405Y-18855643D01*
X3988452Y-18827071D01*
X3997976Y-18808024D01*
X4007500Y-18779452D01*
X4017024Y-18731833D01*
X4017024Y-18693738D01*
X4007500Y-18646119D01*
X3997976Y-18617548D01*
X3988452Y-18598500D01*
X3969405Y-18569929D01*
X3959881Y-18560405D01*
M02*
