G04 #@! TF.GenerationSoftware,KiCad,Pcbnew,(6.0.5-0)*
G04 #@! TF.CreationDate,2023-01-20T14:12:10+00:00*
G04 #@! TF.ProjectId,pipcb,70697063-622e-46b6-9963-61645f706362,rev?*
G04 #@! TF.SameCoordinates,Original*
G04 #@! TF.FileFunction,Copper,L4,Bot*
G04 #@! TF.FilePolarity,Positive*
%FSLAX46Y46*%
G04 Gerber Fmt 4.6, Leading zero omitted, Abs format (unit mm)*
G04 Created by KiCad (PCBNEW (6.0.5-0)) date 2023-01-20 14:12:10*
%MOMM*%
%LPD*%
G01*
G04 APERTURE LIST*
G04 #@! TA.AperFunction,ComponentPad*
%ADD10R,2.600000X2.600000*%
G04 #@! TD*
G04 #@! TA.AperFunction,ComponentPad*
%ADD11C,2.600000*%
G04 #@! TD*
G04 #@! TA.AperFunction,ComponentPad*
%ADD12C,1.440000*%
G04 #@! TD*
G04 #@! TA.AperFunction,ComponentPad*
%ADD13C,0.600000*%
G04 #@! TD*
G04 #@! TA.AperFunction,SMDPad,CuDef*
%ADD14R,3.200000X5.800000*%
G04 #@! TD*
G04 #@! TA.AperFunction,ComponentPad*
%ADD15C,2.000000*%
G04 #@! TD*
G04 #@! TA.AperFunction,ComponentPad*
%ADD16R,1.600000X1.600000*%
G04 #@! TD*
G04 #@! TA.AperFunction,ComponentPad*
%ADD17O,1.600000X1.600000*%
G04 #@! TD*
G04 #@! TA.AperFunction,ViaPad*
%ADD18C,0.800000*%
G04 #@! TD*
G04 #@! TA.AperFunction,Conductor*
%ADD19C,0.250000*%
G04 #@! TD*
G04 #@! TA.AperFunction,Conductor*
%ADD20C,1.000000*%
G04 #@! TD*
G04 APERTURE END LIST*
D10*
X31000000Y34500000D03*
D11*
X26000000Y34500000D03*
X21000000Y34500000D03*
X16000000Y34500000D03*
D10*
X104500000Y-80000000D03*
D11*
X104500000Y-75000000D03*
X104500000Y-70000000D03*
X104500000Y-65000000D03*
X104500000Y-60000000D03*
X104500000Y-55000000D03*
X104500000Y-50000000D03*
D12*
X70000000Y-76450000D03*
X70000000Y-78990000D03*
X70000000Y-81530000D03*
X40000000Y-121450000D03*
X40000000Y-123990000D03*
X40000000Y-126530000D03*
D10*
X104500000Y-117000000D03*
D11*
X104500000Y-112000000D03*
X104500000Y-107000000D03*
X104500000Y-102000000D03*
X104500000Y-97000000D03*
X104500000Y-92000000D03*
X104500000Y-87000000D03*
D10*
X104500000Y9250000D03*
D11*
X104500000Y14250000D03*
X104500000Y19250000D03*
D10*
X104500000Y-43000000D03*
D11*
X104500000Y-38000000D03*
X104500000Y-33000000D03*
X104500000Y-28000000D03*
X104500000Y-23000000D03*
X104500000Y-18000000D03*
X104500000Y-13000000D03*
D10*
X5500000Y-139500000D03*
D11*
X5500000Y-144500000D03*
X5500000Y-149500000D03*
X5500000Y-154500000D03*
X5500000Y-159500000D03*
X5500000Y-164500000D03*
D13*
X67087500Y-145200000D03*
X68387500Y-143900000D03*
X69687500Y-147800000D03*
X69687500Y-143900000D03*
X69687500Y-146500000D03*
D14*
X68387500Y-146500000D03*
D13*
X68387500Y-149100000D03*
X67087500Y-143900000D03*
X68387500Y-145200000D03*
X67087500Y-147800000D03*
X68387500Y-146500000D03*
X67087500Y-149100000D03*
X69687500Y-149100000D03*
X69687500Y-145200000D03*
X68387500Y-147800000D03*
X67087500Y-146500000D03*
D10*
X5640000Y-13000000D03*
D11*
X5640000Y-18000000D03*
X5640000Y-23000000D03*
X5640000Y-28000000D03*
X5640000Y-33000000D03*
X5640000Y-38000000D03*
D13*
X50687500Y-149100000D03*
X48087500Y-149100000D03*
X50687500Y-145200000D03*
X50687500Y-146500000D03*
X48087500Y-147800000D03*
X48087500Y-146500000D03*
X50687500Y-143900000D03*
X50687500Y-147800000D03*
X49387500Y-143900000D03*
X49387500Y-145200000D03*
X49387500Y-149100000D03*
X49387500Y-146500000D03*
X49387500Y-147800000D03*
X48087500Y-143900000D03*
D14*
X49387500Y-146500000D03*
D13*
X48087500Y-145200000D03*
D10*
X5640000Y-47500000D03*
D11*
X5640000Y-52500000D03*
X5640000Y-57500000D03*
X5640000Y-62500000D03*
X5640000Y-67500000D03*
X5640000Y-72500000D03*
X5640000Y-77500000D03*
D12*
X70500000Y-121450000D03*
X70500000Y-123990000D03*
X70500000Y-126530000D03*
D10*
X28500000Y-164000000D03*
D11*
X33500000Y-164000000D03*
X38500000Y-164000000D03*
X43500000Y-164000000D03*
X48500000Y-164000000D03*
X53500000Y-164000000D03*
X58500000Y-164000000D03*
X63500000Y-164000000D03*
X68500000Y-164000000D03*
X73500000Y-164000000D03*
X78500000Y-164000000D03*
X83500000Y-164000000D03*
D13*
X30387500Y-149100000D03*
X29087500Y-149100000D03*
X31687500Y-147800000D03*
X31687500Y-145200000D03*
X29087500Y-143900000D03*
X30387500Y-146500000D03*
X30387500Y-143900000D03*
X29087500Y-145200000D03*
X30387500Y-147800000D03*
X29087500Y-147800000D03*
X30387500Y-145200000D03*
X31687500Y-149100000D03*
X29087500Y-146500000D03*
X31687500Y-146500000D03*
X31687500Y-143900000D03*
D14*
X30387500Y-146500000D03*
D10*
X5640000Y-87000000D03*
D11*
X5640000Y-92000000D03*
X5640000Y-97000000D03*
X5640000Y-102000000D03*
X5640000Y-107000000D03*
X5640000Y-112000000D03*
X5640000Y-117000000D03*
D15*
X22550000Y18250000D03*
X33950000Y18250000D03*
D10*
X93500000Y34500000D03*
D11*
X88500000Y34500000D03*
X83500000Y34500000D03*
X78500000Y34500000D03*
X73500000Y34500000D03*
X68500000Y34500000D03*
X63500000Y34500000D03*
X58500000Y34500000D03*
X53500000Y34500000D03*
X48500000Y34500000D03*
X43500000Y34500000D03*
X38500000Y34500000D03*
D16*
X50000000Y-9500000D03*
D17*
X52540000Y-9500000D03*
X55080000Y-9500000D03*
X57620000Y-9500000D03*
X60160000Y-9500000D03*
X62700000Y-9500000D03*
X65240000Y-9500000D03*
X67780000Y-9500000D03*
X70320000Y-9500000D03*
X72860000Y-9500000D03*
X75400000Y-9500000D03*
X77940000Y-9500000D03*
X80480000Y-9500000D03*
X83020000Y-9500000D03*
X85560000Y-9500000D03*
X85560000Y5740000D03*
X83020000Y5740000D03*
X80480000Y5740000D03*
X77940000Y5740000D03*
X75400000Y5740000D03*
X72860000Y5740000D03*
X70320000Y5740000D03*
X67780000Y5740000D03*
X65240000Y5740000D03*
X62700000Y5740000D03*
X60160000Y5740000D03*
X57620000Y5740000D03*
X55080000Y5740000D03*
X52540000Y5740000D03*
X50000000Y5740000D03*
D10*
X104500000Y-164500000D03*
D11*
X104500000Y-159500000D03*
X104500000Y-154500000D03*
X104500000Y-149500000D03*
X104500000Y-144500000D03*
X104500000Y-139500000D03*
D10*
X5500000Y19250000D03*
D11*
X5500000Y14250000D03*
X5500000Y9250000D03*
D12*
X40000000Y-76460000D03*
X40000000Y-79000000D03*
X40000000Y-81540000D03*
X87000000Y-141900000D03*
X87000000Y-144440000D03*
X87000000Y-146980000D03*
D18*
X26750000Y-143000000D03*
X51750000Y9750000D03*
X50000000Y-20000000D03*
X26250000Y-144500000D03*
X26250000Y-145750000D03*
X46000000Y-143000000D03*
X45000000Y-144500000D03*
X50000000Y-19000000D03*
X50000000Y-21000000D03*
X64000000Y-144500000D03*
X64000000Y-145750000D03*
X51750000Y8750000D03*
X45000000Y-145750000D03*
X50000000Y-23000000D03*
X65000000Y-142750000D03*
X50000000Y-22000000D03*
X51750000Y10750000D03*
X8750000Y0D03*
X7000000Y0D03*
X10500000Y1500000D03*
X12250000Y-7500000D03*
X12250000Y-1500000D03*
X8750000Y-1500000D03*
X7000000Y-4500000D03*
X14000000Y-3000000D03*
X14000000Y-4500000D03*
X12250000Y0D03*
X14000000Y-1500000D03*
X7000000Y-1500000D03*
X12250000Y-6000000D03*
X10500000Y0D03*
X14000000Y-6000000D03*
X7000000Y-7500000D03*
X14000000Y0D03*
X7000000Y-6000000D03*
X8750000Y-3000000D03*
X10500000Y-4500000D03*
X8750000Y-4500000D03*
X12250000Y-4500000D03*
X12250000Y-3000000D03*
X8750000Y-6000000D03*
X12250000Y1500000D03*
X8750000Y-7500000D03*
X7000000Y1500000D03*
X8750000Y1500000D03*
X10500000Y-3000000D03*
X7000000Y-3000000D03*
X10500000Y-1500000D03*
X14000000Y1500000D03*
X14000000Y-7500000D03*
X10500000Y-6000000D03*
X10500000Y-7500000D03*
X92750000Y-141250000D03*
X94250000Y-122250000D03*
X93250000Y-125250000D03*
X60500000Y11000000D03*
X60500000Y10000000D03*
X82000000Y2750000D03*
X60500000Y9000000D03*
X60000000Y-3750000D03*
X15500000Y-124250000D03*
X75250000Y-111500000D03*
X28000000Y-83500000D03*
X92000000Y-1250000D03*
X76250000Y-111500000D03*
X34750000Y-78000000D03*
X19500000Y-7750000D03*
X79230831Y-64083037D03*
X75750000Y-28000000D03*
X28000000Y-84750000D03*
X79250000Y-63000000D03*
X20500000Y-7750000D03*
X33750000Y-121250000D03*
X76750000Y-28000000D03*
X32000000Y-127250000D03*
X23500000Y8500000D03*
X23500000Y9750000D03*
X34750000Y-37500000D03*
X75000000Y-106500000D03*
X76250000Y-68250000D03*
X75250000Y-68250000D03*
X74000000Y-23250000D03*
X25000000Y3000000D03*
X32000000Y-126250000D03*
X35500000Y-41750000D03*
X33750000Y-78000000D03*
X34750000Y-121250000D03*
X33750000Y-37500000D03*
X74000000Y-22000000D03*
X75000000Y-107750000D03*
X35500000Y-43250000D03*
X84250000Y26500000D03*
X78750000Y27974500D03*
X80373521Y28772874D03*
X82750000Y27500000D03*
X71250000Y2250000D03*
X72250000Y1500000D03*
X66750000Y1250000D03*
X80264333Y538931D03*
X87750000Y-2250000D03*
X65737589Y3868400D03*
X72585945Y7589011D03*
X66250000Y-1000000D03*
X63750000Y4249998D03*
X55321070Y2601559D03*
X60250000Y1000000D03*
X65750000Y-2000000D03*
X66750000Y8000000D03*
X40500000Y-137250000D03*
X22750000Y-77750000D03*
X54000000Y10250000D03*
X24500000Y-34250000D03*
X24500000Y-32750000D03*
X87000000Y-68750000D03*
X88750000Y-28250000D03*
X80500000Y-148500000D03*
X24500000Y-71750000D03*
X26250000Y-32750000D03*
X21000000Y-29750000D03*
X87000000Y-74750000D03*
X26250000Y-77750000D03*
X21250000Y-120750000D03*
X28000000Y-37250000D03*
X22750000Y-29750000D03*
X40500000Y-114250000D03*
X28250000Y-116250000D03*
X73000000Y-73250000D03*
X65000000Y-138500000D03*
X83500000Y-68750000D03*
X83500000Y-34250000D03*
X61500000Y-14750000D03*
X73250000Y-32750000D03*
X40500000Y-70250000D03*
X25750000Y-3750000D03*
X42000000Y-6750000D03*
X50500000Y-112500000D03*
X88500000Y-116000000D03*
X86750000Y-117500000D03*
X21000000Y-71750000D03*
X26250000Y-29750000D03*
X57250000Y-37500000D03*
X58750000Y-56250000D03*
X80250000Y-89000000D03*
X28000000Y-29750000D03*
X21250000Y-114750000D03*
X88750000Y-68750000D03*
X48500000Y-54500000D03*
X21000000Y-34250000D03*
X87000000Y-70250000D03*
X23000000Y-119250000D03*
X61500000Y-146250000D03*
X22750000Y-37250000D03*
X88750000Y-70250000D03*
X28000000Y-31250000D03*
X46000000Y-18750000D03*
X39500000Y-137250000D03*
X26250000Y-37250000D03*
X22750000Y-73250000D03*
X83250000Y-119000000D03*
X28000000Y-74750000D03*
X36250000Y-140000000D03*
X24500000Y-31250000D03*
X88750000Y-29750000D03*
X21000000Y-28250000D03*
X23000000Y-113250000D03*
X81500000Y-111500000D03*
X21000000Y-31250000D03*
X81750000Y-37250000D03*
X88500000Y-119000000D03*
X29500000Y-137000000D03*
X81750000Y-35750000D03*
X26500000Y-117750000D03*
X88500000Y-111500000D03*
X83250000Y-120500000D03*
X59000000Y-99000000D03*
X88750000Y-37250000D03*
X36250000Y-141000000D03*
X51000000Y-49750000D03*
X28000000Y-34250000D03*
X26250000Y-70250000D03*
X28000000Y-28250000D03*
X85000000Y-116000000D03*
X78000000Y16500000D03*
X88750000Y-77750000D03*
X45250000Y7750000D03*
X23000000Y-111750000D03*
X21000000Y-35750000D03*
X26250000Y-35750000D03*
X28000000Y-35750000D03*
X22750000Y-28250000D03*
X88500000Y-120500000D03*
X28250000Y-114750000D03*
X80500000Y-146250000D03*
X81750000Y-34250000D03*
X28250000Y-111750000D03*
X88500000Y-114500000D03*
X81750000Y-73250000D03*
X28000000Y-77750000D03*
X28000000Y-71750000D03*
X85250000Y-32750000D03*
X81750000Y-32750000D03*
X22750000Y-35750000D03*
X74250000Y-140000000D03*
X81500000Y-117500000D03*
X24750000Y-117750000D03*
X81500000Y-114500000D03*
X87000000Y-77750000D03*
X85000000Y-114500000D03*
X24500000Y-68750000D03*
X88750000Y-31250000D03*
X83250000Y-117500000D03*
X86750000Y-120500000D03*
X100000000Y-133500000D03*
X22750000Y-70250000D03*
X47250000Y-54500000D03*
X24750000Y-116250000D03*
X88500000Y-113000000D03*
X61500000Y-148500000D03*
X85000000Y-127000000D03*
X26500000Y-114750000D03*
X85250000Y-74750000D03*
X72500000Y-37750000D03*
X83500000Y-31250000D03*
X81750000Y-77750000D03*
X78000000Y13250000D03*
X26250000Y-28250000D03*
X81500000Y-116000000D03*
X83500000Y-76250000D03*
X42250000Y-144000000D03*
X57000000Y-123000000D03*
X85250000Y-35750000D03*
X83500000Y-37250000D03*
X42250000Y-148500000D03*
X33000000Y-47750000D03*
X26500000Y-116250000D03*
X88500000Y-117500000D03*
X59750000Y18750000D03*
X46250000Y-138250000D03*
X85000000Y-113000000D03*
X81750000Y-29750000D03*
X81500000Y-113000000D03*
X69750000Y20000000D03*
X69500000Y-68250000D03*
X36750000Y-29250000D03*
X101000000Y-123500000D03*
X24500000Y-77750000D03*
X83500000Y-77750000D03*
X24750000Y-120750000D03*
X22750000Y-34250000D03*
X87000000Y-31250000D03*
X24750000Y-113250000D03*
X61500000Y-15750000D03*
X28250000Y-120750000D03*
X54250000Y20750000D03*
X85250000Y-71750000D03*
X87000000Y-71750000D03*
X88750000Y-76250000D03*
X81750000Y-71750000D03*
X86750000Y-119000000D03*
X49500000Y-27750000D03*
X81750000Y-70250000D03*
X22750000Y-71750000D03*
X74250000Y-141000000D03*
X83500000Y-29750000D03*
X85250000Y-31250000D03*
X81750000Y-28250000D03*
X85250000Y-29750000D03*
X34250000Y-47750000D03*
X85250000Y-73250000D03*
X39500000Y-93250000D03*
X62250000Y-96000000D03*
X83500000Y-35750000D03*
X28000000Y-32750000D03*
X77250000Y2750000D03*
X85250000Y-77750000D03*
X83250000Y-116000000D03*
X24750000Y-111750000D03*
X23000000Y-116250000D03*
X85250000Y-37250000D03*
X55250000Y-140000000D03*
X21000000Y-32750000D03*
X61500000Y-144000000D03*
X24500000Y-37250000D03*
X81500000Y-119000000D03*
X28250000Y-119250000D03*
X21250000Y-116250000D03*
X50000000Y-100250000D03*
X28000000Y-73250000D03*
X87000000Y-76250000D03*
X26250000Y-34250000D03*
X21250000Y-111750000D03*
X26500000Y-113250000D03*
X85000000Y-120500000D03*
X81750000Y-76250000D03*
X22750000Y-31250000D03*
X88750000Y-35750000D03*
X88750000Y-32750000D03*
X22750000Y-76250000D03*
X62250000Y-138250000D03*
X87000000Y-37250000D03*
X40500000Y-93250000D03*
X85250000Y-28250000D03*
X83500000Y-74750000D03*
X92000000Y-2750000D03*
X58000000Y-81500000D03*
X24750000Y-114750000D03*
X88750000Y-71750000D03*
X83500000Y-71750000D03*
X22750000Y-32750000D03*
X81750000Y-74750000D03*
X87000000Y-34250000D03*
X24750000Y-119250000D03*
X26250000Y-73250000D03*
X28000000Y-68750000D03*
X21000000Y-73250000D03*
X50000000Y-99000000D03*
X42250000Y-146250000D03*
X24500000Y-28250000D03*
X30750000Y-137000000D03*
X61500000Y-47000000D03*
X85250000Y-68750000D03*
X27250000Y-138250000D03*
X86750000Y-111500000D03*
X26250000Y-68750000D03*
X36750000Y-32750000D03*
X61000000Y-138250000D03*
X50250000Y20250000D03*
X59000000Y-100000000D03*
X24500000Y-73250000D03*
X28250000Y-117750000D03*
X83250000Y-114500000D03*
X43250000Y-6750000D03*
X97750000Y-133250000D03*
X61250000Y-96000000D03*
X88750000Y-74750000D03*
X24500000Y-29750000D03*
X86250000Y-127000000D03*
X45250000Y9000000D03*
X28250000Y-113250000D03*
X87000000Y-28250000D03*
X21000000Y-68750000D03*
X23000000Y-114750000D03*
X8500000Y-133000000D03*
X24500000Y-70250000D03*
X85000000Y-111500000D03*
X21000000Y-70250000D03*
X55250000Y-141000000D03*
X83250000Y-113000000D03*
X22750000Y-68750000D03*
X21250000Y-119250000D03*
X87000000Y-29750000D03*
X22750000Y-74750000D03*
X85000000Y-117500000D03*
X83500000Y-73250000D03*
X26500000Y-120750000D03*
X83500000Y-70250000D03*
X85250000Y-70250000D03*
X50250000Y21250000D03*
X85250000Y-76250000D03*
X86750000Y-114500000D03*
X80472536Y-144027464D03*
X24500000Y-74750000D03*
X26250000Y-71750000D03*
X52000000Y-68000000D03*
X51000000Y-50750000D03*
X80250000Y-90000000D03*
X86750000Y-116000000D03*
X62500000Y-47000000D03*
X83250000Y-111500000D03*
X21250000Y-117750000D03*
X83500000Y-32750000D03*
X81750000Y-31250000D03*
X21000000Y-76250000D03*
X21000000Y-74750000D03*
X24500000Y-76250000D03*
X26250000Y-76250000D03*
X28000000Y-70250000D03*
X87000000Y-73250000D03*
X23000000Y-117750000D03*
X87000000Y-35750000D03*
X85250000Y-34250000D03*
X26500000Y-119250000D03*
X81750000Y-68750000D03*
X36750000Y-73250000D03*
X26500000Y-111750000D03*
X88750000Y-73250000D03*
X30750000Y-116250000D03*
X79250000Y-116250000D03*
X69750000Y-113250000D03*
X87000000Y-32750000D03*
X24500000Y-35750000D03*
X86750000Y-113000000D03*
X83500000Y-28250000D03*
X47250000Y-18750000D03*
X26250000Y-74750000D03*
X40750000Y-34000000D03*
X78000000Y9500000D03*
X21000000Y-77750000D03*
X85000000Y-119000000D03*
X21000000Y-37250000D03*
X81500000Y-120500000D03*
X88750000Y-34250000D03*
X28000000Y-76250000D03*
X26250000Y-31250000D03*
X21250000Y-113250000D03*
X23000000Y-120750000D03*
X75750000Y250000D03*
X88308041Y17347536D03*
X56500000Y-1750000D03*
X53250000Y1000000D03*
X95500000Y-129000000D03*
X98000000Y-128250000D03*
D19*
X92100000Y-141900000D02*
X87000000Y-141900000D01*
X92750000Y-141250000D02*
X92100000Y-141900000D01*
D20*
X83990000Y9250000D02*
X104500000Y9250000D01*
X80480000Y5740000D02*
X83990000Y9250000D01*
X83990000Y9250000D02*
X93500000Y18760000D01*
X93500000Y18760000D02*
X93500000Y34500000D01*
D19*
X84250000Y26500000D02*
X80224500Y26500000D01*
X80224500Y26500000D02*
X78750000Y27974500D01*
X82750000Y27500000D02*
X81646395Y27500000D01*
X81646395Y27500000D02*
X80373521Y28772874D01*
X72524600Y2250000D02*
X77940000Y-3165400D01*
X77940000Y-3165400D02*
X77940000Y-9500000D01*
X71250000Y2250000D02*
X72524600Y2250000D01*
X75400000Y-1650000D02*
X72250000Y1500000D01*
X75400000Y-9500000D02*
X75400000Y-1650000D01*
X62700000Y3050000D02*
X62700000Y5740000D01*
X87858522Y-2250000D02*
X83053264Y-2250000D01*
X66750000Y1250000D02*
X64500000Y1250000D01*
X64500000Y1250000D02*
X62700000Y3050000D01*
X83053264Y-2250000D02*
X80264333Y538931D01*
X65240000Y4365989D02*
X65737589Y3868400D01*
X65240000Y5740000D02*
X65240000Y4365989D01*
X71974501Y3224501D02*
X73984511Y5234511D01*
X72601289Y7589011D02*
X72585945Y7589011D01*
X73984511Y6205789D02*
X72601289Y7589011D01*
X67475400Y-1000000D02*
X70525499Y2050099D01*
X73984511Y5234511D02*
X73984511Y6205789D01*
X66250000Y-1000000D02*
X67475400Y-1000000D01*
X70525499Y2550099D02*
X71199901Y3224501D01*
X70525499Y2050099D02*
X70525499Y2550099D01*
X71199901Y3224501D02*
X71974501Y3224501D01*
X64856099Y3143899D02*
X63750000Y4249998D01*
X72860000Y5740000D02*
X70263899Y3143899D01*
X70263899Y3143899D02*
X64856099Y3143899D01*
X56922629Y1000000D02*
X60250000Y1000000D01*
X55321070Y2601559D02*
X56922629Y1000000D01*
X61575489Y2174511D02*
X65750000Y-2000000D01*
X63369700Y8000000D02*
X61575489Y6205789D01*
X66750000Y8000000D02*
X63369700Y8000000D01*
X61575489Y6205789D02*
X61575489Y2174511D01*
X87974500Y17347536D02*
X88308041Y17347536D01*
X79250000Y8623036D02*
X87974500Y17347536D01*
X75750000Y250000D02*
X76969209Y250000D01*
X76969209Y250000D02*
X79250000Y2530791D01*
X79250000Y2530791D02*
X79250000Y8623036D01*
X53250000Y1000000D02*
X55750000Y-1500000D01*
X56250000Y-1500000D02*
X56500000Y-1750000D01*
X55750000Y-1500000D02*
X56250000Y-1500000D01*
X95500000Y-129000000D02*
X96250000Y-128250000D01*
X96250000Y-128250000D02*
X98000000Y-128250000D01*
G04 #@! TA.AperFunction,Conductor*
G36*
X43503526Y13999802D02*
G01*
X43828832Y13981534D01*
X43842864Y13979953D01*
X44001728Y13952961D01*
X44160587Y13925969D01*
X44174362Y13922825D01*
X44270228Y13895207D01*
X44484047Y13833606D01*
X44497368Y13828945D01*
X44795118Y13705613D01*
X44807841Y13699486D01*
X45024131Y13579947D01*
X45089906Y13543594D01*
X45101870Y13536076D01*
X45364694Y13349591D01*
X45375740Y13340782D01*
X45616043Y13126035D01*
X45626035Y13116043D01*
X45840782Y12875740D01*
X45849591Y12864694D01*
X46036076Y12601870D01*
X46043594Y12589906D01*
X46199484Y12307845D01*
X46205613Y12295118D01*
X46328945Y11997368D01*
X46333606Y11984047D01*
X46395207Y11770228D01*
X46422825Y11674362D01*
X46425969Y11660587D01*
X46479952Y11342869D01*
X46481534Y11328828D01*
X46499802Y11003526D01*
X46500000Y10996461D01*
X46500000Y-7746461D01*
X46499802Y-7753526D01*
X46491657Y-7898574D01*
X46481534Y-8078828D01*
X46479953Y-8092864D01*
X46464586Y-8183305D01*
X46425969Y-8410587D01*
X46422825Y-8424362D01*
X46333606Y-8734047D01*
X46328945Y-8747368D01*
X46205615Y-9045114D01*
X46199484Y-9057845D01*
X46043594Y-9339906D01*
X46036076Y-9351870D01*
X45849591Y-9614694D01*
X45840782Y-9625740D01*
X45626035Y-9866043D01*
X45616043Y-9876035D01*
X45375740Y-10090782D01*
X45364694Y-10099591D01*
X45101870Y-10286076D01*
X45089906Y-10293594D01*
X44807841Y-10449486D01*
X44795118Y-10455613D01*
X44497368Y-10578945D01*
X44484047Y-10583606D01*
X44270228Y-10645207D01*
X44174362Y-10672825D01*
X44160587Y-10675969D01*
X44001728Y-10702961D01*
X43842864Y-10729953D01*
X43828832Y-10731534D01*
X43503526Y-10749802D01*
X43496461Y-10750000D01*
X8503539Y-10750000D01*
X8496474Y-10749802D01*
X8171168Y-10731534D01*
X8157136Y-10729953D01*
X7998272Y-10702961D01*
X7839413Y-10675969D01*
X7825638Y-10672825D01*
X7729772Y-10645207D01*
X7515953Y-10583606D01*
X7502632Y-10578945D01*
X7204882Y-10455613D01*
X7192159Y-10449486D01*
X6910094Y-10293594D01*
X6898130Y-10286076D01*
X6635306Y-10099591D01*
X6624260Y-10090782D01*
X6383957Y-9876035D01*
X6373965Y-9866043D01*
X6159218Y-9625740D01*
X6150409Y-9614694D01*
X5963924Y-9351870D01*
X5956406Y-9339906D01*
X5800516Y-9057845D01*
X5794385Y-9045114D01*
X5671055Y-8747368D01*
X5666394Y-8734047D01*
X5577175Y-8424362D01*
X5574031Y-8410587D01*
X5535414Y-8183305D01*
X5520047Y-8092864D01*
X5518466Y-8078828D01*
X5508344Y-7898574D01*
X5500198Y-7753526D01*
X5500099Y-7750000D01*
X18894318Y-7750000D01*
X18914956Y-7906762D01*
X18975464Y-8052841D01*
X19071718Y-8178282D01*
X19197159Y-8274536D01*
X19343238Y-8335044D01*
X19500000Y-8355682D01*
X19508188Y-8354604D01*
X19648574Y-8336122D01*
X19656762Y-8335044D01*
X19802841Y-8274536D01*
X19923296Y-8182108D01*
X19989517Y-8156508D01*
X20059065Y-8170773D01*
X20076704Y-8182108D01*
X20197159Y-8274536D01*
X20343238Y-8335044D01*
X20500000Y-8355682D01*
X20508188Y-8354604D01*
X20648574Y-8336122D01*
X20656762Y-8335044D01*
X20802841Y-8274536D01*
X20928282Y-8178282D01*
X21024536Y-8052841D01*
X21085044Y-7906762D01*
X21105682Y-7750000D01*
X21085044Y-7593238D01*
X21024536Y-7447159D01*
X20928282Y-7321718D01*
X20802841Y-7225464D01*
X20656762Y-7164956D01*
X20500000Y-7144318D01*
X20343238Y-7164956D01*
X20197159Y-7225464D01*
X20190608Y-7230491D01*
X20076704Y-7317892D01*
X20010483Y-7343492D01*
X19940935Y-7329227D01*
X19923296Y-7317892D01*
X19809392Y-7230491D01*
X19802841Y-7225464D01*
X19656762Y-7164956D01*
X19500000Y-7144318D01*
X19343238Y-7164956D01*
X19197159Y-7225464D01*
X19071718Y-7321718D01*
X18975464Y-7447159D01*
X18914956Y-7593238D01*
X18894318Y-7750000D01*
X5500099Y-7750000D01*
X5500000Y-7746461D01*
X5500000Y-6750000D01*
X41394318Y-6750000D01*
X41414956Y-6906762D01*
X41475464Y-7052841D01*
X41571718Y-7178282D01*
X41697159Y-7274536D01*
X41843238Y-7335044D01*
X42000000Y-7355682D01*
X42008188Y-7354604D01*
X42148574Y-7336122D01*
X42156762Y-7335044D01*
X42302841Y-7274536D01*
X42428282Y-7178282D01*
X42524536Y-7052841D01*
X42527201Y-7054886D01*
X42567250Y-7016691D01*
X42636962Y-7003246D01*
X42702876Y-7029625D01*
X42723980Y-7053980D01*
X42725464Y-7052841D01*
X42821718Y-7178282D01*
X42947159Y-7274536D01*
X43093238Y-7335044D01*
X43250000Y-7355682D01*
X43258188Y-7354604D01*
X43398574Y-7336122D01*
X43406762Y-7335044D01*
X43552841Y-7274536D01*
X43678282Y-7178282D01*
X43774536Y-7052841D01*
X43835044Y-6906762D01*
X43855682Y-6750000D01*
X43835044Y-6593238D01*
X43774536Y-6447159D01*
X43678282Y-6321718D01*
X43552841Y-6225464D01*
X43406762Y-6164956D01*
X43250000Y-6144318D01*
X43093238Y-6164956D01*
X42947159Y-6225464D01*
X42821718Y-6321718D01*
X42725464Y-6447159D01*
X42722799Y-6445114D01*
X42682750Y-6483309D01*
X42613038Y-6496754D01*
X42547124Y-6470375D01*
X42526020Y-6446020D01*
X42524536Y-6447159D01*
X42433305Y-6328264D01*
X42428282Y-6321718D01*
X42302841Y-6225464D01*
X42156762Y-6164956D01*
X42000000Y-6144318D01*
X41843238Y-6164956D01*
X41697159Y-6225464D01*
X41571718Y-6321718D01*
X41475464Y-6447159D01*
X41414956Y-6593238D01*
X41394318Y-6750000D01*
X5500000Y-6750000D01*
X5500000Y-3750000D01*
X25144318Y-3750000D01*
X25164956Y-3906762D01*
X25225464Y-4052841D01*
X25321718Y-4178282D01*
X25447159Y-4274536D01*
X25593238Y-4335044D01*
X25750000Y-4355682D01*
X25758188Y-4354604D01*
X25898574Y-4336122D01*
X25906762Y-4335044D01*
X26052841Y-4274536D01*
X26178282Y-4178282D01*
X26274536Y-4052841D01*
X26335044Y-3906762D01*
X26355682Y-3750000D01*
X26335044Y-3593238D01*
X26274536Y-3447159D01*
X26178282Y-3321718D01*
X26052841Y-3225464D01*
X25906762Y-3164956D01*
X25750000Y-3144318D01*
X25593238Y-3164956D01*
X25447159Y-3225464D01*
X25321718Y-3321718D01*
X25225464Y-3447159D01*
X25164956Y-3593238D01*
X25144318Y-3750000D01*
X5500000Y-3750000D01*
X5500000Y3000000D01*
X24394318Y3000000D01*
X24414956Y2843238D01*
X24475464Y2697159D01*
X24571718Y2571718D01*
X24697159Y2475464D01*
X24843238Y2414956D01*
X25000000Y2394318D01*
X25008188Y2395396D01*
X25148574Y2413878D01*
X25156762Y2414956D01*
X25302841Y2475464D01*
X25428282Y2571718D01*
X25524536Y2697159D01*
X25585044Y2843238D01*
X25605682Y3000000D01*
X25585044Y3156762D01*
X25524536Y3302841D01*
X25428282Y3428282D01*
X25302841Y3524536D01*
X25156762Y3585044D01*
X25000000Y3605682D01*
X24843238Y3585044D01*
X24697159Y3524536D01*
X24571718Y3428282D01*
X24475464Y3302841D01*
X24414956Y3156762D01*
X24394318Y3000000D01*
X5500000Y3000000D01*
X5500000Y7750000D01*
X44644318Y7750000D01*
X44664956Y7593238D01*
X44725464Y7447159D01*
X44821718Y7321718D01*
X44947159Y7225464D01*
X45093238Y7164956D01*
X45250000Y7144318D01*
X45258188Y7145396D01*
X45398574Y7163878D01*
X45406762Y7164956D01*
X45552841Y7225464D01*
X45678282Y7321718D01*
X45774536Y7447159D01*
X45835044Y7593238D01*
X45855682Y7750000D01*
X45835044Y7906762D01*
X45774536Y8052841D01*
X45678282Y8178282D01*
X45662219Y8190608D01*
X45552841Y8274536D01*
X45554886Y8277201D01*
X45516691Y8317250D01*
X45503246Y8386962D01*
X45529625Y8452876D01*
X45553980Y8473980D01*
X45552841Y8475464D01*
X45671736Y8566695D01*
X45678282Y8571718D01*
X45774536Y8697159D01*
X45835044Y8843238D01*
X45855682Y9000000D01*
X45835044Y9156762D01*
X45774536Y9302841D01*
X45678282Y9428282D01*
X45552841Y9524536D01*
X45406762Y9585044D01*
X45250000Y9605682D01*
X45093238Y9585044D01*
X44947159Y9524536D01*
X44821718Y9428282D01*
X44725464Y9302841D01*
X44664956Y9156762D01*
X44644318Y9000000D01*
X44664956Y8843238D01*
X44725464Y8697159D01*
X44821718Y8571718D01*
X44828264Y8566695D01*
X44947159Y8475464D01*
X44945114Y8472799D01*
X44983309Y8432750D01*
X44996754Y8363038D01*
X44970375Y8297124D01*
X44946020Y8276020D01*
X44947159Y8274536D01*
X44837782Y8190608D01*
X44821718Y8178282D01*
X44725464Y8052841D01*
X44664956Y7906762D01*
X44644318Y7750000D01*
X5500000Y7750000D01*
X5500000Y8500000D01*
X22894318Y8500000D01*
X22914956Y8343238D01*
X22975464Y8197159D01*
X23071718Y8071718D01*
X23197159Y7975464D01*
X23343238Y7914956D01*
X23500000Y7894318D01*
X23508188Y7895396D01*
X23648574Y7913878D01*
X23656762Y7914956D01*
X23802841Y7975464D01*
X23928282Y8071718D01*
X24024536Y8197159D01*
X24085044Y8343238D01*
X24105682Y8500000D01*
X24085044Y8656762D01*
X24024536Y8802841D01*
X23928282Y8928282D01*
X23802841Y9024536D01*
X23804886Y9027201D01*
X23766691Y9067250D01*
X23753246Y9136962D01*
X23779625Y9202876D01*
X23803980Y9223980D01*
X23802841Y9225464D01*
X23921736Y9316695D01*
X23928282Y9321718D01*
X24024536Y9447159D01*
X24085044Y9593238D01*
X24105682Y9750000D01*
X24085044Y9906762D01*
X24024536Y10052841D01*
X23928282Y10178282D01*
X23802841Y10274536D01*
X23656762Y10335044D01*
X23500000Y10355682D01*
X23343238Y10335044D01*
X23197159Y10274536D01*
X23071718Y10178282D01*
X22975464Y10052841D01*
X22914956Y9906762D01*
X22894318Y9750000D01*
X22914956Y9593238D01*
X22975464Y9447159D01*
X23071718Y9321718D01*
X23078264Y9316695D01*
X23197159Y9225464D01*
X23195114Y9222799D01*
X23233309Y9182750D01*
X23246754Y9113038D01*
X23220375Y9047124D01*
X23196020Y9026020D01*
X23197159Y9024536D01*
X23071718Y8928282D01*
X22975464Y8802841D01*
X22914956Y8656762D01*
X22894318Y8500000D01*
X5500000Y8500000D01*
X5500000Y10996461D01*
X5500198Y11003526D01*
X5518466Y11328828D01*
X5520048Y11342869D01*
X5574031Y11660587D01*
X5577175Y11674362D01*
X5604793Y11770228D01*
X5666394Y11984047D01*
X5671055Y11997368D01*
X5794387Y12295118D01*
X5800516Y12307845D01*
X5956406Y12589906D01*
X5963924Y12601870D01*
X6150409Y12864694D01*
X6159218Y12875740D01*
X6184509Y12904041D01*
X6223027Y12933233D01*
X6266311Y12954438D01*
X6266315Y12954440D01*
X6270954Y12956713D01*
X6354981Y13016649D01*
X6467617Y13096991D01*
X6467622Y13096995D01*
X6471829Y13099996D01*
X6646605Y13274163D01*
X6756675Y13427342D01*
X6786082Y13456573D01*
X6898130Y13536076D01*
X6910094Y13543594D01*
X6975869Y13579947D01*
X7192159Y13699486D01*
X7204882Y13705613D01*
X7502632Y13828945D01*
X7515953Y13833606D01*
X7729772Y13895207D01*
X7825638Y13922825D01*
X7839413Y13925969D01*
X7998272Y13952961D01*
X8157136Y13979953D01*
X8171168Y13981534D01*
X8496474Y13999802D01*
X8503539Y14000000D01*
X43496461Y14000000D01*
X43503526Y13999802D01*
G37*
G04 #@! TD.AperFunction*
G04 #@! TA.AperFunction,Conductor*
G36*
X97753526Y-11750198D02*
G01*
X98078832Y-11768466D01*
X98092864Y-11770047D01*
X98251728Y-11797039D01*
X98410587Y-11824031D01*
X98424362Y-11827175D01*
X98520228Y-11854793D01*
X98734047Y-11916394D01*
X98747368Y-11921055D01*
X99045118Y-12044387D01*
X99057841Y-12050514D01*
X99274131Y-12170053D01*
X99339906Y-12206406D01*
X99351870Y-12213924D01*
X99614694Y-12400409D01*
X99625740Y-12409218D01*
X99866043Y-12623965D01*
X99876035Y-12633957D01*
X100090782Y-12874260D01*
X100099591Y-12885306D01*
X100286076Y-13148130D01*
X100293594Y-13160094D01*
X100449484Y-13442155D01*
X100455613Y-13454882D01*
X100578945Y-13752632D01*
X100583606Y-13765953D01*
X100645207Y-13979772D01*
X100672825Y-14075638D01*
X100675969Y-14089413D01*
X100729952Y-14407131D01*
X100731534Y-14421172D01*
X100749802Y-14746474D01*
X100750000Y-14753539D01*
X100750000Y-132246461D01*
X100749802Y-132253526D01*
X100731534Y-132578828D01*
X100729952Y-132592869D01*
X100675969Y-132910587D01*
X100672825Y-132924362D01*
X100583606Y-133234047D01*
X100578945Y-133247368D01*
X100455615Y-133545114D01*
X100449484Y-133557845D01*
X100293594Y-133839906D01*
X100286076Y-133851870D01*
X100099591Y-134114694D01*
X100090782Y-134125740D01*
X99876035Y-134366043D01*
X99866043Y-134376035D01*
X99625740Y-134590782D01*
X99614694Y-134599591D01*
X99351870Y-134786076D01*
X99339906Y-134793594D01*
X99057841Y-134949486D01*
X99045118Y-134955613D01*
X98747368Y-135078945D01*
X98734047Y-135083606D01*
X98520228Y-135145207D01*
X98424362Y-135172825D01*
X98410587Y-135175969D01*
X98251728Y-135202960D01*
X98092864Y-135229953D01*
X98078832Y-135231534D01*
X97753526Y-135249802D01*
X97746461Y-135250000D01*
X13253539Y-135250000D01*
X13246474Y-135249802D01*
X12921168Y-135231534D01*
X12907136Y-135229953D01*
X12748272Y-135202960D01*
X12589413Y-135175969D01*
X12575638Y-135172825D01*
X12479772Y-135145207D01*
X12265953Y-135083606D01*
X12252632Y-135078945D01*
X11954882Y-134955613D01*
X11942159Y-134949486D01*
X11660094Y-134793594D01*
X11648130Y-134786076D01*
X11385306Y-134599591D01*
X11374260Y-134590782D01*
X11133957Y-134376035D01*
X11123965Y-134366043D01*
X10909218Y-134125740D01*
X10900409Y-134114694D01*
X10713924Y-133851870D01*
X10706406Y-133839906D01*
X10550516Y-133557845D01*
X10544385Y-133545114D01*
X10421055Y-133247368D01*
X10416394Y-133234047D01*
X10327175Y-132924362D01*
X10324031Y-132910587D01*
X10270048Y-132592869D01*
X10268466Y-132578828D01*
X10250198Y-132253526D01*
X10250000Y-132246461D01*
X10250000Y-129000000D01*
X94894318Y-129000000D01*
X94914956Y-129156762D01*
X94975464Y-129302841D01*
X95071718Y-129428282D01*
X95197159Y-129524536D01*
X95343238Y-129585044D01*
X95500000Y-129605682D01*
X95508188Y-129604604D01*
X95648574Y-129586122D01*
X95656762Y-129585044D01*
X95802841Y-129524536D01*
X95928282Y-129428282D01*
X96024536Y-129302841D01*
X96085044Y-129156762D01*
X96105682Y-129000000D01*
X96096882Y-128933159D01*
X96107821Y-128863011D01*
X96132709Y-128827618D01*
X96347922Y-128612405D01*
X96410234Y-128578379D01*
X96437017Y-128575500D01*
X97430714Y-128575500D01*
X97498835Y-128595502D01*
X97530677Y-128624796D01*
X97571718Y-128678282D01*
X97697159Y-128774536D01*
X97843238Y-128835044D01*
X98000000Y-128855682D01*
X98008188Y-128854604D01*
X98148574Y-128836122D01*
X98156762Y-128835044D01*
X98302841Y-128774536D01*
X98428282Y-128678282D01*
X98524536Y-128552841D01*
X98585044Y-128406762D01*
X98605682Y-128250000D01*
X98585044Y-128093238D01*
X98524536Y-127947159D01*
X98428282Y-127821718D01*
X98302841Y-127725464D01*
X98156762Y-127664956D01*
X98000000Y-127644318D01*
X97843238Y-127664956D01*
X97697159Y-127725464D01*
X97571718Y-127821718D01*
X97566695Y-127828264D01*
X97530677Y-127875204D01*
X97473339Y-127917071D01*
X97430714Y-127924500D01*
X96269713Y-127924500D01*
X96258732Y-127924021D01*
X96232170Y-127921697D01*
X96232168Y-127921697D01*
X96221193Y-127920737D01*
X96184783Y-127930492D01*
X96174076Y-127932866D01*
X96136955Y-127939412D01*
X96127411Y-127944922D01*
X96124135Y-127946114D01*
X96120964Y-127947593D01*
X96110316Y-127950446D01*
X96101287Y-127956768D01*
X96079449Y-127972059D01*
X96070179Y-127977964D01*
X96047092Y-127991293D01*
X96047088Y-127991296D01*
X96037545Y-127996806D01*
X96030460Y-128005250D01*
X96013320Y-128025676D01*
X96005894Y-128033779D01*
X95672382Y-128367291D01*
X95610070Y-128401317D01*
X95566842Y-128403118D01*
X95500000Y-128394318D01*
X95343238Y-128414956D01*
X95197159Y-128475464D01*
X95071718Y-128571718D01*
X94975464Y-128697159D01*
X94914956Y-128843238D01*
X94894318Y-129000000D01*
X10250000Y-129000000D01*
X10250000Y-127250000D01*
X31394318Y-127250000D01*
X31414956Y-127406762D01*
X31475464Y-127552841D01*
X31571718Y-127678282D01*
X31697159Y-127774536D01*
X31843238Y-127835044D01*
X32000000Y-127855682D01*
X32008188Y-127854604D01*
X32148574Y-127836122D01*
X32156762Y-127835044D01*
X32302841Y-127774536D01*
X32428282Y-127678282D01*
X32524536Y-127552841D01*
X32585044Y-127406762D01*
X32605682Y-127250000D01*
X32585044Y-127093238D01*
X32524536Y-126947159D01*
X32432108Y-126826704D01*
X32406508Y-126760483D01*
X32420773Y-126690935D01*
X32432108Y-126673296D01*
X32519509Y-126559392D01*
X32524536Y-126552841D01*
X32533997Y-126530000D01*
X39074430Y-126530000D01*
X39094656Y-126722437D01*
X39096696Y-126728714D01*
X39096696Y-126728716D01*
X39103612Y-126750000D01*
X39154450Y-126906463D01*
X39157753Y-126912185D01*
X39157754Y-126912186D01*
X39177946Y-126947159D01*
X39251198Y-127074036D01*
X39255616Y-127078943D01*
X39255617Y-127078944D01*
X39275860Y-127101426D01*
X39380673Y-127217833D01*
X39386015Y-127221714D01*
X39386017Y-127221716D01*
X39413677Y-127241812D01*
X39537215Y-127331567D01*
X39543243Y-127334251D01*
X39543245Y-127334252D01*
X39706106Y-127406762D01*
X39713983Y-127410269D01*
X39808618Y-127430385D01*
X39896795Y-127449128D01*
X39896800Y-127449128D01*
X39903252Y-127450500D01*
X40096748Y-127450500D01*
X40103200Y-127449128D01*
X40103205Y-127449128D01*
X40191382Y-127430385D01*
X40286017Y-127410269D01*
X40293894Y-127406762D01*
X40456755Y-127334252D01*
X40456757Y-127334251D01*
X40462785Y-127331567D01*
X40586323Y-127241812D01*
X40613983Y-127221716D01*
X40613985Y-127221714D01*
X40619327Y-127217833D01*
X40724140Y-127101426D01*
X40744383Y-127078944D01*
X40744384Y-127078943D01*
X40748802Y-127074036D01*
X40822054Y-126947159D01*
X40842246Y-126912186D01*
X40842247Y-126912185D01*
X40845550Y-126906463D01*
X40896388Y-126750000D01*
X40903304Y-126728716D01*
X40903304Y-126728714D01*
X40905344Y-126722437D01*
X40925570Y-126530000D01*
X69574430Y-126530000D01*
X69594656Y-126722437D01*
X69596696Y-126728714D01*
X69596696Y-126728716D01*
X69603612Y-126750000D01*
X69654450Y-126906463D01*
X69657753Y-126912185D01*
X69657754Y-126912186D01*
X69677946Y-126947159D01*
X69751198Y-127074036D01*
X69755616Y-127078943D01*
X69755617Y-127078944D01*
X69775860Y-127101426D01*
X69880673Y-127217833D01*
X69886015Y-127221714D01*
X69886017Y-127221716D01*
X69913677Y-127241812D01*
X70037215Y-127331567D01*
X70043243Y-127334251D01*
X70043245Y-127334252D01*
X70206106Y-127406762D01*
X70213983Y-127410269D01*
X70308618Y-127430385D01*
X70396795Y-127449128D01*
X70396800Y-127449128D01*
X70403252Y-127450500D01*
X70596748Y-127450500D01*
X70603200Y-127449128D01*
X70603205Y-127449128D01*
X70691382Y-127430385D01*
X70786017Y-127410269D01*
X70793894Y-127406762D01*
X70956755Y-127334252D01*
X70956757Y-127334251D01*
X70962785Y-127331567D01*
X71086323Y-127241812D01*
X71113983Y-127221716D01*
X71113985Y-127221714D01*
X71119327Y-127217833D01*
X71224140Y-127101426D01*
X71244383Y-127078944D01*
X71244384Y-127078943D01*
X71248802Y-127074036D01*
X71322054Y-126947159D01*
X71342246Y-126912186D01*
X71342247Y-126912185D01*
X71345550Y-126906463D01*
X71396388Y-126750000D01*
X71403304Y-126728716D01*
X71403304Y-126728714D01*
X71405344Y-126722437D01*
X71425570Y-126530000D01*
X71405344Y-126337563D01*
X71345550Y-126153537D01*
X71248802Y-125985964D01*
X71207964Y-125940608D01*
X71123749Y-125847078D01*
X71123748Y-125847077D01*
X71119327Y-125842167D01*
X71113985Y-125838286D01*
X71113983Y-125838284D01*
X70968127Y-125732314D01*
X70968126Y-125732313D01*
X70962785Y-125728433D01*
X70956757Y-125725749D01*
X70956755Y-125725748D01*
X70792048Y-125652416D01*
X70792047Y-125652416D01*
X70786017Y-125649731D01*
X70691382Y-125629615D01*
X70603205Y-125610872D01*
X70603200Y-125610872D01*
X70596748Y-125609500D01*
X70403252Y-125609500D01*
X70396800Y-125610872D01*
X70396795Y-125610872D01*
X70308618Y-125629615D01*
X70213983Y-125649731D01*
X70207953Y-125652416D01*
X70207952Y-125652416D01*
X70043245Y-125725748D01*
X70043243Y-125725749D01*
X70037215Y-125728433D01*
X70031874Y-125732313D01*
X70031873Y-125732314D01*
X69886017Y-125838284D01*
X69886015Y-125838286D01*
X69880673Y-125842167D01*
X69876252Y-125847077D01*
X69876251Y-125847078D01*
X69792037Y-125940608D01*
X69751198Y-125985964D01*
X69654450Y-126153537D01*
X69594656Y-126337563D01*
X69574430Y-126530000D01*
X40925570Y-126530000D01*
X40905344Y-126337563D01*
X40845550Y-126153537D01*
X40748802Y-125985964D01*
X40707964Y-125940608D01*
X40623749Y-125847078D01*
X40623748Y-125847077D01*
X40619327Y-125842167D01*
X40613985Y-125838286D01*
X40613983Y-125838284D01*
X40468127Y-125732314D01*
X40468126Y-125732313D01*
X40462785Y-125728433D01*
X40456757Y-125725749D01*
X40456755Y-125725748D01*
X40292048Y-125652416D01*
X40292047Y-125652416D01*
X40286017Y-125649731D01*
X40191382Y-125629615D01*
X40103205Y-125610872D01*
X40103200Y-125610872D01*
X40096748Y-125609500D01*
X39903252Y-125609500D01*
X39896800Y-125610872D01*
X39896795Y-125610872D01*
X39808618Y-125629615D01*
X39713983Y-125649731D01*
X39707953Y-125652416D01*
X39707952Y-125652416D01*
X39543245Y-125725748D01*
X39543243Y-125725749D01*
X39537215Y-125728433D01*
X39531874Y-125732313D01*
X39531873Y-125732314D01*
X39386017Y-125838284D01*
X39386015Y-125838286D01*
X39380673Y-125842167D01*
X39376252Y-125847077D01*
X39376251Y-125847078D01*
X39292037Y-125940608D01*
X39251198Y-125985964D01*
X39154450Y-126153537D01*
X39094656Y-126337563D01*
X39074430Y-126530000D01*
X32533997Y-126530000D01*
X32585044Y-126406762D01*
X32605682Y-126250000D01*
X32585044Y-126093238D01*
X32524536Y-125947159D01*
X32428282Y-125821718D01*
X32302841Y-125725464D01*
X32156762Y-125664956D01*
X32000000Y-125644318D01*
X31843238Y-125664956D01*
X31697159Y-125725464D01*
X31571718Y-125821718D01*
X31475464Y-125947159D01*
X31414956Y-126093238D01*
X31394318Y-126250000D01*
X31414956Y-126406762D01*
X31475464Y-126552841D01*
X31480491Y-126559392D01*
X31567892Y-126673296D01*
X31593492Y-126739517D01*
X31579227Y-126809065D01*
X31567892Y-126826704D01*
X31475464Y-126947159D01*
X31414956Y-127093238D01*
X31394318Y-127250000D01*
X10250000Y-127250000D01*
X10250000Y-125250000D01*
X92644318Y-125250000D01*
X92664956Y-125406762D01*
X92725464Y-125552841D01*
X92821718Y-125678282D01*
X92947159Y-125774536D01*
X93093238Y-125835044D01*
X93250000Y-125855682D01*
X93258188Y-125854604D01*
X93398574Y-125836122D01*
X93406762Y-125835044D01*
X93552841Y-125774536D01*
X93678282Y-125678282D01*
X93774536Y-125552841D01*
X93835044Y-125406762D01*
X93855682Y-125250000D01*
X93835044Y-125093238D01*
X93774536Y-124947159D01*
X93678282Y-124821718D01*
X93552841Y-124725464D01*
X93406762Y-124664956D01*
X93250000Y-124644318D01*
X93093238Y-124664956D01*
X92947159Y-124725464D01*
X92821718Y-124821718D01*
X92725464Y-124947159D01*
X92664956Y-125093238D01*
X92644318Y-125250000D01*
X10250000Y-125250000D01*
X10250000Y-124250000D01*
X14894318Y-124250000D01*
X14914956Y-124406762D01*
X14975464Y-124552841D01*
X15071718Y-124678282D01*
X15197159Y-124774536D01*
X15343238Y-124835044D01*
X15500000Y-124855682D01*
X15508188Y-124854604D01*
X15648574Y-124836122D01*
X15656762Y-124835044D01*
X15802841Y-124774536D01*
X15928282Y-124678282D01*
X16024536Y-124552841D01*
X16085044Y-124406762D01*
X16105682Y-124250000D01*
X16085044Y-124093238D01*
X16042281Y-123990000D01*
X39074430Y-123990000D01*
X39094656Y-124182437D01*
X39154450Y-124366463D01*
X39157753Y-124372185D01*
X39157754Y-124372186D01*
X39182121Y-124414391D01*
X39251198Y-124534036D01*
X39255616Y-124538943D01*
X39255617Y-124538944D01*
X39371924Y-124668116D01*
X39380673Y-124677833D01*
X39386015Y-124681714D01*
X39386017Y-124681716D01*
X39518123Y-124777696D01*
X39537215Y-124791567D01*
X39543243Y-124794251D01*
X39543245Y-124794252D01*
X39681220Y-124855682D01*
X39713983Y-124870269D01*
X39808618Y-124890385D01*
X39896795Y-124909128D01*
X39896800Y-124909128D01*
X39903252Y-124910500D01*
X40096748Y-124910500D01*
X40103200Y-124909128D01*
X40103205Y-124909128D01*
X40191382Y-124890385D01*
X40286017Y-124870269D01*
X40318780Y-124855682D01*
X40456755Y-124794252D01*
X40456757Y-124794251D01*
X40462785Y-124791567D01*
X40481877Y-124777696D01*
X40613983Y-124681716D01*
X40613985Y-124681714D01*
X40619327Y-124677833D01*
X40628076Y-124668116D01*
X40744383Y-124538944D01*
X40744384Y-124538943D01*
X40748802Y-124534036D01*
X40817879Y-124414391D01*
X40842246Y-124372186D01*
X40842247Y-124372185D01*
X40845550Y-124366463D01*
X40905344Y-124182437D01*
X40925570Y-123990000D01*
X69574430Y-123990000D01*
X69594656Y-124182437D01*
X69654450Y-124366463D01*
X69657753Y-124372185D01*
X69657754Y-124372186D01*
X69682121Y-124414391D01*
X69751198Y-124534036D01*
X69755616Y-124538943D01*
X69755617Y-124538944D01*
X69871924Y-124668116D01*
X69880673Y-124677833D01*
X69886015Y-124681714D01*
X69886017Y-124681716D01*
X70018123Y-124777696D01*
X70037215Y-124791567D01*
X70043243Y-124794251D01*
X70043245Y-124794252D01*
X70181220Y-124855682D01*
X70213983Y-124870269D01*
X70308618Y-124890385D01*
X70396795Y-124909128D01*
X70396800Y-124909128D01*
X70403252Y-124910500D01*
X70596748Y-124910500D01*
X70603200Y-124909128D01*
X70603205Y-124909128D01*
X70691382Y-124890385D01*
X70786017Y-124870269D01*
X70818780Y-124855682D01*
X70956755Y-124794252D01*
X70956757Y-124794251D01*
X70962785Y-124791567D01*
X70981877Y-124777696D01*
X71113983Y-124681716D01*
X71113985Y-124681714D01*
X71119327Y-124677833D01*
X71128076Y-124668116D01*
X71244383Y-124538944D01*
X71244384Y-124538943D01*
X71248802Y-124534036D01*
X71317879Y-124414391D01*
X71342246Y-124372186D01*
X71342247Y-124372185D01*
X71345550Y-124366463D01*
X71405344Y-124182437D01*
X71425570Y-123990000D01*
X71405344Y-123797563D01*
X71381918Y-123725464D01*
X71347592Y-123619822D01*
X71345550Y-123613537D01*
X71248802Y-123445964D01*
X71119327Y-123302167D01*
X71113985Y-123298286D01*
X71113983Y-123298284D01*
X70968127Y-123192314D01*
X70968126Y-123192313D01*
X70962785Y-123188433D01*
X70956757Y-123185749D01*
X70956755Y-123185748D01*
X70792048Y-123112416D01*
X70792047Y-123112416D01*
X70786017Y-123109731D01*
X70691382Y-123089615D01*
X70603205Y-123070872D01*
X70603200Y-123070872D01*
X70596748Y-123069500D01*
X70403252Y-123069500D01*
X70396800Y-123070872D01*
X70396795Y-123070872D01*
X70308618Y-123089615D01*
X70213983Y-123109731D01*
X70207953Y-123112416D01*
X70207952Y-123112416D01*
X70043245Y-123185748D01*
X70043243Y-123185749D01*
X70037215Y-123188433D01*
X70031874Y-123192313D01*
X70031873Y-123192314D01*
X69886017Y-123298284D01*
X69886015Y-123298286D01*
X69880673Y-123302167D01*
X69751198Y-123445964D01*
X69654450Y-123613537D01*
X69652408Y-123619822D01*
X69618083Y-123725464D01*
X69594656Y-123797563D01*
X69574430Y-123990000D01*
X40925570Y-123990000D01*
X40905344Y-123797563D01*
X40881918Y-123725464D01*
X40847592Y-123619822D01*
X40845550Y-123613537D01*
X40748802Y-123445964D01*
X40619327Y-123302167D01*
X40613985Y-123298286D01*
X40613983Y-123298284D01*
X40468127Y-123192314D01*
X40468126Y-123192313D01*
X40462785Y-123188433D01*
X40456757Y-123185749D01*
X40456755Y-123185748D01*
X40292048Y-123112416D01*
X40292047Y-123112416D01*
X40286017Y-123109731D01*
X40191382Y-123089615D01*
X40103205Y-123070872D01*
X40103200Y-123070872D01*
X40096748Y-123069500D01*
X39903252Y-123069500D01*
X39896800Y-123070872D01*
X39896795Y-123070872D01*
X39808618Y-123089615D01*
X39713983Y-123109731D01*
X39707953Y-123112416D01*
X39707952Y-123112416D01*
X39543245Y-123185748D01*
X39543243Y-123185749D01*
X39537215Y-123188433D01*
X39531874Y-123192313D01*
X39531873Y-123192314D01*
X39386017Y-123298284D01*
X39386015Y-123298286D01*
X39380673Y-123302167D01*
X39251198Y-123445964D01*
X39154450Y-123613537D01*
X39152408Y-123619822D01*
X39118083Y-123725464D01*
X39094656Y-123797563D01*
X39074430Y-123990000D01*
X16042281Y-123990000D01*
X16024536Y-123947159D01*
X15928282Y-123821718D01*
X15802841Y-123725464D01*
X15656762Y-123664956D01*
X15500000Y-123644318D01*
X15343238Y-123664956D01*
X15197159Y-123725464D01*
X15071718Y-123821718D01*
X14975464Y-123947159D01*
X14914956Y-124093238D01*
X14894318Y-124250000D01*
X10250000Y-124250000D01*
X10250000Y-121250000D01*
X33144318Y-121250000D01*
X33164956Y-121406762D01*
X33225464Y-121552841D01*
X33321718Y-121678282D01*
X33447159Y-121774536D01*
X33593238Y-121835044D01*
X33750000Y-121855682D01*
X33758188Y-121854604D01*
X33898574Y-121836122D01*
X33906762Y-121835044D01*
X34052841Y-121774536D01*
X34173296Y-121682108D01*
X34239517Y-121656508D01*
X34309065Y-121670773D01*
X34326704Y-121682108D01*
X34447159Y-121774536D01*
X34593238Y-121835044D01*
X34750000Y-121855682D01*
X34758188Y-121854604D01*
X34898574Y-121836122D01*
X34906762Y-121835044D01*
X35052841Y-121774536D01*
X35178282Y-121678282D01*
X35274536Y-121552841D01*
X35317134Y-121450000D01*
X39074430Y-121450000D01*
X39094656Y-121642437D01*
X39096696Y-121648714D01*
X39096696Y-121648716D01*
X39121633Y-121725464D01*
X39154450Y-121826463D01*
X39157753Y-121832185D01*
X39157754Y-121832186D01*
X39191298Y-121890285D01*
X39251198Y-121994036D01*
X39255616Y-121998943D01*
X39255617Y-121998944D01*
X39347892Y-122101426D01*
X39380673Y-122137833D01*
X39386015Y-122141714D01*
X39386017Y-122141716D01*
X39523788Y-122241812D01*
X39537215Y-122251567D01*
X39543243Y-122254251D01*
X39543245Y-122254252D01*
X39707952Y-122327584D01*
X39713983Y-122330269D01*
X39808618Y-122350385D01*
X39896795Y-122369128D01*
X39896800Y-122369128D01*
X39903252Y-122370500D01*
X40096748Y-122370500D01*
X40103200Y-122369128D01*
X40103205Y-122369128D01*
X40191382Y-122350385D01*
X40286017Y-122330269D01*
X40292048Y-122327584D01*
X40456755Y-122254252D01*
X40456757Y-122254251D01*
X40462785Y-122251567D01*
X40476212Y-122241812D01*
X40613983Y-122141716D01*
X40613985Y-122141714D01*
X40619327Y-122137833D01*
X40652108Y-122101426D01*
X40744383Y-121998944D01*
X40744384Y-121998943D01*
X40748802Y-121994036D01*
X40808702Y-121890285D01*
X40842246Y-121832186D01*
X40842247Y-121832185D01*
X40845550Y-121826463D01*
X40878367Y-121725464D01*
X40903304Y-121648716D01*
X40903304Y-121648714D01*
X40905344Y-121642437D01*
X40925570Y-121450000D01*
X69574430Y-121450000D01*
X69594656Y-121642437D01*
X69596696Y-121648714D01*
X69596696Y-121648716D01*
X69621633Y-121725464D01*
X69654450Y-121826463D01*
X69657753Y-121832185D01*
X69657754Y-121832186D01*
X69691298Y-121890285D01*
X69751198Y-121994036D01*
X69755616Y-121998943D01*
X69755617Y-121998944D01*
X69847892Y-122101426D01*
X69880673Y-122137833D01*
X69886015Y-122141714D01*
X69886017Y-122141716D01*
X70023788Y-122241812D01*
X70037215Y-122251567D01*
X70043243Y-122254251D01*
X70043245Y-122254252D01*
X70207952Y-122327584D01*
X70213983Y-122330269D01*
X70308618Y-122350385D01*
X70396795Y-122369128D01*
X70396800Y-122369128D01*
X70403252Y-122370500D01*
X70596748Y-122370500D01*
X70603200Y-122369128D01*
X70603205Y-122369128D01*
X70691382Y-122350385D01*
X70786017Y-122330269D01*
X70792048Y-122327584D01*
X70956755Y-122254252D01*
X70956757Y-122254251D01*
X70962785Y-122251567D01*
X70964942Y-122250000D01*
X93644318Y-122250000D01*
X93664956Y-122406762D01*
X93725464Y-122552841D01*
X93821718Y-122678282D01*
X93947159Y-122774536D01*
X94093238Y-122835044D01*
X94250000Y-122855682D01*
X94258188Y-122854604D01*
X94398574Y-122836122D01*
X94406762Y-122835044D01*
X94552841Y-122774536D01*
X94678282Y-122678282D01*
X94774536Y-122552841D01*
X94835044Y-122406762D01*
X94855682Y-122250000D01*
X94835044Y-122093238D01*
X94774536Y-121947159D01*
X94678282Y-121821718D01*
X94552841Y-121725464D01*
X94406762Y-121664956D01*
X94250000Y-121644318D01*
X94093238Y-121664956D01*
X93947159Y-121725464D01*
X93821718Y-121821718D01*
X93725464Y-121947159D01*
X93664956Y-122093238D01*
X93644318Y-122250000D01*
X70964942Y-122250000D01*
X70976212Y-122241812D01*
X71113983Y-122141716D01*
X71113985Y-122141714D01*
X71119327Y-122137833D01*
X71152108Y-122101426D01*
X71244383Y-121998944D01*
X71244384Y-121998943D01*
X71248802Y-121994036D01*
X71308702Y-121890285D01*
X71342246Y-121832186D01*
X71342247Y-121832185D01*
X71345550Y-121826463D01*
X71378367Y-121725464D01*
X71403304Y-121648716D01*
X71403304Y-121648714D01*
X71405344Y-121642437D01*
X71425570Y-121450000D01*
X71421827Y-121414391D01*
X71406034Y-121264127D01*
X71406034Y-121264126D01*
X71405344Y-121257563D01*
X71345550Y-121073537D01*
X71248802Y-120905964D01*
X71119327Y-120762167D01*
X71113985Y-120758286D01*
X71113983Y-120758284D01*
X70968127Y-120652314D01*
X70968126Y-120652313D01*
X70962785Y-120648433D01*
X70956757Y-120645749D01*
X70956755Y-120645748D01*
X70792048Y-120572416D01*
X70792047Y-120572416D01*
X70786017Y-120569731D01*
X70691382Y-120549615D01*
X70603205Y-120530872D01*
X70603200Y-120530872D01*
X70596748Y-120529500D01*
X70403252Y-120529500D01*
X70396800Y-120530872D01*
X70396795Y-120530872D01*
X70308618Y-120549615D01*
X70213983Y-120569731D01*
X70207953Y-120572416D01*
X70207952Y-120572416D01*
X70043245Y-120645748D01*
X70043243Y-120645749D01*
X70037215Y-120648433D01*
X70031874Y-120652313D01*
X70031873Y-120652314D01*
X69886017Y-120758284D01*
X69886015Y-120758286D01*
X69880673Y-120762167D01*
X69751198Y-120905964D01*
X69654450Y-121073537D01*
X69594656Y-121257563D01*
X69593966Y-121264126D01*
X69593966Y-121264127D01*
X69578173Y-121414391D01*
X69574430Y-121450000D01*
X40925570Y-121450000D01*
X40921827Y-121414391D01*
X40906034Y-121264127D01*
X40906034Y-121264126D01*
X40905344Y-121257563D01*
X40845550Y-121073537D01*
X40748802Y-120905964D01*
X40619327Y-120762167D01*
X40613985Y-120758286D01*
X40613983Y-120758284D01*
X40468127Y-120652314D01*
X40468126Y-120652313D01*
X40462785Y-120648433D01*
X40456757Y-120645749D01*
X40456755Y-120645748D01*
X40292048Y-120572416D01*
X40292047Y-120572416D01*
X40286017Y-120569731D01*
X40191382Y-120549615D01*
X40103205Y-120530872D01*
X40103200Y-120530872D01*
X40096748Y-120529500D01*
X39903252Y-120529500D01*
X39896800Y-120530872D01*
X39896795Y-120530872D01*
X39808618Y-120549615D01*
X39713983Y-120569731D01*
X39707953Y-120572416D01*
X39707952Y-120572416D01*
X39543245Y-120645748D01*
X39543243Y-120645749D01*
X39537215Y-120648433D01*
X39531874Y-120652313D01*
X39531873Y-120652314D01*
X39386017Y-120758284D01*
X39386015Y-120758286D01*
X39380673Y-120762167D01*
X39251198Y-120905964D01*
X39154450Y-121073537D01*
X39094656Y-121257563D01*
X39093966Y-121264126D01*
X39093966Y-121264127D01*
X39078173Y-121414391D01*
X39074430Y-121450000D01*
X35317134Y-121450000D01*
X35335044Y-121406762D01*
X35355682Y-121250000D01*
X35335044Y-121093238D01*
X35274536Y-120947159D01*
X35178282Y-120821718D01*
X35052841Y-120725464D01*
X34906762Y-120664956D01*
X34750000Y-120644318D01*
X34593238Y-120664956D01*
X34447159Y-120725464D01*
X34362798Y-120790196D01*
X34326704Y-120817892D01*
X34260483Y-120843492D01*
X34190935Y-120829227D01*
X34173296Y-120817892D01*
X34137202Y-120790196D01*
X34052841Y-120725464D01*
X33906762Y-120664956D01*
X33750000Y-120644318D01*
X33593238Y-120664956D01*
X33447159Y-120725464D01*
X33321718Y-120821718D01*
X33225464Y-120947159D01*
X33164956Y-121093238D01*
X33144318Y-121250000D01*
X10250000Y-121250000D01*
X10250000Y-111500000D01*
X74644318Y-111500000D01*
X74664956Y-111656762D01*
X74725464Y-111802841D01*
X74821718Y-111928282D01*
X74947159Y-112024536D01*
X75093238Y-112085044D01*
X75250000Y-112105682D01*
X75258188Y-112104604D01*
X75398574Y-112086122D01*
X75406762Y-112085044D01*
X75552841Y-112024536D01*
X75673296Y-111932108D01*
X75739517Y-111906508D01*
X75809065Y-111920773D01*
X75826704Y-111932108D01*
X75947159Y-112024536D01*
X76093238Y-112085044D01*
X76250000Y-112105682D01*
X76258188Y-112104604D01*
X76398574Y-112086122D01*
X76406762Y-112085044D01*
X76552841Y-112024536D01*
X76678282Y-111928282D01*
X76774536Y-111802841D01*
X76835044Y-111656762D01*
X76855682Y-111500000D01*
X76835044Y-111343238D01*
X76774536Y-111197159D01*
X76678282Y-111071718D01*
X76552841Y-110975464D01*
X76406762Y-110914956D01*
X76250000Y-110894318D01*
X76093238Y-110914956D01*
X75947159Y-110975464D01*
X75940608Y-110980491D01*
X75826704Y-111067892D01*
X75760483Y-111093492D01*
X75690935Y-111079227D01*
X75673296Y-111067892D01*
X75559392Y-110980491D01*
X75552841Y-110975464D01*
X75406762Y-110914956D01*
X75250000Y-110894318D01*
X75093238Y-110914956D01*
X74947159Y-110975464D01*
X74821718Y-111071718D01*
X74725464Y-111197159D01*
X74664956Y-111343238D01*
X74644318Y-111500000D01*
X10250000Y-111500000D01*
X10250000Y-107750000D01*
X74394318Y-107750000D01*
X74414956Y-107906762D01*
X74475464Y-108052841D01*
X74571718Y-108178282D01*
X74697159Y-108274536D01*
X74843238Y-108335044D01*
X75000000Y-108355682D01*
X75008188Y-108354604D01*
X75148574Y-108336122D01*
X75156762Y-108335044D01*
X75302841Y-108274536D01*
X75428282Y-108178282D01*
X75524536Y-108052841D01*
X75585044Y-107906762D01*
X75605682Y-107750000D01*
X75585044Y-107593238D01*
X75524536Y-107447159D01*
X75428282Y-107321718D01*
X75302841Y-107225464D01*
X75304886Y-107222799D01*
X75266691Y-107182750D01*
X75253246Y-107113038D01*
X75279625Y-107047124D01*
X75303980Y-107026020D01*
X75302841Y-107024536D01*
X75421736Y-106933305D01*
X75428282Y-106928282D01*
X75524536Y-106802841D01*
X75585044Y-106656762D01*
X75605682Y-106500000D01*
X75585044Y-106343238D01*
X75524536Y-106197159D01*
X75428282Y-106071718D01*
X75302841Y-105975464D01*
X75156762Y-105914956D01*
X75000000Y-105894318D01*
X74843238Y-105914956D01*
X74697159Y-105975464D01*
X74571718Y-106071718D01*
X74475464Y-106197159D01*
X74414956Y-106343238D01*
X74394318Y-106500000D01*
X74414956Y-106656762D01*
X74475464Y-106802841D01*
X74571718Y-106928282D01*
X74578264Y-106933305D01*
X74697159Y-107024536D01*
X74695114Y-107027201D01*
X74733309Y-107067250D01*
X74746754Y-107136962D01*
X74720375Y-107202876D01*
X74696020Y-107223980D01*
X74697159Y-107225464D01*
X74571718Y-107321718D01*
X74475464Y-107447159D01*
X74414956Y-107593238D01*
X74394318Y-107750000D01*
X10250000Y-107750000D01*
X10250000Y-84750000D01*
X27394318Y-84750000D01*
X27414956Y-84906762D01*
X27475464Y-85052841D01*
X27571718Y-85178282D01*
X27697159Y-85274536D01*
X27843238Y-85335044D01*
X28000000Y-85355682D01*
X28008188Y-85354604D01*
X28148574Y-85336122D01*
X28156762Y-85335044D01*
X28302841Y-85274536D01*
X28428282Y-85178282D01*
X28524536Y-85052841D01*
X28585044Y-84906762D01*
X28605682Y-84750000D01*
X28585044Y-84593238D01*
X28524536Y-84447159D01*
X28428282Y-84321718D01*
X28302841Y-84225464D01*
X28304886Y-84222799D01*
X28266691Y-84182750D01*
X28253246Y-84113038D01*
X28279625Y-84047124D01*
X28303980Y-84026020D01*
X28302841Y-84024536D01*
X28421736Y-83933305D01*
X28428282Y-83928282D01*
X28524536Y-83802841D01*
X28585044Y-83656762D01*
X28605682Y-83500000D01*
X28585044Y-83343238D01*
X28524536Y-83197159D01*
X28428282Y-83071718D01*
X28302841Y-82975464D01*
X28156762Y-82914956D01*
X28000000Y-82894318D01*
X27843238Y-82914956D01*
X27697159Y-82975464D01*
X27571718Y-83071718D01*
X27475464Y-83197159D01*
X27414956Y-83343238D01*
X27394318Y-83500000D01*
X27414956Y-83656762D01*
X27475464Y-83802841D01*
X27571718Y-83928282D01*
X27578264Y-83933305D01*
X27697159Y-84024536D01*
X27695114Y-84027201D01*
X27733309Y-84067250D01*
X27746754Y-84136962D01*
X27720375Y-84202876D01*
X27696020Y-84223980D01*
X27697159Y-84225464D01*
X27571718Y-84321718D01*
X27475464Y-84447159D01*
X27414956Y-84593238D01*
X27394318Y-84750000D01*
X10250000Y-84750000D01*
X10250000Y-81540000D01*
X39074430Y-81540000D01*
X39094656Y-81732437D01*
X39154450Y-81916463D01*
X39251198Y-82084036D01*
X39380673Y-82227833D01*
X39386015Y-82231714D01*
X39386017Y-82231716D01*
X39531873Y-82337686D01*
X39537215Y-82341567D01*
X39543243Y-82344251D01*
X39543245Y-82344252D01*
X39694604Y-82411641D01*
X39713983Y-82420269D01*
X39808617Y-82440384D01*
X39896795Y-82459128D01*
X39896800Y-82459128D01*
X39903252Y-82460500D01*
X40096748Y-82460500D01*
X40103200Y-82459128D01*
X40103205Y-82459128D01*
X40191383Y-82440384D01*
X40286017Y-82420269D01*
X40305396Y-82411641D01*
X40456755Y-82344252D01*
X40456757Y-82344251D01*
X40462785Y-82341567D01*
X40468127Y-82337686D01*
X40613983Y-82231716D01*
X40613985Y-82231714D01*
X40619327Y-82227833D01*
X40748802Y-82084036D01*
X40845550Y-81916463D01*
X40905344Y-81732437D01*
X40925570Y-81540000D01*
X40924519Y-81530000D01*
X69074430Y-81530000D01*
X69094656Y-81722437D01*
X69154450Y-81906463D01*
X69251198Y-82074036D01*
X69380673Y-82217833D01*
X69386015Y-82221714D01*
X69386017Y-82221716D01*
X69399781Y-82231716D01*
X69537215Y-82331567D01*
X69543243Y-82334251D01*
X69543245Y-82334252D01*
X69707952Y-82407584D01*
X69713983Y-82410269D01*
X69808617Y-82430384D01*
X69896795Y-82449128D01*
X69896800Y-82449128D01*
X69903252Y-82450500D01*
X70096748Y-82450500D01*
X70103200Y-82449128D01*
X70103205Y-82449128D01*
X70191383Y-82430384D01*
X70286017Y-82410269D01*
X70292048Y-82407584D01*
X70456755Y-82334252D01*
X70456757Y-82334251D01*
X70462785Y-82331567D01*
X70600219Y-82231716D01*
X70613983Y-82221716D01*
X70613985Y-82221714D01*
X70619327Y-82217833D01*
X70748802Y-82074036D01*
X70845550Y-81906463D01*
X70905344Y-81722437D01*
X70925570Y-81530000D01*
X70905344Y-81337563D01*
X70845550Y-81153537D01*
X70748802Y-80985964D01*
X70619327Y-80842167D01*
X70613985Y-80838286D01*
X70613983Y-80838284D01*
X70468127Y-80732314D01*
X70468126Y-80732313D01*
X70462785Y-80728433D01*
X70456757Y-80725749D01*
X70456755Y-80725748D01*
X70292048Y-80652416D01*
X70292047Y-80652416D01*
X70286017Y-80649731D01*
X70191382Y-80629615D01*
X70103205Y-80610872D01*
X70103200Y-80610872D01*
X70096748Y-80609500D01*
X69903252Y-80609500D01*
X69896800Y-80610872D01*
X69896795Y-80610872D01*
X69808618Y-80629615D01*
X69713983Y-80649731D01*
X69707953Y-80652416D01*
X69707952Y-80652416D01*
X69543245Y-80725748D01*
X69543243Y-80725749D01*
X69537215Y-80728433D01*
X69531874Y-80732313D01*
X69531873Y-80732314D01*
X69386017Y-80838284D01*
X69386015Y-80838286D01*
X69380673Y-80842167D01*
X69251198Y-80985964D01*
X69154450Y-81153537D01*
X69094656Y-81337563D01*
X69074430Y-81530000D01*
X40924519Y-81530000D01*
X40905344Y-81347563D01*
X40845550Y-81163537D01*
X40748802Y-80995964D01*
X40619327Y-80852167D01*
X40613985Y-80848286D01*
X40613983Y-80848284D01*
X40468127Y-80742314D01*
X40468126Y-80742313D01*
X40462785Y-80738433D01*
X40456757Y-80735749D01*
X40456755Y-80735748D01*
X40292048Y-80662416D01*
X40292047Y-80662416D01*
X40286017Y-80659731D01*
X40191382Y-80639615D01*
X40103205Y-80620872D01*
X40103200Y-80620872D01*
X40096748Y-80619500D01*
X39903252Y-80619500D01*
X39896800Y-80620872D01*
X39896795Y-80620872D01*
X39808618Y-80639615D01*
X39713983Y-80659731D01*
X39707953Y-80662416D01*
X39707952Y-80662416D01*
X39543245Y-80735748D01*
X39543243Y-80735749D01*
X39537215Y-80738433D01*
X39531874Y-80742313D01*
X39531873Y-80742314D01*
X39386017Y-80848284D01*
X39386015Y-80848286D01*
X39380673Y-80852167D01*
X39251198Y-80995964D01*
X39154450Y-81163537D01*
X39094656Y-81347563D01*
X39074430Y-81540000D01*
X10250000Y-81540000D01*
X10250000Y-79000000D01*
X39074430Y-79000000D01*
X39094656Y-79192437D01*
X39154450Y-79376463D01*
X39251198Y-79544036D01*
X39380673Y-79687833D01*
X39386015Y-79691714D01*
X39386017Y-79691716D01*
X39531873Y-79797686D01*
X39537215Y-79801567D01*
X39543243Y-79804251D01*
X39543245Y-79804252D01*
X39694604Y-79871641D01*
X39713983Y-79880269D01*
X39808617Y-79900384D01*
X39896795Y-79919128D01*
X39896800Y-79919128D01*
X39903252Y-79920500D01*
X40096748Y-79920500D01*
X40103200Y-79919128D01*
X40103205Y-79919128D01*
X40191383Y-79900384D01*
X40286017Y-79880269D01*
X40305396Y-79871641D01*
X40456755Y-79804252D01*
X40456757Y-79804251D01*
X40462785Y-79801567D01*
X40468127Y-79797686D01*
X40613983Y-79691716D01*
X40613985Y-79691714D01*
X40619327Y-79687833D01*
X40748802Y-79544036D01*
X40845550Y-79376463D01*
X40905344Y-79192437D01*
X40925570Y-79000000D01*
X40924519Y-78990000D01*
X69074430Y-78990000D01*
X69094656Y-79182437D01*
X69154450Y-79366463D01*
X69251198Y-79534036D01*
X69380673Y-79677833D01*
X69386015Y-79681714D01*
X69386017Y-79681716D01*
X69399781Y-79691716D01*
X69537215Y-79791567D01*
X69543243Y-79794251D01*
X69543245Y-79794252D01*
X69707952Y-79867584D01*
X69713983Y-79870269D01*
X69808617Y-79890384D01*
X69896795Y-79909128D01*
X69896800Y-79909128D01*
X69903252Y-79910500D01*
X70096748Y-79910500D01*
X70103200Y-79909128D01*
X70103205Y-79909128D01*
X70191383Y-79890384D01*
X70286017Y-79870269D01*
X70292048Y-79867584D01*
X70456755Y-79794252D01*
X70456757Y-79794251D01*
X70462785Y-79791567D01*
X70600219Y-79691716D01*
X70613983Y-79681716D01*
X70613985Y-79681714D01*
X70619327Y-79677833D01*
X70748802Y-79534036D01*
X70845550Y-79366463D01*
X70905344Y-79182437D01*
X70925570Y-78990000D01*
X70905344Y-78797563D01*
X70845550Y-78613537D01*
X70748802Y-78445964D01*
X70625833Y-78309392D01*
X70623749Y-78307078D01*
X70623748Y-78307077D01*
X70619327Y-78302167D01*
X70613985Y-78298286D01*
X70613983Y-78298284D01*
X70468127Y-78192314D01*
X70468126Y-78192313D01*
X70462785Y-78188433D01*
X70456757Y-78185749D01*
X70456755Y-78185748D01*
X70292048Y-78112416D01*
X70292047Y-78112416D01*
X70286017Y-78109731D01*
X70191382Y-78089615D01*
X70103205Y-78070872D01*
X70103200Y-78070872D01*
X70096748Y-78069500D01*
X69903252Y-78069500D01*
X69896800Y-78070872D01*
X69896795Y-78070872D01*
X69808618Y-78089615D01*
X69713983Y-78109731D01*
X69707953Y-78112416D01*
X69707952Y-78112416D01*
X69543245Y-78185748D01*
X69543243Y-78185749D01*
X69537215Y-78188433D01*
X69531874Y-78192313D01*
X69531873Y-78192314D01*
X69386017Y-78298284D01*
X69386015Y-78298286D01*
X69380673Y-78302167D01*
X69376252Y-78307077D01*
X69376251Y-78307078D01*
X69374168Y-78309392D01*
X69251198Y-78445964D01*
X69154450Y-78613537D01*
X69094656Y-78797563D01*
X69074430Y-78990000D01*
X40924519Y-78990000D01*
X40905344Y-78807563D01*
X40845550Y-78623537D01*
X40835242Y-78605682D01*
X40788392Y-78524536D01*
X40748802Y-78455964D01*
X40619327Y-78312167D01*
X40613985Y-78308286D01*
X40613983Y-78308284D01*
X40468127Y-78202314D01*
X40468126Y-78202313D01*
X40462785Y-78198433D01*
X40456757Y-78195749D01*
X40456755Y-78195748D01*
X40292048Y-78122416D01*
X40292047Y-78122416D01*
X40286017Y-78119731D01*
X40191382Y-78099615D01*
X40103205Y-78080872D01*
X40103200Y-78080872D01*
X40096748Y-78079500D01*
X39903252Y-78079500D01*
X39896800Y-78080872D01*
X39896795Y-78080872D01*
X39808618Y-78099615D01*
X39713983Y-78119731D01*
X39707953Y-78122416D01*
X39707952Y-78122416D01*
X39543245Y-78195748D01*
X39543243Y-78195749D01*
X39537215Y-78198433D01*
X39531874Y-78202313D01*
X39531873Y-78202314D01*
X39386017Y-78308284D01*
X39386015Y-78308286D01*
X39380673Y-78312167D01*
X39251198Y-78455964D01*
X39211608Y-78524536D01*
X39164759Y-78605682D01*
X39154450Y-78623537D01*
X39094656Y-78807563D01*
X39074430Y-79000000D01*
X10250000Y-79000000D01*
X10250000Y-78000000D01*
X33144318Y-78000000D01*
X33164956Y-78156762D01*
X33225464Y-78302841D01*
X33321718Y-78428282D01*
X33447159Y-78524536D01*
X33593238Y-78585044D01*
X33750000Y-78605682D01*
X33758188Y-78604604D01*
X33898574Y-78586122D01*
X33906762Y-78585044D01*
X34052841Y-78524536D01*
X34173296Y-78432108D01*
X34239517Y-78406508D01*
X34309065Y-78420773D01*
X34326704Y-78432108D01*
X34447159Y-78524536D01*
X34593238Y-78585044D01*
X34750000Y-78605682D01*
X34758188Y-78604604D01*
X34898574Y-78586122D01*
X34906762Y-78585044D01*
X35052841Y-78524536D01*
X35178282Y-78428282D01*
X35274536Y-78302841D01*
X35335044Y-78156762D01*
X35355682Y-78000000D01*
X35335044Y-77843238D01*
X35274536Y-77697159D01*
X35178282Y-77571718D01*
X35052841Y-77475464D01*
X34906762Y-77414956D01*
X34750000Y-77394318D01*
X34593238Y-77414956D01*
X34447159Y-77475464D01*
X34440608Y-77480491D01*
X34326704Y-77567892D01*
X34260483Y-77593492D01*
X34190935Y-77579227D01*
X34173296Y-77567892D01*
X34059392Y-77480491D01*
X34052841Y-77475464D01*
X33906762Y-77414956D01*
X33750000Y-77394318D01*
X33593238Y-77414956D01*
X33447159Y-77475464D01*
X33321718Y-77571718D01*
X33225464Y-77697159D01*
X33164956Y-77843238D01*
X33144318Y-78000000D01*
X10250000Y-78000000D01*
X10250000Y-76460000D01*
X39074430Y-76460000D01*
X39094656Y-76652437D01*
X39154450Y-76836463D01*
X39251198Y-77004036D01*
X39380673Y-77147833D01*
X39386015Y-77151714D01*
X39386017Y-77151716D01*
X39531873Y-77257686D01*
X39537215Y-77261567D01*
X39543243Y-77264251D01*
X39543245Y-77264252D01*
X39694604Y-77331641D01*
X39713983Y-77340269D01*
X39808618Y-77360385D01*
X39896795Y-77379128D01*
X39896800Y-77379128D01*
X39903252Y-77380500D01*
X40096748Y-77380500D01*
X40103200Y-77379128D01*
X40103205Y-77379128D01*
X40191382Y-77360385D01*
X40286017Y-77340269D01*
X40305396Y-77331641D01*
X40456755Y-77264252D01*
X40456757Y-77264251D01*
X40462785Y-77261567D01*
X40468127Y-77257686D01*
X40613983Y-77151716D01*
X40613985Y-77151714D01*
X40619327Y-77147833D01*
X40748802Y-77004036D01*
X40845550Y-76836463D01*
X40905344Y-76652437D01*
X40925570Y-76460000D01*
X40924519Y-76450000D01*
X69074430Y-76450000D01*
X69094656Y-76642437D01*
X69154450Y-76826463D01*
X69251198Y-76994036D01*
X69380673Y-77137833D01*
X69386015Y-77141714D01*
X69386017Y-77141716D01*
X69399781Y-77151716D01*
X69537215Y-77251567D01*
X69543243Y-77254251D01*
X69543245Y-77254252D01*
X69707952Y-77327584D01*
X69713983Y-77330269D01*
X69808617Y-77350384D01*
X69896795Y-77369128D01*
X69896800Y-77369128D01*
X69903252Y-77370500D01*
X70096748Y-77370500D01*
X70103200Y-77369128D01*
X70103205Y-77369128D01*
X70191383Y-77350384D01*
X70286017Y-77330269D01*
X70292048Y-77327584D01*
X70456755Y-77254252D01*
X70456757Y-77254251D01*
X70462785Y-77251567D01*
X70600219Y-77151716D01*
X70613983Y-77141716D01*
X70613985Y-77141714D01*
X70619327Y-77137833D01*
X70748802Y-76994036D01*
X70845550Y-76826463D01*
X70905344Y-76642437D01*
X70925570Y-76450000D01*
X70905344Y-76257563D01*
X70845550Y-76073537D01*
X70748802Y-75905964D01*
X70619327Y-75762167D01*
X70613985Y-75758286D01*
X70613983Y-75758284D01*
X70468127Y-75652314D01*
X70468126Y-75652313D01*
X70462785Y-75648433D01*
X70456757Y-75645749D01*
X70456755Y-75645748D01*
X70292048Y-75572416D01*
X70292047Y-75572416D01*
X70286017Y-75569731D01*
X70191382Y-75549615D01*
X70103205Y-75530872D01*
X70103200Y-75530872D01*
X70096748Y-75529500D01*
X69903252Y-75529500D01*
X69896800Y-75530872D01*
X69896795Y-75530872D01*
X69808618Y-75549615D01*
X69713983Y-75569731D01*
X69707953Y-75572416D01*
X69707952Y-75572416D01*
X69543245Y-75645748D01*
X69543243Y-75645749D01*
X69537215Y-75648433D01*
X69531874Y-75652313D01*
X69531873Y-75652314D01*
X69386017Y-75758284D01*
X69386015Y-75758286D01*
X69380673Y-75762167D01*
X69251198Y-75905964D01*
X69154450Y-76073537D01*
X69094656Y-76257563D01*
X69074430Y-76450000D01*
X40924519Y-76450000D01*
X40905344Y-76267563D01*
X40845550Y-76083537D01*
X40748802Y-75915964D01*
X40619327Y-75772167D01*
X40613985Y-75768286D01*
X40613983Y-75768284D01*
X40468127Y-75662314D01*
X40468126Y-75662313D01*
X40462785Y-75658433D01*
X40456757Y-75655749D01*
X40456755Y-75655748D01*
X40292048Y-75582416D01*
X40292047Y-75582416D01*
X40286017Y-75579731D01*
X40191382Y-75559615D01*
X40103205Y-75540872D01*
X40103200Y-75540872D01*
X40096748Y-75539500D01*
X39903252Y-75539500D01*
X39896800Y-75540872D01*
X39896795Y-75540872D01*
X39808618Y-75559615D01*
X39713983Y-75579731D01*
X39707953Y-75582416D01*
X39707952Y-75582416D01*
X39543245Y-75655748D01*
X39543243Y-75655749D01*
X39537215Y-75658433D01*
X39531874Y-75662313D01*
X39531873Y-75662314D01*
X39386017Y-75768284D01*
X39386015Y-75768286D01*
X39380673Y-75772167D01*
X39251198Y-75915964D01*
X39154450Y-76083537D01*
X39094656Y-76267563D01*
X39074430Y-76460000D01*
X10250000Y-76460000D01*
X10250000Y-68250000D01*
X74644318Y-68250000D01*
X74664956Y-68406762D01*
X74725464Y-68552841D01*
X74821718Y-68678282D01*
X74947159Y-68774536D01*
X75093238Y-68835044D01*
X75250000Y-68855682D01*
X75258188Y-68854604D01*
X75398574Y-68836122D01*
X75406762Y-68835044D01*
X75552841Y-68774536D01*
X75673296Y-68682108D01*
X75739517Y-68656508D01*
X75809065Y-68670773D01*
X75826704Y-68682108D01*
X75947159Y-68774536D01*
X76093238Y-68835044D01*
X76250000Y-68855682D01*
X76258188Y-68854604D01*
X76398574Y-68836122D01*
X76406762Y-68835044D01*
X76552841Y-68774536D01*
X76678282Y-68678282D01*
X76774536Y-68552841D01*
X76835044Y-68406762D01*
X76855682Y-68250000D01*
X76835044Y-68093238D01*
X76774536Y-67947159D01*
X76678282Y-67821718D01*
X76552841Y-67725464D01*
X76406762Y-67664956D01*
X76250000Y-67644318D01*
X76093238Y-67664956D01*
X75947159Y-67725464D01*
X75940608Y-67730491D01*
X75826704Y-67817892D01*
X75760483Y-67843492D01*
X75690935Y-67829227D01*
X75673296Y-67817892D01*
X75559392Y-67730491D01*
X75552841Y-67725464D01*
X75406762Y-67664956D01*
X75250000Y-67644318D01*
X75093238Y-67664956D01*
X74947159Y-67725464D01*
X74821718Y-67821718D01*
X74725464Y-67947159D01*
X74664956Y-68093238D01*
X74644318Y-68250000D01*
X10250000Y-68250000D01*
X10250000Y-64083037D01*
X78625149Y-64083037D01*
X78645787Y-64239799D01*
X78706295Y-64385878D01*
X78802549Y-64511319D01*
X78927990Y-64607573D01*
X79074069Y-64668081D01*
X79230831Y-64688719D01*
X79239019Y-64687641D01*
X79379405Y-64669159D01*
X79387593Y-64668081D01*
X79533672Y-64607573D01*
X79659113Y-64511319D01*
X79755367Y-64385878D01*
X79815875Y-64239799D01*
X79836513Y-64083037D01*
X79815875Y-63926275D01*
X79755367Y-63780196D01*
X79659113Y-63654755D01*
X79651399Y-63648836D01*
X79650664Y-63647829D01*
X79646722Y-63643887D01*
X79647337Y-63643272D01*
X79609532Y-63591499D01*
X79605310Y-63520628D01*
X79640073Y-63458725D01*
X79651399Y-63448910D01*
X79671736Y-63433305D01*
X79671738Y-63433303D01*
X79678282Y-63428282D01*
X79774536Y-63302841D01*
X79835044Y-63156762D01*
X79855682Y-63000000D01*
X79835044Y-62843238D01*
X79774536Y-62697159D01*
X79678282Y-62571718D01*
X79552841Y-62475464D01*
X79406762Y-62414956D01*
X79250000Y-62394318D01*
X79093238Y-62414956D01*
X78947159Y-62475464D01*
X78821718Y-62571718D01*
X78725464Y-62697159D01*
X78664956Y-62843238D01*
X78644318Y-63000000D01*
X78664956Y-63156762D01*
X78725464Y-63302841D01*
X78821718Y-63428282D01*
X78828265Y-63433305D01*
X78829431Y-63434200D01*
X78830167Y-63435208D01*
X78834109Y-63439150D01*
X78833494Y-63439765D01*
X78871299Y-63491538D01*
X78875521Y-63562409D01*
X78840758Y-63624312D01*
X78829432Y-63634127D01*
X78810262Y-63648837D01*
X78802549Y-63654755D01*
X78706295Y-63780196D01*
X78645787Y-63926275D01*
X78625149Y-64083037D01*
X10250000Y-64083037D01*
X10250000Y-43250000D01*
X34894318Y-43250000D01*
X34914956Y-43406762D01*
X34975464Y-43552841D01*
X35071718Y-43678282D01*
X35197159Y-43774536D01*
X35343238Y-43835044D01*
X35500000Y-43855682D01*
X35508188Y-43854604D01*
X35648574Y-43836122D01*
X35656762Y-43835044D01*
X35802841Y-43774536D01*
X35928282Y-43678282D01*
X36024536Y-43552841D01*
X36085044Y-43406762D01*
X36105682Y-43250000D01*
X36085044Y-43093238D01*
X36024536Y-42947159D01*
X35928282Y-42821718D01*
X35802841Y-42725464D01*
X35656762Y-42664956D01*
X35500000Y-42644318D01*
X35343238Y-42664956D01*
X35197159Y-42725464D01*
X35071718Y-42821718D01*
X34975464Y-42947159D01*
X34914956Y-43093238D01*
X34894318Y-43250000D01*
X10250000Y-43250000D01*
X10250000Y-41750000D01*
X34894318Y-41750000D01*
X34914956Y-41906762D01*
X34975464Y-42052841D01*
X35071718Y-42178282D01*
X35197159Y-42274536D01*
X35343238Y-42335044D01*
X35500000Y-42355682D01*
X35508188Y-42354604D01*
X35648574Y-42336122D01*
X35656762Y-42335044D01*
X35802841Y-42274536D01*
X35928282Y-42178282D01*
X36024536Y-42052841D01*
X36085044Y-41906762D01*
X36105682Y-41750000D01*
X36085044Y-41593238D01*
X36024536Y-41447159D01*
X35928282Y-41321718D01*
X35802841Y-41225464D01*
X35656762Y-41164956D01*
X35500000Y-41144318D01*
X35343238Y-41164956D01*
X35197159Y-41225464D01*
X35071718Y-41321718D01*
X34975464Y-41447159D01*
X34914956Y-41593238D01*
X34894318Y-41750000D01*
X10250000Y-41750000D01*
X10250000Y-37500000D01*
X33144318Y-37500000D01*
X33164956Y-37656762D01*
X33225464Y-37802841D01*
X33321718Y-37928282D01*
X33447159Y-38024536D01*
X33593238Y-38085044D01*
X33750000Y-38105682D01*
X33758188Y-38104604D01*
X33898574Y-38086122D01*
X33906762Y-38085044D01*
X34052841Y-38024536D01*
X34173296Y-37932108D01*
X34239517Y-37906508D01*
X34309065Y-37920773D01*
X34326704Y-37932108D01*
X34447159Y-38024536D01*
X34593238Y-38085044D01*
X34750000Y-38105682D01*
X34758188Y-38104604D01*
X34898574Y-38086122D01*
X34906762Y-38085044D01*
X35052841Y-38024536D01*
X35178282Y-37928282D01*
X35274536Y-37802841D01*
X35335044Y-37656762D01*
X35355682Y-37500000D01*
X35335044Y-37343238D01*
X35274536Y-37197159D01*
X35178282Y-37071718D01*
X35052841Y-36975464D01*
X34906762Y-36914956D01*
X34750000Y-36894318D01*
X34593238Y-36914956D01*
X34447159Y-36975464D01*
X34440608Y-36980491D01*
X34326704Y-37067892D01*
X34260483Y-37093492D01*
X34190935Y-37079227D01*
X34173296Y-37067892D01*
X34059392Y-36980491D01*
X34052841Y-36975464D01*
X33906762Y-36914956D01*
X33750000Y-36894318D01*
X33593238Y-36914956D01*
X33447159Y-36975464D01*
X33321718Y-37071718D01*
X33225464Y-37197159D01*
X33164956Y-37343238D01*
X33144318Y-37500000D01*
X10250000Y-37500000D01*
X10250000Y-28000000D01*
X75144318Y-28000000D01*
X75164956Y-28156762D01*
X75225464Y-28302841D01*
X75321718Y-28428282D01*
X75447159Y-28524536D01*
X75593238Y-28585044D01*
X75750000Y-28605682D01*
X75758188Y-28604604D01*
X75898574Y-28586122D01*
X75906762Y-28585044D01*
X76052841Y-28524536D01*
X76173296Y-28432108D01*
X76239517Y-28406508D01*
X76309065Y-28420773D01*
X76326704Y-28432108D01*
X76447159Y-28524536D01*
X76593238Y-28585044D01*
X76750000Y-28605682D01*
X76758188Y-28604604D01*
X76898574Y-28586122D01*
X76906762Y-28585044D01*
X77052841Y-28524536D01*
X77178282Y-28428282D01*
X77274536Y-28302841D01*
X77335044Y-28156762D01*
X77355682Y-28000000D01*
X77335044Y-27843238D01*
X77274536Y-27697159D01*
X77178282Y-27571718D01*
X77052841Y-27475464D01*
X76906762Y-27414956D01*
X76750000Y-27394318D01*
X76593238Y-27414956D01*
X76447159Y-27475464D01*
X76440608Y-27480491D01*
X76326704Y-27567892D01*
X76260483Y-27593492D01*
X76190935Y-27579227D01*
X76173296Y-27567892D01*
X76059392Y-27480491D01*
X76052841Y-27475464D01*
X75906762Y-27414956D01*
X75750000Y-27394318D01*
X75593238Y-27414956D01*
X75447159Y-27475464D01*
X75321718Y-27571718D01*
X75225464Y-27697159D01*
X75164956Y-27843238D01*
X75144318Y-28000000D01*
X10250000Y-28000000D01*
X10250000Y-23000000D01*
X49394318Y-23000000D01*
X49414956Y-23156762D01*
X49475464Y-23302841D01*
X49571718Y-23428282D01*
X49697159Y-23524536D01*
X49843238Y-23585044D01*
X50000000Y-23605682D01*
X50008188Y-23604604D01*
X50148574Y-23586122D01*
X50156762Y-23585044D01*
X50302841Y-23524536D01*
X50428282Y-23428282D01*
X50524536Y-23302841D01*
X50546423Y-23250000D01*
X73394318Y-23250000D01*
X73414956Y-23406762D01*
X73475464Y-23552841D01*
X73571718Y-23678282D01*
X73697159Y-23774536D01*
X73843238Y-23835044D01*
X74000000Y-23855682D01*
X74008188Y-23854604D01*
X74148574Y-23836122D01*
X74156762Y-23835044D01*
X74302841Y-23774536D01*
X74428282Y-23678282D01*
X74524536Y-23552841D01*
X74585044Y-23406762D01*
X74605682Y-23250000D01*
X74585044Y-23093238D01*
X74524536Y-22947159D01*
X74428282Y-22821718D01*
X74302841Y-22725464D01*
X74304886Y-22722799D01*
X74266691Y-22682750D01*
X74253246Y-22613038D01*
X74279625Y-22547124D01*
X74303980Y-22526020D01*
X74302841Y-22524536D01*
X74421736Y-22433305D01*
X74428282Y-22428282D01*
X74524536Y-22302841D01*
X74585044Y-22156762D01*
X74605682Y-22000000D01*
X74585044Y-21843238D01*
X74524536Y-21697159D01*
X74428282Y-21571718D01*
X74302841Y-21475464D01*
X74156762Y-21414956D01*
X74000000Y-21394318D01*
X73843238Y-21414956D01*
X73697159Y-21475464D01*
X73571718Y-21571718D01*
X73475464Y-21697159D01*
X73414956Y-21843238D01*
X73394318Y-22000000D01*
X73414956Y-22156762D01*
X73475464Y-22302841D01*
X73571718Y-22428282D01*
X73578264Y-22433305D01*
X73697159Y-22524536D01*
X73695114Y-22527201D01*
X73733309Y-22567250D01*
X73746754Y-22636962D01*
X73720375Y-22702876D01*
X73696020Y-22723980D01*
X73697159Y-22725464D01*
X73571718Y-22821718D01*
X73475464Y-22947159D01*
X73414956Y-23093238D01*
X73394318Y-23250000D01*
X50546423Y-23250000D01*
X50585044Y-23156762D01*
X50605682Y-23000000D01*
X50585044Y-22843238D01*
X50524536Y-22697159D01*
X50432108Y-22576704D01*
X50406508Y-22510483D01*
X50420773Y-22440935D01*
X50432108Y-22423296D01*
X50519509Y-22309392D01*
X50524536Y-22302841D01*
X50585044Y-22156762D01*
X50605682Y-22000000D01*
X50585044Y-21843238D01*
X50524536Y-21697159D01*
X50432108Y-21576704D01*
X50406508Y-21510483D01*
X50420773Y-21440935D01*
X50432108Y-21423296D01*
X50519509Y-21309392D01*
X50524536Y-21302841D01*
X50585044Y-21156762D01*
X50605682Y-21000000D01*
X50585044Y-20843238D01*
X50524536Y-20697159D01*
X50432108Y-20576704D01*
X50406508Y-20510483D01*
X50420773Y-20440935D01*
X50432108Y-20423296D01*
X50519509Y-20309392D01*
X50524536Y-20302841D01*
X50585044Y-20156762D01*
X50605682Y-20000000D01*
X50585044Y-19843238D01*
X50524536Y-19697159D01*
X50432108Y-19576704D01*
X50406508Y-19510483D01*
X50420773Y-19440935D01*
X50432108Y-19423296D01*
X50519509Y-19309392D01*
X50524536Y-19302841D01*
X50585044Y-19156762D01*
X50605682Y-19000000D01*
X50585044Y-18843238D01*
X50524536Y-18697159D01*
X50428282Y-18571718D01*
X50302841Y-18475464D01*
X50156762Y-18414956D01*
X50000000Y-18394318D01*
X49843238Y-18414956D01*
X49697159Y-18475464D01*
X49571718Y-18571718D01*
X49475464Y-18697159D01*
X49414956Y-18843238D01*
X49394318Y-19000000D01*
X49414956Y-19156762D01*
X49475464Y-19302841D01*
X49480491Y-19309392D01*
X49567892Y-19423296D01*
X49593492Y-19489517D01*
X49579227Y-19559065D01*
X49567892Y-19576704D01*
X49475464Y-19697159D01*
X49414956Y-19843238D01*
X49394318Y-20000000D01*
X49414956Y-20156762D01*
X49475464Y-20302841D01*
X49480491Y-20309392D01*
X49567892Y-20423296D01*
X49593492Y-20489517D01*
X49579227Y-20559065D01*
X49567892Y-20576704D01*
X49475464Y-20697159D01*
X49414956Y-20843238D01*
X49394318Y-21000000D01*
X49414956Y-21156762D01*
X49475464Y-21302841D01*
X49480491Y-21309392D01*
X49567892Y-21423296D01*
X49593492Y-21489517D01*
X49579227Y-21559065D01*
X49567892Y-21576704D01*
X49475464Y-21697159D01*
X49414956Y-21843238D01*
X49394318Y-22000000D01*
X49414956Y-22156762D01*
X49475464Y-22302841D01*
X49480491Y-22309392D01*
X49567892Y-22423296D01*
X49593492Y-22489517D01*
X49579227Y-22559065D01*
X49567892Y-22576704D01*
X49475464Y-22697159D01*
X49414956Y-22843238D01*
X49394318Y-23000000D01*
X10250000Y-23000000D01*
X10250000Y-14753539D01*
X10250198Y-14746474D01*
X10268466Y-14421172D01*
X10270048Y-14407131D01*
X10324031Y-14089413D01*
X10327175Y-14075638D01*
X10354793Y-13979772D01*
X10416394Y-13765953D01*
X10421055Y-13752632D01*
X10544387Y-13454882D01*
X10550516Y-13442155D01*
X10706406Y-13160094D01*
X10713924Y-13148130D01*
X10900409Y-12885306D01*
X10909218Y-12874260D01*
X11123965Y-12633957D01*
X11133957Y-12623965D01*
X11374260Y-12409218D01*
X11385306Y-12400409D01*
X11648130Y-12213924D01*
X11660094Y-12206406D01*
X11725869Y-12170053D01*
X11942159Y-12050514D01*
X11954882Y-12044387D01*
X12252632Y-11921055D01*
X12265953Y-11916394D01*
X12479772Y-11854793D01*
X12575638Y-11827175D01*
X12589413Y-11824031D01*
X12748272Y-11797039D01*
X12907136Y-11770047D01*
X12921168Y-11768466D01*
X13246474Y-11750198D01*
X13253539Y-11750000D01*
X97746461Y-11750000D01*
X97753526Y-11750198D01*
G37*
G04 #@! TD.AperFunction*
G04 #@! TA.AperFunction,Conductor*
G36*
X74753526Y-139250198D02*
G01*
X75078832Y-139268466D01*
X75092864Y-139270047D01*
X75251728Y-139297040D01*
X75410587Y-139324031D01*
X75424362Y-139327175D01*
X75520228Y-139354793D01*
X75734047Y-139416394D01*
X75747368Y-139421055D01*
X76045118Y-139544387D01*
X76057841Y-139550514D01*
X76274131Y-139670053D01*
X76339906Y-139706406D01*
X76351870Y-139713924D01*
X76614694Y-139900409D01*
X76625740Y-139909218D01*
X76866043Y-140123965D01*
X76876035Y-140133957D01*
X77090782Y-140374260D01*
X77099591Y-140385306D01*
X77286076Y-140648130D01*
X77293594Y-140660094D01*
X77449484Y-140942155D01*
X77455613Y-140954882D01*
X77578945Y-141252632D01*
X77583606Y-141265953D01*
X77645207Y-141479772D01*
X77672825Y-141575638D01*
X77675969Y-141589413D01*
X77729952Y-141907131D01*
X77731534Y-141921172D01*
X77749802Y-142246474D01*
X77750000Y-142253539D01*
X77750000Y-150746461D01*
X77749802Y-150753526D01*
X77731534Y-151078828D01*
X77729952Y-151092869D01*
X77675969Y-151410587D01*
X77672825Y-151424362D01*
X77583606Y-151734047D01*
X77578945Y-151747368D01*
X77455615Y-152045114D01*
X77449484Y-152057845D01*
X77293594Y-152339906D01*
X77286076Y-152351870D01*
X77099591Y-152614694D01*
X77090782Y-152625740D01*
X76876035Y-152866043D01*
X76866043Y-152876035D01*
X76625740Y-153090782D01*
X76614694Y-153099591D01*
X76351870Y-153286076D01*
X76339906Y-153293594D01*
X76057841Y-153449486D01*
X76045118Y-153455613D01*
X75747368Y-153578945D01*
X75734047Y-153583606D01*
X75520228Y-153645207D01*
X75424362Y-153672825D01*
X75410587Y-153675969D01*
X75251728Y-153702960D01*
X75092864Y-153729953D01*
X75078832Y-153731534D01*
X74753526Y-153749802D01*
X74746461Y-153750000D01*
X22753539Y-153750000D01*
X22746474Y-153749802D01*
X22421168Y-153731534D01*
X22407136Y-153729953D01*
X22248272Y-153702960D01*
X22089413Y-153675969D01*
X22075638Y-153672825D01*
X21979772Y-153645207D01*
X21765953Y-153583606D01*
X21752632Y-153578945D01*
X21454882Y-153455613D01*
X21442159Y-153449486D01*
X21160094Y-153293594D01*
X21148130Y-153286076D01*
X20885306Y-153099591D01*
X20874260Y-153090782D01*
X20633957Y-152876035D01*
X20623965Y-152866043D01*
X20409218Y-152625740D01*
X20400409Y-152614694D01*
X20213924Y-152351870D01*
X20206406Y-152339906D01*
X20050516Y-152057845D01*
X20044385Y-152045114D01*
X19921055Y-151747368D01*
X19916394Y-151734047D01*
X19827175Y-151424362D01*
X19824031Y-151410587D01*
X19770048Y-151092869D01*
X19768466Y-151078828D01*
X19750198Y-150753526D01*
X19750000Y-150746461D01*
X19750000Y-145750000D01*
X25644318Y-145750000D01*
X25664956Y-145906762D01*
X25725464Y-146052841D01*
X25821718Y-146178282D01*
X25947159Y-146274536D01*
X26093238Y-146335044D01*
X26250000Y-146355682D01*
X26258188Y-146354604D01*
X26398574Y-146336122D01*
X26406762Y-146335044D01*
X26552841Y-146274536D01*
X26678282Y-146178282D01*
X26774536Y-146052841D01*
X26835044Y-145906762D01*
X26855682Y-145750000D01*
X44394318Y-145750000D01*
X44414956Y-145906762D01*
X44475464Y-146052841D01*
X44571718Y-146178282D01*
X44697159Y-146274536D01*
X44843238Y-146335044D01*
X45000000Y-146355682D01*
X45008188Y-146354604D01*
X45148574Y-146336122D01*
X45156762Y-146335044D01*
X45302841Y-146274536D01*
X45428282Y-146178282D01*
X45524536Y-146052841D01*
X45585044Y-145906762D01*
X45605682Y-145750000D01*
X63394318Y-145750000D01*
X63414956Y-145906762D01*
X63475464Y-146052841D01*
X63571718Y-146178282D01*
X63697159Y-146274536D01*
X63843238Y-146335044D01*
X64000000Y-146355682D01*
X64008188Y-146354604D01*
X64148574Y-146336122D01*
X64156762Y-146335044D01*
X64302841Y-146274536D01*
X64428282Y-146178282D01*
X64524536Y-146052841D01*
X64585044Y-145906762D01*
X64605682Y-145750000D01*
X64585044Y-145593238D01*
X64524536Y-145447159D01*
X64428282Y-145321718D01*
X64302841Y-145225464D01*
X64304886Y-145222799D01*
X64266691Y-145182750D01*
X64253246Y-145113038D01*
X64279625Y-145047124D01*
X64303980Y-145026020D01*
X64302841Y-145024536D01*
X64421736Y-144933305D01*
X64428282Y-144928282D01*
X64524536Y-144802841D01*
X64585044Y-144656762D01*
X64605682Y-144500000D01*
X64585044Y-144343238D01*
X64524536Y-144197159D01*
X64428282Y-144071718D01*
X64302841Y-143975464D01*
X64156762Y-143914956D01*
X64000000Y-143894318D01*
X63843238Y-143914956D01*
X63697159Y-143975464D01*
X63571718Y-144071718D01*
X63475464Y-144197159D01*
X63414956Y-144343238D01*
X63394318Y-144500000D01*
X63414956Y-144656762D01*
X63475464Y-144802841D01*
X63571718Y-144928282D01*
X63578264Y-144933305D01*
X63697159Y-145024536D01*
X63695114Y-145027201D01*
X63733309Y-145067250D01*
X63746754Y-145136962D01*
X63720375Y-145202876D01*
X63696020Y-145223980D01*
X63697159Y-145225464D01*
X63571718Y-145321718D01*
X63475464Y-145447159D01*
X63414956Y-145593238D01*
X63394318Y-145750000D01*
X45605682Y-145750000D01*
X45585044Y-145593238D01*
X45524536Y-145447159D01*
X45428282Y-145321718D01*
X45302841Y-145225464D01*
X45304886Y-145222799D01*
X45266691Y-145182750D01*
X45253246Y-145113038D01*
X45279625Y-145047124D01*
X45303980Y-145026020D01*
X45302841Y-145024536D01*
X45421736Y-144933305D01*
X45428282Y-144928282D01*
X45524536Y-144802841D01*
X45585044Y-144656762D01*
X45605682Y-144500000D01*
X45585044Y-144343238D01*
X45524536Y-144197159D01*
X45428282Y-144071718D01*
X45302841Y-143975464D01*
X45156762Y-143914956D01*
X45000000Y-143894318D01*
X44843238Y-143914956D01*
X44697159Y-143975464D01*
X44571718Y-144071718D01*
X44475464Y-144197159D01*
X44414956Y-144343238D01*
X44394318Y-144500000D01*
X44414956Y-144656762D01*
X44475464Y-144802841D01*
X44571718Y-144928282D01*
X44578264Y-144933305D01*
X44697159Y-145024536D01*
X44695114Y-145027201D01*
X44733309Y-145067250D01*
X44746754Y-145136962D01*
X44720375Y-145202876D01*
X44696020Y-145223980D01*
X44697159Y-145225464D01*
X44571718Y-145321718D01*
X44475464Y-145447159D01*
X44414956Y-145593238D01*
X44394318Y-145750000D01*
X26855682Y-145750000D01*
X26835044Y-145593238D01*
X26774536Y-145447159D01*
X26678282Y-145321718D01*
X26552841Y-145225464D01*
X26554886Y-145222799D01*
X26516691Y-145182750D01*
X26503246Y-145113038D01*
X26529625Y-145047124D01*
X26553980Y-145026020D01*
X26552841Y-145024536D01*
X26671736Y-144933305D01*
X26678282Y-144928282D01*
X26774536Y-144802841D01*
X26835044Y-144656762D01*
X26855682Y-144500000D01*
X26835044Y-144343238D01*
X26774536Y-144197159D01*
X26678282Y-144071718D01*
X26552841Y-143975464D01*
X26406762Y-143914956D01*
X26250000Y-143894318D01*
X26093238Y-143914956D01*
X25947159Y-143975464D01*
X25821718Y-144071718D01*
X25725464Y-144197159D01*
X25664956Y-144343238D01*
X25644318Y-144500000D01*
X25664956Y-144656762D01*
X25725464Y-144802841D01*
X25821718Y-144928282D01*
X25828264Y-144933305D01*
X25947159Y-145024536D01*
X25945114Y-145027201D01*
X25983309Y-145067250D01*
X25996754Y-145136962D01*
X25970375Y-145202876D01*
X25946020Y-145223980D01*
X25947159Y-145225464D01*
X25821718Y-145321718D01*
X25725464Y-145447159D01*
X25664956Y-145593238D01*
X25644318Y-145750000D01*
X19750000Y-145750000D01*
X19750000Y-143000000D01*
X26144318Y-143000000D01*
X26164956Y-143156762D01*
X26225464Y-143302841D01*
X26321718Y-143428282D01*
X26447159Y-143524536D01*
X26593238Y-143585044D01*
X26750000Y-143605682D01*
X26758188Y-143604604D01*
X26898574Y-143586122D01*
X26906762Y-143585044D01*
X27052841Y-143524536D01*
X27178282Y-143428282D01*
X27274536Y-143302841D01*
X27335044Y-143156762D01*
X27355682Y-143000000D01*
X45394318Y-143000000D01*
X45414956Y-143156762D01*
X45475464Y-143302841D01*
X45571718Y-143428282D01*
X45697159Y-143524536D01*
X45843238Y-143585044D01*
X46000000Y-143605682D01*
X46008188Y-143604604D01*
X46148574Y-143586122D01*
X46156762Y-143585044D01*
X46302841Y-143524536D01*
X46428282Y-143428282D01*
X46524536Y-143302841D01*
X46585044Y-143156762D01*
X46605682Y-143000000D01*
X46585044Y-142843238D01*
X46546423Y-142750000D01*
X64394318Y-142750000D01*
X64414956Y-142906762D01*
X64475464Y-143052841D01*
X64571718Y-143178282D01*
X64697159Y-143274536D01*
X64843238Y-143335044D01*
X65000000Y-143355682D01*
X65008188Y-143354604D01*
X65148574Y-143336122D01*
X65156762Y-143335044D01*
X65302841Y-143274536D01*
X65428282Y-143178282D01*
X65524536Y-143052841D01*
X65585044Y-142906762D01*
X65605682Y-142750000D01*
X65585044Y-142593238D01*
X65524536Y-142447159D01*
X65428282Y-142321718D01*
X65302841Y-142225464D01*
X65156762Y-142164956D01*
X65000000Y-142144318D01*
X64843238Y-142164956D01*
X64697159Y-142225464D01*
X64571718Y-142321718D01*
X64475464Y-142447159D01*
X64414956Y-142593238D01*
X64394318Y-142750000D01*
X46546423Y-142750000D01*
X46524536Y-142697159D01*
X46428282Y-142571718D01*
X46302841Y-142475464D01*
X46156762Y-142414956D01*
X46000000Y-142394318D01*
X45843238Y-142414956D01*
X45697159Y-142475464D01*
X45571718Y-142571718D01*
X45475464Y-142697159D01*
X45414956Y-142843238D01*
X45394318Y-143000000D01*
X27355682Y-143000000D01*
X27335044Y-142843238D01*
X27274536Y-142697159D01*
X27178282Y-142571718D01*
X27052841Y-142475464D01*
X26906762Y-142414956D01*
X26750000Y-142394318D01*
X26593238Y-142414956D01*
X26447159Y-142475464D01*
X26321718Y-142571718D01*
X26225464Y-142697159D01*
X26164956Y-142843238D01*
X26144318Y-143000000D01*
X19750000Y-143000000D01*
X19750000Y-142253539D01*
X19750198Y-142246474D01*
X19768466Y-141921172D01*
X19770048Y-141907131D01*
X19824031Y-141589413D01*
X19827175Y-141575638D01*
X19854793Y-141479772D01*
X19916394Y-141265953D01*
X19921055Y-141252632D01*
X20044387Y-140954882D01*
X20050516Y-140942155D01*
X20206406Y-140660094D01*
X20213924Y-140648130D01*
X20400409Y-140385306D01*
X20409218Y-140374260D01*
X20623965Y-140133957D01*
X20633957Y-140123965D01*
X20874260Y-139909218D01*
X20885306Y-139900409D01*
X21148130Y-139713924D01*
X21160094Y-139706406D01*
X21225869Y-139670053D01*
X21442159Y-139550514D01*
X21454882Y-139544387D01*
X21752632Y-139421055D01*
X21765953Y-139416394D01*
X21979772Y-139354793D01*
X22075638Y-139327175D01*
X22089413Y-139324031D01*
X22248272Y-139297040D01*
X22407136Y-139270047D01*
X22421168Y-139268466D01*
X22746474Y-139250198D01*
X22753539Y-139250000D01*
X74746461Y-139250000D01*
X74753526Y-139250198D01*
G37*
G04 #@! TD.AperFunction*
M02*
