M48
; DRILL file {KiCad (6.0.5-0)} date Friday, 20 January 2023 at 14:12:15
; FORMAT={-:-/ absolute / metric / decimal}
; #@! TF.CreationDate,2023-01-20T14:12:15+00:00
; #@! TF.GenerationSoftware,Kicad,Pcbnew,(6.0.5-0)
; #@! TF.FileFunction,Plated,1,4,PTH
FMAT,2
METRIC
; #@! TA.AperFunction,Plated,PTH,ComponentDrill
T1C0.300
; #@! TA.AperFunction,Plated,PTH,ViaDrill
T2C0.400
; #@! TA.AperFunction,Plated,PTH,ComponentDrill
T3C0.800
; #@! TA.AperFunction,Plated,PTH,ComponentDrill
T4C1.000
; #@! TA.AperFunction,Plated,PTH,ComponentDrill
T5C1.300
%
G90
G05
T1
X29.087Y-143.9
X29.087Y-145.2
X29.087Y-146.5
X29.087Y-147.8
X29.087Y-149.1
X30.387Y-143.9
X30.387Y-145.2
X30.387Y-146.5
X30.387Y-147.8
X30.387Y-149.1
X31.688Y-143.9
X31.688Y-145.2
X31.688Y-146.5
X31.688Y-147.8
X31.688Y-149.1
X48.087Y-143.9
X48.087Y-145.2
X48.087Y-146.5
X48.087Y-147.8
X48.087Y-149.1
X49.387Y-143.9
X49.387Y-145.2
X49.387Y-146.5
X49.387Y-147.8
X49.387Y-149.1
X50.688Y-143.9
X50.688Y-145.2
X50.688Y-146.5
X50.688Y-147.8
X50.688Y-149.1
X67.087Y-143.9
X67.087Y-145.2
X67.087Y-146.5
X67.087Y-147.8
X67.087Y-149.1
X68.388Y-143.9
X68.388Y-145.2
X68.388Y-146.5
X68.388Y-147.8
X68.388Y-149.1
X69.688Y-143.9
X69.688Y-145.2
X69.688Y-146.5
X69.688Y-147.8
X69.688Y-149.1
T2
X7.0Y1.5
X7.0Y0.0
X7.0Y-1.5
X7.0Y-3.0
X7.0Y-4.5
X7.0Y-6.0
X7.0Y-7.5
X8.5Y-133.0
X8.75Y1.5
X8.75Y0.0
X8.75Y-1.5
X8.75Y-3.0
X8.75Y-4.5
X8.75Y-6.0
X8.75Y-7.5
X10.5Y1.5
X10.5Y0.0
X10.5Y-1.5
X10.5Y-3.0
X10.5Y-4.5
X10.5Y-6.0
X10.5Y-7.5
X12.25Y1.5
X12.25Y0.0
X12.25Y-1.5
X12.25Y-3.0
X12.25Y-4.5
X12.25Y-6.0
X12.25Y-7.5
X14.0Y1.5
X14.0Y0.0
X14.0Y-1.5
X14.0Y-3.0
X14.0Y-4.5
X14.0Y-6.0
X14.0Y-7.5
X15.5Y-124.25
X19.5Y-7.75
X20.5Y-7.75
X21.0Y-28.25
X21.0Y-29.75
X21.0Y-31.25
X21.0Y-32.75
X21.0Y-34.25
X21.0Y-35.75
X21.0Y-37.25
X21.0Y-68.75
X21.0Y-70.25
X21.0Y-71.75
X21.0Y-73.25
X21.0Y-74.75
X21.0Y-76.25
X21.0Y-77.75
X21.25Y-111.75
X21.25Y-113.25
X21.25Y-114.75
X21.25Y-116.25
X21.25Y-117.75
X21.25Y-119.25
X21.25Y-120.75
X22.75Y-28.25
X22.75Y-29.75
X22.75Y-31.25
X22.75Y-32.75
X22.75Y-34.25
X22.75Y-35.75
X22.75Y-37.25
X22.75Y-68.75
X22.75Y-70.25
X22.75Y-71.75
X22.75Y-73.25
X22.75Y-74.75
X22.75Y-76.25
X22.75Y-77.75
X23.0Y-111.75
X23.0Y-113.25
X23.0Y-114.75
X23.0Y-116.25
X23.0Y-117.75
X23.0Y-119.25
X23.0Y-120.75
X23.5Y9.75
X23.5Y8.5
X24.5Y-28.25
X24.5Y-29.75
X24.5Y-31.25
X24.5Y-32.75
X24.5Y-34.25
X24.5Y-35.75
X24.5Y-37.25
X24.5Y-68.75
X24.5Y-70.25
X24.5Y-71.75
X24.5Y-73.25
X24.5Y-74.75
X24.5Y-76.25
X24.5Y-77.75
X24.75Y-111.75
X24.75Y-113.25
X24.75Y-114.75
X24.75Y-116.25
X24.75Y-117.75
X24.75Y-119.25
X24.75Y-120.75
X25.0Y3.0
X25.75Y-3.75
X26.25Y-28.25
X26.25Y-29.75
X26.25Y-31.25
X26.25Y-32.75
X26.25Y-34.25
X26.25Y-35.75
X26.25Y-37.25
X26.25Y-68.75
X26.25Y-70.25
X26.25Y-71.75
X26.25Y-73.25
X26.25Y-74.75
X26.25Y-76.25
X26.25Y-77.75
X26.25Y-144.5
X26.25Y-145.75
X26.5Y-111.75
X26.5Y-113.25
X26.5Y-114.75
X26.5Y-116.25
X26.5Y-117.75
X26.5Y-119.25
X26.5Y-120.75
X26.75Y-143.0
X27.25Y-138.25
X28.0Y-28.25
X28.0Y-29.75
X28.0Y-31.25
X28.0Y-32.75
X28.0Y-34.25
X28.0Y-35.75
X28.0Y-37.25
X28.0Y-68.75
X28.0Y-70.25
X28.0Y-71.75
X28.0Y-73.25
X28.0Y-74.75
X28.0Y-76.25
X28.0Y-77.75
X28.0Y-83.5
X28.0Y-84.75
X28.25Y-111.75
X28.25Y-113.25
X28.25Y-114.75
X28.25Y-116.25
X28.25Y-117.75
X28.25Y-119.25
X28.25Y-120.75
X29.5Y-137.0
X30.75Y-116.25
X30.75Y-137.0
X32.0Y-126.25
X32.0Y-127.25
X33.0Y-47.75
X33.75Y-37.5
X33.75Y-78.0
X33.75Y-121.25
X34.25Y-47.75
X34.75Y-37.5
X34.75Y-78.0
X34.75Y-121.25
X35.5Y-41.75
X35.5Y-43.25
X36.25Y-140.0
X36.25Y-141.0
X36.75Y-29.25
X36.75Y-32.75
X36.75Y-73.25
X39.5Y-93.25
X39.5Y-137.25
X40.5Y-70.25
X40.5Y-93.25
X40.5Y-114.25
X40.5Y-137.25
X40.75Y-34.0
X42.0Y-6.75
X42.25Y-144.0
X42.25Y-146.25
X42.25Y-148.5
X43.25Y-6.75
X45.0Y-144.5
X45.0Y-145.75
X45.25Y9.0
X45.25Y7.75
X46.0Y-18.75
X46.0Y-143.0
X46.25Y-138.25
X47.25Y-18.75
X47.25Y-54.5
X48.5Y-54.5
X49.5Y-27.75
X50.0Y-19.0
X50.0Y-20.0
X50.0Y-21.0
X50.0Y-22.0
X50.0Y-23.0
X50.0Y-99.0
X50.0Y-100.25
X50.25Y21.25
X50.25Y20.25
X50.5Y-112.5
X51.0Y-49.75
X51.0Y-50.75
X51.75Y10.75
X51.75Y9.75
X51.75Y8.75
X52.0Y-68.0
X53.25Y1.0
X54.0Y10.25
X54.25Y20.75
X55.25Y-140.0
X55.25Y-141.0
X55.321Y2.602
X56.5Y-1.75
X57.0Y-123.0
X57.25Y-37.5
X58.0Y-81.5
X58.75Y-56.25
X59.0Y-99.0
X59.0Y-100.0
X59.75Y18.75
X60.0Y-3.75
X60.25Y1.0
X60.5Y11.0
X60.5Y10.0
X60.5Y9.0
X61.0Y-138.25
X61.25Y-96.0
X61.5Y-14.75
X61.5Y-15.75
X61.5Y-47.0
X61.5Y-144.0
X61.5Y-146.25
X61.5Y-148.5
X62.25Y-96.0
X62.25Y-138.25
X62.5Y-47.0
X63.75Y4.25
X64.0Y-144.5
X64.0Y-145.75
X65.0Y-138.5
X65.0Y-142.75
X65.738Y3.868
X65.75Y-2.0
X66.25Y-1.0
X66.75Y8.0
X66.75Y1.25
X69.5Y-68.25
X69.75Y20.0
X69.75Y-113.25
X71.25Y2.25
X72.25Y1.5
X72.5Y-37.75
X72.586Y7.589
X73.0Y-73.25
X73.25Y-32.75
X74.0Y-22.0
X74.0Y-23.25
X74.25Y-140.0
X74.25Y-141.0
X75.0Y-106.5
X75.0Y-107.75
X75.25Y-68.25
X75.25Y-111.5
X75.75Y0.25
X75.75Y-28.0
X76.25Y-68.25
X76.25Y-111.5
X76.75Y-28.0
X77.25Y2.75
X78.0Y16.5
X78.0Y13.25
X78.0Y9.5
X78.75Y27.974
X79.231Y-64.083
X79.25Y-63.0
X79.25Y-116.25
X80.25Y-89.0
X80.25Y-90.0
X80.264Y0.539
X80.374Y28.773
X80.473Y-144.027
X80.5Y-146.25
X80.5Y-148.5
X81.5Y-111.5
X81.5Y-113.0
X81.5Y-114.5
X81.5Y-116.0
X81.5Y-117.5
X81.5Y-119.0
X81.5Y-120.5
X81.75Y-28.25
X81.75Y-29.75
X81.75Y-31.25
X81.75Y-32.75
X81.75Y-34.25
X81.75Y-35.75
X81.75Y-37.25
X81.75Y-68.75
X81.75Y-70.25
X81.75Y-71.75
X81.75Y-73.25
X81.75Y-74.75
X81.75Y-76.25
X81.75Y-77.75
X82.0Y2.75
X82.75Y27.5
X83.25Y-111.5
X83.25Y-113.0
X83.25Y-114.5
X83.25Y-116.0
X83.25Y-117.5
X83.25Y-119.0
X83.25Y-120.5
X83.5Y-28.25
X83.5Y-29.75
X83.5Y-31.25
X83.5Y-32.75
X83.5Y-34.25
X83.5Y-35.75
X83.5Y-37.25
X83.5Y-68.75
X83.5Y-70.25
X83.5Y-71.75
X83.5Y-73.25
X83.5Y-74.75
X83.5Y-76.25
X83.5Y-77.75
X84.25Y26.5
X85.0Y-111.5
X85.0Y-113.0
X85.0Y-114.5
X85.0Y-116.0
X85.0Y-117.5
X85.0Y-119.0
X85.0Y-120.5
X85.0Y-127.0
X85.25Y-28.25
X85.25Y-29.75
X85.25Y-31.25
X85.25Y-32.75
X85.25Y-34.25
X85.25Y-35.75
X85.25Y-37.25
X85.25Y-68.75
X85.25Y-70.25
X85.25Y-71.75
X85.25Y-73.25
X85.25Y-74.75
X85.25Y-76.25
X85.25Y-77.75
X86.25Y-127.0
X86.75Y-111.5
X86.75Y-113.0
X86.75Y-114.5
X86.75Y-116.0
X86.75Y-117.5
X86.75Y-119.0
X86.75Y-120.5
X87.0Y-28.25
X87.0Y-29.75
X87.0Y-31.25
X87.0Y-32.75
X87.0Y-34.25
X87.0Y-35.75
X87.0Y-37.25
X87.0Y-68.75
X87.0Y-70.25
X87.0Y-71.75
X87.0Y-73.25
X87.0Y-74.75
X87.0Y-76.25
X87.0Y-77.75
X87.75Y-2.25
X88.308Y17.348
X88.5Y-111.5
X88.5Y-113.0
X88.5Y-114.5
X88.5Y-116.0
X88.5Y-117.5
X88.5Y-119.0
X88.5Y-120.5
X88.75Y-28.25
X88.75Y-29.75
X88.75Y-31.25
X88.75Y-32.75
X88.75Y-34.25
X88.75Y-35.75
X88.75Y-37.25
X88.75Y-68.75
X88.75Y-70.25
X88.75Y-71.75
X88.75Y-73.25
X88.75Y-74.75
X88.75Y-76.25
X88.75Y-77.75
X92.0Y-1.25
X92.0Y-2.75
X92.75Y-141.25
X93.25Y-125.25
X94.25Y-122.25
X95.5Y-129.0
X97.75Y-133.25
X98.0Y-128.25
X100.0Y-133.5
X101.0Y-123.5
T3
X40.0Y-76.46
X40.0Y-79.0
X40.0Y-81.54
X40.0Y-121.45
X40.0Y-123.99
X40.0Y-126.53
X70.0Y-76.45
X70.0Y-78.99
X70.0Y-81.53
X70.5Y-121.45
X70.5Y-123.99
X70.5Y-126.53
X87.0Y-141.9
X87.0Y-144.44
X87.0Y-146.98
T4
X22.55Y18.25
X33.95Y18.25
X50.0Y5.74
X50.0Y-9.5
X52.54Y5.74
X52.54Y-9.5
X55.08Y5.74
X55.08Y-9.5
X57.62Y5.74
X57.62Y-9.5
X60.16Y5.74
X60.16Y-9.5
X62.7Y5.74
X62.7Y-9.5
X65.24Y5.74
X65.24Y-9.5
X67.78Y5.74
X67.78Y-9.5
X70.32Y5.74
X70.32Y-9.5
X72.86Y5.74
X72.86Y-9.5
X75.4Y5.74
X75.4Y-9.5
X77.94Y5.74
X77.94Y-9.5
X80.48Y5.74
X80.48Y-9.5
X83.02Y5.74
X83.02Y-9.5
X85.56Y5.74
X85.56Y-9.5
T5
X5.5Y19.25
X5.5Y14.25
X5.5Y9.25
X5.5Y-139.5
X5.5Y-144.5
X5.5Y-149.5
X5.5Y-154.5
X5.5Y-159.5
X5.5Y-164.5
X5.64Y-13.0
X5.64Y-18.0
X5.64Y-23.0
X5.64Y-28.0
X5.64Y-33.0
X5.64Y-38.0
X5.64Y-47.5
X5.64Y-52.5
X5.64Y-57.5
X5.64Y-62.5
X5.64Y-67.5
X5.64Y-72.5
X5.64Y-77.5
X5.64Y-87.0
X5.64Y-92.0
X5.64Y-97.0
X5.64Y-102.0
X5.64Y-107.0
X5.64Y-112.0
X5.64Y-117.0
X16.0Y34.5
X21.0Y34.5
X26.0Y34.5
X28.5Y-164.0
X31.0Y34.5
X33.5Y-164.0
X38.5Y34.5
X38.5Y-164.0
X43.5Y34.5
X43.5Y-164.0
X48.5Y34.5
X48.5Y-164.0
X53.5Y34.5
X53.5Y-164.0
X58.5Y34.5
X58.5Y-164.0
X63.5Y34.5
X63.5Y-164.0
X68.5Y34.5
X68.5Y-164.0
X73.5Y34.5
X73.5Y-164.0
X78.5Y34.5
X78.5Y-164.0
X83.5Y34.5
X83.5Y-164.0
X88.5Y34.5
X93.5Y34.5
X104.5Y19.25
X104.5Y14.25
X104.5Y9.25
X104.5Y-13.0
X104.5Y-18.0
X104.5Y-23.0
X104.5Y-28.0
X104.5Y-33.0
X104.5Y-38.0
X104.5Y-43.0
X104.5Y-50.0
X104.5Y-55.0
X104.5Y-60.0
X104.5Y-65.0
X104.5Y-70.0
X104.5Y-75.0
X104.5Y-80.0
X104.5Y-87.0
X104.5Y-92.0
X104.5Y-97.0
X104.5Y-102.0
X104.5Y-107.0
X104.5Y-112.0
X104.5Y-117.0
X104.5Y-139.5
X104.5Y-144.5
X104.5Y-149.5
X104.5Y-154.5
X104.5Y-159.5
X104.5Y-164.5
T0
M30
