%TF.GenerationSoftware,KiCad,Pcbnew,(7.0.0-0)*%
%TF.CreationDate,2023-04-05T17:09:17+01:00*%
%TF.ProjectId,pipcb,70697063-622e-46b6-9963-61645f706362,rev?*%
%TF.SameCoordinates,Original*%
%TF.FileFunction,Legend,Bot*%
%TF.FilePolarity,Positive*%
%FSLAX46Y46*%
G04 Gerber Fmt 4.6, Leading zero omitted, Abs format (unit mm)*
G04 Created by KiCad (PCBNEW (7.0.0-0)) date 2023-04-05 17:09:17*
%MOMM*%
%LPD*%
G01*
G04 APERTURE LIST*
G04 Aperture macros list*
%AMRoundRect*
0 Rectangle with rounded corners*
0 $1 Rounding radius*
0 $2 $3 $4 $5 $6 $7 $8 $9 X,Y pos of 4 corners*
0 Add a 4 corners polygon primitive as box body*
4,1,4,$2,$3,$4,$5,$6,$7,$8,$9,$2,$3,0*
0 Add four circle primitives for the rounded corners*
1,1,$1+$1,$2,$3*
1,1,$1+$1,$4,$5*
1,1,$1+$1,$6,$7*
1,1,$1+$1,$8,$9*
0 Add four rect primitives between the rounded corners*
20,1,$1+$1,$2,$3,$4,$5,0*
20,1,$1+$1,$4,$5,$6,$7,0*
20,1,$1+$1,$6,$7,$8,$9,0*
20,1,$1+$1,$8,$9,$2,$3,0*%
G04 Aperture macros list end*
%ADD10C,1.540000*%
%ADD11C,2.700000*%
%ADD12RoundRect,0.050000X1.300000X1.300000X-1.300000X1.300000X-1.300000X-1.300000X1.300000X-1.300000X0*%
%ADD13RoundRect,0.050000X1.300000X-1.300000X1.300000X1.300000X-1.300000X1.300000X-1.300000X-1.300000X0*%
%ADD14RoundRect,0.050000X-1.300000X-1.300000X1.300000X-1.300000X1.300000X1.300000X-1.300000X1.300000X0*%
%ADD15RoundRect,0.050000X-1.300000X1.300000X-1.300000X-1.300000X1.300000X-1.300000X1.300000X1.300000X0*%
%ADD16O,1.800000X1.800000*%
%ADD17RoundRect,0.050000X0.850000X0.850000X-0.850000X0.850000X-0.850000X-0.850000X0.850000X-0.850000X0*%
%ADD18RoundRect,0.050000X-0.850000X-0.850000X0.850000X-0.850000X0.850000X0.850000X-0.850000X0.850000X0*%
%ADD19RoundRect,1.175000X-1.125000X-3.375000X1.125000X-3.375000X1.125000X3.375000X-1.125000X3.375000X0*%
%ADD20O,1.700000X1.700000*%
%ADD21RoundRect,0.050000X0.800000X-0.800000X0.800000X0.800000X-0.800000X0.800000X-0.800000X-0.800000X0*%
G04 APERTURE END LIST*
%LPC*%
D10*
%TO.C,RV6*%
X33790000Y-79250000D03*
X36330000Y-79250000D03*
X38870000Y-79250000D03*
%TD*%
%TO.C,RV9*%
X77040000Y-87750000D03*
X74500000Y-87750000D03*
X71960000Y-87750000D03*
%TD*%
%TO.C,RV7*%
X76870000Y-50750000D03*
X74330000Y-50750000D03*
X71790000Y-50750000D03*
%TD*%
%TO.C,RV8*%
X33500000Y-115750000D03*
X36040000Y-115750000D03*
X38580000Y-115750000D03*
%TD*%
%TO.C,RV1*%
X87000000Y-146980000D03*
X87000000Y-144440000D03*
X87000000Y-141900000D03*
%TD*%
D11*
%TO.C,J1*%
X22040000Y34500000D03*
D12*
X27040000Y34500000D03*
%TD*%
D11*
%TO.C,J5*%
X104500000Y-50000000D03*
X104500000Y-55000000D03*
X104500000Y-60000000D03*
X104500000Y-65000000D03*
X104500000Y-70000000D03*
X104500000Y-75000000D03*
D13*
X104500000Y-80000000D03*
%TD*%
D11*
%TO.C,J7*%
X104500000Y-87000000D03*
X104500000Y-92000000D03*
X104500000Y-97000000D03*
X104500000Y-102000000D03*
X104500000Y-107000000D03*
X104500000Y-112000000D03*
D13*
X104500000Y-117000000D03*
%TD*%
D11*
%TO.C,J10*%
X104500000Y19250000D03*
X104500000Y14250000D03*
D13*
X104500000Y9250000D03*
%TD*%
D11*
%TO.C,J11*%
X83500000Y-164500000D03*
X78500000Y-164500000D03*
X73500000Y-164500000D03*
X68500000Y-164500000D03*
X63500000Y-164500000D03*
X58500000Y-164500000D03*
X53500000Y-164500000D03*
X48500000Y-164500000D03*
X43500000Y-164500000D03*
X38500000Y-164500000D03*
X33500000Y-164500000D03*
D14*
X28500000Y-164500000D03*
%TD*%
D11*
%TO.C,J9*%
X5500000Y-164500000D03*
X5500000Y-159500000D03*
X5500000Y-154500000D03*
X5500000Y-149500000D03*
X5500000Y-144500000D03*
D15*
X5500000Y-139500000D03*
%TD*%
D11*
%TO.C,J3*%
X104500000Y-13000000D03*
X104500000Y-18000000D03*
X104500000Y-23000000D03*
X104500000Y-28000000D03*
X104500000Y-33000000D03*
X104500000Y-38000000D03*
D13*
X104500000Y-43000000D03*
%TD*%
D11*
%TO.C,J13*%
X8540000Y34500000D03*
D12*
X13540000Y34500000D03*
%TD*%
D16*
%TO.C,JP2*%
X46139999Y-106059999D03*
D17*
X46140000Y-108600000D03*
%TD*%
D11*
%TO.C,J2*%
X5640000Y-43050000D03*
X5640000Y-38050000D03*
X5640000Y-33050000D03*
X5640000Y-28050000D03*
X5640000Y-23050000D03*
X5640000Y-18050000D03*
D15*
X5640000Y-13050000D03*
%TD*%
D11*
%TO.C,J4*%
X5640000Y-79999999D03*
X5640000Y-74999999D03*
X5640000Y-69999999D03*
X5640000Y-64999999D03*
X5640000Y-59999999D03*
X5640000Y-54999999D03*
D15*
X5640000Y-49999999D03*
%TD*%
D16*
%TO.C,JP1*%
X50139999Y-106059999D03*
D17*
X50140000Y-108600000D03*
%TD*%
D16*
%TO.C,J14*%
X67289999Y9919999D03*
X67289999Y12459999D03*
X67289999Y14999999D03*
X67289999Y17539999D03*
D18*
X67290000Y20080000D03*
%TD*%
D11*
%TO.C,J6*%
X5640000Y-117000000D03*
X5640000Y-112000000D03*
X5640000Y-107000000D03*
X5640000Y-102000000D03*
X5640000Y-97000000D03*
X5640000Y-92000000D03*
D15*
X5640000Y-87000000D03*
%TD*%
D16*
%TO.C,JP4*%
X61540000Y-105822499D03*
D17*
X61540001Y-108362500D03*
%TD*%
D19*
%TO.C,SW1*%
X42190000Y13500000D03*
X13390000Y13500000D03*
%TD*%
D11*
%TO.C,J12*%
X105000000Y-139500000D03*
X105000000Y-144500000D03*
X105000000Y-149500000D03*
X105000000Y-154500000D03*
X105000000Y-159500000D03*
D13*
X105000000Y-164500000D03*
%TD*%
D20*
%TO.C,A1*%
X49999999Y5739999D03*
X52539999Y5739999D03*
X55079999Y5739999D03*
X57619999Y5739999D03*
X60159999Y5739999D03*
X62699999Y5739999D03*
X65239999Y5739999D03*
X67779999Y5739999D03*
X70319999Y5739999D03*
X72859999Y5739999D03*
X75399999Y5739999D03*
X77939999Y5739999D03*
X80479999Y5739999D03*
X83019999Y5739999D03*
X85559999Y5739999D03*
X85559999Y-9499999D03*
X83019999Y-9499999D03*
X80479999Y-9499999D03*
X77939999Y-9499999D03*
X75399999Y-9499999D03*
X72859999Y-9499999D03*
X70319999Y-9499999D03*
X67779999Y-9499999D03*
X65239999Y-9499999D03*
X62699999Y-9499999D03*
X60159999Y-9499999D03*
X57619999Y-9499999D03*
X55079999Y-9499999D03*
X52539999Y-9499999D03*
D21*
X50000000Y-9500000D03*
%TD*%
D11*
%TO.C,J8*%
X35040000Y34500000D03*
X40040000Y34500000D03*
X45040000Y34500000D03*
X50040000Y34500000D03*
X55040000Y34500000D03*
X60040000Y34500000D03*
X65040000Y34500000D03*
X70040000Y34500000D03*
X75040000Y34500000D03*
X80040000Y34500000D03*
X85040000Y34500000D03*
X90040000Y34500000D03*
X95040000Y34500000D03*
D12*
X100040000Y34500000D03*
%TD*%
D16*
%TO.C,JP3*%
X65539999Y-105822499D03*
D17*
X65540000Y-108362500D03*
%TD*%
M02*
