%TF.GenerationSoftware,KiCad,Pcbnew,(7.0.0-0)*%
%TF.CreationDate,2023-04-05T17:09:17+01:00*%
%TF.ProjectId,pipcb,70697063-622e-46b6-9963-61645f706362,rev?*%
%TF.SameCoordinates,Original*%
%TF.FileFunction,Paste,Top*%
%TF.FilePolarity,Positive*%
%FSLAX46Y46*%
G04 Gerber Fmt 4.6, Leading zero omitted, Abs format (unit mm)*
G04 Created by KiCad (PCBNEW (7.0.0-0)) date 2023-04-05 17:09:17*
%MOMM*%
%LPD*%
G01*
G04 APERTURE LIST*
G04 Aperture macros list*
%AMRoundRect*
0 Rectangle with rounded corners*
0 $1 Rounding radius*
0 $2 $3 $4 $5 $6 $7 $8 $9 X,Y pos of 4 corners*
0 Add a 4 corners polygon primitive as box body*
4,1,4,$2,$3,$4,$5,$6,$7,$8,$9,$2,$3,0*
0 Add four circle primitives for the rounded corners*
1,1,$1+$1,$2,$3*
1,1,$1+$1,$4,$5*
1,1,$1+$1,$6,$7*
1,1,$1+$1,$8,$9*
0 Add four rect primitives between the rounded corners*
20,1,$1+$1,$2,$3,$4,$5,0*
20,1,$1+$1,$4,$5,$6,$7,0*
20,1,$1+$1,$6,$7,$8,$9,0*
20,1,$1+$1,$8,$9,$2,$3,0*%
G04 Aperture macros list end*
%ADD10C,0.001000*%
%ADD11RoundRect,0.250000X0.262500X0.450000X-0.262500X0.450000X-0.262500X-0.450000X0.262500X-0.450000X0*%
%ADD12RoundRect,0.250000X-0.450000X0.262500X-0.450000X-0.262500X0.450000X-0.262500X0.450000X0.262500X0*%
%ADD13RoundRect,0.250000X0.450000X-0.262500X0.450000X0.262500X-0.450000X0.262500X-0.450000X-0.262500X0*%
%ADD14R,1.550000X0.600000*%
%ADD15R,2.600000X3.100000*%
%ADD16RoundRect,0.250000X-0.650000X0.325000X-0.650000X-0.325000X0.650000X-0.325000X0.650000X0.325000X0*%
%ADD17RoundRect,0.250000X-0.475000X0.250000X-0.475000X-0.250000X0.475000X-0.250000X0.475000X0.250000X0*%
%ADD18RoundRect,0.250000X-1.000000X1.750000X-1.000000X-1.750000X1.000000X-1.750000X1.000000X1.750000X0*%
%ADD19RoundRect,0.243750X-0.456250X0.243750X-0.456250X-0.243750X0.456250X-0.243750X0.456250X0.243750X0*%
%ADD20RoundRect,0.250000X-1.000000X-0.650000X1.000000X-0.650000X1.000000X0.650000X-1.000000X0.650000X0*%
%ADD21RoundRect,0.243750X0.456250X-0.243750X0.456250X0.243750X-0.456250X0.243750X-0.456250X-0.243750X0*%
%ADD22R,0.650000X0.400000*%
%ADD23RoundRect,0.243750X-0.243750X-0.456250X0.243750X-0.456250X0.243750X0.456250X-0.243750X0.456250X0*%
%ADD24RoundRect,0.250000X0.475000X-0.250000X0.475000X0.250000X-0.475000X0.250000X-0.475000X-0.250000X0*%
%ADD25RoundRect,0.250000X-0.262500X-0.450000X0.262500X-0.450000X0.262500X0.450000X-0.262500X0.450000X0*%
%ADD26RoundRect,0.225000X-0.250000X0.225000X-0.250000X-0.225000X0.250000X-0.225000X0.250000X0.225000X0*%
%ADD27RoundRect,0.250000X0.650000X-0.325000X0.650000X0.325000X-0.650000X0.325000X-0.650000X-0.325000X0*%
%ADD28R,0.680000X1.200000*%
%ADD29RoundRect,0.250000X1.000000X-1.750000X1.000000X1.750000X-1.000000X1.750000X-1.000000X-1.750000X0*%
%ADD30RoundRect,0.250000X-0.250000X-0.475000X0.250000X-0.475000X0.250000X0.475000X-0.250000X0.475000X0*%
%ADD31RoundRect,0.250000X0.250000X0.475000X-0.250000X0.475000X-0.250000X-0.475000X0.250000X-0.475000X0*%
%ADD32R,2.350000X3.500000*%
%ADD33RoundRect,0.225000X0.250000X-0.225000X0.250000X0.225000X-0.250000X0.225000X-0.250000X-0.225000X0*%
%ADD34RoundRect,0.250000X-0.325000X-0.650000X0.325000X-0.650000X0.325000X0.650000X-0.325000X0.650000X0*%
%ADD35RoundRect,0.250000X-1.425000X0.362500X-1.425000X-0.362500X1.425000X-0.362500X1.425000X0.362500X0*%
%ADD36R,3.300000X5.000000*%
%ADD37RoundRect,0.250000X2.050000X0.300000X-2.050000X0.300000X-2.050000X-0.300000X2.050000X-0.300000X0*%
%ADD38RoundRect,0.250000X2.025000X2.375000X-2.025000X2.375000X-2.025000X-2.375000X2.025000X-2.375000X0*%
%ADD39RoundRect,0.243750X0.243750X0.456250X-0.243750X0.456250X-0.243750X-0.456250X0.243750X-0.456250X0*%
%ADD40RoundRect,0.150000X0.150000X-0.825000X0.150000X0.825000X-0.150000X0.825000X-0.150000X-0.825000X0*%
%ADD41RoundRect,0.250000X-0.650000X1.000000X-0.650000X-1.000000X0.650000X-1.000000X0.650000X1.000000X0*%
%ADD42RoundRect,0.100000X0.687500X0.100000X-0.687500X0.100000X-0.687500X-0.100000X0.687500X-0.100000X0*%
%ADD43RoundRect,0.250001X0.354999X0.374999X-0.354999X0.374999X-0.354999X-0.374999X0.354999X-0.374999X0*%
%ADD44RoundRect,0.150000X-0.512500X-0.150000X0.512500X-0.150000X0.512500X0.150000X-0.512500X0.150000X0*%
%ADD45RoundRect,0.250000X0.362500X1.425000X-0.362500X1.425000X-0.362500X-1.425000X0.362500X-1.425000X0*%
%ADD46RoundRect,0.218750X0.218750X0.256250X-0.218750X0.256250X-0.218750X-0.256250X0.218750X-0.256250X0*%
%ADD47RoundRect,0.140000X-0.170000X0.140000X-0.170000X-0.140000X0.170000X-0.140000X0.170000X0.140000X0*%
G04 APERTURE END LIST*
%TO.C,U22*%
G36*
X65505001Y-118077500D02*
G01*
X64880001Y-118077500D01*
X64880001Y-119277500D01*
X64200001Y-119277500D01*
X64200001Y-118077500D01*
X63575001Y-118077500D01*
X63575001Y-115027500D01*
X65505001Y-115027500D01*
X65505001Y-118077500D01*
G37*
D10*
X65505001Y-118077500D02*
X64880001Y-118077500D01*
X64880001Y-119277500D01*
X64200001Y-119277500D01*
X64200001Y-118077500D01*
X63575001Y-118077500D01*
X63575001Y-115027500D01*
X65505001Y-115027500D01*
X65505001Y-118077500D01*
%TO.C,U13*%
G36*
X50105000Y-118315000D02*
G01*
X49480000Y-118315000D01*
X49480000Y-119515000D01*
X48800000Y-119515000D01*
X48800000Y-118315000D01*
X48175000Y-118315000D01*
X48175000Y-115265000D01*
X50105000Y-115265000D01*
X50105000Y-118315000D01*
G37*
X50105000Y-118315000D02*
X49480000Y-118315000D01*
X49480000Y-119515000D01*
X48800000Y-119515000D01*
X48800000Y-118315000D01*
X48175000Y-118315000D01*
X48175000Y-115265000D01*
X50105000Y-115265000D01*
X50105000Y-118315000D01*
%TD*%
D11*
%TO.C,R23*%
X81377500Y-53500000D03*
X83202500Y-53500000D03*
%TD*%
D12*
%TO.C,R2*%
X68000000Y-6912500D03*
X68000000Y-5087500D03*
%TD*%
D13*
%TO.C,R58*%
X40290000Y-110087500D03*
X40290000Y-111912500D03*
%TD*%
D14*
%TO.C,U17*%
X75689999Y-59504999D03*
X75689999Y-58234999D03*
X75689999Y-56964999D03*
X75689999Y-55694999D03*
X81089999Y-55694999D03*
X81089999Y-56964999D03*
X81089999Y-58234999D03*
X81089999Y-59504999D03*
D15*
X78389999Y-57599999D03*
%TD*%
D11*
%TO.C,R59*%
X82540000Y-87750000D03*
X84365000Y-87750000D03*
%TD*%
D16*
%TO.C,C86*%
X47246250Y-66675000D03*
X47246250Y-63725000D03*
%TD*%
D17*
%TO.C,C84*%
X62471250Y-71250000D03*
X62471250Y-69350000D03*
%TD*%
D18*
%TO.C,C102*%
X80890000Y-80125000D03*
X80890000Y-72125000D03*
%TD*%
D19*
%TO.C,D10*%
X17040000Y-81937500D03*
X17040000Y-80062500D03*
%TD*%
D20*
%TO.C,D7*%
X53387500Y-140500000D03*
X49387500Y-140500000D03*
%TD*%
D21*
%TO.C,D11*%
X93040000Y-48212500D03*
X93040000Y-50087500D03*
%TD*%
D18*
%TO.C,C100*%
X80489999Y-43125000D03*
X80489999Y-35125000D03*
%TD*%
D22*
%TO.C,U9*%
X85789999Y-54049999D03*
X85789999Y-52749999D03*
X87689999Y-52749999D03*
X87689999Y-53399999D03*
X87689999Y-54049999D03*
%TD*%
D23*
%TO.C,D15*%
X51977500Y-44250000D03*
X50102500Y-44250000D03*
%TD*%
D24*
%TO.C,C3*%
X27387500Y-139550000D03*
X27387500Y-141450000D03*
%TD*%
D25*
%TO.C,R11*%
X41212500Y-144000000D03*
X39387500Y-144000000D03*
%TD*%
D26*
%TO.C,C89*%
X62746250Y-74500000D03*
X62746250Y-72950000D03*
%TD*%
D25*
%TO.C,R14*%
X79300000Y-148500000D03*
X77475000Y-148500000D03*
%TD*%
%TO.C,R22*%
X28662500Y-76750000D03*
X26837500Y-76750000D03*
%TD*%
D27*
%TO.C,C82*%
X47596250Y-69100000D03*
X47596250Y-72050000D03*
%TD*%
D16*
%TO.C,C94*%
X47190000Y-31825000D03*
X47190000Y-28875000D03*
%TD*%
D28*
%TO.C,U22*%
X63040000Y-115377499D03*
X66040000Y-115377499D03*
X66040000Y-118677499D03*
X63040000Y-118677499D03*
%TD*%
D16*
%TO.C,C58*%
X87540000Y-61250000D03*
X87540000Y-58300000D03*
%TD*%
D12*
%TO.C,R54*%
X70290000Y-56250000D03*
X70290000Y-54425000D03*
%TD*%
D11*
%TO.C,R25*%
X81517500Y-90500000D03*
X83342500Y-90500000D03*
%TD*%
D13*
%TO.C,R69*%
X48290000Y10500000D03*
X48290000Y8675000D03*
%TD*%
D22*
%TO.C,U7*%
X84789999Y-17049999D03*
X84789999Y-15749999D03*
X86689999Y-15749999D03*
X86689999Y-16399999D03*
X86689999Y-17049999D03*
%TD*%
D29*
%TO.C,C101*%
X29150000Y-50125000D03*
X29150000Y-58125000D03*
%TD*%
D24*
%TO.C,C53*%
X22150000Y-59225000D03*
X22150000Y-61125000D03*
%TD*%
D17*
%TO.C,C59*%
X84540000Y-60200000D03*
X84540000Y-58300000D03*
%TD*%
D25*
%TO.C,R62*%
X63202500Y-76600000D03*
X61377500Y-76600000D03*
%TD*%
D30*
%TO.C,C12*%
X86640000Y-18900000D03*
X84740000Y-18900000D03*
%TD*%
D31*
%TO.C,C13*%
X23140000Y-74100000D03*
X25040000Y-74100000D03*
%TD*%
D17*
%TO.C,C52*%
X37375000Y-71150000D03*
X37375000Y-69250000D03*
%TD*%
D24*
%TO.C,C69*%
X22315000Y-95975000D03*
X22315000Y-97875000D03*
%TD*%
D32*
%TO.C,L19*%
X81554999Y-102099999D03*
X75504999Y-102099999D03*
%TD*%
D24*
%TO.C,C51*%
X25500000Y-70050000D03*
X25500000Y-71950000D03*
%TD*%
D33*
%TO.C,C65*%
X72390000Y-55850000D03*
X72390000Y-57400000D03*
%TD*%
D26*
%TO.C,C7*%
X56387500Y-145275000D03*
X56387500Y-143725000D03*
%TD*%
D31*
%TO.C,C11*%
X22940000Y-37100000D03*
X24840000Y-37100000D03*
%TD*%
D27*
%TO.C,C90*%
X47540000Y-34250000D03*
X47540000Y-37200000D03*
%TD*%
%TO.C,C50*%
X22500000Y-69000000D03*
X22500000Y-71950000D03*
%TD*%
D20*
%TO.C,D6*%
X34387500Y-140450000D03*
X30387500Y-140450000D03*
%TD*%
D19*
%TO.C,D12*%
X17040000Y-118787500D03*
X17040000Y-116912500D03*
%TD*%
D13*
%TO.C,R20*%
X100375000Y-125675000D03*
X100375000Y-127500000D03*
%TD*%
D25*
%TO.C,R55*%
X30115000Y-79000000D03*
X28290000Y-79000000D03*
%TD*%
D27*
%TO.C,C66*%
X22665000Y-105750000D03*
X22665000Y-108700000D03*
%TD*%
D16*
%TO.C,C42*%
X87140000Y-24250000D03*
X87140000Y-21300000D03*
%TD*%
D27*
%TO.C,C47*%
X84489999Y-26650000D03*
X84489999Y-29600000D03*
%TD*%
D30*
%TO.C,C16*%
X87440000Y-93150000D03*
X85540000Y-93150000D03*
%TD*%
D22*
%TO.C,U11*%
X85539999Y-91299999D03*
X85539999Y-89999999D03*
X87439999Y-89999999D03*
X87439999Y-90649999D03*
X87439999Y-91299999D03*
%TD*%
D17*
%TO.C,C36*%
X37375000Y-34150000D03*
X37375000Y-32250000D03*
%TD*%
D14*
%TO.C,U19*%
X75829999Y-96504999D03*
X75829999Y-95234999D03*
X75829999Y-93964999D03*
X75829999Y-92694999D03*
X81229999Y-92694999D03*
X81229999Y-93964999D03*
X81229999Y-95234999D03*
X81229999Y-96504999D03*
D15*
X78529999Y-94599999D03*
%TD*%
D32*
%TO.C,L14*%
X28624999Y-28149999D03*
X34674999Y-28149999D03*
%TD*%
D26*
%TO.C,C97*%
X62690000Y-39650000D03*
X62690000Y-38100000D03*
%TD*%
D12*
%TO.C,R4*%
X65250000Y-6912500D03*
X65250000Y-5087500D03*
%TD*%
D17*
%TO.C,C77*%
X88030000Y-108025000D03*
X88030000Y-106125000D03*
%TD*%
D26*
%TO.C,C57*%
X37650000Y-74400000D03*
X37650000Y-72850000D03*
%TD*%
D11*
%TO.C,R46*%
X59965000Y1250000D03*
X61790000Y1250000D03*
%TD*%
D13*
%TO.C,R30*%
X21340000Y-75850000D03*
X21340000Y-77675000D03*
%TD*%
D12*
%TO.C,R60*%
X70340000Y-93312500D03*
X70340000Y-91487500D03*
%TD*%
D17*
%TO.C,C68*%
X37540000Y-107900000D03*
X37540000Y-106000000D03*
%TD*%
D34*
%TO.C,C32*%
X48690000Y-112800000D03*
X45740000Y-112800000D03*
%TD*%
D35*
%TO.C,R68*%
X61050001Y-102725000D03*
X61050001Y-96800000D03*
%TD*%
D24*
%TO.C,C76*%
X72805000Y-96100000D03*
X72805000Y-98000000D03*
%TD*%
D36*
%TO.C,L23*%
X56089999Y-128399999D03*
X67389999Y-128399999D03*
%TD*%
D27*
%TO.C,C78*%
X88030000Y-100675000D03*
X88030000Y-103625000D03*
%TD*%
D30*
%TO.C,C2*%
X41250000Y-146250000D03*
X39350000Y-146250000D03*
%TD*%
D29*
%TO.C,C106*%
X54190000Y-15375000D03*
X54190000Y-23375000D03*
%TD*%
D22*
%TO.C,U6*%
X24789999Y-38949999D03*
X24789999Y-40249999D03*
X22889999Y-40249999D03*
X22889999Y-39599999D03*
X22889999Y-38949999D03*
%TD*%
D24*
%TO.C,C85*%
X47246250Y-59325000D03*
X47246250Y-61225000D03*
%TD*%
D37*
%TO.C,Q1*%
X22190000Y-210000D03*
D38*
X10615000Y25000D03*
X10615000Y-5525000D03*
X15465000Y25000D03*
X15465000Y-5525000D03*
D37*
X22190000Y-5290000D03*
%TD*%
D14*
%TO.C,U16*%
X34349999Y-70744999D03*
X34349999Y-72014999D03*
X34349999Y-73284999D03*
X34349999Y-74554999D03*
X28949999Y-74554999D03*
X28949999Y-73284999D03*
X28949999Y-72014999D03*
X28949999Y-70744999D03*
D15*
X31649999Y-72649999D03*
%TD*%
D17*
%TO.C,C45*%
X87489999Y-34025000D03*
X87489999Y-32125000D03*
%TD*%
D25*
%TO.C,R13*%
X60300000Y-144000000D03*
X58475000Y-144000000D03*
%TD*%
D27*
%TO.C,C46*%
X87490000Y-26675000D03*
X87490000Y-29625000D03*
%TD*%
D16*
%TO.C,C54*%
X22150000Y-66575000D03*
X22150000Y-63625000D03*
%TD*%
D39*
%TO.C,D3*%
X78665000Y14416668D03*
X80540000Y14416668D03*
%TD*%
D13*
%TO.C,R48*%
X34250000Y-39587500D03*
X34250000Y-41412500D03*
%TD*%
D40*
%TO.C,U5*%
X93970000Y-126525000D03*
X95240000Y-126525000D03*
X96510000Y-126525000D03*
X97780000Y-126525000D03*
X97780000Y-131475000D03*
X96510000Y-131475000D03*
X95240000Y-131475000D03*
X93970000Y-131475000D03*
%TD*%
D12*
%TO.C,R50*%
X75250000Y-16662500D03*
X75250000Y-14837500D03*
%TD*%
%TO.C,R33*%
X89240000Y-91312500D03*
X89240000Y-89487500D03*
%TD*%
D13*
%TO.C,R70*%
X52740000Y15815000D03*
X52740000Y13990000D03*
%TD*%
D17*
%TO.C,C61*%
X87890000Y-71025000D03*
X87890000Y-69125000D03*
%TD*%
D11*
%TO.C,R52*%
X71587500Y-16750000D03*
X73412500Y-16750000D03*
%TD*%
D27*
%TO.C,C63*%
X84890000Y-63650000D03*
X84890000Y-66600000D03*
%TD*%
D11*
%TO.C,R53*%
X82627500Y-50750000D03*
X84452500Y-50750000D03*
%TD*%
D16*
%TO.C,C39*%
X22150000Y-29575000D03*
X22150000Y-26625000D03*
%TD*%
D13*
%TO.C,R28*%
X21040000Y-38250000D03*
X21040000Y-40075000D03*
%TD*%
%TO.C,R63*%
X59540000Y-41837500D03*
X59540000Y-43662500D03*
%TD*%
D36*
%TO.C,L22*%
X37089999Y-128399999D03*
X48389999Y-128399999D03*
%TD*%
D25*
%TO.C,R5*%
X28662500Y-39750000D03*
X26837500Y-39750000D03*
%TD*%
%TO.C,R17*%
X95825000Y-134500000D03*
X94000000Y-134500000D03*
%TD*%
D23*
%TO.C,D14*%
X51915000Y-79100000D03*
X50040000Y-79100000D03*
%TD*%
D24*
%TO.C,C38*%
X22150000Y-22225000D03*
X22150000Y-24125000D03*
%TD*%
D32*
%TO.C,L16*%
X28624999Y-65149999D03*
X34674999Y-65149999D03*
%TD*%
D41*
%TO.C,D17*%
X44140000Y-119800000D03*
X44140000Y-115800000D03*
%TD*%
D42*
%TO.C,U3*%
X65525000Y-148450000D03*
X65525000Y-147800000D03*
X65525000Y-147150000D03*
X65525000Y-146500000D03*
X65525000Y-145850000D03*
X65525000Y-145200000D03*
X65525000Y-144550000D03*
X71250000Y-144550000D03*
X71250000Y-145200000D03*
X71250000Y-145850000D03*
X71250000Y-146500000D03*
X71250000Y-147150000D03*
X71250000Y-147800000D03*
X71250000Y-148450000D03*
D43*
X67637500Y-145725000D03*
X67637500Y-147275000D03*
X69137500Y-145725000D03*
X69137500Y-147275000D03*
%TD*%
D21*
%TO.C,D9*%
X93040000Y-11062500D03*
X93040000Y-12937500D03*
%TD*%
D11*
%TO.C,R21*%
X80977500Y-16500001D03*
X82802500Y-16500001D03*
%TD*%
D34*
%TO.C,C33*%
X64090001Y-112562500D03*
X61140001Y-112562500D03*
%TD*%
D14*
%TO.C,U21*%
X59389999Y-35994999D03*
X59389999Y-37264999D03*
X59389999Y-38534999D03*
X59389999Y-39804999D03*
X53989999Y-39804999D03*
X53989999Y-38534999D03*
X53989999Y-37264999D03*
X53989999Y-35994999D03*
D15*
X56689999Y-37899999D03*
%TD*%
D21*
%TO.C,D13*%
X92940000Y-85212500D03*
X92940000Y-87087500D03*
%TD*%
D25*
%TO.C,R49*%
X38075000Y-39587500D03*
X36250000Y-39587500D03*
%TD*%
D14*
%TO.C,U18*%
X34514999Y-107494999D03*
X34514999Y-108764999D03*
X34514999Y-110034999D03*
X34514999Y-111304999D03*
X29114999Y-111304999D03*
X29114999Y-110034999D03*
X29114999Y-108764999D03*
X29114999Y-107494999D03*
D15*
X31814999Y-109399999D03*
%TD*%
D35*
%TO.C,R65*%
X65940000Y-102725000D03*
X65940000Y-96800000D03*
%TD*%
D12*
%TO.C,R29*%
X88540000Y-17125000D03*
X88540000Y-15300000D03*
%TD*%
D22*
%TO.C,U8*%
X25039999Y-75949999D03*
X25039999Y-77249999D03*
X23139999Y-77249999D03*
X23139999Y-76599999D03*
X23139999Y-75949999D03*
%TD*%
D32*
%TO.C,L21*%
X53664999Y-30399999D03*
X59714999Y-30399999D03*
%TD*%
D16*
%TO.C,C74*%
X87680000Y-98250000D03*
X87680000Y-95300000D03*
%TD*%
D24*
%TO.C,C60*%
X72665000Y-59100000D03*
X72665000Y-61000000D03*
%TD*%
D29*
%TO.C,C105*%
X54246250Y-50225000D03*
X54246250Y-58225000D03*
%TD*%
D44*
%TO.C,U14*%
X50502500Y14350000D03*
X50502500Y12450000D03*
X48227500Y12450000D03*
X48227500Y13400000D03*
X48227500Y14350000D03*
%TD*%
D24*
%TO.C,C44*%
X72265000Y-22099999D03*
X72265000Y-23999999D03*
%TD*%
D42*
%TO.C,U2*%
X46525000Y-148450000D03*
X46525000Y-147800000D03*
X46525000Y-147150000D03*
X46525000Y-146500000D03*
X46525000Y-145850000D03*
X46525000Y-145200000D03*
X46525000Y-144550000D03*
X52250000Y-144550000D03*
X52250000Y-145200000D03*
X52250000Y-145850000D03*
X52250000Y-146500000D03*
X52250000Y-147150000D03*
X52250000Y-147800000D03*
X52250000Y-148450000D03*
D43*
X48637500Y-145725000D03*
X48637500Y-147275000D03*
X50137500Y-145725000D03*
X50137500Y-147275000D03*
%TD*%
D25*
%TO.C,R18*%
X95787500Y-123500000D03*
X93962500Y-123500000D03*
%TD*%
D14*
%TO.C,U4*%
X34349999Y-33744999D03*
X34349999Y-35014999D03*
X34349999Y-36284999D03*
X34349999Y-37554999D03*
X28949999Y-37554999D03*
X28949999Y-36284999D03*
X28949999Y-35014999D03*
X28949999Y-33744999D03*
D15*
X31649999Y-35649999D03*
%TD*%
D13*
%TO.C,R61*%
X59290000Y-76687500D03*
X59290000Y-78512500D03*
%TD*%
D22*
%TO.C,U10*%
X24689999Y-112699999D03*
X24689999Y-113999999D03*
X22789999Y-113999999D03*
X22789999Y-113349999D03*
X22789999Y-112699999D03*
%TD*%
D20*
%TO.C,D8*%
X72387500Y-140500000D03*
X68387500Y-140500000D03*
%TD*%
D24*
%TO.C,C6*%
X46387500Y-139550000D03*
X46387500Y-141450000D03*
%TD*%
D16*
%TO.C,C71*%
X25315000Y-103350000D03*
X25315000Y-100400000D03*
%TD*%
D17*
%TO.C,C92*%
X62415000Y-36400000D03*
X62415000Y-34500000D03*
%TD*%
D11*
%TO.C,R26*%
X50040000Y-76850000D03*
X51865000Y-76850000D03*
%TD*%
D24*
%TO.C,C93*%
X47190000Y-24475000D03*
X47190000Y-26375000D03*
%TD*%
D11*
%TO.C,R47*%
X90915000Y-137900000D03*
X92740000Y-137900000D03*
%TD*%
D26*
%TO.C,C35*%
X37650000Y-37400000D03*
X37650000Y-35850000D03*
%TD*%
D14*
%TO.C,U20*%
X59446249Y-70844999D03*
X59446249Y-72114999D03*
X59446249Y-73384999D03*
X59446249Y-74654999D03*
X54046249Y-74654999D03*
X54046249Y-73384999D03*
X54046249Y-72114999D03*
X54046249Y-70844999D03*
D15*
X56746249Y-72749999D03*
%TD*%
D41*
%TO.C,D16*%
X59540001Y-119562500D03*
X59540001Y-115562500D03*
%TD*%
D35*
%TO.C,R66*%
X50540000Y-102962500D03*
X50540000Y-97037500D03*
%TD*%
D28*
%TO.C,U13*%
X47639999Y-115614999D03*
X50639999Y-115614999D03*
X50639999Y-118914999D03*
X47639999Y-118914999D03*
%TD*%
D17*
%TO.C,C43*%
X84140000Y-23200000D03*
X84140000Y-21300000D03*
%TD*%
D25*
%TO.C,R24*%
X28827500Y-113500000D03*
X27002500Y-113500000D03*
%TD*%
%TO.C,R10*%
X41212500Y-148500000D03*
X39387500Y-148500000D03*
%TD*%
D29*
%TO.C,C99*%
X29150000Y-13125000D03*
X29150000Y-21125000D03*
%TD*%
D16*
%TO.C,C95*%
X50190000Y-31850000D03*
X50190000Y-28900000D03*
%TD*%
D23*
%TO.C,D4*%
X101875000Y-132000000D03*
X100000000Y-132000000D03*
%TD*%
D11*
%TO.C,R7*%
X75167500Y14416668D03*
X76992500Y14416668D03*
%TD*%
D27*
%TO.C,C62*%
X87890000Y-63675000D03*
X87890000Y-66625000D03*
%TD*%
D30*
%TO.C,C5*%
X60337500Y-146250000D03*
X58437500Y-146250000D03*
%TD*%
D14*
%TO.C,U15*%
X75289999Y-22504999D03*
X75289999Y-21234999D03*
X75289999Y-19964999D03*
X75289999Y-18694999D03*
X80689999Y-18694999D03*
X80689999Y-19964999D03*
X80689999Y-21234999D03*
X80689999Y-22504999D03*
D15*
X77989999Y-20599999D03*
%TD*%
D45*
%TO.C,R51*%
X45952500Y18840000D03*
X51877500Y18840000D03*
%TD*%
D39*
%TO.C,D2*%
X78665000Y17833334D03*
X80540000Y17833334D03*
%TD*%
D46*
%TO.C,D5*%
X78815000Y11000000D03*
X80390000Y11000000D03*
%TD*%
D42*
%TO.C,U1*%
X27525000Y-148450000D03*
X27525000Y-147800000D03*
X27525000Y-147150000D03*
X27525000Y-146500000D03*
X27525000Y-145850000D03*
X27525000Y-145200000D03*
X27525000Y-144550000D03*
X33250000Y-144550000D03*
X33250000Y-145200000D03*
X33250000Y-145850000D03*
X33250000Y-146500000D03*
X33250000Y-147150000D03*
X33250000Y-147800000D03*
X33250000Y-148450000D03*
D43*
X29637500Y-145725000D03*
X29637500Y-147275000D03*
X31137500Y-145725000D03*
X31137500Y-147275000D03*
%TD*%
D13*
%TO.C,R32*%
X20990000Y-112687500D03*
X20990000Y-114512500D03*
%TD*%
D27*
%TO.C,C37*%
X22500000Y-32000000D03*
X22500000Y-34950000D03*
%TD*%
D24*
%TO.C,C83*%
X50596250Y-70150000D03*
X50596250Y-72050000D03*
%TD*%
D33*
%TO.C,C49*%
X71990000Y-18850000D03*
X71990000Y-20400000D03*
%TD*%
D30*
%TO.C,C8*%
X79337500Y-146250000D03*
X77437500Y-146250000D03*
%TD*%
D16*
%TO.C,C87*%
X50246250Y-66700000D03*
X50246250Y-63750000D03*
%TD*%
D25*
%TO.C,R42*%
X90412500Y-1250000D03*
X88587500Y-1250000D03*
%TD*%
D32*
%TO.C,L18*%
X28789999Y-101899999D03*
X34839999Y-101899999D03*
%TD*%
D25*
%TO.C,R64*%
X63452500Y-41750000D03*
X61627500Y-41750000D03*
%TD*%
D33*
%TO.C,C81*%
X72530000Y-92850000D03*
X72530000Y-94400000D03*
%TD*%
D18*
%TO.C,C104*%
X81030000Y-117125000D03*
X81030000Y-109125000D03*
%TD*%
D16*
%TO.C,C40*%
X25150000Y-29600000D03*
X25150000Y-26650000D03*
%TD*%
D32*
%TO.C,L20*%
X53721249Y-65249999D03*
X59771249Y-65249999D03*
%TD*%
D27*
%TO.C,C79*%
X85030000Y-100650000D03*
X85030000Y-103600000D03*
%TD*%
D11*
%TO.C,R44*%
X88587500Y-3250000D03*
X90412500Y-3250000D03*
%TD*%
D30*
%TO.C,C14*%
X87690000Y-55900000D03*
X85790000Y-55900000D03*
%TD*%
D25*
%TO.C,R19*%
X99787500Y-123500000D03*
X97962500Y-123500000D03*
%TD*%
D32*
%TO.C,L15*%
X81014999Y-28099999D03*
X74964999Y-28099999D03*
%TD*%
D47*
%TO.C,C98*%
X52290000Y11540000D03*
X52290000Y12500000D03*
%TD*%
D24*
%TO.C,C67*%
X25665000Y-106800000D03*
X25665000Y-108700000D03*
%TD*%
D12*
%TO.C,R3*%
X80500000Y-6912500D03*
X80500000Y-5087500D03*
%TD*%
D24*
%TO.C,C91*%
X50540000Y-35300000D03*
X50540000Y-37200000D03*
%TD*%
D25*
%TO.C,R15*%
X79300000Y-144000000D03*
X77475000Y-144000000D03*
%TD*%
%TO.C,R57*%
X28702500Y-115750000D03*
X26877500Y-115750000D03*
%TD*%
D31*
%TO.C,C15*%
X22740000Y-110850000D03*
X24640000Y-110850000D03*
%TD*%
D13*
%TO.C,R56*%
X40040000Y-73425000D03*
X40040000Y-75250000D03*
%TD*%
D32*
%TO.C,L17*%
X81414999Y-65099999D03*
X75364999Y-65099999D03*
%TD*%
D19*
%TO.C,D1*%
X17250000Y-44937500D03*
X17250000Y-43062500D03*
%TD*%
D16*
%TO.C,C70*%
X22315000Y-103325000D03*
X22315000Y-100375000D03*
%TD*%
D17*
%TO.C,C75*%
X84680000Y-97200000D03*
X84680000Y-95300000D03*
%TD*%
D29*
%TO.C,C103*%
X29315000Y-86875000D03*
X29315000Y-94875000D03*
%TD*%
D11*
%TO.C,R9*%
X75167500Y11000000D03*
X76992500Y11000000D03*
%TD*%
D24*
%TO.C,C34*%
X25500000Y-33050000D03*
X25500000Y-34950000D03*
%TD*%
D16*
%TO.C,C55*%
X25150000Y-66600000D03*
X25150000Y-63650000D03*
%TD*%
D35*
%TO.C,R67*%
X45650000Y-102962500D03*
X45650000Y-97037500D03*
%TD*%
D26*
%TO.C,C4*%
X37387500Y-145275000D03*
X37387500Y-143725000D03*
%TD*%
D12*
%TO.C,R31*%
X89440000Y-54062500D03*
X89440000Y-52237500D03*
%TD*%
%TO.C,R1*%
X60000000Y-6912500D03*
X60000000Y-5087500D03*
%TD*%
D11*
%TO.C,R6*%
X75167500Y17833334D03*
X76992500Y17833334D03*
%TD*%
D26*
%TO.C,C10*%
X75387500Y-145275000D03*
X75387500Y-143725000D03*
%TD*%
D11*
%TO.C,R8*%
X100050000Y-129500000D03*
X101875000Y-129500000D03*
%TD*%
D25*
%TO.C,R12*%
X60300000Y-148500000D03*
X58475000Y-148500000D03*
%TD*%
D24*
%TO.C,C9*%
X65387500Y-139550000D03*
X65387500Y-141450000D03*
%TD*%
D31*
%TO.C,C1*%
X78600000Y2750000D03*
X80500000Y2750000D03*
%TD*%
D26*
%TO.C,C73*%
X37815000Y-111150000D03*
X37815000Y-109600000D03*
%TD*%
D11*
%TO.C,R27*%
X50152500Y-42000000D03*
X51977500Y-42000000D03*
%TD*%
D12*
%TO.C,R16*%
X62500000Y-6912500D03*
X62500000Y-5087500D03*
%TD*%
M02*
